<?xml version="1.0" encoding="utf-8" standalone="no"?>
<!DOCTYPE svg PUBLIC "-//W3C//DTD SVG 1.1//EN"
  "http://www.w3.org/Graphics/SVG/1.1/DTD/svg11.dtd">
<svg xmlns:xlink="http://www.w3.org/1999/xlink" width="432pt" height="576pt" viewBox="0 0 432 576" xmlns="http://www.w3.org/2000/svg" version="1.1">
 <metadata>
  <rdf:RDF xmlns:dc="http://purl.org/dc/elements/1.1/" xmlns:cc="http://creativecommons.org/ns#" xmlns:rdf="http://www.w3.org/1999/02/22-rdf-syntax-ns#">
   <cc:Work>
    <dc:type rdf:resource="http://purl.org/dc/dcmitype/StillImage"/>
    <dc:date>2026-01-22T15:02:13.967109</dc:date>
    <dc:format>image/svg+xml</dc:format>
    <dc:creator>
     <cc:Agent>
      <dc:title>Matplotlib v3.10.8, https://matplotlib.org/</dc:title>
     </cc:Agent>
    </dc:creator>
   </cc:Work>
  </rdf:RDF>
 </metadata>
 <defs>
  <style type="text/css">*{stroke-linejoin: round; stroke-linecap: butt}</style>
 </defs>
 <g id="figure_1">
  <g id="patch_1">
   <path d="M 0 576 
L 432 576 
L 432 0 
L 0 0 
z
" style="fill: #ffffff"/>
  </g>
  <g id="axes_1">
   <g id="patch_2">
    <path d="M 43.36 171.32 
L 411.615 171.32 
L 411.615 25.44 
L 43.36 25.44 
z
" style="fill: #ffffff"/>
   </g>
   <g id="matplotlib.axis_1">
    <g id="xtick_1">
     <g id="line2d_1">
      <defs>
       <path id="me1b879d29b" d="M 0 0 
L 0 3.5 
" style="stroke: #000000; stroke-width: 0.8"/>
      </defs>
      <g>
       <use xlink:href="#me1b879d29b" x="43.36" y="171.32" style="stroke: #000000; stroke-width: 0.8"/>
      </g>
     </g>
     <g id="text_1">
      <!-- 0 -->
      <g transform="translate(40.17875 185.918438) scale(0.1 -0.1)">
       <defs>
        <path id="DejaVuSans-30" d="M 2034 4250 
Q 1547 4250 1301 3770 
Q 1056 3291 1056 2328 
Q 1056 1369 1301 889 
Q 1547 409 2034 409 
Q 2525 409 2770 889 
Q 3016 1369 3016 2328 
Q 3016 3291 2770 3770 
Q 2525 4250 2034 4250 
z
M 2034 4750 
Q 2819 4750 3233 4129 
Q 3647 3509 3647 2328 
Q 3647 1150 3233 529 
Q 2819 -91 2034 -91 
Q 1250 -91 836 529 
Q 422 1150 422 2328 
Q 422 3509 836 4129 
Q 1250 4750 2034 4750 
z
" transform="scale(0.015625)"/>
       </defs>
       <use xlink:href="#DejaVuSans-30"/>
      </g>
     </g>
    </g>
    <g id="xtick_2">
     <g id="line2d_2">
      <g>
       <use xlink:href="#me1b879d29b" x="84.277222" y="171.32" style="stroke: #000000; stroke-width: 0.8"/>
      </g>
     </g>
     <g id="text_2">
      <!-- 20 -->
      <g transform="translate(77.914722 185.918438) scale(0.1 -0.1)">
       <defs>
        <path id="DejaVuSans-32" d="M 1228 531 
L 3431 531 
L 3431 0 
L 469 0 
L 469 531 
Q 828 903 1448 1529 
Q 2069 2156 2228 2338 
Q 2531 2678 2651 2914 
Q 2772 3150 2772 3378 
Q 2772 3750 2511 3984 
Q 2250 4219 1831 4219 
Q 1534 4219 1204 4116 
Q 875 4013 500 3803 
L 500 4441 
Q 881 4594 1212 4672 
Q 1544 4750 1819 4750 
Q 2544 4750 2975 4387 
Q 3406 4025 3406 3419 
Q 3406 3131 3298 2873 
Q 3191 2616 2906 2266 
Q 2828 2175 2409 1742 
Q 1991 1309 1228 531 
z
" transform="scale(0.015625)"/>
       </defs>
       <use xlink:href="#DejaVuSans-32"/>
       <use xlink:href="#DejaVuSans-30" transform="translate(63.623047 0)"/>
      </g>
     </g>
    </g>
    <g id="xtick_3">
     <g id="line2d_3">
      <g>
       <use xlink:href="#me1b879d29b" x="125.194444" y="171.32" style="stroke: #000000; stroke-width: 0.8"/>
      </g>
     </g>
     <g id="text_3">
      <!-- 40 -->
      <g transform="translate(118.831944 185.918438) scale(0.1 -0.1)">
       <defs>
        <path id="DejaVuSans-34" d="M 2419 4116 
L 825 1625 
L 2419 1625 
L 2419 4116 
z
M 2253 4666 
L 3047 4666 
L 3047 1625 
L 3713 1625 
L 3713 1100 
L 3047 1100 
L 3047 0 
L 2419 0 
L 2419 1100 
L 313 1100 
L 313 1709 
L 2253 4666 
z
" transform="scale(0.015625)"/>
       </defs>
       <use xlink:href="#DejaVuSans-34"/>
       <use xlink:href="#DejaVuSans-30" transform="translate(63.623047 0)"/>
      </g>
     </g>
    </g>
    <g id="xtick_4">
     <g id="line2d_4">
      <g>
       <use xlink:href="#me1b879d29b" x="166.111667" y="171.32" style="stroke: #000000; stroke-width: 0.8"/>
      </g>
     </g>
     <g id="text_4">
      <!-- 60 -->
      <g transform="translate(159.749167 185.918438) scale(0.1 -0.1)">
       <defs>
        <path id="DejaVuSans-36" d="M 2113 2584 
Q 1688 2584 1439 2293 
Q 1191 2003 1191 1497 
Q 1191 994 1439 701 
Q 1688 409 2113 409 
Q 2538 409 2786 701 
Q 3034 994 3034 1497 
Q 3034 2003 2786 2293 
Q 2538 2584 2113 2584 
z
M 3366 4563 
L 3366 3988 
Q 3128 4100 2886 4159 
Q 2644 4219 2406 4219 
Q 1781 4219 1451 3797 
Q 1122 3375 1075 2522 
Q 1259 2794 1537 2939 
Q 1816 3084 2150 3084 
Q 2853 3084 3261 2657 
Q 3669 2231 3669 1497 
Q 3669 778 3244 343 
Q 2819 -91 2113 -91 
Q 1303 -91 875 529 
Q 447 1150 447 2328 
Q 447 3434 972 4092 
Q 1497 4750 2381 4750 
Q 2619 4750 2861 4703 
Q 3103 4656 3366 4563 
z
" transform="scale(0.015625)"/>
       </defs>
       <use xlink:href="#DejaVuSans-36"/>
       <use xlink:href="#DejaVuSans-30" transform="translate(63.623047 0)"/>
      </g>
     </g>
    </g>
    <g id="xtick_5">
     <g id="line2d_5">
      <g>
       <use xlink:href="#me1b879d29b" x="207.028889" y="171.32" style="stroke: #000000; stroke-width: 0.8"/>
      </g>
     </g>
     <g id="text_5">
      <!-- 80 -->
      <g transform="translate(200.666389 185.918438) scale(0.1 -0.1)">
       <defs>
        <path id="DejaVuSans-38" d="M 2034 2216 
Q 1584 2216 1326 1975 
Q 1069 1734 1069 1313 
Q 1069 891 1326 650 
Q 1584 409 2034 409 
Q 2484 409 2743 651 
Q 3003 894 3003 1313 
Q 3003 1734 2745 1975 
Q 2488 2216 2034 2216 
z
M 1403 2484 
Q 997 2584 770 2862 
Q 544 3141 544 3541 
Q 544 4100 942 4425 
Q 1341 4750 2034 4750 
Q 2731 4750 3128 4425 
Q 3525 4100 3525 3541 
Q 3525 3141 3298 2862 
Q 3072 2584 2669 2484 
Q 3125 2378 3379 2068 
Q 3634 1759 3634 1313 
Q 3634 634 3220 271 
Q 2806 -91 2034 -91 
Q 1263 -91 848 271 
Q 434 634 434 1313 
Q 434 1759 690 2068 
Q 947 2378 1403 2484 
z
M 1172 3481 
Q 1172 3119 1398 2916 
Q 1625 2713 2034 2713 
Q 2441 2713 2670 2916 
Q 2900 3119 2900 3481 
Q 2900 3844 2670 4047 
Q 2441 4250 2034 4250 
Q 1625 4250 1398 4047 
Q 1172 3844 1172 3481 
z
" transform="scale(0.015625)"/>
       </defs>
       <use xlink:href="#DejaVuSans-38"/>
       <use xlink:href="#DejaVuSans-30" transform="translate(63.623047 0)"/>
      </g>
     </g>
    </g>
    <g id="xtick_6">
     <g id="line2d_6">
      <g>
       <use xlink:href="#me1b879d29b" x="247.946111" y="171.32" style="stroke: #000000; stroke-width: 0.8"/>
      </g>
     </g>
     <g id="text_6">
      <!-- 100 -->
      <g transform="translate(238.402361 185.918438) scale(0.1 -0.1)">
       <defs>
        <path id="DejaVuSans-31" d="M 794 531 
L 1825 531 
L 1825 4091 
L 703 3866 
L 703 4441 
L 1819 4666 
L 2450 4666 
L 2450 531 
L 3481 531 
L 3481 0 
L 794 0 
L 794 531 
z
" transform="scale(0.015625)"/>
       </defs>
       <use xlink:href="#DejaVuSans-31"/>
       <use xlink:href="#DejaVuSans-30" transform="translate(63.623047 0)"/>
       <use xlink:href="#DejaVuSans-30" transform="translate(127.246094 0)"/>
      </g>
     </g>
    </g>
    <g id="xtick_7">
     <g id="line2d_7">
      <g>
       <use xlink:href="#me1b879d29b" x="288.863333" y="171.32" style="stroke: #000000; stroke-width: 0.8"/>
      </g>
     </g>
     <g id="text_7">
      <!-- 120 -->
      <g transform="translate(279.319583 185.918438) scale(0.1 -0.1)">
       <use xlink:href="#DejaVuSans-31"/>
       <use xlink:href="#DejaVuSans-32" transform="translate(63.623047 0)"/>
       <use xlink:href="#DejaVuSans-30" transform="translate(127.246094 0)"/>
      </g>
     </g>
    </g>
    <g id="xtick_8">
     <g id="line2d_8">
      <g>
       <use xlink:href="#me1b879d29b" x="329.780556" y="171.32" style="stroke: #000000; stroke-width: 0.8"/>
      </g>
     </g>
     <g id="text_8">
      <!-- 140 -->
      <g transform="translate(320.236806 185.918438) scale(0.1 -0.1)">
       <use xlink:href="#DejaVuSans-31"/>
       <use xlink:href="#DejaVuSans-34" transform="translate(63.623047 0)"/>
       <use xlink:href="#DejaVuSans-30" transform="translate(127.246094 0)"/>
      </g>
     </g>
    </g>
    <g id="xtick_9">
     <g id="line2d_9">
      <g>
       <use xlink:href="#me1b879d29b" x="370.697778" y="171.32" style="stroke: #000000; stroke-width: 0.8"/>
      </g>
     </g>
     <g id="text_9">
      <!-- 160 -->
      <g transform="translate(361.154028 185.918438) scale(0.1 -0.1)">
       <use xlink:href="#DejaVuSans-31"/>
       <use xlink:href="#DejaVuSans-36" transform="translate(63.623047 0)"/>
       <use xlink:href="#DejaVuSans-30" transform="translate(127.246094 0)"/>
      </g>
     </g>
    </g>
    <g id="xtick_10">
     <g id="line2d_10">
      <g>
       <use xlink:href="#me1b879d29b" x="411.615" y="171.32" style="stroke: #000000; stroke-width: 0.8"/>
      </g>
     </g>
     <g id="text_10">
      <!-- 180 -->
      <g transform="translate(402.07125 185.918438) scale(0.1 -0.1)">
       <use xlink:href="#DejaVuSans-31"/>
       <use xlink:href="#DejaVuSans-38" transform="translate(63.623047 0)"/>
       <use xlink:href="#DejaVuSans-30" transform="translate(127.246094 0)"/>
      </g>
     </g>
    </g>
   </g>
   <g id="matplotlib.axis_2">
    <g id="ytick_1">
     <g id="line2d_11">
      <defs>
       <path id="m360aced7eb" d="M 0 0 
L -3.5 0 
" style="stroke: #000000; stroke-width: 0.8"/>
      </defs>
      <g>
       <use xlink:href="#m360aced7eb" x="43.36" y="164.689091" style="stroke: #000000; stroke-width: 0.8"/>
      </g>
     </g>
     <g id="text_11">
      <!-- 0 -->
      <g transform="translate(29.9975 168.48831) scale(0.1 -0.1)">
       <use xlink:href="#DejaVuSans-30"/>
      </g>
     </g>
    </g>
    <g id="ytick_2">
     <g id="line2d_12">
      <g>
       <use xlink:href="#m360aced7eb" x="43.36" y="138.511005" style="stroke: #000000; stroke-width: 0.8"/>
      </g>
     </g>
     <g id="text_12">
      <!-- 1000 -->
      <g transform="translate(10.91 142.310224) scale(0.1 -0.1)">
       <use xlink:href="#DejaVuSans-31"/>
       <use xlink:href="#DejaVuSans-30" transform="translate(63.623047 0)"/>
       <use xlink:href="#DejaVuSans-30" transform="translate(127.246094 0)"/>
       <use xlink:href="#DejaVuSans-30" transform="translate(190.869141 0)"/>
      </g>
     </g>
    </g>
    <g id="ytick_3">
     <g id="line2d_13">
      <g>
       <use xlink:href="#m360aced7eb" x="43.36" y="112.33292" style="stroke: #000000; stroke-width: 0.8"/>
      </g>
     </g>
     <g id="text_13">
      <!-- 2000 -->
      <g transform="translate(10.91 116.132138) scale(0.1 -0.1)">
       <use xlink:href="#DejaVuSans-32"/>
       <use xlink:href="#DejaVuSans-30" transform="translate(63.623047 0)"/>
       <use xlink:href="#DejaVuSans-30" transform="translate(127.246094 0)"/>
       <use xlink:href="#DejaVuSans-30" transform="translate(190.869141 0)"/>
      </g>
     </g>
    </g>
    <g id="ytick_4">
     <g id="line2d_14">
      <g>
       <use xlink:href="#m360aced7eb" x="43.36" y="86.154834" style="stroke: #000000; stroke-width: 0.8"/>
      </g>
     </g>
     <g id="text_14">
      <!-- 3000 -->
      <g transform="translate(10.91 89.954053) scale(0.1 -0.1)">
       <defs>
        <path id="DejaVuSans-33" d="M 2597 2516 
Q 3050 2419 3304 2112 
Q 3559 1806 3559 1356 
Q 3559 666 3084 287 
Q 2609 -91 1734 -91 
Q 1441 -91 1130 -33 
Q 819 25 488 141 
L 488 750 
Q 750 597 1062 519 
Q 1375 441 1716 441 
Q 2309 441 2620 675 
Q 2931 909 2931 1356 
Q 2931 1769 2642 2001 
Q 2353 2234 1838 2234 
L 1294 2234 
L 1294 2753 
L 1863 2753 
Q 2328 2753 2575 2939 
Q 2822 3125 2822 3475 
Q 2822 3834 2567 4026 
Q 2313 4219 1838 4219 
Q 1578 4219 1281 4162 
Q 984 4106 628 3988 
L 628 4550 
Q 988 4650 1302 4700 
Q 1616 4750 1894 4750 
Q 2613 4750 3031 4423 
Q 3450 4097 3450 3541 
Q 3450 3153 3228 2886 
Q 3006 2619 2597 2516 
z
" transform="scale(0.015625)"/>
       </defs>
       <use xlink:href="#DejaVuSans-33"/>
       <use xlink:href="#DejaVuSans-30" transform="translate(63.623047 0)"/>
       <use xlink:href="#DejaVuSans-30" transform="translate(127.246094 0)"/>
       <use xlink:href="#DejaVuSans-30" transform="translate(190.869141 0)"/>
      </g>
     </g>
    </g>
    <g id="ytick_5">
     <g id="line2d_15">
      <g>
       <use xlink:href="#m360aced7eb" x="43.36" y="59.976748" style="stroke: #000000; stroke-width: 0.8"/>
      </g>
     </g>
     <g id="text_15">
      <!-- 4000 -->
      <g transform="translate(10.91 63.775967) scale(0.1 -0.1)">
       <use xlink:href="#DejaVuSans-34"/>
       <use xlink:href="#DejaVuSans-30" transform="translate(63.623047 0)"/>
       <use xlink:href="#DejaVuSans-30" transform="translate(127.246094 0)"/>
       <use xlink:href="#DejaVuSans-30" transform="translate(190.869141 0)"/>
      </g>
     </g>
    </g>
    <g id="ytick_6">
     <g id="line2d_16">
      <g>
       <use xlink:href="#m360aced7eb" x="43.36" y="33.798663" style="stroke: #000000; stroke-width: 0.8"/>
      </g>
     </g>
     <g id="text_16">
      <!-- 5000 -->
      <g transform="translate(10.91 37.597881) scale(0.1 -0.1)">
       <defs>
        <path id="DejaVuSans-35" d="M 691 4666 
L 3169 4666 
L 3169 4134 
L 1269 4134 
L 1269 2991 
Q 1406 3038 1543 3061 
Q 1681 3084 1819 3084 
Q 2600 3084 3056 2656 
Q 3513 2228 3513 1497 
Q 3513 744 3044 326 
Q 2575 -91 1722 -91 
Q 1428 -91 1123 -41 
Q 819 9 494 109 
L 494 744 
Q 775 591 1075 516 
Q 1375 441 1709 441 
Q 2250 441 2565 725 
Q 2881 1009 2881 1497 
Q 2881 1984 2565 2268 
Q 2250 2553 1709 2553 
Q 1456 2553 1204 2497 
Q 953 2441 691 2322 
L 691 4666 
z
" transform="scale(0.015625)"/>
       </defs>
       <use xlink:href="#DejaVuSans-35"/>
       <use xlink:href="#DejaVuSans-30" transform="translate(63.623047 0)"/>
       <use xlink:href="#DejaVuSans-30" transform="translate(127.246094 0)"/>
       <use xlink:href="#DejaVuSans-30" transform="translate(190.869141 0)"/>
      </g>
     </g>
    </g>
   </g>
   <g id="line2d_17">
    <path d="M 43.36 152.751884 
L 45.405861 160.788556 
L 47.451722 160.579131 
L 49.497583 160.05557 
L 51.543444 161.076515 
L 53.589306 155.919432 
L 55.635167 159.898501 
L 57.681028 160.579131 
L 59.726889 157.04509 
L 61.77275 159.322583 
L 63.818611 157.071268 
L 65.864472 152.097432 
L 67.910333 156.521528 
L 69.956194 153.144555 
L 72.002056 161.312118 
L 74.047917 160.107926 
L 76.093778 161.547721 
L 78.139639 162.51631 
L 80.1855 163.641967 
L 82.231361 153.327802 
L 84.277222 140.50054 
L 86.323083 148.275431 
L 88.368944 132.56858 
L 90.414806 158.589597 
L 92.460667 161.573899 
L 94.506528 161.390652 
L 96.552389 143.301595 
L 98.59825 164.5582 
L 100.644111 163.903748 
L 102.689972 164.42731 
L 104.735833 157.071268 
L 106.781694 164.689091 
L 108.827556 163.118406 
L 110.873417 164.348776 
L 112.919278 161.757145 
L 114.965139 161.102693 
L 119.056861 164.532022 
L 121.102722 163.982283 
L 123.148583 164.401132 
L 125.194444 163.589611 
L 127.240306 164.636735 
L 129.286167 162.411597 
L 131.332028 162.725734 
L 133.377889 164.584379 
L 135.42375 163.929926 
L 137.469611 163.903748 
L 139.515472 164.584379 
L 141.561333 163.484899 
L 143.607194 164.636735 
L 145.653056 162.51631 
L 147.698917 163.118406 
L 149.744778 164.034639 
L 151.790639 164.532022 
L 153.8365 164.191707 
L 155.882361 162.333063 
L 157.928222 163.825214 
L 159.974083 164.505844 
L 162.019944 164.505844 
L 164.065806 164.689091 
L 166.111667 162.568666 
L 168.157528 164.689091 
L 170.203389 164.584379 
L 172.24925 163.929926 
L 174.295111 164.689091 
L 176.340972 164.270242 
L 178.386833 160.814734 
L 180.432694 164.270242 
L 182.478556 163.720502 
L 184.524417 164.165529 
L 186.570278 161.914214 
L 188.616139 164.008461 
L 190.662 164.636735 
L 192.707861 159.662898 
L 194.753722 161.573899 
L 196.799583 151.050308 
L 198.845444 154.348747 
L 200.891306 163.641967 
L 202.937167 160.60531 
L 204.983028 161.96657 
L 207.028889 152.228322 
L 209.07475 164.191707 
L 211.120611 161.050337 
L 213.166472 160.029392 
L 215.212333 154.662884 
L 217.258194 158.353994 
L 219.304056 160.7362 
L 221.349917 146.076472 
L 223.395778 157.516295 
L 225.441639 155.343514 
L 227.4875 140.107868 
L 229.533361 147.306842 
L 231.579222 150.840884 
L 233.625083 153.694295 
L 237.716806 136.416758 
L 239.762667 137.856553 
L 241.808528 154.689062 
L 243.854389 138.065978 
L 245.90025 148.694281 
L 247.946111 144.636677 
L 249.991972 132.516224 
L 252.037833 144.165472 
L 254.083694 135.16021 
L 256.129556 151.70476 
L 258.175417 144.558143 
L 260.221278 148.720459 
L 262.267139 153.929898 
L 264.313 157.333049 
L 266.358861 152.647172 
L 268.404722 156.678597 
L 270.450583 154.610528 
L 272.496444 159.060802 
L 274.542306 161.730967 
L 276.588167 155.500583 
L 278.634028 158.95609 
L 280.679889 153.799007 
L 282.72575 163.74668 
L 286.817472 162.175995 
L 288.863333 156.285925 
L 290.909194 164.584379 
L 292.955056 161.338296 
L 295.000917 157.673364 
L 297.046778 158.27546 
L 299.092639 154.086966 
L 301.1385 159.977035 
L 303.184361 156.730953 
L 305.230222 161.521543 
L 307.276083 162.51631 
L 309.321944 159.191693 
L 311.367806 163.144584 
L 313.413667 158.8252 
L 315.459528 153.641939 
L 317.505389 161.364474 
L 321.597111 157.778076 
L 323.642972 161.495364 
L 325.688833 155.317336 
L 327.734694 162.6472 
L 329.780556 158.95609 
L 331.826417 157.751898 
L 333.872278 161.443008 
L 335.918139 162.594844 
L 337.964 161.573899 
L 340.009861 159.113159 
L 342.055722 160.579131 
L 344.101583 161.181227 
L 346.147444 162.306885 
L 348.193306 159.977035 
L 350.239167 161.050337 
L 354.330889 161.83568 
L 356.37675 159.898501 
L 358.422611 159.086981 
L 360.468472 158.851378 
L 362.514333 155.762364 
L 364.560194 159.950857 
L 366.606056 155.579117 
L 368.651917 156.416816 
L 370.697778 155.160268 
L 372.743639 156.155035 
L 374.7895 157.882789 
L 376.835361 156.783309 
L 378.881222 155.160268 
L 380.927083 155.867076 
L 382.972944 155.343514 
L 385.018806 152.93513 
L 387.064667 152.594815 
L 389.110528 150.788527 
L 393.20225 110.500454 
L 395.248111 32.070909 
L 397.293972 109.086837 
L 399.339833 135.605238 
L 401.385694 141.8618 
L 403.431556 150.657637 
L 405.477417 147.411554 
L 407.523278 155.579117 
L 409.569139 157.961323 
L 409.569139 157.961323 
" clip-path="url(#p5d556f7392)" style="fill: none; stroke: #ff0000; stroke-width: 1.5; stroke-linecap: square"/>
   </g>
   <g id="patch_3">
    <path d="M 43.36 171.32 
L 43.36 25.44 
" style="fill: none; stroke: #000000; stroke-width: 0.8; stroke-linejoin: miter; stroke-linecap: square"/>
   </g>
   <g id="patch_4">
    <path d="M 411.615 171.32 
L 411.615 25.44 
" style="fill: none; stroke: #000000; stroke-width: 0.8; stroke-linejoin: miter; stroke-linecap: square"/>
   </g>
   <g id="patch_5">
    <path d="M 43.36 171.32 
L 411.615 171.32 
" style="fill: none; stroke: #000000; stroke-width: 0.8; stroke-linejoin: miter; stroke-linecap: square"/>
   </g>
   <g id="patch_6">
    <path d="M 43.36 25.44 
L 411.615 25.44 
" style="fill: none; stroke: #000000; stroke-width: 0.8; stroke-linejoin: miter; stroke-linecap: square"/>
   </g>
   <g id="text_17">
    <!-- H histogram (bbox) -->
    <g transform="translate(169.41125 19.44) scale(0.12 -0.12)">
     <defs>
      <path id="DejaVuSans-48" d="M 628 4666 
L 1259 4666 
L 1259 2753 
L 3553 2753 
L 3553 4666 
L 4184 4666 
L 4184 0 
L 3553 0 
L 3553 2222 
L 1259 2222 
L 1259 0 
L 628 0 
L 628 4666 
z
" transform="scale(0.015625)"/>
      <path id="DejaVuSans-20" transform="scale(0.015625)"/>
      <path id="DejaVuSans-68" d="M 3513 2113 
L 3513 0 
L 2938 0 
L 2938 2094 
Q 2938 2591 2744 2837 
Q 2550 3084 2163 3084 
Q 1697 3084 1428 2787 
Q 1159 2491 1159 1978 
L 1159 0 
L 581 0 
L 581 4863 
L 1159 4863 
L 1159 2956 
Q 1366 3272 1645 3428 
Q 1925 3584 2291 3584 
Q 2894 3584 3203 3211 
Q 3513 2838 3513 2113 
z
" transform="scale(0.015625)"/>
      <path id="DejaVuSans-69" d="M 603 3500 
L 1178 3500 
L 1178 0 
L 603 0 
L 603 3500 
z
M 603 4863 
L 1178 4863 
L 1178 4134 
L 603 4134 
L 603 4863 
z
" transform="scale(0.015625)"/>
      <path id="DejaVuSans-73" d="M 2834 3397 
L 2834 2853 
Q 2591 2978 2328 3040 
Q 2066 3103 1784 3103 
Q 1356 3103 1142 2972 
Q 928 2841 928 2578 
Q 928 2378 1081 2264 
Q 1234 2150 1697 2047 
L 1894 2003 
Q 2506 1872 2764 1633 
Q 3022 1394 3022 966 
Q 3022 478 2636 193 
Q 2250 -91 1575 -91 
Q 1294 -91 989 -36 
Q 684 19 347 128 
L 347 722 
Q 666 556 975 473 
Q 1284 391 1588 391 
Q 1994 391 2212 530 
Q 2431 669 2431 922 
Q 2431 1156 2273 1281 
Q 2116 1406 1581 1522 
L 1381 1569 
Q 847 1681 609 1914 
Q 372 2147 372 2553 
Q 372 3047 722 3315 
Q 1072 3584 1716 3584 
Q 2034 3584 2315 3537 
Q 2597 3491 2834 3397 
z
" transform="scale(0.015625)"/>
      <path id="DejaVuSans-74" d="M 1172 4494 
L 1172 3500 
L 2356 3500 
L 2356 3053 
L 1172 3053 
L 1172 1153 
Q 1172 725 1289 603 
Q 1406 481 1766 481 
L 2356 481 
L 2356 0 
L 1766 0 
Q 1100 0 847 248 
Q 594 497 594 1153 
L 594 3053 
L 172 3053 
L 172 3500 
L 594 3500 
L 594 4494 
L 1172 4494 
z
" transform="scale(0.015625)"/>
      <path id="DejaVuSans-6f" d="M 1959 3097 
Q 1497 3097 1228 2736 
Q 959 2375 959 1747 
Q 959 1119 1226 758 
Q 1494 397 1959 397 
Q 2419 397 2687 759 
Q 2956 1122 2956 1747 
Q 2956 2369 2687 2733 
Q 2419 3097 1959 3097 
z
M 1959 3584 
Q 2709 3584 3137 3096 
Q 3566 2609 3566 1747 
Q 3566 888 3137 398 
Q 2709 -91 1959 -91 
Q 1206 -91 779 398 
Q 353 888 353 1747 
Q 353 2609 779 3096 
Q 1206 3584 1959 3584 
z
" transform="scale(0.015625)"/>
      <path id="DejaVuSans-67" d="M 2906 1791 
Q 2906 2416 2648 2759 
Q 2391 3103 1925 3103 
Q 1463 3103 1205 2759 
Q 947 2416 947 1791 
Q 947 1169 1205 825 
Q 1463 481 1925 481 
Q 2391 481 2648 825 
Q 2906 1169 2906 1791 
z
M 3481 434 
Q 3481 -459 3084 -895 
Q 2688 -1331 1869 -1331 
Q 1566 -1331 1297 -1286 
Q 1028 -1241 775 -1147 
L 775 -588 
Q 1028 -725 1275 -790 
Q 1522 -856 1778 -856 
Q 2344 -856 2625 -561 
Q 2906 -266 2906 331 
L 2906 616 
Q 2728 306 2450 153 
Q 2172 0 1784 0 
Q 1141 0 747 490 
Q 353 981 353 1791 
Q 353 2603 747 3093 
Q 1141 3584 1784 3584 
Q 2172 3584 2450 3431 
Q 2728 3278 2906 2969 
L 2906 3500 
L 3481 3500 
L 3481 434 
z
" transform="scale(0.015625)"/>
      <path id="DejaVuSans-72" d="M 2631 2963 
Q 2534 3019 2420 3045 
Q 2306 3072 2169 3072 
Q 1681 3072 1420 2755 
Q 1159 2438 1159 1844 
L 1159 0 
L 581 0 
L 581 3500 
L 1159 3500 
L 1159 2956 
Q 1341 3275 1631 3429 
Q 1922 3584 2338 3584 
Q 2397 3584 2469 3576 
Q 2541 3569 2628 3553 
L 2631 2963 
z
" transform="scale(0.015625)"/>
      <path id="DejaVuSans-61" d="M 2194 1759 
Q 1497 1759 1228 1600 
Q 959 1441 959 1056 
Q 959 750 1161 570 
Q 1363 391 1709 391 
Q 2188 391 2477 730 
Q 2766 1069 2766 1631 
L 2766 1759 
L 2194 1759 
z
M 3341 1997 
L 3341 0 
L 2766 0 
L 2766 531 
Q 2569 213 2275 61 
Q 1981 -91 1556 -91 
Q 1019 -91 701 211 
Q 384 513 384 1019 
Q 384 1609 779 1909 
Q 1175 2209 1959 2209 
L 2766 2209 
L 2766 2266 
Q 2766 2663 2505 2880 
Q 2244 3097 1772 3097 
Q 1472 3097 1187 3025 
Q 903 2953 641 2809 
L 641 3341 
Q 956 3463 1253 3523 
Q 1550 3584 1831 3584 
Q 2591 3584 2966 3190 
Q 3341 2797 3341 1997 
z
" transform="scale(0.015625)"/>
      <path id="DejaVuSans-6d" d="M 3328 2828 
Q 3544 3216 3844 3400 
Q 4144 3584 4550 3584 
Q 5097 3584 5394 3201 
Q 5691 2819 5691 2113 
L 5691 0 
L 5113 0 
L 5113 2094 
Q 5113 2597 4934 2840 
Q 4756 3084 4391 3084 
Q 3944 3084 3684 2787 
Q 3425 2491 3425 1978 
L 3425 0 
L 2847 0 
L 2847 2094 
Q 2847 2600 2669 2842 
Q 2491 3084 2119 3084 
Q 1678 3084 1418 2786 
Q 1159 2488 1159 1978 
L 1159 0 
L 581 0 
L 581 3500 
L 1159 3500 
L 1159 2956 
Q 1356 3278 1631 3431 
Q 1906 3584 2284 3584 
Q 2666 3584 2933 3390 
Q 3200 3197 3328 2828 
z
" transform="scale(0.015625)"/>
      <path id="DejaVuSans-28" d="M 1984 4856 
Q 1566 4138 1362 3434 
Q 1159 2731 1159 2009 
Q 1159 1288 1364 580 
Q 1569 -128 1984 -844 
L 1484 -844 
Q 1016 -109 783 600 
Q 550 1309 550 2009 
Q 550 2706 781 3412 
Q 1013 4119 1484 4856 
L 1984 4856 
z
" transform="scale(0.015625)"/>
      <path id="DejaVuSans-62" d="M 3116 1747 
Q 3116 2381 2855 2742 
Q 2594 3103 2138 3103 
Q 1681 3103 1420 2742 
Q 1159 2381 1159 1747 
Q 1159 1113 1420 752 
Q 1681 391 2138 391 
Q 2594 391 2855 752 
Q 3116 1113 3116 1747 
z
M 1159 2969 
Q 1341 3281 1617 3432 
Q 1894 3584 2278 3584 
Q 2916 3584 3314 3078 
Q 3713 2572 3713 1747 
Q 3713 922 3314 415 
Q 2916 -91 2278 -91 
Q 1894 -91 1617 61 
Q 1341 213 1159 525 
L 1159 0 
L 581 0 
L 581 4863 
L 1159 4863 
L 1159 2969 
z
" transform="scale(0.015625)"/>
      <path id="DejaVuSans-78" d="M 3513 3500 
L 2247 1797 
L 3578 0 
L 2900 0 
L 1881 1375 
L 863 0 
L 184 0 
L 1544 1831 
L 300 3500 
L 978 3500 
L 1906 2253 
L 2834 3500 
L 3513 3500 
z
" transform="scale(0.015625)"/>
      <path id="DejaVuSans-29" d="M 513 4856 
L 1013 4856 
Q 1481 4119 1714 3412 
Q 1947 2706 1947 2009 
Q 1947 1309 1714 600 
Q 1481 -109 1013 -844 
L 513 -844 
Q 928 -128 1133 580 
Q 1338 1288 1338 2009 
Q 1338 2731 1133 3434 
Q 928 4138 513 4856 
z
" transform="scale(0.015625)"/>
     </defs>
     <use xlink:href="#DejaVuSans-48"/>
     <use xlink:href="#DejaVuSans-20" transform="translate(75.195312 0)"/>
     <use xlink:href="#DejaVuSans-68" transform="translate(106.982422 0)"/>
     <use xlink:href="#DejaVuSans-69" transform="translate(170.361328 0)"/>
     <use xlink:href="#DejaVuSans-73" transform="translate(198.144531 0)"/>
     <use xlink:href="#DejaVuSans-74" transform="translate(250.244141 0)"/>
     <use xlink:href="#DejaVuSans-6f" transform="translate(289.453125 0)"/>
     <use xlink:href="#DejaVuSans-67" transform="translate(350.634766 0)"/>
     <use xlink:href="#DejaVuSans-72" transform="translate(414.111328 0)"/>
     <use xlink:href="#DejaVuSans-61" transform="translate(455.224609 0)"/>
     <use xlink:href="#DejaVuSans-6d" transform="translate(516.503906 0)"/>
     <use xlink:href="#DejaVuSans-20" transform="translate(613.916016 0)"/>
     <use xlink:href="#DejaVuSans-28" transform="translate(645.703125 0)"/>
     <use xlink:href="#DejaVuSans-62" transform="translate(684.716797 0)"/>
     <use xlink:href="#DejaVuSans-62" transform="translate(748.193359 0)"/>
     <use xlink:href="#DejaVuSans-6f" transform="translate(811.669922 0)"/>
     <use xlink:href="#DejaVuSans-78" transform="translate(869.726562 0)"/>
     <use xlink:href="#DejaVuSans-29" transform="translate(928.90625 0)"/>
    </g>
   </g>
  </g>
  <g id="axes_2">
   <g id="patch_7">
    <path d="M 43.36 359.72 
L 411.615 359.72 
L 411.615 213.84 
L 43.36 213.84 
z
" style="fill: #ffffff"/>
   </g>
   <g id="matplotlib.axis_3">
    <g id="xtick_11">
     <g id="line2d_18">
      <g>
       <use xlink:href="#me1b879d29b" x="43.36" y="359.72" style="stroke: #000000; stroke-width: 0.8"/>
      </g>
     </g>
     <g id="text_18">
      <!-- 0 -->
      <g transform="translate(40.17875 374.318438) scale(0.1 -0.1)">
       <use xlink:href="#DejaVuSans-30"/>
      </g>
     </g>
    </g>
    <g id="xtick_12">
     <g id="line2d_19">
      <g>
       <use xlink:href="#me1b879d29b" x="115.566863" y="359.72" style="stroke: #000000; stroke-width: 0.8"/>
      </g>
     </g>
     <g id="text_19">
      <!-- 50 -->
      <g transform="translate(109.204363 374.318438) scale(0.1 -0.1)">
       <use xlink:href="#DejaVuSans-35"/>
       <use xlink:href="#DejaVuSans-30" transform="translate(63.623047 0)"/>
      </g>
     </g>
    </g>
    <g id="xtick_13">
     <g id="line2d_20">
      <g>
       <use xlink:href="#me1b879d29b" x="187.773725" y="359.72" style="stroke: #000000; stroke-width: 0.8"/>
      </g>
     </g>
     <g id="text_20">
      <!-- 100 -->
      <g transform="translate(178.229975 374.318438) scale(0.1 -0.1)">
       <use xlink:href="#DejaVuSans-31"/>
       <use xlink:href="#DejaVuSans-30" transform="translate(63.623047 0)"/>
       <use xlink:href="#DejaVuSans-30" transform="translate(127.246094 0)"/>
      </g>
     </g>
    </g>
    <g id="xtick_14">
     <g id="line2d_21">
      <g>
       <use xlink:href="#me1b879d29b" x="259.980588" y="359.72" style="stroke: #000000; stroke-width: 0.8"/>
      </g>
     </g>
     <g id="text_21">
      <!-- 150 -->
      <g transform="translate(250.436838 374.318438) scale(0.1 -0.1)">
       <use xlink:href="#DejaVuSans-31"/>
       <use xlink:href="#DejaVuSans-35" transform="translate(63.623047 0)"/>
       <use xlink:href="#DejaVuSans-30" transform="translate(127.246094 0)"/>
      </g>
     </g>
    </g>
    <g id="xtick_15">
     <g id="line2d_22">
      <g>
       <use xlink:href="#me1b879d29b" x="332.187451" y="359.72" style="stroke: #000000; stroke-width: 0.8"/>
      </g>
     </g>
     <g id="text_22">
      <!-- 200 -->
      <g transform="translate(322.643701 374.318438) scale(0.1 -0.1)">
       <use xlink:href="#DejaVuSans-32"/>
       <use xlink:href="#DejaVuSans-30" transform="translate(63.623047 0)"/>
       <use xlink:href="#DejaVuSans-30" transform="translate(127.246094 0)"/>
      </g>
     </g>
    </g>
    <g id="xtick_16">
     <g id="line2d_23">
      <g>
       <use xlink:href="#me1b879d29b" x="404.394314" y="359.72" style="stroke: #000000; stroke-width: 0.8"/>
      </g>
     </g>
     <g id="text_23">
      <!-- 250 -->
      <g transform="translate(394.850564 374.318438) scale(0.1 -0.1)">
       <use xlink:href="#DejaVuSans-32"/>
       <use xlink:href="#DejaVuSans-35" transform="translate(63.623047 0)"/>
       <use xlink:href="#DejaVuSans-30" transform="translate(127.246094 0)"/>
      </g>
     </g>
    </g>
   </g>
   <g id="matplotlib.axis_4">
    <g id="ytick_7">
     <g id="line2d_24">
      <g>
       <use xlink:href="#m360aced7eb" x="43.36" y="353.089091" style="stroke: #000000; stroke-width: 0.8"/>
      </g>
     </g>
     <g id="text_24">
      <!-- 0 -->
      <g transform="translate(29.9975 356.88831) scale(0.1 -0.1)">
       <use xlink:href="#DejaVuSans-30"/>
      </g>
     </g>
    </g>
    <g id="ytick_8">
     <g id="line2d_25">
      <g>
       <use xlink:href="#m360aced7eb" x="43.36" y="331.802063" style="stroke: #000000; stroke-width: 0.8"/>
      </g>
     </g>
     <g id="text_25">
      <!-- 200 -->
      <g transform="translate(17.2725 335.601282) scale(0.1 -0.1)">
       <use xlink:href="#DejaVuSans-32"/>
       <use xlink:href="#DejaVuSans-30" transform="translate(63.623047 0)"/>
       <use xlink:href="#DejaVuSans-30" transform="translate(127.246094 0)"/>
      </g>
     </g>
    </g>
    <g id="ytick_9">
     <g id="line2d_26">
      <g>
       <use xlink:href="#m360aced7eb" x="43.36" y="310.515036" style="stroke: #000000; stroke-width: 0.8"/>
      </g>
     </g>
     <g id="text_26">
      <!-- 400 -->
      <g transform="translate(17.2725 314.314255) scale(0.1 -0.1)">
       <use xlink:href="#DejaVuSans-34"/>
       <use xlink:href="#DejaVuSans-30" transform="translate(63.623047 0)"/>
       <use xlink:href="#DejaVuSans-30" transform="translate(127.246094 0)"/>
      </g>
     </g>
    </g>
    <g id="ytick_10">
     <g id="line2d_27">
      <g>
       <use xlink:href="#m360aced7eb" x="43.36" y="289.228008" style="stroke: #000000; stroke-width: 0.8"/>
      </g>
     </g>
     <g id="text_27">
      <!-- 600 -->
      <g transform="translate(17.2725 293.027227) scale(0.1 -0.1)">
       <use xlink:href="#DejaVuSans-36"/>
       <use xlink:href="#DejaVuSans-30" transform="translate(63.623047 0)"/>
       <use xlink:href="#DejaVuSans-30" transform="translate(127.246094 0)"/>
      </g>
     </g>
    </g>
    <g id="ytick_11">
     <g id="line2d_28">
      <g>
       <use xlink:href="#m360aced7eb" x="43.36" y="267.940981" style="stroke: #000000; stroke-width: 0.8"/>
      </g>
     </g>
     <g id="text_28">
      <!-- 800 -->
      <g transform="translate(17.2725 271.740199) scale(0.1 -0.1)">
       <use xlink:href="#DejaVuSans-38"/>
       <use xlink:href="#DejaVuSans-30" transform="translate(63.623047 0)"/>
       <use xlink:href="#DejaVuSans-30" transform="translate(127.246094 0)"/>
      </g>
     </g>
    </g>
    <g id="ytick_12">
     <g id="line2d_29">
      <g>
       <use xlink:href="#m360aced7eb" x="43.36" y="246.653953" style="stroke: #000000; stroke-width: 0.8"/>
      </g>
     </g>
     <g id="text_29">
      <!-- 1000 -->
      <g transform="translate(10.91 250.453172) scale(0.1 -0.1)">
       <use xlink:href="#DejaVuSans-31"/>
       <use xlink:href="#DejaVuSans-30" transform="translate(63.623047 0)"/>
       <use xlink:href="#DejaVuSans-30" transform="translate(127.246094 0)"/>
       <use xlink:href="#DejaVuSans-30" transform="translate(190.869141 0)"/>
      </g>
     </g>
    </g>
    <g id="ytick_13">
     <g id="line2d_30">
      <g>
       <use xlink:href="#m360aced7eb" x="43.36" y="225.366925" style="stroke: #000000; stroke-width: 0.8"/>
      </g>
     </g>
     <g id="text_30">
      <!-- 1200 -->
      <g transform="translate(10.91 229.166144) scale(0.1 -0.1)">
       <use xlink:href="#DejaVuSans-31"/>
       <use xlink:href="#DejaVuSans-32" transform="translate(63.623047 0)"/>
       <use xlink:href="#DejaVuSans-30" transform="translate(127.246094 0)"/>
       <use xlink:href="#DejaVuSans-30" transform="translate(190.869141 0)"/>
      </g>
     </g>
    </g>
   </g>
   <g id="line2d_31">
    <path d="M 43.36 342.445577 
L 44.804137 352.66335 
L 46.248275 348.938121 
L 47.692412 349.363861 
L 49.136549 347.980204 
L 50.580686 345.319326 
L 52.024824 331.695628 
L 53.468961 327.438223 
L 54.913098 330.418407 
L 56.357235 331.908498 
L 57.801373 327.118917 
L 59.24551 325.30952 
L 60.689647 317.43332 
L 62.133784 318.710541 
L 63.577922 309.131379 
L 65.022059 316.794709 
L 66.466196 240.267845 
L 67.910333 290.93097 
L 69.354471 282.62903 
L 70.798608 308.067028 
L 72.242745 275.285005 
L 73.686882 308.492768 
L 75.13102 293.591849 
L 76.575157 284.225557 
L 78.019294 296.997773 
L 79.463431 284.651297 
L 80.907569 278.158754 
L 82.351706 220.470909 
L 83.795843 222.493177 
L 85.23998 293.166108 
L 86.684118 300.297263 
L 88.128255 291.037406 
L 89.572392 292.633933 
L 91.016529 290.29236 
L 92.460667 307.534852 
L 93.904804 309.131379 
L 95.348941 300.829438 
L 96.793078 315.517487 
L 98.237216 306.364065 
L 99.681353 312.111563 
L 101.12549 310.621471 
L 102.569627 302.213095 
L 104.013765 309.876425 
L 105.457902 295.081941 
L 106.902039 298.16856 
L 108.346176 292.208192 
L 109.790314 280.181021 
L 111.234451 264.960797 
L 112.678588 270.708294 
L 114.122725 293.378979 
L 115.566863 307.321982 
L 117.011 299.977957 
L 118.455137 306.04476 
L 119.899275 297.849254 
L 121.343412 303.916057 
L 122.787549 305.725455 
L 124.231686 307.215546 
L 125.675824 308.279898 
L 127.119961 312.005128 
L 128.564098 310.408601 
L 130.008235 313.388784 
L 131.452373 306.789806 
L 132.89651 313.282349 
L 134.340647 316.688274 
L 135.784784 300.403698 
L 137.228922 310.515036 
L 138.673059 309.98286 
L 140.117196 310.621471 
L 141.561333 312.750174 
L 143.005471 310.621471 
L 144.449608 304.022492 
L 145.893745 309.237814 
L 147.337882 316.156098 
L 148.78202 311.153647 
L 150.226157 310.621471 
L 151.670294 318.071931 
L 153.114431 322.010031 
L 154.558569 320.945679 
L 156.002706 324.138733 
L 157.446843 330.311971 
L 158.89098 325.948131 
L 160.335118 322.435771 
L 161.779255 327.012482 
L 163.223392 324.990215 
L 164.667529 329.779796 
L 166.111667 319.881328 
L 167.555804 329.992666 
L 168.999941 328.289704 
L 170.444078 326.267436 
L 171.888216 329.992666 
L 173.332353 331.163453 
L 174.77649 332.121369 
L 176.220627 334.995117 
L 177.664765 333.611461 
L 179.108902 332.440674 
L 180.553039 333.18572 
L 181.997176 332.334239 
L 183.441314 335.846599 
L 184.885451 334.782247 
L 186.329588 336.378774 
L 187.773725 334.462942 
L 189.217863 337.017385 
L 190.662 338.507477 
L 192.106137 336.91095 
L 193.550275 340.84905 
L 194.994412 341.806966 
L 196.438549 340.84905 
L 197.882686 344.042104 
L 199.326824 343.935669 
L 200.770961 341.168355 
L 202.215098 346.702983 
L 203.659235 344.893585 
L 205.103373 343.829234 
L 206.54751 344.57428 
L 207.991647 343.829234 
L 209.435784 346.490112 
L 210.879922 345.745066 
L 212.324059 343.722799 
L 213.768196 344.254974 
L 215.212333 344.467845 
L 216.656471 344.467845 
L 218.100608 344.042104 
L 219.544745 345.00002 
L 220.988882 344.78715 
L 222.43302 344.042104 
L 223.877157 345.319326 
L 225.321294 347.128723 
L 226.765431 345.745066 
L 228.209569 342.232707 
L 229.653706 347.022288 
L 231.097843 346.702983 
L 232.54198 345.532196 
L 233.986118 345.851502 
L 235.430255 345.851502 
L 238.318529 342.977753 
L 239.762667 345.638631 
L 241.206804 343.722799 
L 242.650941 344.254974 
L 244.095078 345.851502 
L 245.539216 341.806966 
L 246.983353 342.339142 
L 249.871627 340.742615 
L 251.315765 343.297058 
L 254.204039 341.594096 
L 255.648176 342.445577 
L 257.092314 338.081736 
L 258.536451 339.465393 
L 259.980588 337.549561 
L 261.424725 338.720347 
L 262.868863 340.84905 
L 264.313 331.908498 
L 265.757137 338.933218 
L 267.201275 335.420858 
L 268.645412 333.611461 
L 270.089549 337.017385 
L 271.533686 334.888682 
L 274.421961 334.356507 
L 275.866098 333.39859 
L 277.310235 331.589193 
L 278.754373 331.057017 
L 281.642647 332.440674 
L 283.086784 328.183269 
L 284.530922 332.014934 
L 285.975059 333.292155 
L 287.419196 331.163453 
L 288.863333 335.314423 
L 290.307471 332.334239 
L 291.751608 334.995117 
L 293.195745 331.589193 
L 294.639882 331.269888 
L 296.08402 333.505026 
L 297.528157 333.079285 
L 298.972294 329.779796 
L 300.416431 339.784699 
L 301.860569 339.146088 
L 303.304706 343.616364 
L 304.748843 341.274791 
L 306.19298 339.891134 
L 307.637118 345.319326 
L 309.081255 342.764883 
L 310.525392 344.148539 
L 311.969529 342.339142 
L 313.413667 343.722799 
L 314.857804 342.126272 
L 316.301941 344.148539 
L 317.746078 345.425761 
L 319.190216 339.358958 
L 320.634353 346.915853 
L 322.07849 344.254974 
L 323.522627 345.745066 
L 326.410902 343.509928 
L 327.855039 345.212891 
L 330.743314 346.170807 
L 332.187451 344.57428 
L 333.631588 346.064372 
L 335.075725 346.170807 
L 336.519863 345.319326 
L 337.964 342.764883 
L 339.408137 345.851502 
L 340.852275 342.232707 
L 342.296412 343.722799 
L 343.740549 341.806966 
L 345.184686 337.230255 
L 346.628824 341.700531 
L 348.072961 336.165904 
L 349.517098 339.252523 
L 350.961235 340.63618 
L 352.405373 338.401042 
L 353.84951 346.702983 
L 355.293647 339.358958 
L 356.737784 343.403493 
L 358.181922 346.064372 
L 359.626059 338.933218 
L 361.070196 344.042104 
L 362.514333 344.148539 
L 363.958471 346.064372 
L 365.402608 343.722799 
L 366.846745 345.425761 
L 368.290882 345.106456 
L 369.73502 346.064372 
L 371.179157 343.509928 
L 372.623294 346.064372 
L 374.067431 347.235158 
L 375.511569 344.36141 
L 376.955706 345.00002 
L 378.399843 345.957937 
L 379.84398 345.532196 
L 381.288118 346.170807 
L 382.732255 343.509928 
L 384.176392 344.680715 
L 385.620529 344.254974 
L 387.064667 340.210439 
L 388.508804 339.891134 
L 389.952941 342.126272 
L 391.397078 337.336691 
L 392.841216 341.06192 
L 394.285353 337.12382 
L 395.72949 335.953034 
L 397.173627 341.700531 
L 400.061902 341.381226 
L 401.506039 336.591645 
L 402.950176 343.509928 
L 404.394314 349.789602 
L 405.838451 346.064372 
L 407.282588 335.527293 
L 408.726725 352.982656 
L 410.170863 353.089091 
L 411.615 234.733218 
L 411.615 234.733218 
" clip-path="url(#p0c1231c175)" style="fill: none; stroke: #008000; stroke-width: 1.5; stroke-linecap: square"/>
   </g>
   <g id="patch_8">
    <path d="M 43.36 359.72 
L 43.36 213.84 
" style="fill: none; stroke: #000000; stroke-width: 0.8; stroke-linejoin: miter; stroke-linecap: square"/>
   </g>
   <g id="patch_9">
    <path d="M 411.615 359.72 
L 411.615 213.84 
" style="fill: none; stroke: #000000; stroke-width: 0.8; stroke-linejoin: miter; stroke-linecap: square"/>
   </g>
   <g id="patch_10">
    <path d="M 43.36 359.72 
L 411.615 359.72 
" style="fill: none; stroke: #000000; stroke-width: 0.8; stroke-linejoin: miter; stroke-linecap: square"/>
   </g>
   <g id="patch_11">
    <path d="M 43.36 213.84 
L 411.615 213.84 
" style="fill: none; stroke: #000000; stroke-width: 0.8; stroke-linejoin: miter; stroke-linecap: square"/>
   </g>
   <g id="text_31">
    <!-- S histogram (bbox) -->
    <g transform="translate(170.114375 207.84) scale(0.12 -0.12)">
     <defs>
      <path id="DejaVuSans-53" d="M 3425 4513 
L 3425 3897 
Q 3066 4069 2747 4153 
Q 2428 4238 2131 4238 
Q 1616 4238 1336 4038 
Q 1056 3838 1056 3469 
Q 1056 3159 1242 3001 
Q 1428 2844 1947 2747 
L 2328 2669 
Q 3034 2534 3370 2195 
Q 3706 1856 3706 1288 
Q 3706 609 3251 259 
Q 2797 -91 1919 -91 
Q 1588 -91 1214 -16 
Q 841 59 441 206 
L 441 856 
Q 825 641 1194 531 
Q 1563 422 1919 422 
Q 2459 422 2753 634 
Q 3047 847 3047 1241 
Q 3047 1584 2836 1778 
Q 2625 1972 2144 2069 
L 1759 2144 
Q 1053 2284 737 2584 
Q 422 2884 422 3419 
Q 422 4038 858 4394 
Q 1294 4750 2059 4750 
Q 2388 4750 2728 4690 
Q 3069 4631 3425 4513 
z
" transform="scale(0.015625)"/>
     </defs>
     <use xlink:href="#DejaVuSans-53"/>
     <use xlink:href="#DejaVuSans-20" transform="translate(63.476562 0)"/>
     <use xlink:href="#DejaVuSans-68" transform="translate(95.263672 0)"/>
     <use xlink:href="#DejaVuSans-69" transform="translate(158.642578 0)"/>
     <use xlink:href="#DejaVuSans-73" transform="translate(186.425781 0)"/>
     <use xlink:href="#DejaVuSans-74" transform="translate(238.525391 0)"/>
     <use xlink:href="#DejaVuSans-6f" transform="translate(277.734375 0)"/>
     <use xlink:href="#DejaVuSans-67" transform="translate(338.916016 0)"/>
     <use xlink:href="#DejaVuSans-72" transform="translate(402.392578 0)"/>
     <use xlink:href="#DejaVuSans-61" transform="translate(443.505859 0)"/>
     <use xlink:href="#DejaVuSans-6d" transform="translate(504.785156 0)"/>
     <use xlink:href="#DejaVuSans-20" transform="translate(602.197266 0)"/>
     <use xlink:href="#DejaVuSans-28" transform="translate(633.984375 0)"/>
     <use xlink:href="#DejaVuSans-62" transform="translate(672.998047 0)"/>
     <use xlink:href="#DejaVuSans-62" transform="translate(736.474609 0)"/>
     <use xlink:href="#DejaVuSans-6f" transform="translate(799.951172 0)"/>
     <use xlink:href="#DejaVuSans-78" transform="translate(858.007812 0)"/>
     <use xlink:href="#DejaVuSans-29" transform="translate(917.1875 0)"/>
    </g>
   </g>
  </g>
  <g id="axes_3">
   <g id="patch_12">
    <path d="M 43.36 548.12 
L 411.615 548.12 
L 411.615 402.24 
L 43.36 402.24 
z
" style="fill: #ffffff"/>
   </g>
   <g id="matplotlib.axis_5">
    <g id="xtick_17">
     <g id="line2d_32">
      <g>
       <use xlink:href="#me1b879d29b" x="43.36" y="548.12" style="stroke: #000000; stroke-width: 0.8"/>
      </g>
     </g>
     <g id="text_32">
      <!-- 0 -->
      <g transform="translate(40.17875 562.718438) scale(0.1 -0.1)">
       <use xlink:href="#DejaVuSans-30"/>
      </g>
     </g>
    </g>
    <g id="xtick_18">
     <g id="line2d_33">
      <g>
       <use xlink:href="#me1b879d29b" x="115.566863" y="548.12" style="stroke: #000000; stroke-width: 0.8"/>
      </g>
     </g>
     <g id="text_33">
      <!-- 50 -->
      <g transform="translate(109.204363 562.718438) scale(0.1 -0.1)">
       <use xlink:href="#DejaVuSans-35"/>
       <use xlink:href="#DejaVuSans-30" transform="translate(63.623047 0)"/>
      </g>
     </g>
    </g>
    <g id="xtick_19">
     <g id="line2d_34">
      <g>
       <use xlink:href="#me1b879d29b" x="187.773725" y="548.12" style="stroke: #000000; stroke-width: 0.8"/>
      </g>
     </g>
     <g id="text_34">
      <!-- 100 -->
      <g transform="translate(178.229975 562.718438) scale(0.1 -0.1)">
       <use xlink:href="#DejaVuSans-31"/>
       <use xlink:href="#DejaVuSans-30" transform="translate(63.623047 0)"/>
       <use xlink:href="#DejaVuSans-30" transform="translate(127.246094 0)"/>
      </g>
     </g>
    </g>
    <g id="xtick_20">
     <g id="line2d_35">
      <g>
       <use xlink:href="#me1b879d29b" x="259.980588" y="548.12" style="stroke: #000000; stroke-width: 0.8"/>
      </g>
     </g>
     <g id="text_35">
      <!-- 150 -->
      <g transform="translate(250.436838 562.718438) scale(0.1 -0.1)">
       <use xlink:href="#DejaVuSans-31"/>
       <use xlink:href="#DejaVuSans-35" transform="translate(63.623047 0)"/>
       <use xlink:href="#DejaVuSans-30" transform="translate(127.246094 0)"/>
      </g>
     </g>
    </g>
    <g id="xtick_21">
     <g id="line2d_36">
      <g>
       <use xlink:href="#me1b879d29b" x="332.187451" y="548.12" style="stroke: #000000; stroke-width: 0.8"/>
      </g>
     </g>
     <g id="text_36">
      <!-- 200 -->
      <g transform="translate(322.643701 562.718438) scale(0.1 -0.1)">
       <use xlink:href="#DejaVuSans-32"/>
       <use xlink:href="#DejaVuSans-30" transform="translate(63.623047 0)"/>
       <use xlink:href="#DejaVuSans-30" transform="translate(127.246094 0)"/>
      </g>
     </g>
    </g>
    <g id="xtick_22">
     <g id="line2d_37">
      <g>
       <use xlink:href="#me1b879d29b" x="404.394314" y="548.12" style="stroke: #000000; stroke-width: 0.8"/>
      </g>
     </g>
     <g id="text_37">
      <!-- 250 -->
      <g transform="translate(394.850564 562.718438) scale(0.1 -0.1)">
       <use xlink:href="#DejaVuSans-32"/>
       <use xlink:href="#DejaVuSans-35" transform="translate(63.623047 0)"/>
       <use xlink:href="#DejaVuSans-30" transform="translate(127.246094 0)"/>
      </g>
     </g>
    </g>
   </g>
   <g id="matplotlib.axis_6">
    <g id="ytick_14">
     <g id="line2d_38">
      <g>
       <use xlink:href="#m360aced7eb" x="43.36" y="541.489091" style="stroke: #000000; stroke-width: 0.8"/>
      </g>
     </g>
     <g id="text_38">
      <!-- 0 -->
      <g transform="translate(29.9975 545.28831) scale(0.1 -0.1)">
       <use xlink:href="#DejaVuSans-30"/>
      </g>
     </g>
    </g>
    <g id="ytick_15">
     <g id="line2d_39">
      <g>
       <use xlink:href="#m360aced7eb" x="43.36" y="504.28904" style="stroke: #000000; stroke-width: 0.8"/>
      </g>
     </g>
     <g id="text_39">
      <!-- 200 -->
      <g transform="translate(17.2725 508.088259) scale(0.1 -0.1)">
       <use xlink:href="#DejaVuSans-32"/>
       <use xlink:href="#DejaVuSans-30" transform="translate(63.623047 0)"/>
       <use xlink:href="#DejaVuSans-30" transform="translate(127.246094 0)"/>
      </g>
     </g>
    </g>
    <g id="ytick_16">
     <g id="line2d_40">
      <g>
       <use xlink:href="#m360aced7eb" x="43.36" y="467.088989" style="stroke: #000000; stroke-width: 0.8"/>
      </g>
     </g>
     <g id="text_40">
      <!-- 400 -->
      <g transform="translate(17.2725 470.888208) scale(0.1 -0.1)">
       <use xlink:href="#DejaVuSans-34"/>
       <use xlink:href="#DejaVuSans-30" transform="translate(63.623047 0)"/>
       <use xlink:href="#DejaVuSans-30" transform="translate(127.246094 0)"/>
      </g>
     </g>
    </g>
    <g id="ytick_17">
     <g id="line2d_41">
      <g>
       <use xlink:href="#m360aced7eb" x="43.36" y="429.888938" style="stroke: #000000; stroke-width: 0.8"/>
      </g>
     </g>
     <g id="text_41">
      <!-- 600 -->
      <g transform="translate(17.2725 433.688157) scale(0.1 -0.1)">
       <use xlink:href="#DejaVuSans-36"/>
       <use xlink:href="#DejaVuSans-30" transform="translate(63.623047 0)"/>
       <use xlink:href="#DejaVuSans-30" transform="translate(127.246094 0)"/>
      </g>
     </g>
    </g>
   </g>
   <g id="line2d_42">
    <path d="M 43.36 541.489091 
L 44.804137 538.885087 
L 46.248275 538.885087 
L 47.692412 539.257088 
L 49.136549 538.141086 
L 50.580686 537.397085 
L 52.024824 537.025085 
L 53.468961 532.933079 
L 54.913098 536.095084 
L 56.357235 533.30508 
L 57.801373 535.351082 
L 59.24551 533.30508 
L 60.689647 527.167071 
L 62.133784 526.981071 
L 63.577922 523.075066 
L 65.022059 522.703065 
L 66.466196 523.633066 
L 69.354471 519.913061 
L 70.798608 516.565057 
L 72.242745 515.077055 
L 73.686882 513.217052 
L 75.13102 509.497047 
L 76.575157 501.499036 
L 78.019294 504.28904 
L 79.463431 500.941035 
L 80.907569 502.987038 
L 82.351706 496.663029 
L 83.795843 496.291029 
L 85.23998 500.011034 
L 86.684118 495.361028 
L 88.128255 495.919028 
L 89.572392 501.499036 
L 91.016529 508.567046 
L 92.460667 509.497047 
L 93.904804 513.589053 
L 95.348941 514.705054 
L 96.793078 513.961053 
L 98.237216 515.821056 
L 99.681353 516.007056 
L 101.12549 519.355061 
L 102.569627 516.193056 
L 104.013765 516.379056 
L 105.457902 519.913061 
L 106.902039 516.937057 
L 108.346176 518.053059 
L 109.790314 518.79706 
L 111.234451 519.355061 
L 112.678588 519.16906 
L 114.122725 517.867059 
L 115.566863 520.471062 
L 117.011 515.635055 
L 118.455137 518.61106 
L 119.899275 517.123058 
L 121.343412 517.681058 
L 122.787549 516.379056 
L 124.231686 516.193056 
L 125.675824 517.123058 
L 127.119961 517.123058 
L 128.564098 511.91505 
L 130.008235 509.497047 
L 131.452373 511.91505 
L 132.89651 511.171049 
L 134.340647 505.777042 
L 135.784784 514.333054 
L 137.228922 500.011034 
L 138.673059 509.869048 
L 140.117196 505.591042 
L 141.561333 509.311047 
L 143.005471 505.777042 
L 144.449608 500.197034 
L 145.893745 490.525021 
L 147.337882 491.641023 
L 148.78202 484.201012 
L 150.226157 491.083022 
L 151.670294 486.247015 
L 153.114431 470.250993 
L 154.558569 480.853008 
L 156.002706 467.460989 
L 157.446843 455.370973 
L 158.89098 459.090978 
L 160.335118 475.459 
L 161.779255 483.271011 
L 163.223392 470.436993 
L 164.667529 487.921017 
L 166.111667 486.991016 
L 167.555804 479.365006 
L 168.999941 477.877004 
L 170.444078 472.296996 
L 171.888216 474.156999 
L 173.332353 477.133003 
L 174.77649 473.040997 
L 176.220627 474.342999 
L 180.553039 481.597009 
L 181.997176 484.945013 
L 183.441314 477.133003 
L 184.885451 472.668997 
L 186.329588 463.740984 
L 187.773725 467.460989 
L 189.217863 463.554984 
L 190.662 456.114974 
L 192.106137 457.788976 
L 193.550275 454.998972 
L 194.994412 457.602976 
L 196.438549 454.254971 
L 197.882686 455.742973 
L 199.326824 450.720966 
L 200.770961 455.370973 
L 202.215098 454.626972 
L 203.659235 468.20499 
L 205.103373 472.668997 
L 206.54751 481.597009 
L 207.991647 479.923007 
L 209.435784 477.691003 
L 210.879922 482.52701 
L 212.324059 476.761002 
L 213.768196 486.247015 
L 215.212333 481.783009 
L 216.656471 482.71301 
L 218.100608 481.411009 
L 219.544745 489.40902 
L 220.988882 489.223019 
L 222.43302 485.503014 
L 223.877157 492.013023 
L 225.321294 490.153021 
L 226.765431 496.477029 
L 228.209569 480.481007 
L 229.653706 485.317014 
L 231.097843 483.457011 
L 232.54198 484.201012 
L 233.986118 491.269022 
L 235.430255 485.875015 
L 236.874392 492.385024 
L 238.318529 496.477029 
L 239.762667 501.871037 
L 241.206804 499.825034 
L 242.650941 500.941035 
L 244.095078 509.869048 
L 245.539216 511.54305 
L 246.983353 509.125047 
L 248.42749 508.009045 
L 249.871627 505.405041 
L 251.315765 503.731039 
L 252.759902 507.265044 
L 254.204039 507.451044 
L 255.648176 508.753046 
L 257.092314 503.731039 
L 258.536451 505.777042 
L 259.980588 510.427048 
L 261.424725 505.591042 
L 262.868863 510.241048 
L 264.313 512.101051 
L 265.757137 515.821056 
L 267.201275 517.309058 
L 268.645412 516.007056 
L 270.089549 516.751057 
L 271.533686 517.123058 
L 272.977824 515.635055 
L 274.421961 517.123058 
L 275.866098 520.099062 
L 277.310235 522.517065 
L 278.754373 520.285062 
L 280.19851 521.401063 
L 281.642647 521.401063 
L 283.086784 519.727061 
L 284.530922 521.959064 
L 285.975059 519.355061 
L 287.419196 516.379056 
L 288.863333 509.497047 
L 290.307471 510.241048 
L 291.751608 506.707043 
L 293.195745 498.151031 
L 294.639882 494.989027 
L 296.08402 498.709032 
L 297.528157 496.84903 
L 298.972294 497.40703 
L 300.416431 496.477029 
L 301.860569 502.243037 
L 303.304706 507.451044 
L 304.748843 504.28904 
L 306.19298 511.54305 
L 307.637118 509.869048 
L 309.081255 513.031052 
L 310.525392 508.009045 
L 311.969529 510.613049 
L 313.413667 507.823045 
L 314.857804 513.775053 
L 316.301941 514.333054 
L 317.746078 508.567046 
L 319.190216 512.101051 
L 320.634353 508.753046 
L 322.07849 511.91505 
L 323.522627 508.009045 
L 324.966765 509.869048 
L 326.410902 501.499036 
L 327.855039 507.265044 
L 329.299176 500.755035 
L 330.743314 506.521043 
L 332.187451 505.405041 
L 333.631588 501.685036 
L 335.075725 489.59502 
L 336.519863 474.901 
L 337.964 446.628961 
L 339.408137 451.464967 
L 340.852275 455.184973 
L 342.296412 464.484985 
L 343.740549 477.877004 
L 345.184686 473.598998 
L 346.628824 491.269022 
L 348.072961 491.641023 
L 349.517098 493.873026 
L 350.961235 483.643012 
L 352.405373 486.433015 
L 353.84951 479.737006 
L 355.293647 496.663029 
L 356.737784 494.431026 
L 358.181922 484.387013 
L 359.626059 462.810983 
L 361.070196 438.258949 
L 362.514333 476.761002 
L 363.958471 471.738995 
L 365.402608 480.853008 
L 366.846745 480.667008 
L 368.290882 497.22103 
L 369.73502 503.917039 
L 371.179157 500.755035 
L 372.623294 491.269022 
L 374.067431 488.293018 
L 375.511569 501.871037 
L 376.955706 475.459 
L 378.399843 491.827023 
L 379.84398 420.960926 
L 381.288118 408.870909 
L 382.732255 459.276978 
L 384.176392 475.459 
L 385.620529 508.567046 
L 387.064667 493.687025 
L 388.508804 502.243037 
L 389.952941 513.217052 
L 391.397078 526.795071 
L 392.841216 529.027074 
L 394.285353 532.933079 
L 395.72949 531.817078 
L 397.173627 529.585075 
L 398.617765 531.073077 
L 400.061902 533.86308 
L 401.506039 531.817078 
L 402.950176 533.119079 
L 404.394314 533.86308 
L 405.838451 532.933079 
L 407.282588 530.701076 
L 408.726725 531.817078 
L 410.170863 535.351082 
L 411.615 475.645001 
L 411.615 475.645001 
" clip-path="url(#pa24ce31088)" style="fill: none; stroke: #0000ff; stroke-width: 1.5; stroke-linecap: square"/>
   </g>
   <g id="patch_13">
    <path d="M 43.36 548.12 
L 43.36 402.24 
" style="fill: none; stroke: #000000; stroke-width: 0.8; stroke-linejoin: miter; stroke-linecap: square"/>
   </g>
   <g id="patch_14">
    <path d="M 411.615 548.12 
L 411.615 402.24 
" style="fill: none; stroke: #000000; stroke-width: 0.8; stroke-linejoin: miter; stroke-linecap: square"/>
   </g>
   <g id="patch_15">
    <path d="M 43.36 548.12 
L 411.615 548.12 
" style="fill: none; stroke: #000000; stroke-width: 0.8; stroke-linejoin: miter; stroke-linecap: square"/>
   </g>
   <g id="patch_16">
    <path d="M 43.36 402.24 
L 411.615 402.24 
" style="fill: none; stroke: #000000; stroke-width: 0.8; stroke-linejoin: miter; stroke-linecap: square"/>
   </g>
   <g id="text_42">
    <!-- V histogram (bbox) -->
    <g transform="translate(169.819063 396.24) scale(0.12 -0.12)">
     <defs>
      <path id="DejaVuSans-56" d="M 1831 0 
L 50 4666 
L 709 4666 
L 2188 738 
L 3669 4666 
L 4325 4666 
L 2547 0 
L 1831 0 
z
" transform="scale(0.015625)"/>
     </defs>
     <use xlink:href="#DejaVuSans-56"/>
     <use xlink:href="#DejaVuSans-20" transform="translate(68.408203 0)"/>
     <use xlink:href="#DejaVuSans-68" transform="translate(100.195312 0)"/>
     <use xlink:href="#DejaVuSans-69" transform="translate(163.574219 0)"/>
     <use xlink:href="#DejaVuSans-73" transform="translate(191.357422 0)"/>
     <use xlink:href="#DejaVuSans-74" transform="translate(243.457031 0)"/>
     <use xlink:href="#DejaVuSans-6f" transform="translate(282.666016 0)"/>
     <use xlink:href="#DejaVuSans-67" transform="translate(343.847656 0)"/>
     <use xlink:href="#DejaVuSans-72" transform="translate(407.324219 0)"/>
     <use xlink:href="#DejaVuSans-61" transform="translate(448.4375 0)"/>
     <use xlink:href="#DejaVuSans-6d" transform="translate(509.716797 0)"/>
     <use xlink:href="#DejaVuSans-20" transform="translate(607.128906 0)"/>
     <use xlink:href="#DejaVuSans-28" transform="translate(638.916016 0)"/>
     <use xlink:href="#DejaVuSans-62" transform="translate(677.929688 0)"/>
     <use xlink:href="#DejaVuSans-62" transform="translate(741.40625 0)"/>
     <use xlink:href="#DejaVuSans-6f" transform="translate(804.882812 0)"/>
     <use xlink:href="#DejaVuSans-78" transform="translate(862.939453 0)"/>
     <use xlink:href="#DejaVuSans-29" transform="translate(922.119141 0)"/>
    </g>
   </g>
  </g>
 </g>
 <defs>
  <clipPath id="p5d556f7392">
   <rect x="43.36" y="25.44" width="368.255" height="145.88"/>
  </clipPath>
  <clipPath id="p0c1231c175">
   <rect x="43.36" y="213.84" width="368.255" height="145.88"/>
  </clipPath>
  <clipPath id="pa24ce31088">
   <rect x="43.36" y="402.24" width="368.255" height="145.88"/>
  </clipPath>
 </defs>
</svg>
