<?xml version="1.0" encoding="utf-8" standalone="no"?>
<!DOCTYPE svg PUBLIC "-//W3C//DTD SVG 1.1//EN"
  "http://www.w3.org/Graphics/SVG/1.1/DTD/svg11.dtd">
<svg xmlns:xlink="http://www.w3.org/1999/xlink" width="432pt" height="576pt" viewBox="0 0 432 576" xmlns="http://www.w3.org/2000/svg" version="1.1">
 <metadata>
  <rdf:RDF xmlns:dc="http://purl.org/dc/elements/1.1/" xmlns:cc="http://creativecommons.org/ns#" xmlns:rdf="http://www.w3.org/1999/02/22-rdf-syntax-ns#">
   <cc:Work>
    <dc:type rdf:resource="http://purl.org/dc/dcmitype/StillImage"/>
    <dc:date>2026-01-22T15:02:13.584109</dc:date>
    <dc:format>image/svg+xml</dc:format>
    <dc:creator>
     <cc:Agent>
      <dc:title>Matplotlib v3.10.8, https://matplotlib.org/</dc:title>
     </cc:Agent>
    </dc:creator>
   </cc:Work>
  </rdf:RDF>
 </metadata>
 <defs>
  <style type="text/css">*{stroke-linejoin: round; stroke-linecap: butt}</style>
 </defs>
 <g id="figure_1">
  <g id="patch_1">
   <path d="M 0 576 
L 432 576 
L 432 0 
L 0 0 
z
" style="fill: #ffffff"/>
  </g>
  <g id="axes_1">
   <g id="patch_2">
    <path d="M 49.75 171.32 
L 411.615 171.32 
L 411.615 25.44 
L 49.75 25.44 
z
" style="fill: #ffffff"/>
   </g>
   <g id="matplotlib.axis_1">
    <g id="xtick_1">
     <g id="line2d_1">
      <defs>
       <path id="mdc6494792c" d="M 0 0 
L 0 3.5 
" style="stroke: #000000; stroke-width: 0.8"/>
      </defs>
      <g>
       <use xlink:href="#mdc6494792c" x="49.75" y="171.32" style="stroke: #000000; stroke-width: 0.8"/>
      </g>
     </g>
     <g id="text_1">
      <!-- 0 -->
      <g transform="translate(46.56875 185.918438) scale(0.1 -0.1)">
       <defs>
        <path id="DejaVuSans-30" d="M 2034 4250 
Q 1547 4250 1301 3770 
Q 1056 3291 1056 2328 
Q 1056 1369 1301 889 
Q 1547 409 2034 409 
Q 2525 409 2770 889 
Q 3016 1369 3016 2328 
Q 3016 3291 2770 3770 
Q 2525 4250 2034 4250 
z
M 2034 4750 
Q 2819 4750 3233 4129 
Q 3647 3509 3647 2328 
Q 3647 1150 3233 529 
Q 2819 -91 2034 -91 
Q 1250 -91 836 529 
Q 422 1150 422 2328 
Q 422 3509 836 4129 
Q 1250 4750 2034 4750 
z
" transform="scale(0.015625)"/>
       </defs>
       <use xlink:href="#DejaVuSans-30"/>
      </g>
     </g>
    </g>
    <g id="xtick_2">
     <g id="line2d_2">
      <g>
       <use xlink:href="#mdc6494792c" x="89.957222" y="171.32" style="stroke: #000000; stroke-width: 0.8"/>
      </g>
     </g>
     <g id="text_2">
      <!-- 20 -->
      <g transform="translate(83.594722 185.918438) scale(0.1 -0.1)">
       <defs>
        <path id="DejaVuSans-32" d="M 1228 531 
L 3431 531 
L 3431 0 
L 469 0 
L 469 531 
Q 828 903 1448 1529 
Q 2069 2156 2228 2338 
Q 2531 2678 2651 2914 
Q 2772 3150 2772 3378 
Q 2772 3750 2511 3984 
Q 2250 4219 1831 4219 
Q 1534 4219 1204 4116 
Q 875 4013 500 3803 
L 500 4441 
Q 881 4594 1212 4672 
Q 1544 4750 1819 4750 
Q 2544 4750 2975 4387 
Q 3406 4025 3406 3419 
Q 3406 3131 3298 2873 
Q 3191 2616 2906 2266 
Q 2828 2175 2409 1742 
Q 1991 1309 1228 531 
z
" transform="scale(0.015625)"/>
       </defs>
       <use xlink:href="#DejaVuSans-32"/>
       <use xlink:href="#DejaVuSans-30" transform="translate(63.623047 0)"/>
      </g>
     </g>
    </g>
    <g id="xtick_3">
     <g id="line2d_3">
      <g>
       <use xlink:href="#mdc6494792c" x="130.164444" y="171.32" style="stroke: #000000; stroke-width: 0.8"/>
      </g>
     </g>
     <g id="text_3">
      <!-- 40 -->
      <g transform="translate(123.801944 185.918438) scale(0.1 -0.1)">
       <defs>
        <path id="DejaVuSans-34" d="M 2419 4116 
L 825 1625 
L 2419 1625 
L 2419 4116 
z
M 2253 4666 
L 3047 4666 
L 3047 1625 
L 3713 1625 
L 3713 1100 
L 3047 1100 
L 3047 0 
L 2419 0 
L 2419 1100 
L 313 1100 
L 313 1709 
L 2253 4666 
z
" transform="scale(0.015625)"/>
       </defs>
       <use xlink:href="#DejaVuSans-34"/>
       <use xlink:href="#DejaVuSans-30" transform="translate(63.623047 0)"/>
      </g>
     </g>
    </g>
    <g id="xtick_4">
     <g id="line2d_4">
      <g>
       <use xlink:href="#mdc6494792c" x="170.371667" y="171.32" style="stroke: #000000; stroke-width: 0.8"/>
      </g>
     </g>
     <g id="text_4">
      <!-- 60 -->
      <g transform="translate(164.009167 185.918438) scale(0.1 -0.1)">
       <defs>
        <path id="DejaVuSans-36" d="M 2113 2584 
Q 1688 2584 1439 2293 
Q 1191 2003 1191 1497 
Q 1191 994 1439 701 
Q 1688 409 2113 409 
Q 2538 409 2786 701 
Q 3034 994 3034 1497 
Q 3034 2003 2786 2293 
Q 2538 2584 2113 2584 
z
M 3366 4563 
L 3366 3988 
Q 3128 4100 2886 4159 
Q 2644 4219 2406 4219 
Q 1781 4219 1451 3797 
Q 1122 3375 1075 2522 
Q 1259 2794 1537 2939 
Q 1816 3084 2150 3084 
Q 2853 3084 3261 2657 
Q 3669 2231 3669 1497 
Q 3669 778 3244 343 
Q 2819 -91 2113 -91 
Q 1303 -91 875 529 
Q 447 1150 447 2328 
Q 447 3434 972 4092 
Q 1497 4750 2381 4750 
Q 2619 4750 2861 4703 
Q 3103 4656 3366 4563 
z
" transform="scale(0.015625)"/>
       </defs>
       <use xlink:href="#DejaVuSans-36"/>
       <use xlink:href="#DejaVuSans-30" transform="translate(63.623047 0)"/>
      </g>
     </g>
    </g>
    <g id="xtick_5">
     <g id="line2d_5">
      <g>
       <use xlink:href="#mdc6494792c" x="210.578889" y="171.32" style="stroke: #000000; stroke-width: 0.8"/>
      </g>
     </g>
     <g id="text_5">
      <!-- 80 -->
      <g transform="translate(204.216389 185.918438) scale(0.1 -0.1)">
       <defs>
        <path id="DejaVuSans-38" d="M 2034 2216 
Q 1584 2216 1326 1975 
Q 1069 1734 1069 1313 
Q 1069 891 1326 650 
Q 1584 409 2034 409 
Q 2484 409 2743 651 
Q 3003 894 3003 1313 
Q 3003 1734 2745 1975 
Q 2488 2216 2034 2216 
z
M 1403 2484 
Q 997 2584 770 2862 
Q 544 3141 544 3541 
Q 544 4100 942 4425 
Q 1341 4750 2034 4750 
Q 2731 4750 3128 4425 
Q 3525 4100 3525 3541 
Q 3525 3141 3298 2862 
Q 3072 2584 2669 2484 
Q 3125 2378 3379 2068 
Q 3634 1759 3634 1313 
Q 3634 634 3220 271 
Q 2806 -91 2034 -91 
Q 1263 -91 848 271 
Q 434 634 434 1313 
Q 434 1759 690 2068 
Q 947 2378 1403 2484 
z
M 1172 3481 
Q 1172 3119 1398 2916 
Q 1625 2713 2034 2713 
Q 2441 2713 2670 2916 
Q 2900 3119 2900 3481 
Q 2900 3844 2670 4047 
Q 2441 4250 2034 4250 
Q 1625 4250 1398 4047 
Q 1172 3844 1172 3481 
z
" transform="scale(0.015625)"/>
       </defs>
       <use xlink:href="#DejaVuSans-38"/>
       <use xlink:href="#DejaVuSans-30" transform="translate(63.623047 0)"/>
      </g>
     </g>
    </g>
    <g id="xtick_6">
     <g id="line2d_6">
      <g>
       <use xlink:href="#mdc6494792c" x="250.786111" y="171.32" style="stroke: #000000; stroke-width: 0.8"/>
      </g>
     </g>
     <g id="text_6">
      <!-- 100 -->
      <g transform="translate(241.242361 185.918438) scale(0.1 -0.1)">
       <defs>
        <path id="DejaVuSans-31" d="M 794 531 
L 1825 531 
L 1825 4091 
L 703 3866 
L 703 4441 
L 1819 4666 
L 2450 4666 
L 2450 531 
L 3481 531 
L 3481 0 
L 794 0 
L 794 531 
z
" transform="scale(0.015625)"/>
       </defs>
       <use xlink:href="#DejaVuSans-31"/>
       <use xlink:href="#DejaVuSans-30" transform="translate(63.623047 0)"/>
       <use xlink:href="#DejaVuSans-30" transform="translate(127.246094 0)"/>
      </g>
     </g>
    </g>
    <g id="xtick_7">
     <g id="line2d_7">
      <g>
       <use xlink:href="#mdc6494792c" x="290.993333" y="171.32" style="stroke: #000000; stroke-width: 0.8"/>
      </g>
     </g>
     <g id="text_7">
      <!-- 120 -->
      <g transform="translate(281.449583 185.918438) scale(0.1 -0.1)">
       <use xlink:href="#DejaVuSans-31"/>
       <use xlink:href="#DejaVuSans-32" transform="translate(63.623047 0)"/>
       <use xlink:href="#DejaVuSans-30" transform="translate(127.246094 0)"/>
      </g>
     </g>
    </g>
    <g id="xtick_8">
     <g id="line2d_8">
      <g>
       <use xlink:href="#mdc6494792c" x="331.200556" y="171.32" style="stroke: #000000; stroke-width: 0.8"/>
      </g>
     </g>
     <g id="text_8">
      <!-- 140 -->
      <g transform="translate(321.656806 185.918438) scale(0.1 -0.1)">
       <use xlink:href="#DejaVuSans-31"/>
       <use xlink:href="#DejaVuSans-34" transform="translate(63.623047 0)"/>
       <use xlink:href="#DejaVuSans-30" transform="translate(127.246094 0)"/>
      </g>
     </g>
    </g>
    <g id="xtick_9">
     <g id="line2d_9">
      <g>
       <use xlink:href="#mdc6494792c" x="371.407778" y="171.32" style="stroke: #000000; stroke-width: 0.8"/>
      </g>
     </g>
     <g id="text_9">
      <!-- 160 -->
      <g transform="translate(361.864028 185.918438) scale(0.1 -0.1)">
       <use xlink:href="#DejaVuSans-31"/>
       <use xlink:href="#DejaVuSans-36" transform="translate(63.623047 0)"/>
       <use xlink:href="#DejaVuSans-30" transform="translate(127.246094 0)"/>
      </g>
     </g>
    </g>
    <g id="xtick_10">
     <g id="line2d_10">
      <g>
       <use xlink:href="#mdc6494792c" x="411.615" y="171.32" style="stroke: #000000; stroke-width: 0.8"/>
      </g>
     </g>
     <g id="text_10">
      <!-- 180 -->
      <g transform="translate(402.07125 185.918438) scale(0.1 -0.1)">
       <use xlink:href="#DejaVuSans-31"/>
       <use xlink:href="#DejaVuSans-38" transform="translate(63.623047 0)"/>
       <use xlink:href="#DejaVuSans-30" transform="translate(127.246094 0)"/>
      </g>
     </g>
    </g>
   </g>
   <g id="matplotlib.axis_2">
    <g id="ytick_1">
     <g id="line2d_11">
      <defs>
       <path id="mf390f91d21" d="M 0 0 
L -3.5 0 
" style="stroke: #000000; stroke-width: 0.8"/>
      </defs>
      <g>
       <use xlink:href="#mf390f91d21" x="49.75" y="164.689091" style="stroke: #000000; stroke-width: 0.8"/>
      </g>
     </g>
     <g id="text_11">
      <!-- 0 -->
      <g transform="translate(36.3875 168.48831) scale(0.1 -0.1)">
       <use xlink:href="#DejaVuSans-30"/>
      </g>
     </g>
    </g>
    <g id="ytick_2">
     <g id="line2d_12">
      <g>
       <use xlink:href="#mf390f91d21" x="49.75" y="142.779594" style="stroke: #000000; stroke-width: 0.8"/>
      </g>
     </g>
     <g id="text_12">
      <!-- 2000 -->
      <g transform="translate(17.3 146.578813) scale(0.1 -0.1)">
       <use xlink:href="#DejaVuSans-32"/>
       <use xlink:href="#DejaVuSans-30" transform="translate(63.623047 0)"/>
       <use xlink:href="#DejaVuSans-30" transform="translate(127.246094 0)"/>
       <use xlink:href="#DejaVuSans-30" transform="translate(190.869141 0)"/>
      </g>
     </g>
    </g>
    <g id="ytick_3">
     <g id="line2d_13">
      <g>
       <use xlink:href="#mf390f91d21" x="49.75" y="120.870098" style="stroke: #000000; stroke-width: 0.8"/>
      </g>
     </g>
     <g id="text_13">
      <!-- 4000 -->
      <g transform="translate(17.3 124.669317) scale(0.1 -0.1)">
       <use xlink:href="#DejaVuSans-34"/>
       <use xlink:href="#DejaVuSans-30" transform="translate(63.623047 0)"/>
       <use xlink:href="#DejaVuSans-30" transform="translate(127.246094 0)"/>
       <use xlink:href="#DejaVuSans-30" transform="translate(190.869141 0)"/>
      </g>
     </g>
    </g>
    <g id="ytick_4">
     <g id="line2d_14">
      <g>
       <use xlink:href="#mf390f91d21" x="49.75" y="98.960602" style="stroke: #000000; stroke-width: 0.8"/>
      </g>
     </g>
     <g id="text_14">
      <!-- 6000 -->
      <g transform="translate(17.3 102.75982) scale(0.1 -0.1)">
       <use xlink:href="#DejaVuSans-36"/>
       <use xlink:href="#DejaVuSans-30" transform="translate(63.623047 0)"/>
       <use xlink:href="#DejaVuSans-30" transform="translate(127.246094 0)"/>
       <use xlink:href="#DejaVuSans-30" transform="translate(190.869141 0)"/>
      </g>
     </g>
    </g>
    <g id="ytick_5">
     <g id="line2d_15">
      <g>
       <use xlink:href="#mf390f91d21" x="49.75" y="77.051105" style="stroke: #000000; stroke-width: 0.8"/>
      </g>
     </g>
     <g id="text_15">
      <!-- 8000 -->
      <g transform="translate(17.3 80.850324) scale(0.1 -0.1)">
       <use xlink:href="#DejaVuSans-38"/>
       <use xlink:href="#DejaVuSans-30" transform="translate(63.623047 0)"/>
       <use xlink:href="#DejaVuSans-30" transform="translate(127.246094 0)"/>
       <use xlink:href="#DejaVuSans-30" transform="translate(190.869141 0)"/>
      </g>
     </g>
    </g>
    <g id="ytick_6">
     <g id="line2d_16">
      <g>
       <use xlink:href="#mf390f91d21" x="49.75" y="55.141609" style="stroke: #000000; stroke-width: 0.8"/>
      </g>
     </g>
     <g id="text_16">
      <!-- 10000 -->
      <g transform="translate(10.9375 58.940828) scale(0.1 -0.1)">
       <use xlink:href="#DejaVuSans-31"/>
       <use xlink:href="#DejaVuSans-30" transform="translate(63.623047 0)"/>
       <use xlink:href="#DejaVuSans-30" transform="translate(127.246094 0)"/>
       <use xlink:href="#DejaVuSans-30" transform="translate(190.869141 0)"/>
       <use xlink:href="#DejaVuSans-30" transform="translate(254.492188 0)"/>
      </g>
     </g>
    </g>
    <g id="ytick_7">
     <g id="line2d_17">
      <g>
       <use xlink:href="#mf390f91d21" x="49.75" y="33.232112" style="stroke: #000000; stroke-width: 0.8"/>
      </g>
     </g>
     <g id="text_17">
      <!-- 12000 -->
      <g transform="translate(10.9375 37.031331) scale(0.1 -0.1)">
       <use xlink:href="#DejaVuSans-31"/>
       <use xlink:href="#DejaVuSans-32" transform="translate(63.623047 0)"/>
       <use xlink:href="#DejaVuSans-30" transform="translate(127.246094 0)"/>
       <use xlink:href="#DejaVuSans-30" transform="translate(190.869141 0)"/>
       <use xlink:href="#DejaVuSans-30" transform="translate(254.492188 0)"/>
      </g>
     </g>
    </g>
   </g>
   <g id="line2d_18">
    <path d="M 49.75 156.670215 
L 51.760361 163.034924 
L 53.770722 162.936331 
L 55.781083 162.695327 
L 57.791444 163.155426 
L 59.801806 160.898748 
L 61.812167 162.498141 
L 63.822528 162.947286 
L 65.832889 161.325983 
L 67.84325 162.410503 
L 69.853611 161.424576 
L 71.863972 159.113124 
L 73.874333 161.008296 
L 75.884694 158.915939 
L 77.895056 162.870603 
L 79.905417 161.829902 
L 81.915778 162.35573 
L 83.926139 162.673417 
L 85.9365 163.757937 
L 87.946861 155.585695 
L 89.957222 124.846672 
L 91.967583 138.331967 
L 93.977944 32.070909 
L 95.988306 160.241463 
L 97.998667 55.612663 
L 100.009028 157.678052 
L 102.019389 53.618899 
L 104.02975 154.424492 
L 106.040111 156.023885 
L 108.050472 137.652772 
L 110.060833 132.175398 
L 112.071194 160.022368 
L 114.081556 162.56387 
L 116.091917 159.529405 
L 118.102278 161.282164 
L 120.112639 159.189807 
L 122.123 160.646789 
L 124.133361 164.338539 
L 126.143722 163.670299 
L 128.154083 164.119444 
L 130.164444 161.074024 
L 132.174806 161.336938 
L 134.185167 158.532522 
L 136.195528 159.463676 
L 138.205889 161.797037 
L 140.21625 161.063069 
L 142.226611 159.967594 
L 144.236972 161.04116 
L 146.247333 159.901866 
L 148.257694 161.523169 
L 150.268056 157.908102 
L 152.278417 161.797037 
L 154.288778 163.582661 
L 156.299139 163.998942 
L 158.3095 163.692209 
L 160.319861 162.059951 
L 162.330222 163.407385 
L 164.340583 164.108489 
L 168.361306 164.667181 
L 170.371667 162.246182 
L 172.382028 164.689091 
L 174.392389 164.075625 
L 176.40275 163.998942 
L 178.413111 164.689091 
L 180.423472 164.207082 
L 182.433833 160.088097 
L 184.444194 164.185172 
L 188.464917 164.031806 
L 190.475278 162.607689 
L 192.485639 164.185172 
L 194.496 164.50286 
L 196.506361 162.33382 
L 198.516722 162.782965 
L 200.527083 156.308709 
L 202.537444 159.912821 
L 204.547806 164.06467 
L 206.558167 162.98015 
L 208.568528 162.870603 
L 210.578889 155.487102 
L 212.58925 164.218037 
L 214.599611 163.045879 
L 216.609972 159.51845 
L 218.620333 158.269608 
L 220.630694 160.931612 
L 222.641056 162.081861 
L 224.651417 149.976864 
L 226.661778 160.274327 
L 228.672139 155.629514 
L 230.6825 139.295985 
L 232.692861 155.235143 
L 234.703222 141.727939 
L 236.713583 155.410419 
L 238.723944 151.170932 
L 240.734306 90.580219 
L 242.744667 132.10967 
L 244.755028 160.131916 
L 246.765389 59.950743 
L 248.77575 129.27239 
L 250.786111 149.878271 
L 252.796472 84.763248 
L 254.806833 155.476148 
L 256.817194 136.250565 
L 258.827556 154.577858 
L 260.837917 154.972229 
L 262.848278 153.088013 
L 264.858639 159.890911 
L 266.869 160.931612 
L 268.879361 158.401065 
L 270.889722 159.562269 
L 272.900083 159.485586 
L 274.910444 162.202363 
L 276.920806 163.319747 
L 278.931167 159.814228 
L 280.941528 161.632716 
L 282.951889 159.978549 
L 284.96225 164.29472 
L 288.982972 163.637435 
L 290.993333 159.452721 
L 293.003694 164.645272 
L 297.024417 161.698445 
L 299.034778 161.884675 
L 301.045139 159.606088 
L 303.0555 162.377639 
L 305.065861 161.358847 
L 307.076222 163.319747 
L 309.086583 163.681254 
L 311.096944 162.366684 
L 313.107306 164.042761 
L 315.117667 162.158544 
L 317.128028 159.847092 
L 319.138389 163.166381 
L 321.14875 162.531006 
L 323.159111 161.45744 
L 325.169472 163.352612 
L 327.179833 160.690608 
L 329.190194 163.834621 
L 331.200556 162.081861 
L 333.210917 161.709399 
L 335.221278 163.319747 
L 337.231639 163.790802 
L 341.252361 162.35573 
L 343.262722 162.969195 
L 345.273083 163.133517 
L 347.283444 163.692209 
L 349.293806 162.717236 
L 351.304167 163.089698 
L 355.324889 163.495023 
L 357.33525 162.684372 
L 359.345611 162.344775 
L 361.355972 162.246182 
L 363.366333 160.931612 
L 365.376694 162.706281 
L 367.387056 160.865884 
L 369.397417 161.22739 
L 371.407778 160.701563 
L 373.418139 161.117843 
L 375.4285 161.840856 
L 377.438861 161.380757 
L 379.449222 160.690608 
L 381.459583 160.537241 
L 383.469944 160.778246 
L 385.480306 159.770409 
L 387.490667 159.627997 
L 389.501028 158.795436 
L 393.52175 142.001807 
L 395.532111 109.192336 
L 397.542472 141.333568 
L 399.552833 152.496456 
L 401.563194 155.125596 
L 403.573556 158.806391 
L 405.583917 157.283681 
L 407.594278 160.822065 
L 409.604639 161.840856 
L 409.604639 161.840856 
" clip-path="url(#p1f3b68a3ac)" style="fill: none; stroke: #ff0000; stroke-width: 1.5; stroke-linecap: square"/>
   </g>
   <g id="patch_3">
    <path d="M 49.75 171.32 
L 49.75 25.44 
" style="fill: none; stroke: #000000; stroke-width: 0.8; stroke-linejoin: miter; stroke-linecap: square"/>
   </g>
   <g id="patch_4">
    <path d="M 411.615 171.32 
L 411.615 25.44 
" style="fill: none; stroke: #000000; stroke-width: 0.8; stroke-linejoin: miter; stroke-linecap: square"/>
   </g>
   <g id="patch_5">
    <path d="M 49.75 171.32 
L 411.615 171.32 
" style="fill: none; stroke: #000000; stroke-width: 0.8; stroke-linejoin: miter; stroke-linecap: square"/>
   </g>
   <g id="patch_6">
    <path d="M 49.75 25.44 
L 411.615 25.44 
" style="fill: none; stroke: #000000; stroke-width: 0.8; stroke-linejoin: miter; stroke-linecap: square"/>
   </g>
   <g id="text_18">
    <!-- H histogram -->
    <g transform="translate(193.848125 19.44) scale(0.12 -0.12)">
     <defs>
      <path id="DejaVuSans-48" d="M 628 4666 
L 1259 4666 
L 1259 2753 
L 3553 2753 
L 3553 4666 
L 4184 4666 
L 4184 0 
L 3553 0 
L 3553 2222 
L 1259 2222 
L 1259 0 
L 628 0 
L 628 4666 
z
" transform="scale(0.015625)"/>
      <path id="DejaVuSans-20" transform="scale(0.015625)"/>
      <path id="DejaVuSans-68" d="M 3513 2113 
L 3513 0 
L 2938 0 
L 2938 2094 
Q 2938 2591 2744 2837 
Q 2550 3084 2163 3084 
Q 1697 3084 1428 2787 
Q 1159 2491 1159 1978 
L 1159 0 
L 581 0 
L 581 4863 
L 1159 4863 
L 1159 2956 
Q 1366 3272 1645 3428 
Q 1925 3584 2291 3584 
Q 2894 3584 3203 3211 
Q 3513 2838 3513 2113 
z
" transform="scale(0.015625)"/>
      <path id="DejaVuSans-69" d="M 603 3500 
L 1178 3500 
L 1178 0 
L 603 0 
L 603 3500 
z
M 603 4863 
L 1178 4863 
L 1178 4134 
L 603 4134 
L 603 4863 
z
" transform="scale(0.015625)"/>
      <path id="DejaVuSans-73" d="M 2834 3397 
L 2834 2853 
Q 2591 2978 2328 3040 
Q 2066 3103 1784 3103 
Q 1356 3103 1142 2972 
Q 928 2841 928 2578 
Q 928 2378 1081 2264 
Q 1234 2150 1697 2047 
L 1894 2003 
Q 2506 1872 2764 1633 
Q 3022 1394 3022 966 
Q 3022 478 2636 193 
Q 2250 -91 1575 -91 
Q 1294 -91 989 -36 
Q 684 19 347 128 
L 347 722 
Q 666 556 975 473 
Q 1284 391 1588 391 
Q 1994 391 2212 530 
Q 2431 669 2431 922 
Q 2431 1156 2273 1281 
Q 2116 1406 1581 1522 
L 1381 1569 
Q 847 1681 609 1914 
Q 372 2147 372 2553 
Q 372 3047 722 3315 
Q 1072 3584 1716 3584 
Q 2034 3584 2315 3537 
Q 2597 3491 2834 3397 
z
" transform="scale(0.015625)"/>
      <path id="DejaVuSans-74" d="M 1172 4494 
L 1172 3500 
L 2356 3500 
L 2356 3053 
L 1172 3053 
L 1172 1153 
Q 1172 725 1289 603 
Q 1406 481 1766 481 
L 2356 481 
L 2356 0 
L 1766 0 
Q 1100 0 847 248 
Q 594 497 594 1153 
L 594 3053 
L 172 3053 
L 172 3500 
L 594 3500 
L 594 4494 
L 1172 4494 
z
" transform="scale(0.015625)"/>
      <path id="DejaVuSans-6f" d="M 1959 3097 
Q 1497 3097 1228 2736 
Q 959 2375 959 1747 
Q 959 1119 1226 758 
Q 1494 397 1959 397 
Q 2419 397 2687 759 
Q 2956 1122 2956 1747 
Q 2956 2369 2687 2733 
Q 2419 3097 1959 3097 
z
M 1959 3584 
Q 2709 3584 3137 3096 
Q 3566 2609 3566 1747 
Q 3566 888 3137 398 
Q 2709 -91 1959 -91 
Q 1206 -91 779 398 
Q 353 888 353 1747 
Q 353 2609 779 3096 
Q 1206 3584 1959 3584 
z
" transform="scale(0.015625)"/>
      <path id="DejaVuSans-67" d="M 2906 1791 
Q 2906 2416 2648 2759 
Q 2391 3103 1925 3103 
Q 1463 3103 1205 2759 
Q 947 2416 947 1791 
Q 947 1169 1205 825 
Q 1463 481 1925 481 
Q 2391 481 2648 825 
Q 2906 1169 2906 1791 
z
M 3481 434 
Q 3481 -459 3084 -895 
Q 2688 -1331 1869 -1331 
Q 1566 -1331 1297 -1286 
Q 1028 -1241 775 -1147 
L 775 -588 
Q 1028 -725 1275 -790 
Q 1522 -856 1778 -856 
Q 2344 -856 2625 -561 
Q 2906 -266 2906 331 
L 2906 616 
Q 2728 306 2450 153 
Q 2172 0 1784 0 
Q 1141 0 747 490 
Q 353 981 353 1791 
Q 353 2603 747 3093 
Q 1141 3584 1784 3584 
Q 2172 3584 2450 3431 
Q 2728 3278 2906 2969 
L 2906 3500 
L 3481 3500 
L 3481 434 
z
" transform="scale(0.015625)"/>
      <path id="DejaVuSans-72" d="M 2631 2963 
Q 2534 3019 2420 3045 
Q 2306 3072 2169 3072 
Q 1681 3072 1420 2755 
Q 1159 2438 1159 1844 
L 1159 0 
L 581 0 
L 581 3500 
L 1159 3500 
L 1159 2956 
Q 1341 3275 1631 3429 
Q 1922 3584 2338 3584 
Q 2397 3584 2469 3576 
Q 2541 3569 2628 3553 
L 2631 2963 
z
" transform="scale(0.015625)"/>
      <path id="DejaVuSans-61" d="M 2194 1759 
Q 1497 1759 1228 1600 
Q 959 1441 959 1056 
Q 959 750 1161 570 
Q 1363 391 1709 391 
Q 2188 391 2477 730 
Q 2766 1069 2766 1631 
L 2766 1759 
L 2194 1759 
z
M 3341 1997 
L 3341 0 
L 2766 0 
L 2766 531 
Q 2569 213 2275 61 
Q 1981 -91 1556 -91 
Q 1019 -91 701 211 
Q 384 513 384 1019 
Q 384 1609 779 1909 
Q 1175 2209 1959 2209 
L 2766 2209 
L 2766 2266 
Q 2766 2663 2505 2880 
Q 2244 3097 1772 3097 
Q 1472 3097 1187 3025 
Q 903 2953 641 2809 
L 641 3341 
Q 956 3463 1253 3523 
Q 1550 3584 1831 3584 
Q 2591 3584 2966 3190 
Q 3341 2797 3341 1997 
z
" transform="scale(0.015625)"/>
      <path id="DejaVuSans-6d" d="M 3328 2828 
Q 3544 3216 3844 3400 
Q 4144 3584 4550 3584 
Q 5097 3584 5394 3201 
Q 5691 2819 5691 2113 
L 5691 0 
L 5113 0 
L 5113 2094 
Q 5113 2597 4934 2840 
Q 4756 3084 4391 3084 
Q 3944 3084 3684 2787 
Q 3425 2491 3425 1978 
L 3425 0 
L 2847 0 
L 2847 2094 
Q 2847 2600 2669 2842 
Q 2491 3084 2119 3084 
Q 1678 3084 1418 2786 
Q 1159 2488 1159 1978 
L 1159 0 
L 581 0 
L 581 3500 
L 1159 3500 
L 1159 2956 
Q 1356 3278 1631 3431 
Q 1906 3584 2284 3584 
Q 2666 3584 2933 3390 
Q 3200 3197 3328 2828 
z
" transform="scale(0.015625)"/>
     </defs>
     <use xlink:href="#DejaVuSans-48"/>
     <use xlink:href="#DejaVuSans-20" transform="translate(75.195312 0)"/>
     <use xlink:href="#DejaVuSans-68" transform="translate(106.982422 0)"/>
     <use xlink:href="#DejaVuSans-69" transform="translate(170.361328 0)"/>
     <use xlink:href="#DejaVuSans-73" transform="translate(198.144531 0)"/>
     <use xlink:href="#DejaVuSans-74" transform="translate(250.244141 0)"/>
     <use xlink:href="#DejaVuSans-6f" transform="translate(289.453125 0)"/>
     <use xlink:href="#DejaVuSans-67" transform="translate(350.634766 0)"/>
     <use xlink:href="#DejaVuSans-72" transform="translate(414.111328 0)"/>
     <use xlink:href="#DejaVuSans-61" transform="translate(455.224609 0)"/>
     <use xlink:href="#DejaVuSans-6d" transform="translate(516.503906 0)"/>
    </g>
   </g>
  </g>
  <g id="axes_2">
   <g id="patch_7">
    <path d="M 49.75 359.72 
L 411.615 359.72 
L 411.615 213.84 
L 49.75 213.84 
z
" style="fill: #ffffff"/>
   </g>
   <g id="matplotlib.axis_3">
    <g id="xtick_11">
     <g id="line2d_19">
      <g>
       <use xlink:href="#mdc6494792c" x="49.75" y="359.72" style="stroke: #000000; stroke-width: 0.8"/>
      </g>
     </g>
     <g id="text_19">
      <!-- 0 -->
      <g transform="translate(46.56875 374.318438) scale(0.1 -0.1)">
       <use xlink:href="#DejaVuSans-30"/>
      </g>
     </g>
    </g>
    <g id="xtick_12">
     <g id="line2d_20">
      <g>
       <use xlink:href="#mdc6494792c" x="120.703922" y="359.72" style="stroke: #000000; stroke-width: 0.8"/>
      </g>
     </g>
     <g id="text_20">
      <!-- 50 -->
      <g transform="translate(114.341422 374.318438) scale(0.1 -0.1)">
       <defs>
        <path id="DejaVuSans-35" d="M 691 4666 
L 3169 4666 
L 3169 4134 
L 1269 4134 
L 1269 2991 
Q 1406 3038 1543 3061 
Q 1681 3084 1819 3084 
Q 2600 3084 3056 2656 
Q 3513 2228 3513 1497 
Q 3513 744 3044 326 
Q 2575 -91 1722 -91 
Q 1428 -91 1123 -41 
Q 819 9 494 109 
L 494 744 
Q 775 591 1075 516 
Q 1375 441 1709 441 
Q 2250 441 2565 725 
Q 2881 1009 2881 1497 
Q 2881 1984 2565 2268 
Q 2250 2553 1709 2553 
Q 1456 2553 1204 2497 
Q 953 2441 691 2322 
L 691 4666 
z
" transform="scale(0.015625)"/>
       </defs>
       <use xlink:href="#DejaVuSans-35"/>
       <use xlink:href="#DejaVuSans-30" transform="translate(63.623047 0)"/>
      </g>
     </g>
    </g>
    <g id="xtick_13">
     <g id="line2d_21">
      <g>
       <use xlink:href="#mdc6494792c" x="191.657843" y="359.72" style="stroke: #000000; stroke-width: 0.8"/>
      </g>
     </g>
     <g id="text_21">
      <!-- 100 -->
      <g transform="translate(182.114093 374.318438) scale(0.1 -0.1)">
       <use xlink:href="#DejaVuSans-31"/>
       <use xlink:href="#DejaVuSans-30" transform="translate(63.623047 0)"/>
       <use xlink:href="#DejaVuSans-30" transform="translate(127.246094 0)"/>
      </g>
     </g>
    </g>
    <g id="xtick_14">
     <g id="line2d_22">
      <g>
       <use xlink:href="#mdc6494792c" x="262.611765" y="359.72" style="stroke: #000000; stroke-width: 0.8"/>
      </g>
     </g>
     <g id="text_22">
      <!-- 150 -->
      <g transform="translate(253.068015 374.318438) scale(0.1 -0.1)">
       <use xlink:href="#DejaVuSans-31"/>
       <use xlink:href="#DejaVuSans-35" transform="translate(63.623047 0)"/>
       <use xlink:href="#DejaVuSans-30" transform="translate(127.246094 0)"/>
      </g>
     </g>
    </g>
    <g id="xtick_15">
     <g id="line2d_23">
      <g>
       <use xlink:href="#mdc6494792c" x="333.565686" y="359.72" style="stroke: #000000; stroke-width: 0.8"/>
      </g>
     </g>
     <g id="text_23">
      <!-- 200 -->
      <g transform="translate(324.021936 374.318438) scale(0.1 -0.1)">
       <use xlink:href="#DejaVuSans-32"/>
       <use xlink:href="#DejaVuSans-30" transform="translate(63.623047 0)"/>
       <use xlink:href="#DejaVuSans-30" transform="translate(127.246094 0)"/>
      </g>
     </g>
    </g>
    <g id="xtick_16">
     <g id="line2d_24">
      <g>
       <use xlink:href="#mdc6494792c" x="404.519608" y="359.72" style="stroke: #000000; stroke-width: 0.8"/>
      </g>
     </g>
     <g id="text_24">
      <!-- 250 -->
      <g transform="translate(394.975858 374.318438) scale(0.1 -0.1)">
       <use xlink:href="#DejaVuSans-32"/>
       <use xlink:href="#DejaVuSans-35" transform="translate(63.623047 0)"/>
       <use xlink:href="#DejaVuSans-30" transform="translate(127.246094 0)"/>
      </g>
     </g>
    </g>
   </g>
   <g id="matplotlib.axis_4">
    <g id="ytick_8">
     <g id="line2d_25">
      <g>
       <use xlink:href="#mf390f91d21" x="49.75" y="353.089091" style="stroke: #000000; stroke-width: 0.8"/>
      </g>
     </g>
     <g id="text_25">
      <!-- 0 -->
      <g transform="translate(36.3875 356.88831) scale(0.1 -0.1)">
       <use xlink:href="#DejaVuSans-30"/>
      </g>
     </g>
    </g>
    <g id="ytick_9">
     <g id="line2d_26">
      <g>
       <use xlink:href="#mf390f91d21" x="49.75" y="318.244587" style="stroke: #000000; stroke-width: 0.8"/>
      </g>
     </g>
     <g id="text_26">
      <!-- 2000 -->
      <g transform="translate(17.3 322.043806) scale(0.1 -0.1)">
       <use xlink:href="#DejaVuSans-32"/>
       <use xlink:href="#DejaVuSans-30" transform="translate(63.623047 0)"/>
       <use xlink:href="#DejaVuSans-30" transform="translate(127.246094 0)"/>
       <use xlink:href="#DejaVuSans-30" transform="translate(190.869141 0)"/>
      </g>
     </g>
    </g>
    <g id="ytick_10">
     <g id="line2d_27">
      <g>
       <use xlink:href="#mf390f91d21" x="49.75" y="283.400083" style="stroke: #000000; stroke-width: 0.8"/>
      </g>
     </g>
     <g id="text_27">
      <!-- 4000 -->
      <g transform="translate(17.3 287.199302) scale(0.1 -0.1)">
       <use xlink:href="#DejaVuSans-34"/>
       <use xlink:href="#DejaVuSans-30" transform="translate(63.623047 0)"/>
       <use xlink:href="#DejaVuSans-30" transform="translate(127.246094 0)"/>
       <use xlink:href="#DejaVuSans-30" transform="translate(190.869141 0)"/>
      </g>
     </g>
    </g>
    <g id="ytick_11">
     <g id="line2d_28">
      <g>
       <use xlink:href="#mf390f91d21" x="49.75" y="248.555579" style="stroke: #000000; stroke-width: 0.8"/>
      </g>
     </g>
     <g id="text_28">
      <!-- 6000 -->
      <g transform="translate(17.3 252.354798) scale(0.1 -0.1)">
       <use xlink:href="#DejaVuSans-36"/>
       <use xlink:href="#DejaVuSans-30" transform="translate(63.623047 0)"/>
       <use xlink:href="#DejaVuSans-30" transform="translate(127.246094 0)"/>
       <use xlink:href="#DejaVuSans-30" transform="translate(190.869141 0)"/>
      </g>
     </g>
    </g>
   </g>
   <g id="line2d_29">
    <path d="M 49.75 347.339748 
L 51.169078 353.019402 
L 52.588157 351.9218 
L 54.007235 352.096023 
L 55.426314 352.008911 
L 56.845392 351.033265 
L 59.683549 345.945968 
L 61.102627 347.270059 
L 62.521706 347.095836 
L 63.940784 346.677702 
L 65.359863 345.980812 
L 66.778941 343.33263 
L 68.19802 343.593964 
L 69.617098 341.869161 
L 71.036176 342.113072 
L 72.455255 318.488499 
L 73.874333 333.82008 
L 75.293412 333.750391 
L 76.71249 338.698311 
L 78.131569 324.499175 
L 79.550647 333.471635 
L 80.969725 321.084414 
L 82.388804 291.588542 
L 83.807882 287.598846 
L 85.226961 300.85718 
L 86.646039 312.774 
L 88.065118 302.686516 
L 89.484196 243.642504 
L 90.903275 293.243655 
L 92.322353 268.085924 
L 93.741431 247.179221 
L 95.16051 222.631268 
L 96.579588 268.13819 
L 97.998667 221.010999 
L 99.417745 252.440741 
L 100.836824 220.470909 
L 102.255902 318.924055 
L 105.094059 327.356425 
L 106.513137 329.63874 
L 107.932216 326.398201 
L 109.351294 330.806031 
L 110.770373 328.454027 
L 112.189451 329.290295 
L 113.608529 332.461145 
L 115.027608 330.109141 
L 116.446686 330.248519 
L 117.865765 332.304344 
L 119.284843 338.105954 
L 120.703922 342.235028 
L 122.123 339.151289 
L 123.542078 343.663653 
L 124.961157 340.579914 
L 126.380235 343.001607 
L 127.799314 339.917868 
L 129.218392 343.942409 
L 130.637471 344.412809 
L 132.056549 343.106141 
L 133.475627 344.691565 
L 134.894706 345.127122 
L 136.313784 343.768186 
L 137.732863 344.830943 
L 139.151941 346.486057 
L 140.57102 340.963204 
L 141.990098 345.649789 
L 143.409176 344.151476 
L 144.828255 345.144544 
L 147.666412 345.005166 
L 149.08549 343.193252 
L 150.504569 344.203742 
L 151.923647 346.015657 
L 153.342725 344.256009 
L 154.761804 344.360543 
L 156.180882 346.50348 
L 157.599961 347.043569 
L 160.438118 346.555746 
L 161.857196 348.698683 
L 163.276275 347.043569 
L 164.695353 346.921614 
L 166.114431 347.705615 
L 167.53351 347.688193 
L 168.952588 348.663839 
L 170.371667 345.057433 
L 171.790745 348.785795 
L 174.628902 347.74046 
L 176.04798 348.315394 
L 177.467059 348.716106 
L 178.886137 348.855484 
L 180.305216 349.221351 
L 183.143373 348.663839 
L 184.562451 349.116817 
L 185.981529 348.489616 
L 187.400608 349.064551 
L 188.819686 348.977439 
L 190.238765 349.552374 
L 191.657843 348.838061 
L 193.076922 349.98793 
L 194.496 349.064551 
L 195.915078 349.709174 
L 197.334157 350.109886 
L 198.753235 349.883397 
L 200.172314 349.970508 
L 201.591392 349.534952 
L 203.010471 350.388642 
L 204.429549 345.4233 
L 205.848627 350.946154 
L 207.267706 351.120376 
L 208.686784 349.221351 
L 210.105863 350.824198 
L 211.524941 350.649976 
L 212.94402 351.294599 
L 214.363098 350.789354 
L 215.782176 350.423486 
L 217.201255 350.68482 
L 220.039412 350.493175 
L 221.45849 350.893887 
L 224.296647 351.172643 
L 227.134804 351.155221 
L 228.553882 351.608199 
L 229.972961 351.346866 
L 231.392039 349.378151 
L 232.811118 351.521088 
L 234.230196 351.590777 
L 235.649275 351.242332 
L 237.068353 351.399132 
L 238.487431 351.294599 
L 239.90651 351.015843 
L 242.744667 351.102954 
L 247.001902 351.102954 
L 248.42098 350.702242 
L 249.840059 350.911309 
L 251.259137 350.336375 
L 254.097294 350.998421 
L 256.935451 350.632553 
L 258.354529 350.876465 
L 259.773608 350.057619 
L 261.192686 350.336375 
L 264.030843 350.301531 
L 265.449922 350.84162 
L 266.869 348.977439 
L 268.288078 350.667398 
L 269.707157 349.865974 
L 271.126235 349.691752 
L 272.545314 350.179575 
L 275.383471 349.67433 
L 276.802549 349.83113 
L 278.221627 349.656907 
L 279.640706 349.273618 
L 282.478863 349.343307 
L 283.897941 349.517529 
L 285.31702 348.768372 
L 286.736098 349.412996 
L 288.155176 349.569796 
L 289.574255 349.378151 
L 290.993333 349.012284 
L 292.412412 349.604641 
L 293.83149 349.918241 
L 295.250569 349.360729 
L 296.669647 349.44784 
L 298.088725 349.778863 
L 299.507804 349.726596 
L 300.926882 349.099395 
L 302.345961 350.824198 
L 303.765039 350.615131 
L 305.184118 351.451399 
L 308.022275 350.824198 
L 309.441353 351.712733 
L 310.860431 351.346866 
L 312.27951 351.451399 
L 313.698588 351.329443 
L 315.117667 351.503666 
L 316.536745 351.259754 
L 319.374902 351.834689 
L 320.79398 350.52802 
L 322.213059 352.043756 
L 323.632137 351.625622 
L 325.051216 351.869533 
L 327.889373 351.486244 
L 329.308451 351.799844 
L 330.727529 351.747578 
L 332.146608 351.939222 
L 333.565686 351.643044 
L 334.984765 351.939222 
L 336.403843 351.956645 
L 337.822922 351.817267 
L 339.242 351.329443 
L 340.661078 351.904378 
L 342.080157 351.312021 
L 343.499235 351.53851 
L 344.918314 351.22491 
L 346.337392 350.493175 
L 347.756471 351.22491 
L 349.175549 350.318953 
L 350.594627 350.824198 
L 352.013706 350.824198 
L 353.432784 350.68482 
L 354.851863 352.008911 
L 356.270941 350.824198 
L 357.69002 351.486244 
L 359.109098 351.9218 
L 360.528176 350.545442 
L 361.947255 351.608199 
L 363.366333 351.608199 
L 364.785412 351.939222 
L 366.20449 351.486244 
L 367.623569 351.834689 
L 369.042647 351.782422 
L 370.461725 351.939222 
L 371.880804 351.468821 
L 373.299882 351.939222 
L 374.718961 352.130867 
L 376.138039 351.660466 
L 378.976196 351.9218 
L 380.395275 351.852111 
L 381.814353 351.939222 
L 383.233431 351.503666 
L 384.65251 351.712733 
L 386.071588 351.643044 
L 387.490667 350.980998 
L 388.909745 350.893887 
L 390.328824 351.277177 
L 391.747902 350.510598 
L 393.16698 351.120376 
L 394.586059 350.458331 
L 396.005137 350.266686 
L 397.424216 351.22491 
L 400.262373 351.172643 
L 401.681451 350.388642 
L 404.519608 352.549001 
L 405.938686 351.939222 
L 407.357765 350.214419 
L 408.776843 353.071669 
L 410.195922 353.089091 
L 411.615 327.826826 
L 411.615 327.826826 
" clip-path="url(#p550935e8ae)" style="fill: none; stroke: #008000; stroke-width: 1.5; stroke-linecap: square"/>
   </g>
   <g id="patch_8">
    <path d="M 49.75 359.72 
L 49.75 213.84 
" style="fill: none; stroke: #000000; stroke-width: 0.8; stroke-linejoin: miter; stroke-linecap: square"/>
   </g>
   <g id="patch_9">
    <path d="M 411.615 359.72 
L 411.615 213.84 
" style="fill: none; stroke: #000000; stroke-width: 0.8; stroke-linejoin: miter; stroke-linecap: square"/>
   </g>
   <g id="patch_10">
    <path d="M 49.75 359.72 
L 411.615 359.72 
" style="fill: none; stroke: #000000; stroke-width: 0.8; stroke-linejoin: miter; stroke-linecap: square"/>
   </g>
   <g id="patch_11">
    <path d="M 49.75 213.84 
L 411.615 213.84 
" style="fill: none; stroke: #000000; stroke-width: 0.8; stroke-linejoin: miter; stroke-linecap: square"/>
   </g>
   <g id="text_29">
    <!-- S histogram -->
    <g transform="translate(194.55125 207.84) scale(0.12 -0.12)">
     <defs>
      <path id="DejaVuSans-53" d="M 3425 4513 
L 3425 3897 
Q 3066 4069 2747 4153 
Q 2428 4238 2131 4238 
Q 1616 4238 1336 4038 
Q 1056 3838 1056 3469 
Q 1056 3159 1242 3001 
Q 1428 2844 1947 2747 
L 2328 2669 
Q 3034 2534 3370 2195 
Q 3706 1856 3706 1288 
Q 3706 609 3251 259 
Q 2797 -91 1919 -91 
Q 1588 -91 1214 -16 
Q 841 59 441 206 
L 441 856 
Q 825 641 1194 531 
Q 1563 422 1919 422 
Q 2459 422 2753 634 
Q 3047 847 3047 1241 
Q 3047 1584 2836 1778 
Q 2625 1972 2144 2069 
L 1759 2144 
Q 1053 2284 737 2584 
Q 422 2884 422 3419 
Q 422 4038 858 4394 
Q 1294 4750 2059 4750 
Q 2388 4750 2728 4690 
Q 3069 4631 3425 4513 
z
" transform="scale(0.015625)"/>
     </defs>
     <use xlink:href="#DejaVuSans-53"/>
     <use xlink:href="#DejaVuSans-20" transform="translate(63.476562 0)"/>
     <use xlink:href="#DejaVuSans-68" transform="translate(95.263672 0)"/>
     <use xlink:href="#DejaVuSans-69" transform="translate(158.642578 0)"/>
     <use xlink:href="#DejaVuSans-73" transform="translate(186.425781 0)"/>
     <use xlink:href="#DejaVuSans-74" transform="translate(238.525391 0)"/>
     <use xlink:href="#DejaVuSans-6f" transform="translate(277.734375 0)"/>
     <use xlink:href="#DejaVuSans-67" transform="translate(338.916016 0)"/>
     <use xlink:href="#DejaVuSans-72" transform="translate(402.392578 0)"/>
     <use xlink:href="#DejaVuSans-61" transform="translate(443.505859 0)"/>
     <use xlink:href="#DejaVuSans-6d" transform="translate(504.785156 0)"/>
    </g>
   </g>
  </g>
  <g id="axes_3">
   <g id="patch_12">
    <path d="M 49.75 548.12 
L 411.615 548.12 
L 411.615 402.24 
L 49.75 402.24 
z
" style="fill: #ffffff"/>
   </g>
   <g id="matplotlib.axis_5">
    <g id="xtick_17">
     <g id="line2d_30">
      <g>
       <use xlink:href="#mdc6494792c" x="49.75" y="548.12" style="stroke: #000000; stroke-width: 0.8"/>
      </g>
     </g>
     <g id="text_30">
      <!-- 0 -->
      <g transform="translate(46.56875 562.718438) scale(0.1 -0.1)">
       <use xlink:href="#DejaVuSans-30"/>
      </g>
     </g>
    </g>
    <g id="xtick_18">
     <g id="line2d_31">
      <g>
       <use xlink:href="#mdc6494792c" x="120.703922" y="548.12" style="stroke: #000000; stroke-width: 0.8"/>
      </g>
     </g>
     <g id="text_31">
      <!-- 50 -->
      <g transform="translate(114.341422 562.718438) scale(0.1 -0.1)">
       <use xlink:href="#DejaVuSans-35"/>
       <use xlink:href="#DejaVuSans-30" transform="translate(63.623047 0)"/>
      </g>
     </g>
    </g>
    <g id="xtick_19">
     <g id="line2d_32">
      <g>
       <use xlink:href="#mdc6494792c" x="191.657843" y="548.12" style="stroke: #000000; stroke-width: 0.8"/>
      </g>
     </g>
     <g id="text_32">
      <!-- 100 -->
      <g transform="translate(182.114093 562.718438) scale(0.1 -0.1)">
       <use xlink:href="#DejaVuSans-31"/>
       <use xlink:href="#DejaVuSans-30" transform="translate(63.623047 0)"/>
       <use xlink:href="#DejaVuSans-30" transform="translate(127.246094 0)"/>
      </g>
     </g>
    </g>
    <g id="xtick_20">
     <g id="line2d_33">
      <g>
       <use xlink:href="#mdc6494792c" x="262.611765" y="548.12" style="stroke: #000000; stroke-width: 0.8"/>
      </g>
     </g>
     <g id="text_33">
      <!-- 150 -->
      <g transform="translate(253.068015 562.718438) scale(0.1 -0.1)">
       <use xlink:href="#DejaVuSans-31"/>
       <use xlink:href="#DejaVuSans-35" transform="translate(63.623047 0)"/>
       <use xlink:href="#DejaVuSans-30" transform="translate(127.246094 0)"/>
      </g>
     </g>
    </g>
    <g id="xtick_21">
     <g id="line2d_34">
      <g>
       <use xlink:href="#mdc6494792c" x="333.565686" y="548.12" style="stroke: #000000; stroke-width: 0.8"/>
      </g>
     </g>
     <g id="text_34">
      <!-- 200 -->
      <g transform="translate(324.021936 562.718438) scale(0.1 -0.1)">
       <use xlink:href="#DejaVuSans-32"/>
       <use xlink:href="#DejaVuSans-30" transform="translate(63.623047 0)"/>
       <use xlink:href="#DejaVuSans-30" transform="translate(127.246094 0)"/>
      </g>
     </g>
    </g>
    <g id="xtick_22">
     <g id="line2d_35">
      <g>
       <use xlink:href="#mdc6494792c" x="404.519608" y="548.12" style="stroke: #000000; stroke-width: 0.8"/>
      </g>
     </g>
     <g id="text_35">
      <!-- 250 -->
      <g transform="translate(394.975858 562.718438) scale(0.1 -0.1)">
       <use xlink:href="#DejaVuSans-32"/>
       <use xlink:href="#DejaVuSans-35" transform="translate(63.623047 0)"/>
       <use xlink:href="#DejaVuSans-30" transform="translate(127.246094 0)"/>
      </g>
     </g>
    </g>
   </g>
   <g id="matplotlib.axis_6">
    <g id="ytick_12">
     <g id="line2d_36">
      <g>
       <use xlink:href="#mf390f91d21" x="49.75" y="541.885079" style="stroke: #000000; stroke-width: 0.8"/>
      </g>
     </g>
     <g id="text_36">
      <!-- 0 -->
      <g transform="translate(36.3875 545.684297) scale(0.1 -0.1)">
       <use xlink:href="#DejaVuSans-30"/>
      </g>
     </g>
    </g>
    <g id="ytick_13">
     <g id="line2d_37">
      <g>
       <use xlink:href="#mf390f91d21" x="49.75" y="504.17196" style="stroke: #000000; stroke-width: 0.8"/>
      </g>
     </g>
     <g id="text_37">
      <!-- 2000 -->
      <g transform="translate(17.3 507.971179) scale(0.1 -0.1)">
       <use xlink:href="#DejaVuSans-32"/>
       <use xlink:href="#DejaVuSans-30" transform="translate(63.623047 0)"/>
       <use xlink:href="#DejaVuSans-30" transform="translate(127.246094 0)"/>
       <use xlink:href="#DejaVuSans-30" transform="translate(190.869141 0)"/>
      </g>
     </g>
    </g>
    <g id="ytick_14">
     <g id="line2d_38">
      <g>
       <use xlink:href="#mf390f91d21" x="49.75" y="466.458841" style="stroke: #000000; stroke-width: 0.8"/>
      </g>
     </g>
     <g id="text_38">
      <!-- 4000 -->
      <g transform="translate(17.3 470.25806) scale(0.1 -0.1)">
       <use xlink:href="#DejaVuSans-34"/>
       <use xlink:href="#DejaVuSans-30" transform="translate(63.623047 0)"/>
       <use xlink:href="#DejaVuSans-30" transform="translate(127.246094 0)"/>
       <use xlink:href="#DejaVuSans-30" transform="translate(190.869141 0)"/>
      </g>
     </g>
    </g>
    <g id="ytick_15">
     <g id="line2d_39">
      <g>
       <use xlink:href="#mf390f91d21" x="49.75" y="428.745723" style="stroke: #000000; stroke-width: 0.8"/>
      </g>
     </g>
     <g id="text_39">
      <!-- 6000 -->
      <g transform="translate(17.3 432.544941) scale(0.1 -0.1)">
       <use xlink:href="#DejaVuSans-36"/>
       <use xlink:href="#DejaVuSans-30" transform="translate(63.623047 0)"/>
       <use xlink:href="#DejaVuSans-30" transform="translate(127.246094 0)"/>
       <use xlink:href="#DejaVuSans-30" transform="translate(190.869141 0)"/>
      </g>
     </g>
    </g>
   </g>
   <g id="line2d_40">
    <path d="M 49.75 541.489091 
L 51.169078 540.301128 
L 54.007235 539.980566 
L 55.426314 540.263415 
L 56.845392 540.357697 
L 58.264471 540.301128 
L 59.683549 539.773144 
L 61.102627 540.225701 
L 62.521706 539.999423 
L 63.940784 540.187988 
L 65.359863 540.131419 
L 66.778941 539.30173 
L 68.19802 539.169734 
L 69.617098 538.868029 
L 71.036176 538.886886 
L 73.874333 538.736033 
L 75.293412 538.038341 
L 78.131569 537.208652 
L 79.550647 536.34125 
L 80.969725 534.870439 
L 82.388804 531.68368 
L 83.807882 533.814471 
L 85.226961 534.229316 
L 86.646039 535.285283 
L 88.065118 534.323598 
L 89.484196 534.135033 
L 90.903275 534.908152 
L 92.322353 533.38077 
L 93.741431 533.229918 
L 95.16051 534.191602 
L 97.998667 535.454992 
L 99.417745 535.813267 
L 100.836824 535.813267 
L 102.255902 535.662414 
L 103.67498 536.642955 
L 105.094059 536.303537 
L 106.513137 537.020086 
L 107.932216 536.642955 
L 109.351294 537.114369 
L 110.770373 537.887488 
L 112.189451 537.642353 
L 113.608529 537.962914 
L 115.027608 537.793205 
L 116.446686 537.944058 
L 117.865765 537.472644 
L 119.284843 532.249377 
L 120.703922 534.945865 
L 122.123 537.227508 
L 123.542078 538.019484 
L 124.961157 537.962914 
L 127.799314 538.20805 
L 129.218392 538.076054 
L 130.637471 538.377759 
L 133.475627 537.944058 
L 134.894706 537.4915 
L 136.313784 537.906345 
L 137.732863 537.661209 
L 139.151941 537.076656 
L 140.57102 537.717779 
L 141.990098 536.322394 
L 143.409176 537.510357 
L 144.828255 537.020086 
L 146.247333 537.378361 
L 147.666412 536.963517 
L 149.08549 536.322394 
L 150.504569 535.454992 
L 151.923647 535.304139 
L 153.342725 534.663016 
L 154.761804 535.13443 
L 156.180882 534.964721 
L 157.599961 533.060209 
L 159.019039 534.021893 
L 161.857196 531.68368 
L 163.276275 532.117381 
L 164.695353 533.701332 
L 166.114431 534.399025 
L 167.53351 532.381373 
L 168.952588 534.342455 
L 170.371667 533.739045 
L 171.790745 533.550479 
L 173.209824 533.003639 
L 174.628902 532.324803 
L 177.467059 532.249377 
L 178.886137 531.872246 
L 180.305216 532.324803 
L 183.143373 532.249377 
L 184.562451 532.456799 
L 185.981529 531.872246 
L 187.400608 530.514573 
L 188.819686 529.892307 
L 190.238765 528.553491 
L 191.657843 528.628917 
L 193.076922 527.836942 
L 194.496 524.763323 
L 195.915078 524.61247 
L 197.334157 522.670245 
L 198.753235 521.840556 
L 200.172314 520.520597 
L 201.591392 519.502343 
L 203.010471 517.409265 
L 204.429549 516.598433 
L 205.848627 513.355104 
L 207.267706 512.412276 
L 208.686784 511.224313 
L 210.105863 510.262629 
L 211.524941 508.471256 
L 212.94402 505.661628 
L 214.363098 504.22853 
L 215.782176 503.474267 
L 217.201255 506.321608 
L 218.620333 508.754104 
L 220.039412 510.130633 
L 222.877569 516.598433 
L 224.296647 520.445171 
L 225.715725 523.556503 
L 227.134804 526.290704 
L 228.553882 527.799229 
L 229.972961 531.381975 
L 231.392039 531.231123 
L 232.811118 532.965926 
L 234.230196 534.153889 
L 235.649275 534.889295 
L 237.068353 535.756697 
L 238.487431 535.605844 
L 239.90651 536.416676 
L 241.325588 536.831521 
L 242.744667 537.510357 
L 244.163745 537.321791 
L 245.582824 537.472644 
L 247.001902 538.547468 
L 248.42098 538.622894 
L 251.259137 538.377759 
L 254.097294 537.755492 
L 255.516373 538.302332 
L 258.354529 538.434328 
L 259.773608 538.000627 
L 261.192686 538.132623 
L 262.611765 538.434328 
L 264.030843 538.170336 
L 265.449922 538.585181 
L 266.869 538.736033 
L 268.288078 539.169734 
L 269.707157 539.24516 
L 271.126235 539.056595 
L 273.964392 539.264017 
L 275.383471 539.132021 
L 279.640706 539.792001 
L 281.059784 539.452583 
L 282.478863 539.641148 
L 283.897941 539.660005 
L 285.31702 539.433726 
L 286.736098 539.810857 
L 289.574255 539.188591 
L 290.993333 538.472041 
L 292.412412 538.547468 
L 293.83149 538.09491 
L 295.250569 537.321791 
L 296.669647 536.831521 
L 298.088725 537.208652 
L 299.507804 537.038943 
L 300.926882 537.076656 
L 302.345961 537.00123 
L 305.184118 538.264619 
L 306.603196 537.906345 
L 308.022275 538.585181 
L 309.441353 538.377759 
L 310.860431 538.792603 
L 312.27951 538.283476 
L 313.698588 538.528611 
L 315.117667 538.20805 
L 317.955824 538.566324 
L 319.374902 537.698922 
L 320.79398 537.944058 
L 322.213059 537.359504 
L 323.632137 537.095513 
L 325.051216 535.341853 
L 326.470294 535.700127 
L 327.889373 533.588193 
L 329.308451 534.493307 
L 330.727529 534.09732 
L 332.146608 535.718984 
L 333.565686 534.342455 
L 334.984765 534.531021 
L 336.403843 532.720791 
L 339.242 525.347876 
L 340.661078 516.673859 
L 342.080157 525.838147 
L 343.499235 529.760311 
L 344.918314 534.135033 
L 346.337392 534.229316 
L 347.756471 535.888693 
L 349.175549 535.85098 
L 350.594627 535.568131 
L 352.013706 533.399627 
L 353.432784 534.417881 
L 354.851863 533.98418 
L 356.270941 535.964119 
L 357.69002 535.756697 
L 359.109098 534.493307 
L 361.947255 527.308958 
L 363.366333 531.985385 
L 364.785412 533.682475 
L 366.20449 534.04075 
L 367.623569 533.98418 
L 369.042647 536.322394 
L 370.461725 536.793808 
L 371.880804 535.718984 
L 373.299882 535.021291 
L 374.718961 535.360709 
L 376.138039 536.190398 
L 377.557118 533.607049 
L 378.976196 533.588193 
L 380.395275 523.688499 
L 381.814353 518.578371 
L 383.233431 522.85881 
L 384.65251 527.818085 
L 386.071588 530.721996 
L 387.490667 523.801638 
L 388.909745 521.312572 
L 390.328824 507.396432 
L 391.747902 507.886702 
L 393.16698 493.763139 
L 394.586059 502.229734 
L 396.005137 502.173165 
L 397.424216 510.960321 
L 398.843294 512.261424 
L 400.262373 519.35149 
L 401.681451 516.485293 
L 403.100529 505.303354 
L 404.519608 499.834951 
L 405.938686 498.420709 
L 407.357765 504.605661 
L 408.776843 484.579995 
L 410.195922 477.471072 
L 411.615 408.870909 
L 411.615 408.870909 
" clip-path="url(#p7e55e4d6b1)" style="fill: none; stroke: #0000ff; stroke-width: 1.5; stroke-linecap: square"/>
   </g>
   <g id="patch_13">
    <path d="M 49.75 548.12 
L 49.75 402.24 
" style="fill: none; stroke: #000000; stroke-width: 0.8; stroke-linejoin: miter; stroke-linecap: square"/>
   </g>
   <g id="patch_14">
    <path d="M 411.615 548.12 
L 411.615 402.24 
" style="fill: none; stroke: #000000; stroke-width: 0.8; stroke-linejoin: miter; stroke-linecap: square"/>
   </g>
   <g id="patch_15">
    <path d="M 49.75 548.12 
L 411.615 548.12 
" style="fill: none; stroke: #000000; stroke-width: 0.8; stroke-linejoin: miter; stroke-linecap: square"/>
   </g>
   <g id="patch_16">
    <path d="M 49.75 402.24 
L 411.615 402.24 
" style="fill: none; stroke: #000000; stroke-width: 0.8; stroke-linejoin: miter; stroke-linecap: square"/>
   </g>
   <g id="text_40">
    <!-- V histogram -->
    <g transform="translate(194.255937 396.24) scale(0.12 -0.12)">
     <defs>
      <path id="DejaVuSans-56" d="M 1831 0 
L 50 4666 
L 709 4666 
L 2188 738 
L 3669 4666 
L 4325 4666 
L 2547 0 
L 1831 0 
z
" transform="scale(0.015625)"/>
     </defs>
     <use xlink:href="#DejaVuSans-56"/>
     <use xlink:href="#DejaVuSans-20" transform="translate(68.408203 0)"/>
     <use xlink:href="#DejaVuSans-68" transform="translate(100.195312 0)"/>
     <use xlink:href="#DejaVuSans-69" transform="translate(163.574219 0)"/>
     <use xlink:href="#DejaVuSans-73" transform="translate(191.357422 0)"/>
     <use xlink:href="#DejaVuSans-74" transform="translate(243.457031 0)"/>
     <use xlink:href="#DejaVuSans-6f" transform="translate(282.666016 0)"/>
     <use xlink:href="#DejaVuSans-67" transform="translate(343.847656 0)"/>
     <use xlink:href="#DejaVuSans-72" transform="translate(407.324219 0)"/>
     <use xlink:href="#DejaVuSans-61" transform="translate(448.4375 0)"/>
     <use xlink:href="#DejaVuSans-6d" transform="translate(509.716797 0)"/>
    </g>
   </g>
  </g>
 </g>
 <defs>
  <clipPath id="p1f3b68a3ac">
   <rect x="49.75" y="25.44" width="361.865" height="145.88"/>
  </clipPath>
  <clipPath id="p550935e8ae">
   <rect x="49.75" y="213.84" width="361.865" height="145.88"/>
  </clipPath>
  <clipPath id="p7e55e4d6b1">
   <rect x="49.75" y="402.24" width="361.865" height="145.88"/>
  </clipPath>
 </defs>
</svg>
