<?xml version="1.0" encoding="utf-8" standalone="no"?>
<!DOCTYPE svg PUBLIC "-//W3C//DTD SVG 1.1//EN"
  "http://www.w3.org/Graphics/SVG/1.1/DTD/svg11.dtd">
<svg xmlns:xlink="http://www.w3.org/1999/xlink" width="432pt" height="576pt" viewBox="0 0 432 576" xmlns="http://www.w3.org/2000/svg" version="1.1">
 <metadata>
  <rdf:RDF xmlns:dc="http://purl.org/dc/elements/1.1/" xmlns:cc="http://creativecommons.org/ns#" xmlns:rdf="http://www.w3.org/1999/02/22-rdf-syntax-ns#">
   <cc:Work>
    <dc:type rdf:resource="http://purl.org/dc/dcmitype/StillImage"/>
    <dc:date>2026-01-22T15:02:14.619105</dc:date>
    <dc:format>image/svg+xml</dc:format>
    <dc:creator>
     <cc:Agent>
      <dc:title>Matplotlib v3.10.8, https://matplotlib.org/</dc:title>
     </cc:Agent>
    </dc:creator>
   </cc:Work>
  </rdf:RDF>
 </metadata>
 <defs>
  <style type="text/css">*{stroke-linejoin: round; stroke-linecap: butt}</style>
 </defs>
 <g id="figure_1">
  <g id="patch_1">
   <path d="M 0 576 
L 432 576 
L 432 0 
L 0 0 
z
" style="fill: #ffffff"/>
  </g>
  <g id="axes_1">
   <g id="patch_2">
    <path d="M 43.36 171.32 
L 411.615 171.32 
L 411.615 25.44 
L 43.36 25.44 
z
" style="fill: #ffffff"/>
   </g>
   <g id="matplotlib.axis_1">
    <g id="xtick_1">
     <g id="line2d_1">
      <defs>
       <path id="ma1ba56ea0c" d="M 0 0 
L 0 3.5 
" style="stroke: #000000; stroke-width: 0.8"/>
      </defs>
      <g>
       <use xlink:href="#ma1ba56ea0c" x="43.36" y="171.32" style="stroke: #000000; stroke-width: 0.8"/>
      </g>
     </g>
     <g id="text_1">
      <!-- 0 -->
      <g transform="translate(40.17875 185.918438) scale(0.1 -0.1)">
       <defs>
        <path id="DejaVuSans-30" d="M 2034 4250 
Q 1547 4250 1301 3770 
Q 1056 3291 1056 2328 
Q 1056 1369 1301 889 
Q 1547 409 2034 409 
Q 2525 409 2770 889 
Q 3016 1369 3016 2328 
Q 3016 3291 2770 3770 
Q 2525 4250 2034 4250 
z
M 2034 4750 
Q 2819 4750 3233 4129 
Q 3647 3509 3647 2328 
Q 3647 1150 3233 529 
Q 2819 -91 2034 -91 
Q 1250 -91 836 529 
Q 422 1150 422 2328 
Q 422 3509 836 4129 
Q 1250 4750 2034 4750 
z
" transform="scale(0.015625)"/>
       </defs>
       <use xlink:href="#DejaVuSans-30"/>
      </g>
     </g>
    </g>
    <g id="xtick_2">
     <g id="line2d_2">
      <g>
       <use xlink:href="#ma1ba56ea0c" x="84.277222" y="171.32" style="stroke: #000000; stroke-width: 0.8"/>
      </g>
     </g>
     <g id="text_2">
      <!-- 20 -->
      <g transform="translate(77.914722 185.918438) scale(0.1 -0.1)">
       <defs>
        <path id="DejaVuSans-32" d="M 1228 531 
L 3431 531 
L 3431 0 
L 469 0 
L 469 531 
Q 828 903 1448 1529 
Q 2069 2156 2228 2338 
Q 2531 2678 2651 2914 
Q 2772 3150 2772 3378 
Q 2772 3750 2511 3984 
Q 2250 4219 1831 4219 
Q 1534 4219 1204 4116 
Q 875 4013 500 3803 
L 500 4441 
Q 881 4594 1212 4672 
Q 1544 4750 1819 4750 
Q 2544 4750 2975 4387 
Q 3406 4025 3406 3419 
Q 3406 3131 3298 2873 
Q 3191 2616 2906 2266 
Q 2828 2175 2409 1742 
Q 1991 1309 1228 531 
z
" transform="scale(0.015625)"/>
       </defs>
       <use xlink:href="#DejaVuSans-32"/>
       <use xlink:href="#DejaVuSans-30" transform="translate(63.623047 0)"/>
      </g>
     </g>
    </g>
    <g id="xtick_3">
     <g id="line2d_3">
      <g>
       <use xlink:href="#ma1ba56ea0c" x="125.194444" y="171.32" style="stroke: #000000; stroke-width: 0.8"/>
      </g>
     </g>
     <g id="text_3">
      <!-- 40 -->
      <g transform="translate(118.831944 185.918438) scale(0.1 -0.1)">
       <defs>
        <path id="DejaVuSans-34" d="M 2419 4116 
L 825 1625 
L 2419 1625 
L 2419 4116 
z
M 2253 4666 
L 3047 4666 
L 3047 1625 
L 3713 1625 
L 3713 1100 
L 3047 1100 
L 3047 0 
L 2419 0 
L 2419 1100 
L 313 1100 
L 313 1709 
L 2253 4666 
z
" transform="scale(0.015625)"/>
       </defs>
       <use xlink:href="#DejaVuSans-34"/>
       <use xlink:href="#DejaVuSans-30" transform="translate(63.623047 0)"/>
      </g>
     </g>
    </g>
    <g id="xtick_4">
     <g id="line2d_4">
      <g>
       <use xlink:href="#ma1ba56ea0c" x="166.111667" y="171.32" style="stroke: #000000; stroke-width: 0.8"/>
      </g>
     </g>
     <g id="text_4">
      <!-- 60 -->
      <g transform="translate(159.749167 185.918438) scale(0.1 -0.1)">
       <defs>
        <path id="DejaVuSans-36" d="M 2113 2584 
Q 1688 2584 1439 2293 
Q 1191 2003 1191 1497 
Q 1191 994 1439 701 
Q 1688 409 2113 409 
Q 2538 409 2786 701 
Q 3034 994 3034 1497 
Q 3034 2003 2786 2293 
Q 2538 2584 2113 2584 
z
M 3366 4563 
L 3366 3988 
Q 3128 4100 2886 4159 
Q 2644 4219 2406 4219 
Q 1781 4219 1451 3797 
Q 1122 3375 1075 2522 
Q 1259 2794 1537 2939 
Q 1816 3084 2150 3084 
Q 2853 3084 3261 2657 
Q 3669 2231 3669 1497 
Q 3669 778 3244 343 
Q 2819 -91 2113 -91 
Q 1303 -91 875 529 
Q 447 1150 447 2328 
Q 447 3434 972 4092 
Q 1497 4750 2381 4750 
Q 2619 4750 2861 4703 
Q 3103 4656 3366 4563 
z
" transform="scale(0.015625)"/>
       </defs>
       <use xlink:href="#DejaVuSans-36"/>
       <use xlink:href="#DejaVuSans-30" transform="translate(63.623047 0)"/>
      </g>
     </g>
    </g>
    <g id="xtick_5">
     <g id="line2d_5">
      <g>
       <use xlink:href="#ma1ba56ea0c" x="207.028889" y="171.32" style="stroke: #000000; stroke-width: 0.8"/>
      </g>
     </g>
     <g id="text_5">
      <!-- 80 -->
      <g transform="translate(200.666389 185.918438) scale(0.1 -0.1)">
       <defs>
        <path id="DejaVuSans-38" d="M 2034 2216 
Q 1584 2216 1326 1975 
Q 1069 1734 1069 1313 
Q 1069 891 1326 650 
Q 1584 409 2034 409 
Q 2484 409 2743 651 
Q 3003 894 3003 1313 
Q 3003 1734 2745 1975 
Q 2488 2216 2034 2216 
z
M 1403 2484 
Q 997 2584 770 2862 
Q 544 3141 544 3541 
Q 544 4100 942 4425 
Q 1341 4750 2034 4750 
Q 2731 4750 3128 4425 
Q 3525 4100 3525 3541 
Q 3525 3141 3298 2862 
Q 3072 2584 2669 2484 
Q 3125 2378 3379 2068 
Q 3634 1759 3634 1313 
Q 3634 634 3220 271 
Q 2806 -91 2034 -91 
Q 1263 -91 848 271 
Q 434 634 434 1313 
Q 434 1759 690 2068 
Q 947 2378 1403 2484 
z
M 1172 3481 
Q 1172 3119 1398 2916 
Q 1625 2713 2034 2713 
Q 2441 2713 2670 2916 
Q 2900 3119 2900 3481 
Q 2900 3844 2670 4047 
Q 2441 4250 2034 4250 
Q 1625 4250 1398 4047 
Q 1172 3844 1172 3481 
z
" transform="scale(0.015625)"/>
       </defs>
       <use xlink:href="#DejaVuSans-38"/>
       <use xlink:href="#DejaVuSans-30" transform="translate(63.623047 0)"/>
      </g>
     </g>
    </g>
    <g id="xtick_6">
     <g id="line2d_6">
      <g>
       <use xlink:href="#ma1ba56ea0c" x="247.946111" y="171.32" style="stroke: #000000; stroke-width: 0.8"/>
      </g>
     </g>
     <g id="text_6">
      <!-- 100 -->
      <g transform="translate(238.402361 185.918438) scale(0.1 -0.1)">
       <defs>
        <path id="DejaVuSans-31" d="M 794 531 
L 1825 531 
L 1825 4091 
L 703 3866 
L 703 4441 
L 1819 4666 
L 2450 4666 
L 2450 531 
L 3481 531 
L 3481 0 
L 794 0 
L 794 531 
z
" transform="scale(0.015625)"/>
       </defs>
       <use xlink:href="#DejaVuSans-31"/>
       <use xlink:href="#DejaVuSans-30" transform="translate(63.623047 0)"/>
       <use xlink:href="#DejaVuSans-30" transform="translate(127.246094 0)"/>
      </g>
     </g>
    </g>
    <g id="xtick_7">
     <g id="line2d_7">
      <g>
       <use xlink:href="#ma1ba56ea0c" x="288.863333" y="171.32" style="stroke: #000000; stroke-width: 0.8"/>
      </g>
     </g>
     <g id="text_7">
      <!-- 120 -->
      <g transform="translate(279.319583 185.918438) scale(0.1 -0.1)">
       <use xlink:href="#DejaVuSans-31"/>
       <use xlink:href="#DejaVuSans-32" transform="translate(63.623047 0)"/>
       <use xlink:href="#DejaVuSans-30" transform="translate(127.246094 0)"/>
      </g>
     </g>
    </g>
    <g id="xtick_8">
     <g id="line2d_8">
      <g>
       <use xlink:href="#ma1ba56ea0c" x="329.780556" y="171.32" style="stroke: #000000; stroke-width: 0.8"/>
      </g>
     </g>
     <g id="text_8">
      <!-- 140 -->
      <g transform="translate(320.236806 185.918438) scale(0.1 -0.1)">
       <use xlink:href="#DejaVuSans-31"/>
       <use xlink:href="#DejaVuSans-34" transform="translate(63.623047 0)"/>
       <use xlink:href="#DejaVuSans-30" transform="translate(127.246094 0)"/>
      </g>
     </g>
    </g>
    <g id="xtick_9">
     <g id="line2d_9">
      <g>
       <use xlink:href="#ma1ba56ea0c" x="370.697778" y="171.32" style="stroke: #000000; stroke-width: 0.8"/>
      </g>
     </g>
     <g id="text_9">
      <!-- 160 -->
      <g transform="translate(361.154028 185.918438) scale(0.1 -0.1)">
       <use xlink:href="#DejaVuSans-31"/>
       <use xlink:href="#DejaVuSans-36" transform="translate(63.623047 0)"/>
       <use xlink:href="#DejaVuSans-30" transform="translate(127.246094 0)"/>
      </g>
     </g>
    </g>
    <g id="xtick_10">
     <g id="line2d_10">
      <g>
       <use xlink:href="#ma1ba56ea0c" x="411.615" y="171.32" style="stroke: #000000; stroke-width: 0.8"/>
      </g>
     </g>
     <g id="text_10">
      <!-- 180 -->
      <g transform="translate(402.07125 185.918438) scale(0.1 -0.1)">
       <use xlink:href="#DejaVuSans-31"/>
       <use xlink:href="#DejaVuSans-38" transform="translate(63.623047 0)"/>
       <use xlink:href="#DejaVuSans-30" transform="translate(127.246094 0)"/>
      </g>
     </g>
    </g>
   </g>
   <g id="matplotlib.axis_2">
    <g id="ytick_1">
     <g id="line2d_11">
      <defs>
       <path id="m14e9e05b4e" d="M 0 0 
L -3.5 0 
" style="stroke: #000000; stroke-width: 0.8"/>
      </defs>
      <g>
       <use xlink:href="#m14e9e05b4e" x="43.36" y="164.867162" style="stroke: #000000; stroke-width: 0.8"/>
      </g>
     </g>
     <g id="text_11">
      <!-- 0 -->
      <g transform="translate(29.9975 168.66638) scale(0.1 -0.1)">
       <use xlink:href="#DejaVuSans-30"/>
      </g>
     </g>
    </g>
    <g id="ytick_2">
     <g id="line2d_12">
      <g>
       <use xlink:href="#m14e9e05b4e" x="43.36" y="142.608319" style="stroke: #000000; stroke-width: 0.8"/>
      </g>
     </g>
     <g id="text_12">
      <!-- 500 -->
      <g transform="translate(17.2725 146.407538) scale(0.1 -0.1)">
       <defs>
        <path id="DejaVuSans-35" d="M 691 4666 
L 3169 4666 
L 3169 4134 
L 1269 4134 
L 1269 2991 
Q 1406 3038 1543 3061 
Q 1681 3084 1819 3084 
Q 2600 3084 3056 2656 
Q 3513 2228 3513 1497 
Q 3513 744 3044 326 
Q 2575 -91 1722 -91 
Q 1428 -91 1123 -41 
Q 819 9 494 109 
L 494 744 
Q 775 591 1075 516 
Q 1375 441 1709 441 
Q 2250 441 2565 725 
Q 2881 1009 2881 1497 
Q 2881 1984 2565 2268 
Q 2250 2553 1709 2553 
Q 1456 2553 1204 2497 
Q 953 2441 691 2322 
L 691 4666 
z
" transform="scale(0.015625)"/>
       </defs>
       <use xlink:href="#DejaVuSans-35"/>
       <use xlink:href="#DejaVuSans-30" transform="translate(63.623047 0)"/>
       <use xlink:href="#DejaVuSans-30" transform="translate(127.246094 0)"/>
      </g>
     </g>
    </g>
    <g id="ytick_3">
     <g id="line2d_13">
      <g>
       <use xlink:href="#m14e9e05b4e" x="43.36" y="120.349477" style="stroke: #000000; stroke-width: 0.8"/>
      </g>
     </g>
     <g id="text_13">
      <!-- 1000 -->
      <g transform="translate(10.91 124.148696) scale(0.1 -0.1)">
       <use xlink:href="#DejaVuSans-31"/>
       <use xlink:href="#DejaVuSans-30" transform="translate(63.623047 0)"/>
       <use xlink:href="#DejaVuSans-30" transform="translate(127.246094 0)"/>
       <use xlink:href="#DejaVuSans-30" transform="translate(190.869141 0)"/>
      </g>
     </g>
    </g>
    <g id="ytick_4">
     <g id="line2d_14">
      <g>
       <use xlink:href="#m14e9e05b4e" x="43.36" y="98.090635" style="stroke: #000000; stroke-width: 0.8"/>
      </g>
     </g>
     <g id="text_14">
      <!-- 1500 -->
      <g transform="translate(10.91 101.889854) scale(0.1 -0.1)">
       <use xlink:href="#DejaVuSans-31"/>
       <use xlink:href="#DejaVuSans-35" transform="translate(63.623047 0)"/>
       <use xlink:href="#DejaVuSans-30" transform="translate(127.246094 0)"/>
       <use xlink:href="#DejaVuSans-30" transform="translate(190.869141 0)"/>
      </g>
     </g>
    </g>
    <g id="ytick_5">
     <g id="line2d_15">
      <g>
       <use xlink:href="#m14e9e05b4e" x="43.36" y="75.831793" style="stroke: #000000; stroke-width: 0.8"/>
      </g>
     </g>
     <g id="text_15">
      <!-- 2000 -->
      <g transform="translate(10.91 79.631012) scale(0.1 -0.1)">
       <use xlink:href="#DejaVuSans-32"/>
       <use xlink:href="#DejaVuSans-30" transform="translate(63.623047 0)"/>
       <use xlink:href="#DejaVuSans-30" transform="translate(127.246094 0)"/>
       <use xlink:href="#DejaVuSans-30" transform="translate(190.869141 0)"/>
      </g>
     </g>
    </g>
    <g id="ytick_6">
     <g id="line2d_16">
      <g>
       <use xlink:href="#m14e9e05b4e" x="43.36" y="53.572951" style="stroke: #000000; stroke-width: 0.8"/>
      </g>
     </g>
     <g id="text_16">
      <!-- 2500 -->
      <g transform="translate(10.91 57.372169) scale(0.1 -0.1)">
       <use xlink:href="#DejaVuSans-32"/>
       <use xlink:href="#DejaVuSans-35" transform="translate(63.623047 0)"/>
       <use xlink:href="#DejaVuSans-30" transform="translate(127.246094 0)"/>
       <use xlink:href="#DejaVuSans-30" transform="translate(190.869141 0)"/>
      </g>
     </g>
    </g>
    <g id="ytick_7">
     <g id="line2d_17">
      <g>
       <use xlink:href="#m14e9e05b4e" x="43.36" y="31.314108" style="stroke: #000000; stroke-width: 0.8"/>
      </g>
     </g>
     <g id="text_17">
      <!-- 3000 -->
      <g transform="translate(10.91 35.113327) scale(0.1 -0.1)">
       <defs>
        <path id="DejaVuSans-33" d="M 2597 2516 
Q 3050 2419 3304 2112 
Q 3559 1806 3559 1356 
Q 3559 666 3084 287 
Q 2609 -91 1734 -91 
Q 1441 -91 1130 -33 
Q 819 25 488 141 
L 488 750 
Q 750 597 1062 519 
Q 1375 441 1716 441 
Q 2309 441 2620 675 
Q 2931 909 2931 1356 
Q 2931 1769 2642 2001 
Q 2353 2234 1838 2234 
L 1294 2234 
L 1294 2753 
L 1863 2753 
Q 2328 2753 2575 2939 
Q 2822 3125 2822 3475 
Q 2822 3834 2567 4026 
Q 2313 4219 1838 4219 
Q 1578 4219 1281 4162 
Q 984 4106 628 3988 
L 628 4550 
Q 988 4650 1302 4700 
Q 1616 4750 1894 4750 
Q 2613 4750 3031 4423 
Q 3450 4097 3450 3541 
Q 3450 3153 3228 2886 
Q 3006 2619 2597 2516 
z
" transform="scale(0.015625)"/>
       </defs>
       <use xlink:href="#DejaVuSans-33"/>
       <use xlink:href="#DejaVuSans-30" transform="translate(63.623047 0)"/>
       <use xlink:href="#DejaVuSans-30" transform="translate(127.246094 0)"/>
       <use xlink:href="#DejaVuSans-30" transform="translate(190.869141 0)"/>
      </g>
     </g>
    </g>
   </g>
   <g id="line2d_18">
    <path d="M 43.36 32.070909 
L 45.405861 77.122806 
L 47.451722 70.356118 
L 49.497583 89.72131 
L 53.589306 116.120297 
L 55.635167 131.612451 
L 57.681028 154.939718 
L 59.726889 154.1384 
L 61.77275 157.388191 
L 63.818611 157.566261 
L 65.864472 152.090586 
L 67.910333 158.055956 
L 69.956194 146.080699 
L 72.002056 149.018866 
L 74.047917 131.968593 
L 76.093778 128.674284 
L 78.139639 112.202741 
L 80.1855 117.233239 
L 82.231361 120.438513 
L 84.277222 123.198609 
L 86.323083 143.409638 
L 88.368944 140.426953 
L 90.414806 147.727853 
L 92.460667 141.584413 
L 94.506528 147.060088 
L 96.552389 145.947146 
L 98.59825 155.47393 
L 100.644111 159.079863 
L 102.689972 161.038641 
L 104.735833 149.775667 
L 106.781694 163.086454 
L 108.827556 160.504429 
L 110.873417 161.127676 
L 112.919278 159.658593 
L 114.965139 153.381599 
L 117.011 157.610779 
L 119.056861 162.59676 
L 121.102722 162.196101 
L 123.148583 160.192805 
L 125.194444 158.901792 
L 127.240306 162.507724 
L 129.286167 158.990827 
L 131.332028 160.415393 
L 133.377889 164.154879 
L 135.42375 162.863866 
L 137.469611 163.309043 
L 139.515472 164.600056 
L 141.561333 163.220007 
L 143.607194 163.843255 
L 145.653056 158.723721 
L 147.698917 162.819348 
L 149.744778 164.021326 
L 151.790639 164.021326 
L 153.8365 163.798737 
L 155.882361 161.973512 
L 157.928222 163.576149 
L 159.974083 164.377467 
L 164.065806 164.600056 
L 166.111667 155.652001 
L 168.157528 164.689091 
L 170.203389 164.199396 
L 172.24925 163.576149 
L 174.295111 164.600056 
L 176.340972 163.798737 
L 178.386833 161.617371 
L 180.432694 163.75422 
L 182.478556 163.887773 
L 184.524417 163.309043 
L 186.570278 163.041937 
L 188.616139 163.93229 
L 190.662 164.288432 
L 192.707861 163.576149 
L 194.753722 162.463207 
L 196.799583 156.275249 
L 198.845444 163.35356 
L 200.891306 162.997419 
L 202.937167 164.51102 
L 204.983028 163.041937 
L 207.028889 157.966921 
L 209.07475 163.620666 
L 211.120611 164.199396 
L 213.166472 160.504429 
L 215.212333 162.240618 
L 217.258194 163.17549 
L 219.304056 163.487113 
L 221.349917 160.816052 
L 223.395778 163.576149 
L 225.441639 163.887773 
L 227.4875 154.806165 
L 229.533361 163.086454 
L 231.579222 162.59676 
L 233.625083 162.374171 
L 235.670944 161.661888 
L 239.762667 155.963625 
L 241.808528 161.305747 
L 243.854389 155.652001 
L 245.90025 152.446728 
L 247.946111 150.443432 
L 249.991972 132.191181 
L 252.037833 133.215088 
L 254.083694 123.465715 
L 256.129556 142.163143 
L 258.175417 142.163143 
L 260.221278 145.056792 
L 262.267139 151.200233 
L 264.313 149.375007 
L 266.358861 148.083995 
L 268.404722 131.25631 
L 270.450583 150.131808 
L 272.496444 153.069975 
L 274.542306 154.850683 
L 276.588167 136.420361 
L 278.634028 157.299155 
L 280.679889 153.826776 
L 282.72575 161.839959 
L 286.817472 162.196101 
L 288.863333 135.262902 
L 290.909194 163.576149 
L 292.955056 161.884477 
L 295.000917 162.685795 
L 297.046778 159.569557 
L 299.092639 153.55967 
L 301.1385 150.176326 
L 303.184361 162.685795 
L 305.230222 162.240618 
L 307.276083 161.973512 
L 309.321944 160.548946 
L 311.367806 162.863866 
L 313.413667 159.614075 
L 315.459528 160.370876 
L 317.505389 162.730313 
L 319.55125 161.216712 
L 321.597111 161.172194 
L 323.642972 162.819348 
L 325.688833 161.706406 
L 327.734694 162.77483 
L 329.780556 158.901792 
L 331.826417 161.127676 
L 333.872278 161.928994 
L 335.918139 160.816052 
L 337.964 162.062548 
L 340.009861 160.014734 
L 342.055722 160.326358 
L 344.101583 161.4393 
L 346.147444 160.148287 
L 348.193306 162.240618 
L 350.239167 155.919107 
L 352.285028 160.949605 
L 354.330889 160.504429 
L 356.37675 159.302451 
L 358.422611 160.014734 
L 360.468472 157.655297 
L 362.514333 156.542355 
L 364.560194 158.100474 
L 366.606056 157.165602 
L 368.651917 156.097178 
L 370.697778 157.521744 
L 372.743639 158.189509 
L 374.7895 156.408802 
L 376.835361 155.47393 
L 378.881222 151.111197 
L 380.927083 144.878721 
L 382.972944 149.152419 
L 385.018806 145.769075 
L 387.064667 141.940554 
L 389.110528 136.776503 
L 391.156389 140.783094 
L 393.20225 140.159847 
L 395.248111 141.495377 
L 397.293972 136.598432 
L 399.339833 142.563802 
L 401.385694 143.854815 
L 403.431556 141.62893 
L 405.477417 136.375844 
L 407.523278 126.225812 
L 409.569139 112.6034 
L 409.569139 112.6034 
" clip-path="url(#p445c029711)" style="fill: none; stroke: #ff0000; stroke-width: 1.5; stroke-linecap: square"/>
   </g>
   <g id="patch_3">
    <path d="M 43.36 171.32 
L 43.36 25.44 
" style="fill: none; stroke: #000000; stroke-width: 0.8; stroke-linejoin: miter; stroke-linecap: square"/>
   </g>
   <g id="patch_4">
    <path d="M 411.615 171.32 
L 411.615 25.44 
" style="fill: none; stroke: #000000; stroke-width: 0.8; stroke-linejoin: miter; stroke-linecap: square"/>
   </g>
   <g id="patch_5">
    <path d="M 43.36 171.32 
L 411.615 171.32 
" style="fill: none; stroke: #000000; stroke-width: 0.8; stroke-linejoin: miter; stroke-linecap: square"/>
   </g>
   <g id="patch_6">
    <path d="M 43.36 25.44 
L 411.615 25.44 
" style="fill: none; stroke: #000000; stroke-width: 0.8; stroke-linejoin: miter; stroke-linecap: square"/>
   </g>
   <g id="text_18">
    <!-- H histogram (bbox) -->
    <g transform="translate(169.41125 19.44) scale(0.12 -0.12)">
     <defs>
      <path id="DejaVuSans-48" d="M 628 4666 
L 1259 4666 
L 1259 2753 
L 3553 2753 
L 3553 4666 
L 4184 4666 
L 4184 0 
L 3553 0 
L 3553 2222 
L 1259 2222 
L 1259 0 
L 628 0 
L 628 4666 
z
" transform="scale(0.015625)"/>
      <path id="DejaVuSans-20" transform="scale(0.015625)"/>
      <path id="DejaVuSans-68" d="M 3513 2113 
L 3513 0 
L 2938 0 
L 2938 2094 
Q 2938 2591 2744 2837 
Q 2550 3084 2163 3084 
Q 1697 3084 1428 2787 
Q 1159 2491 1159 1978 
L 1159 0 
L 581 0 
L 581 4863 
L 1159 4863 
L 1159 2956 
Q 1366 3272 1645 3428 
Q 1925 3584 2291 3584 
Q 2894 3584 3203 3211 
Q 3513 2838 3513 2113 
z
" transform="scale(0.015625)"/>
      <path id="DejaVuSans-69" d="M 603 3500 
L 1178 3500 
L 1178 0 
L 603 0 
L 603 3500 
z
M 603 4863 
L 1178 4863 
L 1178 4134 
L 603 4134 
L 603 4863 
z
" transform="scale(0.015625)"/>
      <path id="DejaVuSans-73" d="M 2834 3397 
L 2834 2853 
Q 2591 2978 2328 3040 
Q 2066 3103 1784 3103 
Q 1356 3103 1142 2972 
Q 928 2841 928 2578 
Q 928 2378 1081 2264 
Q 1234 2150 1697 2047 
L 1894 2003 
Q 2506 1872 2764 1633 
Q 3022 1394 3022 966 
Q 3022 478 2636 193 
Q 2250 -91 1575 -91 
Q 1294 -91 989 -36 
Q 684 19 347 128 
L 347 722 
Q 666 556 975 473 
Q 1284 391 1588 391 
Q 1994 391 2212 530 
Q 2431 669 2431 922 
Q 2431 1156 2273 1281 
Q 2116 1406 1581 1522 
L 1381 1569 
Q 847 1681 609 1914 
Q 372 2147 372 2553 
Q 372 3047 722 3315 
Q 1072 3584 1716 3584 
Q 2034 3584 2315 3537 
Q 2597 3491 2834 3397 
z
" transform="scale(0.015625)"/>
      <path id="DejaVuSans-74" d="M 1172 4494 
L 1172 3500 
L 2356 3500 
L 2356 3053 
L 1172 3053 
L 1172 1153 
Q 1172 725 1289 603 
Q 1406 481 1766 481 
L 2356 481 
L 2356 0 
L 1766 0 
Q 1100 0 847 248 
Q 594 497 594 1153 
L 594 3053 
L 172 3053 
L 172 3500 
L 594 3500 
L 594 4494 
L 1172 4494 
z
" transform="scale(0.015625)"/>
      <path id="DejaVuSans-6f" d="M 1959 3097 
Q 1497 3097 1228 2736 
Q 959 2375 959 1747 
Q 959 1119 1226 758 
Q 1494 397 1959 397 
Q 2419 397 2687 759 
Q 2956 1122 2956 1747 
Q 2956 2369 2687 2733 
Q 2419 3097 1959 3097 
z
M 1959 3584 
Q 2709 3584 3137 3096 
Q 3566 2609 3566 1747 
Q 3566 888 3137 398 
Q 2709 -91 1959 -91 
Q 1206 -91 779 398 
Q 353 888 353 1747 
Q 353 2609 779 3096 
Q 1206 3584 1959 3584 
z
" transform="scale(0.015625)"/>
      <path id="DejaVuSans-67" d="M 2906 1791 
Q 2906 2416 2648 2759 
Q 2391 3103 1925 3103 
Q 1463 3103 1205 2759 
Q 947 2416 947 1791 
Q 947 1169 1205 825 
Q 1463 481 1925 481 
Q 2391 481 2648 825 
Q 2906 1169 2906 1791 
z
M 3481 434 
Q 3481 -459 3084 -895 
Q 2688 -1331 1869 -1331 
Q 1566 -1331 1297 -1286 
Q 1028 -1241 775 -1147 
L 775 -588 
Q 1028 -725 1275 -790 
Q 1522 -856 1778 -856 
Q 2344 -856 2625 -561 
Q 2906 -266 2906 331 
L 2906 616 
Q 2728 306 2450 153 
Q 2172 0 1784 0 
Q 1141 0 747 490 
Q 353 981 353 1791 
Q 353 2603 747 3093 
Q 1141 3584 1784 3584 
Q 2172 3584 2450 3431 
Q 2728 3278 2906 2969 
L 2906 3500 
L 3481 3500 
L 3481 434 
z
" transform="scale(0.015625)"/>
      <path id="DejaVuSans-72" d="M 2631 2963 
Q 2534 3019 2420 3045 
Q 2306 3072 2169 3072 
Q 1681 3072 1420 2755 
Q 1159 2438 1159 1844 
L 1159 0 
L 581 0 
L 581 3500 
L 1159 3500 
L 1159 2956 
Q 1341 3275 1631 3429 
Q 1922 3584 2338 3584 
Q 2397 3584 2469 3576 
Q 2541 3569 2628 3553 
L 2631 2963 
z
" transform="scale(0.015625)"/>
      <path id="DejaVuSans-61" d="M 2194 1759 
Q 1497 1759 1228 1600 
Q 959 1441 959 1056 
Q 959 750 1161 570 
Q 1363 391 1709 391 
Q 2188 391 2477 730 
Q 2766 1069 2766 1631 
L 2766 1759 
L 2194 1759 
z
M 3341 1997 
L 3341 0 
L 2766 0 
L 2766 531 
Q 2569 213 2275 61 
Q 1981 -91 1556 -91 
Q 1019 -91 701 211 
Q 384 513 384 1019 
Q 384 1609 779 1909 
Q 1175 2209 1959 2209 
L 2766 2209 
L 2766 2266 
Q 2766 2663 2505 2880 
Q 2244 3097 1772 3097 
Q 1472 3097 1187 3025 
Q 903 2953 641 2809 
L 641 3341 
Q 956 3463 1253 3523 
Q 1550 3584 1831 3584 
Q 2591 3584 2966 3190 
Q 3341 2797 3341 1997 
z
" transform="scale(0.015625)"/>
      <path id="DejaVuSans-6d" d="M 3328 2828 
Q 3544 3216 3844 3400 
Q 4144 3584 4550 3584 
Q 5097 3584 5394 3201 
Q 5691 2819 5691 2113 
L 5691 0 
L 5113 0 
L 5113 2094 
Q 5113 2597 4934 2840 
Q 4756 3084 4391 3084 
Q 3944 3084 3684 2787 
Q 3425 2491 3425 1978 
L 3425 0 
L 2847 0 
L 2847 2094 
Q 2847 2600 2669 2842 
Q 2491 3084 2119 3084 
Q 1678 3084 1418 2786 
Q 1159 2488 1159 1978 
L 1159 0 
L 581 0 
L 581 3500 
L 1159 3500 
L 1159 2956 
Q 1356 3278 1631 3431 
Q 1906 3584 2284 3584 
Q 2666 3584 2933 3390 
Q 3200 3197 3328 2828 
z
" transform="scale(0.015625)"/>
      <path id="DejaVuSans-28" d="M 1984 4856 
Q 1566 4138 1362 3434 
Q 1159 2731 1159 2009 
Q 1159 1288 1364 580 
Q 1569 -128 1984 -844 
L 1484 -844 
Q 1016 -109 783 600 
Q 550 1309 550 2009 
Q 550 2706 781 3412 
Q 1013 4119 1484 4856 
L 1984 4856 
z
" transform="scale(0.015625)"/>
      <path id="DejaVuSans-62" d="M 3116 1747 
Q 3116 2381 2855 2742 
Q 2594 3103 2138 3103 
Q 1681 3103 1420 2742 
Q 1159 2381 1159 1747 
Q 1159 1113 1420 752 
Q 1681 391 2138 391 
Q 2594 391 2855 752 
Q 3116 1113 3116 1747 
z
M 1159 2969 
Q 1341 3281 1617 3432 
Q 1894 3584 2278 3584 
Q 2916 3584 3314 3078 
Q 3713 2572 3713 1747 
Q 3713 922 3314 415 
Q 2916 -91 2278 -91 
Q 1894 -91 1617 61 
Q 1341 213 1159 525 
L 1159 0 
L 581 0 
L 581 4863 
L 1159 4863 
L 1159 2969 
z
" transform="scale(0.015625)"/>
      <path id="DejaVuSans-78" d="M 3513 3500 
L 2247 1797 
L 3578 0 
L 2900 0 
L 1881 1375 
L 863 0 
L 184 0 
L 1544 1831 
L 300 3500 
L 978 3500 
L 1906 2253 
L 2834 3500 
L 3513 3500 
z
" transform="scale(0.015625)"/>
      <path id="DejaVuSans-29" d="M 513 4856 
L 1013 4856 
Q 1481 4119 1714 3412 
Q 1947 2706 1947 2009 
Q 1947 1309 1714 600 
Q 1481 -109 1013 -844 
L 513 -844 
Q 928 -128 1133 580 
Q 1338 1288 1338 2009 
Q 1338 2731 1133 3434 
Q 928 4138 513 4856 
z
" transform="scale(0.015625)"/>
     </defs>
     <use xlink:href="#DejaVuSans-48"/>
     <use xlink:href="#DejaVuSans-20" transform="translate(75.195312 0)"/>
     <use xlink:href="#DejaVuSans-68" transform="translate(106.982422 0)"/>
     <use xlink:href="#DejaVuSans-69" transform="translate(170.361328 0)"/>
     <use xlink:href="#DejaVuSans-73" transform="translate(198.144531 0)"/>
     <use xlink:href="#DejaVuSans-74" transform="translate(250.244141 0)"/>
     <use xlink:href="#DejaVuSans-6f" transform="translate(289.453125 0)"/>
     <use xlink:href="#DejaVuSans-67" transform="translate(350.634766 0)"/>
     <use xlink:href="#DejaVuSans-72" transform="translate(414.111328 0)"/>
     <use xlink:href="#DejaVuSans-61" transform="translate(455.224609 0)"/>
     <use xlink:href="#DejaVuSans-6d" transform="translate(516.503906 0)"/>
     <use xlink:href="#DejaVuSans-20" transform="translate(613.916016 0)"/>
     <use xlink:href="#DejaVuSans-28" transform="translate(645.703125 0)"/>
     <use xlink:href="#DejaVuSans-62" transform="translate(684.716797 0)"/>
     <use xlink:href="#DejaVuSans-62" transform="translate(748.193359 0)"/>
     <use xlink:href="#DejaVuSans-6f" transform="translate(811.669922 0)"/>
     <use xlink:href="#DejaVuSans-78" transform="translate(869.726562 0)"/>
     <use xlink:href="#DejaVuSans-29" transform="translate(928.90625 0)"/>
    </g>
   </g>
  </g>
  <g id="axes_2">
   <g id="patch_7">
    <path d="M 43.36 359.72 
L 411.615 359.72 
L 411.615 213.84 
L 43.36 213.84 
z
" style="fill: #ffffff"/>
   </g>
   <g id="matplotlib.axis_3">
    <g id="xtick_11">
     <g id="line2d_19">
      <g>
       <use xlink:href="#ma1ba56ea0c" x="43.36" y="359.72" style="stroke: #000000; stroke-width: 0.8"/>
      </g>
     </g>
     <g id="text_19">
      <!-- 0 -->
      <g transform="translate(40.17875 374.318438) scale(0.1 -0.1)">
       <use xlink:href="#DejaVuSans-30"/>
      </g>
     </g>
    </g>
    <g id="xtick_12">
     <g id="line2d_20">
      <g>
       <use xlink:href="#ma1ba56ea0c" x="115.566863" y="359.72" style="stroke: #000000; stroke-width: 0.8"/>
      </g>
     </g>
     <g id="text_20">
      <!-- 50 -->
      <g transform="translate(109.204363 374.318438) scale(0.1 -0.1)">
       <use xlink:href="#DejaVuSans-35"/>
       <use xlink:href="#DejaVuSans-30" transform="translate(63.623047 0)"/>
      </g>
     </g>
    </g>
    <g id="xtick_13">
     <g id="line2d_21">
      <g>
       <use xlink:href="#ma1ba56ea0c" x="187.773725" y="359.72" style="stroke: #000000; stroke-width: 0.8"/>
      </g>
     </g>
     <g id="text_21">
      <!-- 100 -->
      <g transform="translate(178.229975 374.318438) scale(0.1 -0.1)">
       <use xlink:href="#DejaVuSans-31"/>
       <use xlink:href="#DejaVuSans-30" transform="translate(63.623047 0)"/>
       <use xlink:href="#DejaVuSans-30" transform="translate(127.246094 0)"/>
      </g>
     </g>
    </g>
    <g id="xtick_14">
     <g id="line2d_22">
      <g>
       <use xlink:href="#ma1ba56ea0c" x="259.980588" y="359.72" style="stroke: #000000; stroke-width: 0.8"/>
      </g>
     </g>
     <g id="text_22">
      <!-- 150 -->
      <g transform="translate(250.436838 374.318438) scale(0.1 -0.1)">
       <use xlink:href="#DejaVuSans-31"/>
       <use xlink:href="#DejaVuSans-35" transform="translate(63.623047 0)"/>
       <use xlink:href="#DejaVuSans-30" transform="translate(127.246094 0)"/>
      </g>
     </g>
    </g>
    <g id="xtick_15">
     <g id="line2d_23">
      <g>
       <use xlink:href="#ma1ba56ea0c" x="332.187451" y="359.72" style="stroke: #000000; stroke-width: 0.8"/>
      </g>
     </g>
     <g id="text_23">
      <!-- 200 -->
      <g transform="translate(322.643701 374.318438) scale(0.1 -0.1)">
       <use xlink:href="#DejaVuSans-32"/>
       <use xlink:href="#DejaVuSans-30" transform="translate(63.623047 0)"/>
       <use xlink:href="#DejaVuSans-30" transform="translate(127.246094 0)"/>
      </g>
     </g>
    </g>
    <g id="xtick_16">
     <g id="line2d_24">
      <g>
       <use xlink:href="#ma1ba56ea0c" x="404.394314" y="359.72" style="stroke: #000000; stroke-width: 0.8"/>
      </g>
     </g>
     <g id="text_24">
      <!-- 250 -->
      <g transform="translate(394.850564 374.318438) scale(0.1 -0.1)">
       <use xlink:href="#DejaVuSans-32"/>
       <use xlink:href="#DejaVuSans-35" transform="translate(63.623047 0)"/>
       <use xlink:href="#DejaVuSans-30" transform="translate(127.246094 0)"/>
      </g>
     </g>
    </g>
   </g>
   <g id="matplotlib.axis_4">
    <g id="ytick_8">
     <g id="line2d_25">
      <g>
       <use xlink:href="#m14e9e05b4e" x="43.36" y="353.364106" style="stroke: #000000; stroke-width: 0.8"/>
      </g>
     </g>
     <g id="text_25">
      <!-- 0 -->
      <g transform="translate(29.9975 357.163324) scale(0.1 -0.1)">
       <use xlink:href="#DejaVuSans-30"/>
      </g>
     </g>
    </g>
    <g id="ytick_9">
     <g id="line2d_26">
      <g>
       <use xlink:href="#m14e9e05b4e" x="43.36" y="322.806921" style="stroke: #000000; stroke-width: 0.8"/>
      </g>
     </g>
     <g id="text_26">
      <!-- 1000 -->
      <g transform="translate(10.91 326.60614) scale(0.1 -0.1)">
       <use xlink:href="#DejaVuSans-31"/>
       <use xlink:href="#DejaVuSans-30" transform="translate(63.623047 0)"/>
       <use xlink:href="#DejaVuSans-30" transform="translate(127.246094 0)"/>
       <use xlink:href="#DejaVuSans-30" transform="translate(190.869141 0)"/>
      </g>
     </g>
    </g>
    <g id="ytick_10">
     <g id="line2d_27">
      <g>
       <use xlink:href="#m14e9e05b4e" x="43.36" y="292.249736" style="stroke: #000000; stroke-width: 0.8"/>
      </g>
     </g>
     <g id="text_27">
      <!-- 2000 -->
      <g transform="translate(10.91 296.048955) scale(0.1 -0.1)">
       <use xlink:href="#DejaVuSans-32"/>
       <use xlink:href="#DejaVuSans-30" transform="translate(63.623047 0)"/>
       <use xlink:href="#DejaVuSans-30" transform="translate(127.246094 0)"/>
       <use xlink:href="#DejaVuSans-30" transform="translate(190.869141 0)"/>
      </g>
     </g>
    </g>
    <g id="ytick_11">
     <g id="line2d_28">
      <g>
       <use xlink:href="#m14e9e05b4e" x="43.36" y="261.692551" style="stroke: #000000; stroke-width: 0.8"/>
      </g>
     </g>
     <g id="text_28">
      <!-- 3000 -->
      <g transform="translate(10.91 265.49177) scale(0.1 -0.1)">
       <use xlink:href="#DejaVuSans-33"/>
       <use xlink:href="#DejaVuSans-30" transform="translate(63.623047 0)"/>
       <use xlink:href="#DejaVuSans-30" transform="translate(127.246094 0)"/>
       <use xlink:href="#DejaVuSans-30" transform="translate(190.869141 0)"/>
      </g>
     </g>
    </g>
    <g id="ytick_12">
     <g id="line2d_29">
      <g>
       <use xlink:href="#m14e9e05b4e" x="43.36" y="231.135367" style="stroke: #000000; stroke-width: 0.8"/>
      </g>
     </g>
     <g id="text_29">
      <!-- 4000 -->
      <g transform="translate(10.91 234.934585) scale(0.1 -0.1)">
       <use xlink:href="#DejaVuSans-34"/>
       <use xlink:href="#DejaVuSans-30" transform="translate(63.623047 0)"/>
       <use xlink:href="#DejaVuSans-30" transform="translate(127.246094 0)"/>
       <use xlink:href="#DejaVuSans-30" transform="translate(190.869141 0)"/>
      </g>
     </g>
    </g>
   </g>
   <g id="line2d_30">
    <path d="M 43.36 341.905161 
L 44.804137 353.089091 
L 46.248275 352.294604 
L 47.692412 348.505513 
L 49.136549 349.238886 
L 50.580686 347.527683 
L 52.024824 349.024985 
L 53.468961 348.383284 
L 54.913098 348.749971 
L 56.357235 347.986041 
L 57.801373 349.269443 
L 59.24551 348.688856 
L 60.689647 348.658299 
L 62.133784 348.383284 
L 65.022059 348.719413 
L 66.466196 349.177771 
L 67.910333 348.383284 
L 69.354471 348.627742 
L 70.798608 348.719413 
L 73.686882 349.3 
L 75.13102 349.3 
L 76.575157 348.53607 
L 78.019294 349.3 
L 79.463431 349.666686 
L 80.907569 349.147214 
L 82.351706 349.208328 
L 83.795843 348.933314 
L 85.23998 349.544457 
L 86.684118 349.544457 
L 88.128255 349.391672 
L 89.572392 348.963871 
L 91.016529 349.666686 
L 92.460667 349.024985 
L 93.904804 349.636129 
L 95.348941 348.688856 
L 96.793078 350.552845 
L 98.237216 349.147214 
L 99.681353 349.269443 
L 101.12549 349.177771 
L 104.013765 350.338944 
L 105.457902 348.53607 
L 106.902039 349.147214 
L 108.346176 349.911144 
L 109.790314 349.055543 
L 111.234451 349.972258 
L 112.678588 350.125044 
L 114.122725 349.452786 
L 115.566863 350.49173 
L 117.011 347.924927 
L 118.455137 350.736188 
L 119.899275 349.5139 
L 121.343412 350.002815 
L 122.787549 348.444399 
L 124.231686 350.338944 
L 125.675824 349.177771 
L 127.119961 349.147214 
L 128.564098 348.474956 
L 130.008235 349.544457 
L 131.452373 348.719413 
L 134.340647 349.575015 
L 135.784784 346.274839 
L 137.228922 348.994428 
L 138.673059 349.819472 
L 140.117196 347.924927 
L 143.005471 349.3 
L 144.449608 347.436012 
L 145.893745 346.794311 
L 147.337882 348.597185 
L 148.78202 347.497126 
L 150.226157 347.313783 
L 151.670294 346.610968 
L 153.114431 348.10827 
L 154.558569 346.030381 
L 157.446843 347.313783 
L 158.89098 346.305396 
L 160.335118 346.060938 
L 161.779255 346.947097 
L 163.223392 346.977654 
L 164.667529 346.397067 
L 166.111667 342.546862 
L 167.555804 346.397067 
L 168.999941 345.419238 
L 170.444078 345.297009 
L 171.888216 346.397067 
L 173.332353 345.297009 
L 174.77649 345.419238 
L 176.220627 345.327566 
L 177.664765 346.244282 
L 179.108902 345.633138 
L 180.553039 345.999824 
L 181.997176 346.244282 
L 183.441314 346.610968 
L 184.885451 346.213724 
L 186.329588 347.13044 
L 187.773725 346.641525 
L 189.217863 346.610968 
L 190.662 345.572023 
L 192.106137 346.947097 
L 194.994412 347.649912 
L 196.438549 346.947097 
L 197.882686 348.841642 
L 199.326824 347.772141 
L 200.770961 347.405455 
L 202.215098 348.10827 
L 203.659235 348.444399 
L 205.103373 348.413842 
L 206.54751 348.138827 
L 207.991647 348.994428 
L 209.435784 348.505513 
L 210.879922 347.772141 
L 212.324059 349.238886 
L 213.768196 348.566628 
L 215.212333 348.32217 
L 216.656471 349.330557 
L 218.100608 349.361114 
L 219.544745 349.269443 
L 222.43302 349.5139 
L 225.321294 349.269443 
L 226.765431 349.3 
L 228.209569 345.93871 
L 229.653706 349.605572 
L 231.097843 349.819472 
L 232.54198 349.208328 
L 233.986118 349.238886 
L 235.430255 349.697243 
L 236.874392 349.636129 
L 238.318529 349.972258 
L 239.762667 349.361114 
L 241.206804 349.330557 
L 242.650941 350.094487 
L 244.095078 349.055543 
L 245.539216 349.758358 
L 246.983353 349.116657 
L 248.42749 348.352727 
L 249.871627 348.658299 
L 251.315765 350.06393 
L 252.759902 349.483343 
L 254.204039 349.208328 
L 257.092314 349.575015 
L 258.536451 348.841642 
L 259.980588 349.055543 
L 262.868863 349.024985 
L 264.313 347.436012 
L 265.757137 348.444399 
L 267.201275 348.658299 
L 268.645412 348.53607 
L 270.089549 347.619355 
L 271.533686 347.741584 
L 272.977824 346.488739 
L 274.421961 347.711026 
L 275.866098 346.641525 
L 278.754373 347.680469 
L 280.19851 347.008211 
L 281.642647 347.191554 
L 283.086784 348.10827 
L 284.530922 348.169384 
L 285.975059 348.077713 
L 287.419196 347.833255 
L 288.863333 345.266452 
L 290.307471 346.824868 
L 291.751608 346.91654 
L 293.195745 347.222111 
L 297.528157 346.885982 
L 298.972294 346.335953 
L 300.416431 346.947097 
L 301.860569 345.908152 
L 303.304706 347.833255 
L 304.748843 347.34434 
L 306.19298 346.15261 
L 307.637118 347.222111 
L 309.081255 346.947097 
L 310.525392 346.549853 
L 311.969529 346.91654 
L 313.413667 345.816481 
L 314.857804 345.847038 
L 316.301941 347.649912 
L 317.746078 347.222111 
L 319.190216 344.380293 
L 320.634353 346.977654 
L 322.07849 346.763754 
L 323.522627 346.672082 
L 324.966765 346.824868 
L 326.410902 345.93871 
L 327.855039 347.038768 
L 329.299176 346.885982 
L 330.743314 347.069326 
L 333.631588 347.222111 
L 335.075725 347.436012 
L 336.519863 348.199941 
L 337.964 346.549853 
L 339.408137 347.619355 
L 340.852275 346.335953 
L 343.740549 348.047155 
L 345.184686 347.283226 
L 346.628824 347.772141 
L 348.072961 347.588798 
L 349.517098 348.749971 
L 350.961235 345.663695 
L 352.405373 348.291613 
L 353.84951 348.474956 
L 355.293647 347.986041 
L 356.737784 346.91654 
L 358.181922 348.719413 
L 359.626059 347.497126 
L 361.070196 347.772141 
L 362.514333 348.413842 
L 365.402608 346.122053 
L 366.846745 347.924927 
L 368.290882 347.313783 
L 369.73502 347.619355 
L 371.179157 347.008211 
L 374.067431 347.924927 
L 375.511569 347.252669 
L 378.399843 347.038768 
L 379.84398 347.711026 
L 381.288118 346.977654 
L 382.732255 345.969267 
L 384.176392 346.549853 
L 385.620529 346.427625 
L 387.064667 345.93871 
L 388.508804 346.610968 
L 389.952941 346.702639 
L 392.841216 344.746979 
L 395.72949 344.380293 
L 397.173627 344.716422 
L 398.617765 343.585806 
L 400.061902 345.052551 
L 401.506039 344.074721 
L 402.950176 344.716422 
L 404.394314 345.144223 
L 405.838451 344.013607 
L 407.282588 346.763754 
L 408.726725 343.738592 
L 410.170863 349.361114 
L 411.615 220.470909 
L 411.615 220.470909 
" clip-path="url(#pc55314b5b4)" style="fill: none; stroke: #008000; stroke-width: 1.5; stroke-linecap: square"/>
   </g>
   <g id="patch_8">
    <path d="M 43.36 359.72 
L 43.36 213.84 
" style="fill: none; stroke: #000000; stroke-width: 0.8; stroke-linejoin: miter; stroke-linecap: square"/>
   </g>
   <g id="patch_9">
    <path d="M 411.615 359.72 
L 411.615 213.84 
" style="fill: none; stroke: #000000; stroke-width: 0.8; stroke-linejoin: miter; stroke-linecap: square"/>
   </g>
   <g id="patch_10">
    <path d="M 43.36 359.72 
L 411.615 359.72 
" style="fill: none; stroke: #000000; stroke-width: 0.8; stroke-linejoin: miter; stroke-linecap: square"/>
   </g>
   <g id="patch_11">
    <path d="M 43.36 213.84 
L 411.615 213.84 
" style="fill: none; stroke: #000000; stroke-width: 0.8; stroke-linejoin: miter; stroke-linecap: square"/>
   </g>
   <g id="text_30">
    <!-- S histogram (bbox) -->
    <g transform="translate(170.114375 207.84) scale(0.12 -0.12)">
     <defs>
      <path id="DejaVuSans-53" d="M 3425 4513 
L 3425 3897 
Q 3066 4069 2747 4153 
Q 2428 4238 2131 4238 
Q 1616 4238 1336 4038 
Q 1056 3838 1056 3469 
Q 1056 3159 1242 3001 
Q 1428 2844 1947 2747 
L 2328 2669 
Q 3034 2534 3370 2195 
Q 3706 1856 3706 1288 
Q 3706 609 3251 259 
Q 2797 -91 1919 -91 
Q 1588 -91 1214 -16 
Q 841 59 441 206 
L 441 856 
Q 825 641 1194 531 
Q 1563 422 1919 422 
Q 2459 422 2753 634 
Q 3047 847 3047 1241 
Q 3047 1584 2836 1778 
Q 2625 1972 2144 2069 
L 1759 2144 
Q 1053 2284 737 2584 
Q 422 2884 422 3419 
Q 422 4038 858 4394 
Q 1294 4750 2059 4750 
Q 2388 4750 2728 4690 
Q 3069 4631 3425 4513 
z
" transform="scale(0.015625)"/>
     </defs>
     <use xlink:href="#DejaVuSans-53"/>
     <use xlink:href="#DejaVuSans-20" transform="translate(63.476562 0)"/>
     <use xlink:href="#DejaVuSans-68" transform="translate(95.263672 0)"/>
     <use xlink:href="#DejaVuSans-69" transform="translate(158.642578 0)"/>
     <use xlink:href="#DejaVuSans-73" transform="translate(186.425781 0)"/>
     <use xlink:href="#DejaVuSans-74" transform="translate(238.525391 0)"/>
     <use xlink:href="#DejaVuSans-6f" transform="translate(277.734375 0)"/>
     <use xlink:href="#DejaVuSans-67" transform="translate(338.916016 0)"/>
     <use xlink:href="#DejaVuSans-72" transform="translate(402.392578 0)"/>
     <use xlink:href="#DejaVuSans-61" transform="translate(443.505859 0)"/>
     <use xlink:href="#DejaVuSans-6d" transform="translate(504.785156 0)"/>
     <use xlink:href="#DejaVuSans-20" transform="translate(602.197266 0)"/>
     <use xlink:href="#DejaVuSans-28" transform="translate(633.984375 0)"/>
     <use xlink:href="#DejaVuSans-62" transform="translate(672.998047 0)"/>
     <use xlink:href="#DejaVuSans-62" transform="translate(736.474609 0)"/>
     <use xlink:href="#DejaVuSans-6f" transform="translate(799.951172 0)"/>
     <use xlink:href="#DejaVuSans-78" transform="translate(858.007812 0)"/>
     <use xlink:href="#DejaVuSans-29" transform="translate(917.1875 0)"/>
    </g>
   </g>
  </g>
  <g id="axes_3">
   <g id="patch_12">
    <path d="M 43.36 548.12 
L 411.615 548.12 
L 411.615 402.24 
L 43.36 402.24 
z
" style="fill: #ffffff"/>
   </g>
   <g id="matplotlib.axis_5">
    <g id="xtick_17">
     <g id="line2d_31">
      <g>
       <use xlink:href="#ma1ba56ea0c" x="43.36" y="548.12" style="stroke: #000000; stroke-width: 0.8"/>
      </g>
     </g>
     <g id="text_31">
      <!-- 0 -->
      <g transform="translate(40.17875 562.718438) scale(0.1 -0.1)">
       <use xlink:href="#DejaVuSans-30"/>
      </g>
     </g>
    </g>
    <g id="xtick_18">
     <g id="line2d_32">
      <g>
       <use xlink:href="#ma1ba56ea0c" x="115.566863" y="548.12" style="stroke: #000000; stroke-width: 0.8"/>
      </g>
     </g>
     <g id="text_32">
      <!-- 50 -->
      <g transform="translate(109.204363 562.718438) scale(0.1 -0.1)">
       <use xlink:href="#DejaVuSans-35"/>
       <use xlink:href="#DejaVuSans-30" transform="translate(63.623047 0)"/>
      </g>
     </g>
    </g>
    <g id="xtick_19">
     <g id="line2d_33">
      <g>
       <use xlink:href="#ma1ba56ea0c" x="187.773725" y="548.12" style="stroke: #000000; stroke-width: 0.8"/>
      </g>
     </g>
     <g id="text_33">
      <!-- 100 -->
      <g transform="translate(178.229975 562.718438) scale(0.1 -0.1)">
       <use xlink:href="#DejaVuSans-31"/>
       <use xlink:href="#DejaVuSans-30" transform="translate(63.623047 0)"/>
       <use xlink:href="#DejaVuSans-30" transform="translate(127.246094 0)"/>
      </g>
     </g>
    </g>
    <g id="xtick_20">
     <g id="line2d_34">
      <g>
       <use xlink:href="#ma1ba56ea0c" x="259.980588" y="548.12" style="stroke: #000000; stroke-width: 0.8"/>
      </g>
     </g>
     <g id="text_34">
      <!-- 150 -->
      <g transform="translate(250.436838 562.718438) scale(0.1 -0.1)">
       <use xlink:href="#DejaVuSans-31"/>
       <use xlink:href="#DejaVuSans-35" transform="translate(63.623047 0)"/>
       <use xlink:href="#DejaVuSans-30" transform="translate(127.246094 0)"/>
      </g>
     </g>
    </g>
    <g id="xtick_21">
     <g id="line2d_35">
      <g>
       <use xlink:href="#ma1ba56ea0c" x="332.187451" y="548.12" style="stroke: #000000; stroke-width: 0.8"/>
      </g>
     </g>
     <g id="text_35">
      <!-- 200 -->
      <g transform="translate(322.643701 562.718438) scale(0.1 -0.1)">
       <use xlink:href="#DejaVuSans-32"/>
       <use xlink:href="#DejaVuSans-30" transform="translate(63.623047 0)"/>
       <use xlink:href="#DejaVuSans-30" transform="translate(127.246094 0)"/>
      </g>
     </g>
    </g>
    <g id="xtick_22">
     <g id="line2d_36">
      <g>
       <use xlink:href="#ma1ba56ea0c" x="404.394314" y="548.12" style="stroke: #000000; stroke-width: 0.8"/>
      </g>
     </g>
     <g id="text_36">
      <!-- 250 -->
      <g transform="translate(394.850564 562.718438) scale(0.1 -0.1)">
       <use xlink:href="#DejaVuSans-32"/>
       <use xlink:href="#DejaVuSans-35" transform="translate(63.623047 0)"/>
       <use xlink:href="#DejaVuSans-30" transform="translate(127.246094 0)"/>
      </g>
     </g>
    </g>
   </g>
   <g id="matplotlib.axis_6">
    <g id="ytick_13">
     <g id="line2d_37">
      <g>
       <use xlink:href="#m14e9e05b4e" x="43.36" y="546.21908" style="stroke: #000000; stroke-width: 0.8"/>
      </g>
     </g>
     <g id="text_37">
      <!-- 0 -->
      <g transform="translate(29.9975 550.018299) scale(0.1 -0.1)">
       <use xlink:href="#DejaVuSans-30"/>
      </g>
     </g>
    </g>
    <g id="ytick_14">
     <g id="line2d_38">
      <g>
       <use xlink:href="#m14e9e05b4e" x="43.36" y="523.907811" style="stroke: #000000; stroke-width: 0.8"/>
      </g>
     </g>
     <g id="text_38">
      <!-- 250 -->
      <g transform="translate(17.2725 527.70703) scale(0.1 -0.1)">
       <use xlink:href="#DejaVuSans-32"/>
       <use xlink:href="#DejaVuSans-35" transform="translate(63.623047 0)"/>
       <use xlink:href="#DejaVuSans-30" transform="translate(127.246094 0)"/>
      </g>
     </g>
    </g>
    <g id="ytick_15">
     <g id="line2d_39">
      <g>
       <use xlink:href="#m14e9e05b4e" x="43.36" y="501.596542" style="stroke: #000000; stroke-width: 0.8"/>
      </g>
     </g>
     <g id="text_39">
      <!-- 500 -->
      <g transform="translate(17.2725 505.395761) scale(0.1 -0.1)">
       <use xlink:href="#DejaVuSans-35"/>
       <use xlink:href="#DejaVuSans-30" transform="translate(63.623047 0)"/>
       <use xlink:href="#DejaVuSans-30" transform="translate(127.246094 0)"/>
      </g>
     </g>
    </g>
    <g id="ytick_16">
     <g id="line2d_40">
      <g>
       <use xlink:href="#m14e9e05b4e" x="43.36" y="479.285273" style="stroke: #000000; stroke-width: 0.8"/>
      </g>
     </g>
     <g id="text_40">
      <!-- 750 -->
      <g transform="translate(17.2725 483.084492) scale(0.1 -0.1)">
       <defs>
        <path id="DejaVuSans-37" d="M 525 4666 
L 3525 4666 
L 3525 4397 
L 1831 0 
L 1172 0 
L 2766 4134 
L 525 4134 
L 525 4666 
z
" transform="scale(0.015625)"/>
       </defs>
       <use xlink:href="#DejaVuSans-37"/>
       <use xlink:href="#DejaVuSans-35" transform="translate(63.623047 0)"/>
       <use xlink:href="#DejaVuSans-30" transform="translate(127.246094 0)"/>
      </g>
     </g>
    </g>
    <g id="ytick_17">
     <g id="line2d_41">
      <g>
       <use xlink:href="#m14e9e05b4e" x="43.36" y="456.974005" style="stroke: #000000; stroke-width: 0.8"/>
      </g>
     </g>
     <g id="text_41">
      <!-- 1000 -->
      <g transform="translate(10.91 460.773223) scale(0.1 -0.1)">
       <use xlink:href="#DejaVuSans-31"/>
       <use xlink:href="#DejaVuSans-30" transform="translate(63.623047 0)"/>
       <use xlink:href="#DejaVuSans-30" transform="translate(127.246094 0)"/>
       <use xlink:href="#DejaVuSans-30" transform="translate(190.869141 0)"/>
      </g>
     </g>
    </g>
    <g id="ytick_18">
     <g id="line2d_42">
      <g>
       <use xlink:href="#m14e9e05b4e" x="43.36" y="434.662736" style="stroke: #000000; stroke-width: 0.8"/>
      </g>
     </g>
     <g id="text_42">
      <!-- 1250 -->
      <g transform="translate(10.91 438.461955) scale(0.1 -0.1)">
       <use xlink:href="#DejaVuSans-31"/>
       <use xlink:href="#DejaVuSans-32" transform="translate(63.623047 0)"/>
       <use xlink:href="#DejaVuSans-35" transform="translate(127.246094 0)"/>
       <use xlink:href="#DejaVuSans-30" transform="translate(190.869141 0)"/>
      </g>
     </g>
    </g>
    <g id="ytick_19">
     <g id="line2d_43">
      <g>
       <use xlink:href="#m14e9e05b4e" x="43.36" y="412.351467" style="stroke: #000000; stroke-width: 0.8"/>
      </g>
     </g>
     <g id="text_43">
      <!-- 1500 -->
      <g transform="translate(10.91 416.150686) scale(0.1 -0.1)">
       <use xlink:href="#DejaVuSans-31"/>
       <use xlink:href="#DejaVuSans-35" transform="translate(63.623047 0)"/>
       <use xlink:href="#DejaVuSans-30" transform="translate(127.246094 0)"/>
       <use xlink:href="#DejaVuSans-30" transform="translate(190.869141 0)"/>
      </g>
     </g>
    </g>
   </g>
   <g id="line2d_44">
    <path d="M 43.36 541.042866 
L 44.804137 535.420426 
L 46.248275 533.100054 
L 47.692412 534.26024 
L 49.136549 527.120634 
L 50.580686 532.207603 
L 52.024824 532.743074 
L 53.468961 530.244211 
L 54.913098 531.672133 
L 56.357235 529.084025 
L 57.801373 530.779682 
L 59.24551 529.173271 
L 60.689647 529.084025 
L 62.133784 528.548555 
L 63.577922 526.852899 
L 65.022059 527.477614 
L 66.466196 525.781958 
L 67.910333 523.550831 
L 69.354471 521.676684 
L 70.798608 526.585163 
L 72.242745 523.550831 
L 73.686882 524.621772 
L 75.13102 528.727045 
L 76.575157 529.173271 
L 78.019294 531.404397 
L 79.463431 531.761378 
L 80.907569 532.386093 
L 82.351706 531.047417 
L 85.23998 533.457034 
L 86.684118 532.029113 
L 88.128255 533.814014 
L 89.572392 532.207603 
L 91.016529 533.724769 
L 92.460667 533.457034 
L 93.904804 534.08175 
L 95.348941 535.241936 
L 96.793078 533.278544 
L 98.237216 536.045141 
L 99.681353 534.884955 
L 101.12549 536.669857 
L 102.569627 536.759102 
L 104.013765 535.509671 
L 105.457902 536.580612 
L 106.902039 534.706465 
L 108.346176 535.688161 
L 109.790314 534.349485 
L 111.234451 535.598916 
L 112.678588 539.436454 
L 114.122725 536.848347 
L 115.566863 538.722494 
L 117.011 537.383817 
L 118.455137 535.509671 
L 119.899275 537.473063 
L 121.343412 536.402122 
L 122.787549 536.134386 
L 124.231686 537.383817 
L 125.675824 538.008533 
L 127.119961 537.919288 
L 128.564098 537.651553 
L 130.008235 534.79571 
L 132.89651 538.276268 
L 134.340647 536.580612 
L 135.784784 538.990229 
L 137.228922 536.491367 
L 138.673059 535.598916 
L 140.117196 535.509671 
L 141.561333 537.116082 
L 143.005471 537.116082 
L 144.449608 537.294572 
L 145.893745 535.152691 
L 147.337882 538.276268 
L 148.78202 535.598916 
L 150.226157 535.688161 
L 151.670294 536.848347 
L 153.114431 534.9742 
L 154.558569 536.134386 
L 156.002706 535.955896 
L 157.446843 534.884955 
L 158.89098 535.866651 
L 160.335118 534.706465 
L 161.779255 535.866651 
L 163.223392 534.79571 
L 164.667529 535.777406 
L 166.111667 534.08175 
L 167.555804 533.814014 
L 168.999941 536.580612 
L 170.444078 535.777406 
L 171.888216 533.724769 
L 173.332353 531.404397 
L 174.77649 532.921564 
L 176.220627 534.706465 
L 177.664765 533.278544 
L 179.108902 534.08175 
L 180.553039 533.010809 
L 181.997176 531.315152 
L 183.441314 530.779682 
L 184.885451 531.850623 
L 186.329588 530.511947 
L 187.773725 528.548555 
L 189.217863 528.6378 
L 190.662 530.154966 
L 192.106137 528.81629 
L 193.550275 528.370065 
L 194.994412 527.209879 
L 196.438549 526.585163 
L 197.882686 525.603468 
L 199.326824 526.852899 
L 200.770961 524.264791 
L 202.215098 524.711017 
L 203.659235 524.443282 
L 205.103373 523.283096 
L 206.54751 523.372341 
L 207.991647 519.713293 
L 209.435784 519.177822 
L 210.879922 518.374616 
L 212.324059 516.32198 
L 213.768196 515.875754 
L 215.212333 514.180098 
L 216.656471 514.894058 
L 218.100608 518.820842 
L 219.544745 516.232735 
L 220.988882 516.589715 
L 222.43302 514.983304 
L 223.877157 512.395196 
L 225.321294 517.482166 
L 226.765431 519.891783 
L 228.209569 518.731597 
L 229.653706 516.50047 
L 231.097843 520.605743 
L 233.986118 518.106881 
L 235.430255 513.376892 
L 236.874392 516.946695 
L 238.318529 513.376892 
L 239.762667 514.180098 
L 241.206804 512.038216 
L 242.650941 512.038216 
L 244.095078 512.930667 
L 245.539216 513.198402 
L 246.983353 510.34256 
L 248.42749 511.770481 
L 249.871627 513.019912 
L 251.315765 513.912363 
L 252.759902 512.841422 
L 254.204039 512.305951 
L 255.648176 513.912363 
L 257.092314 517.21443 
L 258.536451 518.196126 
L 259.980588 517.749901 
L 261.424725 518.374616 
L 262.868863 517.03594 
L 264.313 517.839146 
L 265.757137 520.962724 
L 267.201275 521.408949 
L 268.645412 520.694988 
L 270.089549 515.161794 
L 271.533686 518.910087 
L 272.977824 518.017636 
L 274.421961 519.713293 
L 275.866098 521.855174 
L 277.310235 518.642352 
L 278.754373 519.534802 
L 280.19851 521.498194 
L 281.642647 520.784233 
L 283.086784 521.498194 
L 284.530922 520.873479 
L 285.975059 521.587439 
L 287.419196 521.855174 
L 288.863333 519.177822 
L 290.307471 520.070273 
L 291.751608 517.125185 
L 293.195745 519.624047 
L 294.639882 519.445557 
L 296.08402 522.47989 
L 297.528157 520.248763 
L 298.972294 519.088577 
L 300.416431 519.624047 
L 301.860569 519.356312 
L 303.304706 517.660656 
L 304.748843 520.694988 
L 306.19298 521.944419 
L 307.637118 522.3014 
L 309.081255 520.516498 
L 310.525392 522.65838 
L 311.969529 523.104605 
L 313.413667 524.086301 
L 314.857804 525.871203 
L 316.301941 525.335732 
L 317.746078 525.514222 
L 320.634353 528.6378 
L 322.07849 527.120634 
L 323.522627 528.191575 
L 324.966765 528.727045 
L 326.410902 531.136662 
L 327.855039 531.939868 
L 329.299176 529.441006 
L 330.743314 529.619496 
L 332.187451 531.225907 
L 333.631588 529.262516 
L 335.075725 531.582888 
L 336.519863 532.118358 
L 339.408137 534.527975 
L 340.852275 533.992505 
L 342.296412 535.063445 
L 343.740549 536.937592 
L 345.184686 536.134386 
L 346.628824 536.580612 
L 348.072961 536.669857 
L 349.517098 535.866651 
L 350.961235 536.223631 
L 353.84951 537.919288 
L 355.293647 537.830043 
L 358.181922 537.383817 
L 359.626059 538.544003 
L 361.070196 539.257964 
L 362.514333 539.347209 
L 363.958471 538.811739 
L 365.402608 540.507395 
L 366.846745 537.562308 
L 368.290882 539.614944 
L 369.73502 541.132111 
L 371.179157 539.347209 
L 372.623294 539.347209 
L 374.067431 541.489091 
L 375.511569 540.06117 
L 376.955706 540.23966 
L 378.399843 538.990229 
L 379.84398 539.88268 
L 381.288118 538.811739 
L 382.732255 538.811739 
L 384.176392 537.026837 
L 385.620529 538.276268 
L 387.064667 537.919288 
L 388.508804 537.919288 
L 389.952941 537.651553 
L 391.397078 534.79571 
L 392.841216 537.294572 
L 394.285353 536.937592 
L 395.72949 535.152691 
L 397.173627 534.79571 
L 398.617765 533.546279 
L 400.061902 533.457034 
L 401.506039 531.850623 
L 402.950176 531.493642 
L 404.394314 531.404397 
L 405.838451 532.564583 
L 407.282588 530.958172 
L 408.726725 530.868927 
L 410.170863 532.296848 
L 411.615 408.870909 
L 411.615 408.870909 
" clip-path="url(#p3d175d529d)" style="fill: none; stroke: #0000ff; stroke-width: 1.5; stroke-linecap: square"/>
   </g>
   <g id="patch_13">
    <path d="M 43.36 548.12 
L 43.36 402.24 
" style="fill: none; stroke: #000000; stroke-width: 0.8; stroke-linejoin: miter; stroke-linecap: square"/>
   </g>
   <g id="patch_14">
    <path d="M 411.615 548.12 
L 411.615 402.24 
" style="fill: none; stroke: #000000; stroke-width: 0.8; stroke-linejoin: miter; stroke-linecap: square"/>
   </g>
   <g id="patch_15">
    <path d="M 43.36 548.12 
L 411.615 548.12 
" style="fill: none; stroke: #000000; stroke-width: 0.8; stroke-linejoin: miter; stroke-linecap: square"/>
   </g>
   <g id="patch_16">
    <path d="M 43.36 402.24 
L 411.615 402.24 
" style="fill: none; stroke: #000000; stroke-width: 0.8; stroke-linejoin: miter; stroke-linecap: square"/>
   </g>
   <g id="text_44">
    <!-- V histogram (bbox) -->
    <g transform="translate(169.819063 396.24) scale(0.12 -0.12)">
     <defs>
      <path id="DejaVuSans-56" d="M 1831 0 
L 50 4666 
L 709 4666 
L 2188 738 
L 3669 4666 
L 4325 4666 
L 2547 0 
L 1831 0 
z
" transform="scale(0.015625)"/>
     </defs>
     <use xlink:href="#DejaVuSans-56"/>
     <use xlink:href="#DejaVuSans-20" transform="translate(68.408203 0)"/>
     <use xlink:href="#DejaVuSans-68" transform="translate(100.195312 0)"/>
     <use xlink:href="#DejaVuSans-69" transform="translate(163.574219 0)"/>
     <use xlink:href="#DejaVuSans-73" transform="translate(191.357422 0)"/>
     <use xlink:href="#DejaVuSans-74" transform="translate(243.457031 0)"/>
     <use xlink:href="#DejaVuSans-6f" transform="translate(282.666016 0)"/>
     <use xlink:href="#DejaVuSans-67" transform="translate(343.847656 0)"/>
     <use xlink:href="#DejaVuSans-72" transform="translate(407.324219 0)"/>
     <use xlink:href="#DejaVuSans-61" transform="translate(448.4375 0)"/>
     <use xlink:href="#DejaVuSans-6d" transform="translate(509.716797 0)"/>
     <use xlink:href="#DejaVuSans-20" transform="translate(607.128906 0)"/>
     <use xlink:href="#DejaVuSans-28" transform="translate(638.916016 0)"/>
     <use xlink:href="#DejaVuSans-62" transform="translate(677.929688 0)"/>
     <use xlink:href="#DejaVuSans-62" transform="translate(741.40625 0)"/>
     <use xlink:href="#DejaVuSans-6f" transform="translate(804.882812 0)"/>
     <use xlink:href="#DejaVuSans-78" transform="translate(862.939453 0)"/>
     <use xlink:href="#DejaVuSans-29" transform="translate(922.119141 0)"/>
    </g>
   </g>
  </g>
 </g>
 <defs>
  <clipPath id="p445c029711">
   <rect x="43.36" y="25.44" width="368.255" height="145.88"/>
  </clipPath>
  <clipPath id="pc55314b5b4">
   <rect x="43.36" y="213.84" width="368.255" height="145.88"/>
  </clipPath>
  <clipPath id="p3d175d529d">
   <rect x="43.36" y="402.24" width="368.255" height="145.88"/>
  </clipPath>
 </defs>
</svg>
