<?xml version="1.0" encoding="utf-8" standalone="no"?>
<!DOCTYPE svg PUBLIC "-//W3C//DTD SVG 1.1//EN"
  "http://www.w3.org/Graphics/SVG/1.1/DTD/svg11.dtd">
<svg xmlns:xlink="http://www.w3.org/1999/xlink" width="432pt" height="576pt" viewBox="0 0 432 576" xmlns="http://www.w3.org/2000/svg" version="1.1">
 <metadata>
  <rdf:RDF xmlns:dc="http://purl.org/dc/elements/1.1/" xmlns:cc="http://creativecommons.org/ns#" xmlns:rdf="http://www.w3.org/1999/02/22-rdf-syntax-ns#">
   <cc:Work>
    <dc:type rdf:resource="http://purl.org/dc/dcmitype/StillImage"/>
    <dc:date>2026-01-22T15:02:14.296107</dc:date>
    <dc:format>image/svg+xml</dc:format>
    <dc:creator>
     <cc:Agent>
      <dc:title>Matplotlib v3.10.8, https://matplotlib.org/</dc:title>
     </cc:Agent>
    </dc:creator>
   </cc:Work>
  </rdf:RDF>
 </metadata>
 <defs>
  <style type="text/css">*{stroke-linejoin: round; stroke-linecap: butt}</style>
 </defs>
 <g id="figure_1">
  <g id="patch_1">
   <path d="M 0 576 
L 432 576 
L 432 0 
L 0 0 
z
" style="fill: #ffffff"/>
  </g>
  <g id="axes_1">
   <g id="patch_2">
    <path d="M 49.75 171.32 
L 411.615 171.32 
L 411.615 25.44 
L 49.75 25.44 
z
" style="fill: #ffffff"/>
   </g>
   <g id="matplotlib.axis_1">
    <g id="xtick_1">
     <g id="line2d_1">
      <defs>
       <path id="m8340a2aeea" d="M 0 0 
L 0 3.5 
" style="stroke: #000000; stroke-width: 0.8"/>
      </defs>
      <g>
       <use xlink:href="#m8340a2aeea" x="49.75" y="171.32" style="stroke: #000000; stroke-width: 0.8"/>
      </g>
     </g>
     <g id="text_1">
      <!-- 0 -->
      <g transform="translate(46.56875 185.918438) scale(0.1 -0.1)">
       <defs>
        <path id="DejaVuSans-30" d="M 2034 4250 
Q 1547 4250 1301 3770 
Q 1056 3291 1056 2328 
Q 1056 1369 1301 889 
Q 1547 409 2034 409 
Q 2525 409 2770 889 
Q 3016 1369 3016 2328 
Q 3016 3291 2770 3770 
Q 2525 4250 2034 4250 
z
M 2034 4750 
Q 2819 4750 3233 4129 
Q 3647 3509 3647 2328 
Q 3647 1150 3233 529 
Q 2819 -91 2034 -91 
Q 1250 -91 836 529 
Q 422 1150 422 2328 
Q 422 3509 836 4129 
Q 1250 4750 2034 4750 
z
" transform="scale(0.015625)"/>
       </defs>
       <use xlink:href="#DejaVuSans-30"/>
      </g>
     </g>
    </g>
    <g id="xtick_2">
     <g id="line2d_2">
      <g>
       <use xlink:href="#m8340a2aeea" x="89.957222" y="171.32" style="stroke: #000000; stroke-width: 0.8"/>
      </g>
     </g>
     <g id="text_2">
      <!-- 20 -->
      <g transform="translate(83.594722 185.918438) scale(0.1 -0.1)">
       <defs>
        <path id="DejaVuSans-32" d="M 1228 531 
L 3431 531 
L 3431 0 
L 469 0 
L 469 531 
Q 828 903 1448 1529 
Q 2069 2156 2228 2338 
Q 2531 2678 2651 2914 
Q 2772 3150 2772 3378 
Q 2772 3750 2511 3984 
Q 2250 4219 1831 4219 
Q 1534 4219 1204 4116 
Q 875 4013 500 3803 
L 500 4441 
Q 881 4594 1212 4672 
Q 1544 4750 1819 4750 
Q 2544 4750 2975 4387 
Q 3406 4025 3406 3419 
Q 3406 3131 3298 2873 
Q 3191 2616 2906 2266 
Q 2828 2175 2409 1742 
Q 1991 1309 1228 531 
z
" transform="scale(0.015625)"/>
       </defs>
       <use xlink:href="#DejaVuSans-32"/>
       <use xlink:href="#DejaVuSans-30" transform="translate(63.623047 0)"/>
      </g>
     </g>
    </g>
    <g id="xtick_3">
     <g id="line2d_3">
      <g>
       <use xlink:href="#m8340a2aeea" x="130.164444" y="171.32" style="stroke: #000000; stroke-width: 0.8"/>
      </g>
     </g>
     <g id="text_3">
      <!-- 40 -->
      <g transform="translate(123.801944 185.918438) scale(0.1 -0.1)">
       <defs>
        <path id="DejaVuSans-34" d="M 2419 4116 
L 825 1625 
L 2419 1625 
L 2419 4116 
z
M 2253 4666 
L 3047 4666 
L 3047 1625 
L 3713 1625 
L 3713 1100 
L 3047 1100 
L 3047 0 
L 2419 0 
L 2419 1100 
L 313 1100 
L 313 1709 
L 2253 4666 
z
" transform="scale(0.015625)"/>
       </defs>
       <use xlink:href="#DejaVuSans-34"/>
       <use xlink:href="#DejaVuSans-30" transform="translate(63.623047 0)"/>
      </g>
     </g>
    </g>
    <g id="xtick_4">
     <g id="line2d_4">
      <g>
       <use xlink:href="#m8340a2aeea" x="170.371667" y="171.32" style="stroke: #000000; stroke-width: 0.8"/>
      </g>
     </g>
     <g id="text_4">
      <!-- 60 -->
      <g transform="translate(164.009167 185.918438) scale(0.1 -0.1)">
       <defs>
        <path id="DejaVuSans-36" d="M 2113 2584 
Q 1688 2584 1439 2293 
Q 1191 2003 1191 1497 
Q 1191 994 1439 701 
Q 1688 409 2113 409 
Q 2538 409 2786 701 
Q 3034 994 3034 1497 
Q 3034 2003 2786 2293 
Q 2538 2584 2113 2584 
z
M 3366 4563 
L 3366 3988 
Q 3128 4100 2886 4159 
Q 2644 4219 2406 4219 
Q 1781 4219 1451 3797 
Q 1122 3375 1075 2522 
Q 1259 2794 1537 2939 
Q 1816 3084 2150 3084 
Q 2853 3084 3261 2657 
Q 3669 2231 3669 1497 
Q 3669 778 3244 343 
Q 2819 -91 2113 -91 
Q 1303 -91 875 529 
Q 447 1150 447 2328 
Q 447 3434 972 4092 
Q 1497 4750 2381 4750 
Q 2619 4750 2861 4703 
Q 3103 4656 3366 4563 
z
" transform="scale(0.015625)"/>
       </defs>
       <use xlink:href="#DejaVuSans-36"/>
       <use xlink:href="#DejaVuSans-30" transform="translate(63.623047 0)"/>
      </g>
     </g>
    </g>
    <g id="xtick_5">
     <g id="line2d_5">
      <g>
       <use xlink:href="#m8340a2aeea" x="210.578889" y="171.32" style="stroke: #000000; stroke-width: 0.8"/>
      </g>
     </g>
     <g id="text_5">
      <!-- 80 -->
      <g transform="translate(204.216389 185.918438) scale(0.1 -0.1)">
       <defs>
        <path id="DejaVuSans-38" d="M 2034 2216 
Q 1584 2216 1326 1975 
Q 1069 1734 1069 1313 
Q 1069 891 1326 650 
Q 1584 409 2034 409 
Q 2484 409 2743 651 
Q 3003 894 3003 1313 
Q 3003 1734 2745 1975 
Q 2488 2216 2034 2216 
z
M 1403 2484 
Q 997 2584 770 2862 
Q 544 3141 544 3541 
Q 544 4100 942 4425 
Q 1341 4750 2034 4750 
Q 2731 4750 3128 4425 
Q 3525 4100 3525 3541 
Q 3525 3141 3298 2862 
Q 3072 2584 2669 2484 
Q 3125 2378 3379 2068 
Q 3634 1759 3634 1313 
Q 3634 634 3220 271 
Q 2806 -91 2034 -91 
Q 1263 -91 848 271 
Q 434 634 434 1313 
Q 434 1759 690 2068 
Q 947 2378 1403 2484 
z
M 1172 3481 
Q 1172 3119 1398 2916 
Q 1625 2713 2034 2713 
Q 2441 2713 2670 2916 
Q 2900 3119 2900 3481 
Q 2900 3844 2670 4047 
Q 2441 4250 2034 4250 
Q 1625 4250 1398 4047 
Q 1172 3844 1172 3481 
z
" transform="scale(0.015625)"/>
       </defs>
       <use xlink:href="#DejaVuSans-38"/>
       <use xlink:href="#DejaVuSans-30" transform="translate(63.623047 0)"/>
      </g>
     </g>
    </g>
    <g id="xtick_6">
     <g id="line2d_6">
      <g>
       <use xlink:href="#m8340a2aeea" x="250.786111" y="171.32" style="stroke: #000000; stroke-width: 0.8"/>
      </g>
     </g>
     <g id="text_6">
      <!-- 100 -->
      <g transform="translate(241.242361 185.918438) scale(0.1 -0.1)">
       <defs>
        <path id="DejaVuSans-31" d="M 794 531 
L 1825 531 
L 1825 4091 
L 703 3866 
L 703 4441 
L 1819 4666 
L 2450 4666 
L 2450 531 
L 3481 531 
L 3481 0 
L 794 0 
L 794 531 
z
" transform="scale(0.015625)"/>
       </defs>
       <use xlink:href="#DejaVuSans-31"/>
       <use xlink:href="#DejaVuSans-30" transform="translate(63.623047 0)"/>
       <use xlink:href="#DejaVuSans-30" transform="translate(127.246094 0)"/>
      </g>
     </g>
    </g>
    <g id="xtick_7">
     <g id="line2d_7">
      <g>
       <use xlink:href="#m8340a2aeea" x="290.993333" y="171.32" style="stroke: #000000; stroke-width: 0.8"/>
      </g>
     </g>
     <g id="text_7">
      <!-- 120 -->
      <g transform="translate(281.449583 185.918438) scale(0.1 -0.1)">
       <use xlink:href="#DejaVuSans-31"/>
       <use xlink:href="#DejaVuSans-32" transform="translate(63.623047 0)"/>
       <use xlink:href="#DejaVuSans-30" transform="translate(127.246094 0)"/>
      </g>
     </g>
    </g>
    <g id="xtick_8">
     <g id="line2d_8">
      <g>
       <use xlink:href="#m8340a2aeea" x="331.200556" y="171.32" style="stroke: #000000; stroke-width: 0.8"/>
      </g>
     </g>
     <g id="text_8">
      <!-- 140 -->
      <g transform="translate(321.656806 185.918438) scale(0.1 -0.1)">
       <use xlink:href="#DejaVuSans-31"/>
       <use xlink:href="#DejaVuSans-34" transform="translate(63.623047 0)"/>
       <use xlink:href="#DejaVuSans-30" transform="translate(127.246094 0)"/>
      </g>
     </g>
    </g>
    <g id="xtick_9">
     <g id="line2d_9">
      <g>
       <use xlink:href="#m8340a2aeea" x="371.407778" y="171.32" style="stroke: #000000; stroke-width: 0.8"/>
      </g>
     </g>
     <g id="text_9">
      <!-- 160 -->
      <g transform="translate(361.864028 185.918438) scale(0.1 -0.1)">
       <use xlink:href="#DejaVuSans-31"/>
       <use xlink:href="#DejaVuSans-36" transform="translate(63.623047 0)"/>
       <use xlink:href="#DejaVuSans-30" transform="translate(127.246094 0)"/>
      </g>
     </g>
    </g>
    <g id="xtick_10">
     <g id="line2d_10">
      <g>
       <use xlink:href="#m8340a2aeea" x="411.615" y="171.32" style="stroke: #000000; stroke-width: 0.8"/>
      </g>
     </g>
     <g id="text_10">
      <!-- 180 -->
      <g transform="translate(402.07125 185.918438) scale(0.1 -0.1)">
       <use xlink:href="#DejaVuSans-31"/>
       <use xlink:href="#DejaVuSans-38" transform="translate(63.623047 0)"/>
       <use xlink:href="#DejaVuSans-30" transform="translate(127.246094 0)"/>
      </g>
     </g>
    </g>
   </g>
   <g id="matplotlib.axis_2">
    <g id="ytick_1">
     <g id="line2d_11">
      <defs>
       <path id="m0585656976" d="M 0 0 
L -3.5 0 
" style="stroke: #000000; stroke-width: 0.8"/>
      </defs>
      <g>
       <use xlink:href="#m0585656976" x="49.75" y="164.724712" style="stroke: #000000; stroke-width: 0.8"/>
      </g>
     </g>
     <g id="text_11">
      <!-- 0 -->
      <g transform="translate(36.3875 168.523931) scale(0.1 -0.1)">
       <use xlink:href="#DejaVuSans-30"/>
      </g>
     </g>
    </g>
    <g id="ytick_2">
     <g id="line2d_12">
      <g>
       <use xlink:href="#m0585656976" x="49.75" y="142.461386" style="stroke: #000000; stroke-width: 0.8"/>
      </g>
     </g>
     <g id="text_12">
      <!-- 2500 -->
      <g transform="translate(17.3 146.260605) scale(0.1 -0.1)">
       <defs>
        <path id="DejaVuSans-35" d="M 691 4666 
L 3169 4666 
L 3169 4134 
L 1269 4134 
L 1269 2991 
Q 1406 3038 1543 3061 
Q 1681 3084 1819 3084 
Q 2600 3084 3056 2656 
Q 3513 2228 3513 1497 
Q 3513 744 3044 326 
Q 2575 -91 1722 -91 
Q 1428 -91 1123 -41 
Q 819 9 494 109 
L 494 744 
Q 775 591 1075 516 
Q 1375 441 1709 441 
Q 2250 441 2565 725 
Q 2881 1009 2881 1497 
Q 2881 1984 2565 2268 
Q 2250 2553 1709 2553 
Q 1456 2553 1204 2497 
Q 953 2441 691 2322 
L 691 4666 
z
" transform="scale(0.015625)"/>
       </defs>
       <use xlink:href="#DejaVuSans-32"/>
       <use xlink:href="#DejaVuSans-35" transform="translate(63.623047 0)"/>
       <use xlink:href="#DejaVuSans-30" transform="translate(127.246094 0)"/>
       <use xlink:href="#DejaVuSans-30" transform="translate(190.869141 0)"/>
      </g>
     </g>
    </g>
    <g id="ytick_3">
     <g id="line2d_13">
      <g>
       <use xlink:href="#m0585656976" x="49.75" y="120.19806" style="stroke: #000000; stroke-width: 0.8"/>
      </g>
     </g>
     <g id="text_13">
      <!-- 5000 -->
      <g transform="translate(17.3 123.997278) scale(0.1 -0.1)">
       <use xlink:href="#DejaVuSans-35"/>
       <use xlink:href="#DejaVuSans-30" transform="translate(63.623047 0)"/>
       <use xlink:href="#DejaVuSans-30" transform="translate(127.246094 0)"/>
       <use xlink:href="#DejaVuSans-30" transform="translate(190.869141 0)"/>
      </g>
     </g>
    </g>
    <g id="ytick_4">
     <g id="line2d_14">
      <g>
       <use xlink:href="#m0585656976" x="49.75" y="97.934733" style="stroke: #000000; stroke-width: 0.8"/>
      </g>
     </g>
     <g id="text_14">
      <!-- 7500 -->
      <g transform="translate(17.3 101.733952) scale(0.1 -0.1)">
       <defs>
        <path id="DejaVuSans-37" d="M 525 4666 
L 3525 4666 
L 3525 4397 
L 1831 0 
L 1172 0 
L 2766 4134 
L 525 4134 
L 525 4666 
z
" transform="scale(0.015625)"/>
       </defs>
       <use xlink:href="#DejaVuSans-37"/>
       <use xlink:href="#DejaVuSans-35" transform="translate(63.623047 0)"/>
       <use xlink:href="#DejaVuSans-30" transform="translate(127.246094 0)"/>
       <use xlink:href="#DejaVuSans-30" transform="translate(190.869141 0)"/>
      </g>
     </g>
    </g>
    <g id="ytick_5">
     <g id="line2d_15">
      <g>
       <use xlink:href="#m0585656976" x="49.75" y="75.671407" style="stroke: #000000; stroke-width: 0.8"/>
      </g>
     </g>
     <g id="text_15">
      <!-- 10000 -->
      <g transform="translate(10.9375 79.470626) scale(0.1 -0.1)">
       <use xlink:href="#DejaVuSans-31"/>
       <use xlink:href="#DejaVuSans-30" transform="translate(63.623047 0)"/>
       <use xlink:href="#DejaVuSans-30" transform="translate(127.246094 0)"/>
       <use xlink:href="#DejaVuSans-30" transform="translate(190.869141 0)"/>
       <use xlink:href="#DejaVuSans-30" transform="translate(254.492188 0)"/>
      </g>
     </g>
    </g>
    <g id="ytick_6">
     <g id="line2d_16">
      <g>
       <use xlink:href="#m0585656976" x="49.75" y="53.408081" style="stroke: #000000; stroke-width: 0.8"/>
      </g>
     </g>
     <g id="text_16">
      <!-- 12500 -->
      <g transform="translate(10.9375 57.2073) scale(0.1 -0.1)">
       <use xlink:href="#DejaVuSans-31"/>
       <use xlink:href="#DejaVuSans-32" transform="translate(63.623047 0)"/>
       <use xlink:href="#DejaVuSans-35" transform="translate(127.246094 0)"/>
       <use xlink:href="#DejaVuSans-30" transform="translate(190.869141 0)"/>
       <use xlink:href="#DejaVuSans-30" transform="translate(254.492188 0)"/>
      </g>
     </g>
    </g>
    <g id="ytick_7">
     <g id="line2d_17">
      <g>
       <use xlink:href="#m0585656976" x="49.75" y="31.144755" style="stroke: #000000; stroke-width: 0.8"/>
      </g>
     </g>
     <g id="text_17">
      <!-- 15000 -->
      <g transform="translate(10.9375 34.943973) scale(0.1 -0.1)">
       <use xlink:href="#DejaVuSans-31"/>
       <use xlink:href="#DejaVuSans-35" transform="translate(63.623047 0)"/>
       <use xlink:href="#DejaVuSans-30" transform="translate(127.246094 0)"/>
       <use xlink:href="#DejaVuSans-30" transform="translate(190.869141 0)"/>
       <use xlink:href="#DejaVuSans-30" transform="translate(254.492188 0)"/>
      </g>
     </g>
    </g>
   </g>
   <g id="line2d_18">
    <path d="M 49.75 122.166138 
L 51.760361 146.727039 
L 53.770722 145.54263 
L 55.781083 149.1671 
L 57.791444 152.0079 
L 59.801806 153.699913 
L 61.812167 156.522903 
L 63.822528 162.418232 
L 65.832889 160.913231 
L 67.84325 162.044208 
L 69.853611 161.794858 
L 71.863972 157.680596 
L 73.874333 159.648674 
L 75.884694 148.463579 
L 77.895056 154.367813 
L 79.905417 144.625381 
L 81.915778 138.970496 
L 83.926139 129.949397 
L 85.9365 122.940902 
L 87.946861 96.955147 
L 89.957222 112.79773 
L 91.967583 130.644012 
L 93.977944 137.260673 
L 95.988306 145.266565 
L 97.998667 64.940484 
L 100.009028 32.070909 
L 102.019389 144.954879 
L 104.02975 157.974472 
L 106.040111 159.461662 
L 108.050472 160.654976 
L 110.060833 62.829921 
L 112.071194 163.58483 
L 114.081556 161.064621 
L 116.091917 162.667581 
L 118.102278 155.543316 
L 120.112639 137.046945 
L 122.123 43.095708 
L 124.133361 163.575925 
L 126.143722 163.095037 
L 128.154083 163.31767 
L 130.164444 162.266841 
L 132.174806 163.994475 
L 134.185167 161.118053 
L 136.195528 161.438645 
L 138.205889 164.421931 
L 140.21625 163.834179 
L 142.226611 164.083528 
L 144.236972 164.617848 
L 146.247333 163.540303 
L 148.257694 164.475363 
L 150.268056 154.56373 
L 152.278417 163.58483 
L 154.288778 164.181487 
L 156.299139 164.493174 
L 158.3095 164.40412 
L 160.319861 163.282049 
L 162.330222 164.030096 
L 164.340583 164.38631 
L 168.361306 164.662375 
L 170.371667 161.216012 
L 172.382028 164.689091 
L 174.392389 164.51989 
L 176.40275 164.190392 
L 178.413111 164.626754 
L 180.423472 164.368499 
L 182.433833 162.355894 
L 184.444194 164.359594 
L 188.464917 164.181487 
L 190.475278 163.575925 
L 192.485639 164.421931 
L 194.496 164.5377 
L 198.516722 163.638262 
L 200.527083 154.510298 
L 202.537444 164.234919 
L 204.547806 164.110244 
L 206.558167 164.626754 
L 208.568528 163.709505 
L 210.578889 161.224917 
L 212.58925 164.40412 
L 214.599611 164.413026 
L 216.609972 162.418232 
L 218.620333 163.727315 
L 220.630694 163.736221 
L 222.641056 164.306162 
L 224.651417 162.38261 
L 226.661778 164.172582 
L 228.672139 164.332878 
L 230.6825 160.619355 
L 232.692861 163.949948 
L 234.703222 163.700599 
L 236.713583 163.290954 
L 238.723944 163.388913 
L 240.734306 160.583734 
L 242.744667 159.844591 
L 244.755028 163.290954 
L 246.765389 158.660182 
L 248.77575 159.043111 
L 250.786111 157.101749 
L 252.796472 145.337808 
L 254.806833 144.634287 
L 256.817194 110.500155 
L 258.827556 84.291767 
L 260.837917 74.050637 
L 262.848278 143.52112 
L 264.858639 151.215326 
L 266.869 157.698406 
L 268.879361 156.647577 
L 270.889722 151.420148 
L 272.900083 158.366306 
L 274.910444 160.280952 
L 276.920806 161.29616 
L 278.931167 155.23163 
L 280.941528 161.634563 
L 282.951889 161.438645 
L 284.96225 163.896516 
L 288.982972 163.967759 
L 290.993333 143.672511 
L 293.003694 164.430836 
L 295.014056 163.620451 
L 297.024417 164.145866 
L 299.034778 162.934741 
L 301.045139 160.913231 
L 303.0555 159.54181 
L 305.065861 164.092434 
L 307.076222 163.923232 
L 309.086583 164.021191 
L 311.096944 163.549209 
L 313.107306 164.243824 
L 315.117667 163.023794 
L 317.128028 163.362197 
L 319.138389 164.217108 
L 321.14875 163.762937 
L 323.159111 163.825274 
L 325.169472 164.315067 
L 327.179833 163.860895 
L 329.190194 164.27054 
L 331.200556 162.418232 
L 333.210917 163.762937 
L 335.221278 164.047907 
L 337.231639 163.798558 
L 339.242 164.021191 
L 341.252361 163.406723 
L 345.273083 163.976664 
L 347.283444 163.700599 
L 349.293806 164.199298 
L 351.304167 162.658676 
L 353.314528 163.932138 
L 355.324889 163.789653 
L 357.33525 163.486871 
L 359.345611 163.754031 
L 361.355972 163.210806 
L 363.366333 162.418232 
L 365.376694 163.308765 
L 369.397417 162.845687 
L 371.407778 162.908025 
L 373.418139 163.353291 
L 377.438861 162.614149 
L 379.449222 161.768143 
L 381.459583 158.214916 
L 383.469944 161.465361 
L 387.490667 160.07613 
L 389.501028 158.847194 
L 391.511389 159.239029 
L 393.52175 159.746632 
L 395.532111 159.924739 
L 397.542472 158.268348 
L 399.552833 159.951455 
L 401.563194 160.218615 
L 403.573556 159.862402 
L 405.583917 158.357401 
L 407.594278 156.398228 
L 409.604639 153.913641 
L 409.604639 153.913641 
" clip-path="url(#p20fd7132c2)" style="fill: none; stroke: #ff0000; stroke-width: 1.5; stroke-linecap: square"/>
   </g>
   <g id="patch_3">
    <path d="M 49.75 171.32 
L 49.75 25.44 
" style="fill: none; stroke: #000000; stroke-width: 0.8; stroke-linejoin: miter; stroke-linecap: square"/>
   </g>
   <g id="patch_4">
    <path d="M 411.615 171.32 
L 411.615 25.44 
" style="fill: none; stroke: #000000; stroke-width: 0.8; stroke-linejoin: miter; stroke-linecap: square"/>
   </g>
   <g id="patch_5">
    <path d="M 49.75 171.32 
L 411.615 171.32 
" style="fill: none; stroke: #000000; stroke-width: 0.8; stroke-linejoin: miter; stroke-linecap: square"/>
   </g>
   <g id="patch_6">
    <path d="M 49.75 25.44 
L 411.615 25.44 
" style="fill: none; stroke: #000000; stroke-width: 0.8; stroke-linejoin: miter; stroke-linecap: square"/>
   </g>
   <g id="text_18">
    <!-- H histogram -->
    <g transform="translate(193.848125 19.44) scale(0.12 -0.12)">
     <defs>
      <path id="DejaVuSans-48" d="M 628 4666 
L 1259 4666 
L 1259 2753 
L 3553 2753 
L 3553 4666 
L 4184 4666 
L 4184 0 
L 3553 0 
L 3553 2222 
L 1259 2222 
L 1259 0 
L 628 0 
L 628 4666 
z
" transform="scale(0.015625)"/>
      <path id="DejaVuSans-20" transform="scale(0.015625)"/>
      <path id="DejaVuSans-68" d="M 3513 2113 
L 3513 0 
L 2938 0 
L 2938 2094 
Q 2938 2591 2744 2837 
Q 2550 3084 2163 3084 
Q 1697 3084 1428 2787 
Q 1159 2491 1159 1978 
L 1159 0 
L 581 0 
L 581 4863 
L 1159 4863 
L 1159 2956 
Q 1366 3272 1645 3428 
Q 1925 3584 2291 3584 
Q 2894 3584 3203 3211 
Q 3513 2838 3513 2113 
z
" transform="scale(0.015625)"/>
      <path id="DejaVuSans-69" d="M 603 3500 
L 1178 3500 
L 1178 0 
L 603 0 
L 603 3500 
z
M 603 4863 
L 1178 4863 
L 1178 4134 
L 603 4134 
L 603 4863 
z
" transform="scale(0.015625)"/>
      <path id="DejaVuSans-73" d="M 2834 3397 
L 2834 2853 
Q 2591 2978 2328 3040 
Q 2066 3103 1784 3103 
Q 1356 3103 1142 2972 
Q 928 2841 928 2578 
Q 928 2378 1081 2264 
Q 1234 2150 1697 2047 
L 1894 2003 
Q 2506 1872 2764 1633 
Q 3022 1394 3022 966 
Q 3022 478 2636 193 
Q 2250 -91 1575 -91 
Q 1294 -91 989 -36 
Q 684 19 347 128 
L 347 722 
Q 666 556 975 473 
Q 1284 391 1588 391 
Q 1994 391 2212 530 
Q 2431 669 2431 922 
Q 2431 1156 2273 1281 
Q 2116 1406 1581 1522 
L 1381 1569 
Q 847 1681 609 1914 
Q 372 2147 372 2553 
Q 372 3047 722 3315 
Q 1072 3584 1716 3584 
Q 2034 3584 2315 3537 
Q 2597 3491 2834 3397 
z
" transform="scale(0.015625)"/>
      <path id="DejaVuSans-74" d="M 1172 4494 
L 1172 3500 
L 2356 3500 
L 2356 3053 
L 1172 3053 
L 1172 1153 
Q 1172 725 1289 603 
Q 1406 481 1766 481 
L 2356 481 
L 2356 0 
L 1766 0 
Q 1100 0 847 248 
Q 594 497 594 1153 
L 594 3053 
L 172 3053 
L 172 3500 
L 594 3500 
L 594 4494 
L 1172 4494 
z
" transform="scale(0.015625)"/>
      <path id="DejaVuSans-6f" d="M 1959 3097 
Q 1497 3097 1228 2736 
Q 959 2375 959 1747 
Q 959 1119 1226 758 
Q 1494 397 1959 397 
Q 2419 397 2687 759 
Q 2956 1122 2956 1747 
Q 2956 2369 2687 2733 
Q 2419 3097 1959 3097 
z
M 1959 3584 
Q 2709 3584 3137 3096 
Q 3566 2609 3566 1747 
Q 3566 888 3137 398 
Q 2709 -91 1959 -91 
Q 1206 -91 779 398 
Q 353 888 353 1747 
Q 353 2609 779 3096 
Q 1206 3584 1959 3584 
z
" transform="scale(0.015625)"/>
      <path id="DejaVuSans-67" d="M 2906 1791 
Q 2906 2416 2648 2759 
Q 2391 3103 1925 3103 
Q 1463 3103 1205 2759 
Q 947 2416 947 1791 
Q 947 1169 1205 825 
Q 1463 481 1925 481 
Q 2391 481 2648 825 
Q 2906 1169 2906 1791 
z
M 3481 434 
Q 3481 -459 3084 -895 
Q 2688 -1331 1869 -1331 
Q 1566 -1331 1297 -1286 
Q 1028 -1241 775 -1147 
L 775 -588 
Q 1028 -725 1275 -790 
Q 1522 -856 1778 -856 
Q 2344 -856 2625 -561 
Q 2906 -266 2906 331 
L 2906 616 
Q 2728 306 2450 153 
Q 2172 0 1784 0 
Q 1141 0 747 490 
Q 353 981 353 1791 
Q 353 2603 747 3093 
Q 1141 3584 1784 3584 
Q 2172 3584 2450 3431 
Q 2728 3278 2906 2969 
L 2906 3500 
L 3481 3500 
L 3481 434 
z
" transform="scale(0.015625)"/>
      <path id="DejaVuSans-72" d="M 2631 2963 
Q 2534 3019 2420 3045 
Q 2306 3072 2169 3072 
Q 1681 3072 1420 2755 
Q 1159 2438 1159 1844 
L 1159 0 
L 581 0 
L 581 3500 
L 1159 3500 
L 1159 2956 
Q 1341 3275 1631 3429 
Q 1922 3584 2338 3584 
Q 2397 3584 2469 3576 
Q 2541 3569 2628 3553 
L 2631 2963 
z
" transform="scale(0.015625)"/>
      <path id="DejaVuSans-61" d="M 2194 1759 
Q 1497 1759 1228 1600 
Q 959 1441 959 1056 
Q 959 750 1161 570 
Q 1363 391 1709 391 
Q 2188 391 2477 730 
Q 2766 1069 2766 1631 
L 2766 1759 
L 2194 1759 
z
M 3341 1997 
L 3341 0 
L 2766 0 
L 2766 531 
Q 2569 213 2275 61 
Q 1981 -91 1556 -91 
Q 1019 -91 701 211 
Q 384 513 384 1019 
Q 384 1609 779 1909 
Q 1175 2209 1959 2209 
L 2766 2209 
L 2766 2266 
Q 2766 2663 2505 2880 
Q 2244 3097 1772 3097 
Q 1472 3097 1187 3025 
Q 903 2953 641 2809 
L 641 3341 
Q 956 3463 1253 3523 
Q 1550 3584 1831 3584 
Q 2591 3584 2966 3190 
Q 3341 2797 3341 1997 
z
" transform="scale(0.015625)"/>
      <path id="DejaVuSans-6d" d="M 3328 2828 
Q 3544 3216 3844 3400 
Q 4144 3584 4550 3584 
Q 5097 3584 5394 3201 
Q 5691 2819 5691 2113 
L 5691 0 
L 5113 0 
L 5113 2094 
Q 5113 2597 4934 2840 
Q 4756 3084 4391 3084 
Q 3944 3084 3684 2787 
Q 3425 2491 3425 1978 
L 3425 0 
L 2847 0 
L 2847 2094 
Q 2847 2600 2669 2842 
Q 2491 3084 2119 3084 
Q 1678 3084 1418 2786 
Q 1159 2488 1159 1978 
L 1159 0 
L 581 0 
L 581 3500 
L 1159 3500 
L 1159 2956 
Q 1356 3278 1631 3431 
Q 1906 3584 2284 3584 
Q 2666 3584 2933 3390 
Q 3200 3197 3328 2828 
z
" transform="scale(0.015625)"/>
     </defs>
     <use xlink:href="#DejaVuSans-48"/>
     <use xlink:href="#DejaVuSans-20" transform="translate(75.195312 0)"/>
     <use xlink:href="#DejaVuSans-68" transform="translate(106.982422 0)"/>
     <use xlink:href="#DejaVuSans-69" transform="translate(170.361328 0)"/>
     <use xlink:href="#DejaVuSans-73" transform="translate(198.144531 0)"/>
     <use xlink:href="#DejaVuSans-74" transform="translate(250.244141 0)"/>
     <use xlink:href="#DejaVuSans-6f" transform="translate(289.453125 0)"/>
     <use xlink:href="#DejaVuSans-67" transform="translate(350.634766 0)"/>
     <use xlink:href="#DejaVuSans-72" transform="translate(414.111328 0)"/>
     <use xlink:href="#DejaVuSans-61" transform="translate(455.224609 0)"/>
     <use xlink:href="#DejaVuSans-6d" transform="translate(516.503906 0)"/>
    </g>
   </g>
  </g>
  <g id="axes_2">
   <g id="patch_7">
    <path d="M 49.75 359.72 
L 411.615 359.72 
L 411.615 213.84 
L 49.75 213.84 
z
" style="fill: #ffffff"/>
   </g>
   <g id="matplotlib.axis_3">
    <g id="xtick_11">
     <g id="line2d_19">
      <g>
       <use xlink:href="#m8340a2aeea" x="49.75" y="359.72" style="stroke: #000000; stroke-width: 0.8"/>
      </g>
     </g>
     <g id="text_19">
      <!-- 0 -->
      <g transform="translate(46.56875 374.318438) scale(0.1 -0.1)">
       <use xlink:href="#DejaVuSans-30"/>
      </g>
     </g>
    </g>
    <g id="xtick_12">
     <g id="line2d_20">
      <g>
       <use xlink:href="#m8340a2aeea" x="120.703922" y="359.72" style="stroke: #000000; stroke-width: 0.8"/>
      </g>
     </g>
     <g id="text_20">
      <!-- 50 -->
      <g transform="translate(114.341422 374.318438) scale(0.1 -0.1)">
       <use xlink:href="#DejaVuSans-35"/>
       <use xlink:href="#DejaVuSans-30" transform="translate(63.623047 0)"/>
      </g>
     </g>
    </g>
    <g id="xtick_13">
     <g id="line2d_21">
      <g>
       <use xlink:href="#m8340a2aeea" x="191.657843" y="359.72" style="stroke: #000000; stroke-width: 0.8"/>
      </g>
     </g>
     <g id="text_21">
      <!-- 100 -->
      <g transform="translate(182.114093 374.318438) scale(0.1 -0.1)">
       <use xlink:href="#DejaVuSans-31"/>
       <use xlink:href="#DejaVuSans-30" transform="translate(63.623047 0)"/>
       <use xlink:href="#DejaVuSans-30" transform="translate(127.246094 0)"/>
      </g>
     </g>
    </g>
    <g id="xtick_14">
     <g id="line2d_22">
      <g>
       <use xlink:href="#m8340a2aeea" x="262.611765" y="359.72" style="stroke: #000000; stroke-width: 0.8"/>
      </g>
     </g>
     <g id="text_22">
      <!-- 150 -->
      <g transform="translate(253.068015 374.318438) scale(0.1 -0.1)">
       <use xlink:href="#DejaVuSans-31"/>
       <use xlink:href="#DejaVuSans-35" transform="translate(63.623047 0)"/>
       <use xlink:href="#DejaVuSans-30" transform="translate(127.246094 0)"/>
      </g>
     </g>
    </g>
    <g id="xtick_15">
     <g id="line2d_23">
      <g>
       <use xlink:href="#m8340a2aeea" x="333.565686" y="359.72" style="stroke: #000000; stroke-width: 0.8"/>
      </g>
     </g>
     <g id="text_23">
      <!-- 200 -->
      <g transform="translate(324.021936 374.318438) scale(0.1 -0.1)">
       <use xlink:href="#DejaVuSans-32"/>
       <use xlink:href="#DejaVuSans-30" transform="translate(63.623047 0)"/>
       <use xlink:href="#DejaVuSans-30" transform="translate(127.246094 0)"/>
      </g>
     </g>
    </g>
    <g id="xtick_16">
     <g id="line2d_24">
      <g>
       <use xlink:href="#m8340a2aeea" x="404.519608" y="359.72" style="stroke: #000000; stroke-width: 0.8"/>
      </g>
     </g>
     <g id="text_24">
      <!-- 250 -->
      <g transform="translate(394.975858 374.318438) scale(0.1 -0.1)">
       <use xlink:href="#DejaVuSans-32"/>
       <use xlink:href="#DejaVuSans-35" transform="translate(63.623047 0)"/>
       <use xlink:href="#DejaVuSans-30" transform="translate(127.246094 0)"/>
      </g>
     </g>
    </g>
   </g>
   <g id="matplotlib.axis_4">
    <g id="ytick_8">
     <g id="line2d_25">
      <g>
       <use xlink:href="#m0585656976" x="49.75" y="353.18103" style="stroke: #000000; stroke-width: 0.8"/>
      </g>
     </g>
     <g id="text_25">
      <!-- 0 -->
      <g transform="translate(36.3875 356.980249) scale(0.1 -0.1)">
       <use xlink:href="#DejaVuSans-30"/>
      </g>
     </g>
    </g>
    <g id="ytick_9">
     <g id="line2d_26">
      <g>
       <use xlink:href="#m0585656976" x="49.75" y="332.285747" style="stroke: #000000; stroke-width: 0.8"/>
      </g>
     </g>
     <g id="text_26">
      <!-- 2500 -->
      <g transform="translate(17.3 336.084966) scale(0.1 -0.1)">
       <use xlink:href="#DejaVuSans-32"/>
       <use xlink:href="#DejaVuSans-35" transform="translate(63.623047 0)"/>
       <use xlink:href="#DejaVuSans-30" transform="translate(127.246094 0)"/>
       <use xlink:href="#DejaVuSans-30" transform="translate(190.869141 0)"/>
      </g>
     </g>
    </g>
    <g id="ytick_10">
     <g id="line2d_27">
      <g>
       <use xlink:href="#m0585656976" x="49.75" y="311.390464" style="stroke: #000000; stroke-width: 0.8"/>
      </g>
     </g>
     <g id="text_27">
      <!-- 5000 -->
      <g transform="translate(17.3 315.189683) scale(0.1 -0.1)">
       <use xlink:href="#DejaVuSans-35"/>
       <use xlink:href="#DejaVuSans-30" transform="translate(63.623047 0)"/>
       <use xlink:href="#DejaVuSans-30" transform="translate(127.246094 0)"/>
       <use xlink:href="#DejaVuSans-30" transform="translate(190.869141 0)"/>
      </g>
     </g>
    </g>
    <g id="ytick_11">
     <g id="line2d_28">
      <g>
       <use xlink:href="#m0585656976" x="49.75" y="290.495181" style="stroke: #000000; stroke-width: 0.8"/>
      </g>
     </g>
     <g id="text_28">
      <!-- 7500 -->
      <g transform="translate(17.3 294.2944) scale(0.1 -0.1)">
       <use xlink:href="#DejaVuSans-37"/>
       <use xlink:href="#DejaVuSans-35" transform="translate(63.623047 0)"/>
       <use xlink:href="#DejaVuSans-30" transform="translate(127.246094 0)"/>
       <use xlink:href="#DejaVuSans-30" transform="translate(190.869141 0)"/>
      </g>
     </g>
    </g>
    <g id="ytick_12">
     <g id="line2d_29">
      <g>
       <use xlink:href="#m0585656976" x="49.75" y="269.599898" style="stroke: #000000; stroke-width: 0.8"/>
      </g>
     </g>
     <g id="text_29">
      <!-- 10000 -->
      <g transform="translate(10.9375 273.399117) scale(0.1 -0.1)">
       <use xlink:href="#DejaVuSans-31"/>
       <use xlink:href="#DejaVuSans-30" transform="translate(63.623047 0)"/>
       <use xlink:href="#DejaVuSans-30" transform="translate(127.246094 0)"/>
       <use xlink:href="#DejaVuSans-30" transform="translate(190.869141 0)"/>
       <use xlink:href="#DejaVuSans-30" transform="translate(254.492188 0)"/>
      </g>
     </g>
    </g>
    <g id="ytick_13">
     <g id="line2d_30">
      <g>
       <use xlink:href="#m0585656976" x="49.75" y="248.704615" style="stroke: #000000; stroke-width: 0.8"/>
      </g>
     </g>
     <g id="text_30">
      <!-- 12500 -->
      <g transform="translate(10.9375 252.503834) scale(0.1 -0.1)">
       <use xlink:href="#DejaVuSans-31"/>
       <use xlink:href="#DejaVuSans-32" transform="translate(63.623047 0)"/>
       <use xlink:href="#DejaVuSans-35" transform="translate(127.246094 0)"/>
       <use xlink:href="#DejaVuSans-30" transform="translate(190.869141 0)"/>
       <use xlink:href="#DejaVuSans-30" transform="translate(254.492188 0)"/>
      </g>
     </g>
    </g>
    <g id="ytick_14">
     <g id="line2d_31">
      <g>
       <use xlink:href="#m0585656976" x="49.75" y="227.809332" style="stroke: #000000; stroke-width: 0.8"/>
      </g>
     </g>
     <g id="text_31">
      <!-- 15000 -->
      <g transform="translate(10.9375 231.608551) scale(0.1 -0.1)">
       <use xlink:href="#DejaVuSans-31"/>
       <use xlink:href="#DejaVuSans-35" transform="translate(63.623047 0)"/>
       <use xlink:href="#DejaVuSans-30" transform="translate(127.246094 0)"/>
       <use xlink:href="#DejaVuSans-30" transform="translate(190.869141 0)"/>
       <use xlink:href="#DejaVuSans-30" transform="translate(254.492188 0)"/>
      </g>
     </g>
    </g>
   </g>
   <g id="line2d_32">
    <path d="M 49.75 337.743595 
L 51.169078 353.089091 
L 52.588157 352.671185 
L 54.007235 326.050595 
L 55.426314 335.261235 
L 56.845392 338.144785 
L 58.264471 348.024074 
L 59.683549 319.230374 
L 61.102627 220.470909 
L 62.521706 231.879734 
L 63.940784 303.776223 
L 65.359863 333.55618 
L 66.778941 322.607052 
L 68.19802 333.096484 
L 69.617098 338.261798 
L 71.036176 340.593712 
L 72.455255 343.410396 
L 73.874333 344.32143 
L 75.293412 344.371579 
L 76.71249 345.800816 
L 78.131569 346.870655 
L 79.550647 347.087966 
L 80.969725 346.996026 
L 85.226961 347.413932 
L 86.646039 347.24677 
L 88.065118 347.455723 
L 89.484196 347.439006 
L 90.903275 347.647959 
L 92.322353 348.166162 
L 95.16051 347.497513 
L 96.579588 347.840196 
L 99.417745 347.589452 
L 100.836824 346.49454 
L 102.255902 347.271844 
L 103.67498 346.611553 
L 105.094059 346.962594 
L 106.513137 346.753641 
L 107.932216 346.686776 
L 109.351294 347.062891 
L 110.770373 345.909472 
L 112.189451 345.524998 
L 113.608529 346.193648 
L 115.027608 345.1656 
L 116.446686 345.667086 
L 117.865765 345.775742 
L 119.284843 343.084429 
L 122.123 333.848714 
L 123.542078 344.388295 
L 124.961157 339.080893 
L 126.380235 343.736362 
L 127.799314 341.605043 
L 129.218392 343.920241 
L 130.637471 333.455883 
L 132.056549 339.916705 
L 133.475627 325.432094 
L 134.894706 330.647557 
L 136.313784 339.858198 
L 137.732863 343.761437 
L 139.151941 337.94419 
L 140.57102 343.159652 
L 141.990098 332.269031 
L 143.409176 346.761999 
L 146.247333 347.848554 
L 147.666412 348.742872 
L 149.08549 348.13273 
L 150.504569 348.207953 
L 151.923647 349.210926 
L 153.342725 348.141088 
L 154.761804 348.525561 
L 156.180882 348.458696 
L 157.599961 349.043764 
L 159.019039 348.416906 
L 160.438118 348.408548 
L 161.857196 348.834811 
L 163.276275 348.467054 
L 164.695353 348.291534 
L 167.53351 348.776305 
L 168.952588 348.533919 
L 170.371667 346.176931 
L 171.790745 348.508845 
L 173.209824 348.207953 
L 174.628902 348.6175 
L 176.04798 348.600784 
L 177.467059 348.216311 
L 178.886137 348.316608 
L 180.305216 348.207953 
L 181.724294 348.609142 
L 183.143373 348.433622 
L 184.562451 348.416906 
L 185.981529 348.149446 
L 187.400608 348.993615 
L 188.819686 348.299892 
L 190.238765 348.776305 
L 191.657843 348.57571 
L 193.076922 348.968541 
L 194.496 345.834249 
L 195.915078 348.692723 
L 197.334157 348.776305 
L 198.753235 349.035406 
L 200.172314 348.567352 
L 201.591392 349.436595 
L 203.010471 349.344656 
L 204.429549 348.533919 
L 205.848627 349.470028 
L 207.267706 349.135703 
L 208.686784 349.336298 
L 210.105863 349.361372 
L 211.524941 349.737488 
L 214.363098 349.085555 
L 215.782176 350.063454 
L 217.201255 349.704055 
L 218.620333 349.561967 
L 220.039412 350.08017 
L 221.45849 350.004947 
L 222.877569 350.238974 
L 224.296647 350.272407 
L 225.715725 350.48136 
L 227.134804 350.431211 
L 228.553882 350.581657 
L 229.972961 350.907623 
L 231.392039 345.199032 
L 232.811118 350.899265 
L 234.230196 351.108218 
L 235.649275 350.815684 
L 237.068353 351.09986 
L 241.325588 351.317171 
L 242.744667 351.166725 
L 244.163745 351.216874 
L 245.582824 351.509408 
L 247.001902 350.982846 
L 248.42098 351.450901 
L 249.840059 351.133292 
L 251.259137 350.623448 
L 254.097294 351.693286 
L 256.935451 351.300455 
L 259.773608 351.618063 
L 261.192686 351.267022 
L 262.611765 351.551198 
L 265.449922 351.551198 
L 266.869 350.598373 
L 268.288078 351.258664 
L 269.707157 351.450901 
L 271.126235 351.342245 
L 272.545314 351.041353 
L 273.964392 351.141651 
L 275.383471 350.238974 
L 276.802549 351.292097 
L 278.221627 350.941056 
L 279.640706 350.899265 
L 281.059784 351.292097 
L 282.478863 351.007921 
L 286.736098 351.308813 
L 289.574255 351.300455 
L 290.993333 349.093913 
L 292.412412 351.049711 
L 299.507804 351.024637 
L 300.926882 350.715387 
L 302.345961 351.175083 
L 303.765039 350.422853 
L 305.184118 351.191799 
L 306.603196 351.124934 
L 308.022275 350.314197 
L 309.441353 351.150009 
L 310.860431 351.083144 
L 312.27951 350.8324 
L 313.698588 351.091502 
L 315.117667 350.631806 
L 316.536745 350.690312 
L 317.955824 351.350603 
L 319.374902 351.208515 
L 320.79398 349.812711 
L 322.213059 351.23359 
L 323.632137 350.941056 
L 325.051216 351.083144 
L 326.470294 351.016279 
L 327.889373 350.79061 
L 329.308451 351.200157 
L 330.727529 350.899265 
L 332.146608 351.267022 
L 333.565686 350.991205 
L 334.984765 351.27538 
L 336.403843 351.358961 
L 337.822922 351.576272 
L 339.242 350.748819 
L 340.661078 351.417468 
L 342.080157 351.058069 
L 344.918314 351.517766 
L 346.337392 351.267022 
L 347.756471 351.509408 
L 349.175549 351.292097 
L 350.594627 351.818658 
L 352.013706 350.330914 
L 353.432784 351.618063 
L 354.851863 351.634779 
L 356.270941 351.517766 
L 357.69002 351.283738 
L 359.109098 351.684928 
L 360.528176 351.049711 
L 361.947255 351.492691 
L 363.366333 351.643137 
L 364.785412 351.400752 
L 366.20449 350.882549 
L 367.623569 351.559556 
L 369.042647 351.358961 
L 370.461725 351.501049 
L 371.880804 351.175083 
L 374.718961 351.601347 
L 376.138039 351.292097 
L 377.557118 351.350603 
L 378.976196 351.267022 
L 380.395275 351.492691 
L 383.233431 350.982846 
L 384.65251 351.175083 
L 388.909745 351.175083 
L 390.328824 351.225232 
L 391.747902 351.041353 
L 393.16698 350.707029 
L 394.586059 350.732103 
L 396.005137 350.631806 
L 397.424216 350.707029 
L 398.843294 350.431211 
L 400.262373 350.824042 
L 401.681451 350.564941 
L 404.519608 350.882549 
L 405.938686 350.598373 
L 407.357765 351.342245 
L 408.776843 350.531508 
L 410.195922 352.086117 
L 411.615 306.141569 
L 411.615 306.141569 
" clip-path="url(#pf470003c50)" style="fill: none; stroke: #008000; stroke-width: 1.5; stroke-linecap: square"/>
   </g>
   <g id="patch_8">
    <path d="M 49.75 359.72 
L 49.75 213.84 
" style="fill: none; stroke: #000000; stroke-width: 0.8; stroke-linejoin: miter; stroke-linecap: square"/>
   </g>
   <g id="patch_9">
    <path d="M 411.615 359.72 
L 411.615 213.84 
" style="fill: none; stroke: #000000; stroke-width: 0.8; stroke-linejoin: miter; stroke-linecap: square"/>
   </g>
   <g id="patch_10">
    <path d="M 49.75 359.72 
L 411.615 359.72 
" style="fill: none; stroke: #000000; stroke-width: 0.8; stroke-linejoin: miter; stroke-linecap: square"/>
   </g>
   <g id="patch_11">
    <path d="M 49.75 213.84 
L 411.615 213.84 
" style="fill: none; stroke: #000000; stroke-width: 0.8; stroke-linejoin: miter; stroke-linecap: square"/>
   </g>
   <g id="text_32">
    <!-- S histogram -->
    <g transform="translate(194.55125 207.84) scale(0.12 -0.12)">
     <defs>
      <path id="DejaVuSans-53" d="M 3425 4513 
L 3425 3897 
Q 3066 4069 2747 4153 
Q 2428 4238 2131 4238 
Q 1616 4238 1336 4038 
Q 1056 3838 1056 3469 
Q 1056 3159 1242 3001 
Q 1428 2844 1947 2747 
L 2328 2669 
Q 3034 2534 3370 2195 
Q 3706 1856 3706 1288 
Q 3706 609 3251 259 
Q 2797 -91 1919 -91 
Q 1588 -91 1214 -16 
Q 841 59 441 206 
L 441 856 
Q 825 641 1194 531 
Q 1563 422 1919 422 
Q 2459 422 2753 634 
Q 3047 847 3047 1241 
Q 3047 1584 2836 1778 
Q 2625 1972 2144 2069 
L 1759 2144 
Q 1053 2284 737 2584 
Q 422 2884 422 3419 
Q 422 4038 858 4394 
Q 1294 4750 2059 4750 
Q 2388 4750 2728 4690 
Q 3069 4631 3425 4513 
z
" transform="scale(0.015625)"/>
     </defs>
     <use xlink:href="#DejaVuSans-53"/>
     <use xlink:href="#DejaVuSans-20" transform="translate(63.476562 0)"/>
     <use xlink:href="#DejaVuSans-68" transform="translate(95.263672 0)"/>
     <use xlink:href="#DejaVuSans-69" transform="translate(158.642578 0)"/>
     <use xlink:href="#DejaVuSans-73" transform="translate(186.425781 0)"/>
     <use xlink:href="#DejaVuSans-74" transform="translate(238.525391 0)"/>
     <use xlink:href="#DejaVuSans-6f" transform="translate(277.734375 0)"/>
     <use xlink:href="#DejaVuSans-67" transform="translate(338.916016 0)"/>
     <use xlink:href="#DejaVuSans-72" transform="translate(402.392578 0)"/>
     <use xlink:href="#DejaVuSans-61" transform="translate(443.505859 0)"/>
     <use xlink:href="#DejaVuSans-6d" transform="translate(504.785156 0)"/>
    </g>
   </g>
  </g>
  <g id="axes_3">
   <g id="patch_12">
    <path d="M 49.75 548.12 
L 411.615 548.12 
L 411.615 402.24 
L 49.75 402.24 
z
" style="fill: #ffffff"/>
   </g>
   <g id="matplotlib.axis_5">
    <g id="xtick_17">
     <g id="line2d_33">
      <g>
       <use xlink:href="#m8340a2aeea" x="49.75" y="548.12" style="stroke: #000000; stroke-width: 0.8"/>
      </g>
     </g>
     <g id="text_33">
      <!-- 0 -->
      <g transform="translate(46.56875 562.718438) scale(0.1 -0.1)">
       <use xlink:href="#DejaVuSans-30"/>
      </g>
     </g>
    </g>
    <g id="xtick_18">
     <g id="line2d_34">
      <g>
       <use xlink:href="#m8340a2aeea" x="120.703922" y="548.12" style="stroke: #000000; stroke-width: 0.8"/>
      </g>
     </g>
     <g id="text_34">
      <!-- 50 -->
      <g transform="translate(114.341422 562.718438) scale(0.1 -0.1)">
       <use xlink:href="#DejaVuSans-35"/>
       <use xlink:href="#DejaVuSans-30" transform="translate(63.623047 0)"/>
      </g>
     </g>
    </g>
    <g id="xtick_19">
     <g id="line2d_35">
      <g>
       <use xlink:href="#m8340a2aeea" x="191.657843" y="548.12" style="stroke: #000000; stroke-width: 0.8"/>
      </g>
     </g>
     <g id="text_35">
      <!-- 100 -->
      <g transform="translate(182.114093 562.718438) scale(0.1 -0.1)">
       <use xlink:href="#DejaVuSans-31"/>
       <use xlink:href="#DejaVuSans-30" transform="translate(63.623047 0)"/>
       <use xlink:href="#DejaVuSans-30" transform="translate(127.246094 0)"/>
      </g>
     </g>
    </g>
    <g id="xtick_20">
     <g id="line2d_36">
      <g>
       <use xlink:href="#m8340a2aeea" x="262.611765" y="548.12" style="stroke: #000000; stroke-width: 0.8"/>
      </g>
     </g>
     <g id="text_36">
      <!-- 150 -->
      <g transform="translate(253.068015 562.718438) scale(0.1 -0.1)">
       <use xlink:href="#DejaVuSans-31"/>
       <use xlink:href="#DejaVuSans-35" transform="translate(63.623047 0)"/>
       <use xlink:href="#DejaVuSans-30" transform="translate(127.246094 0)"/>
      </g>
     </g>
    </g>
    <g id="xtick_21">
     <g id="line2d_37">
      <g>
       <use xlink:href="#m8340a2aeea" x="333.565686" y="548.12" style="stroke: #000000; stroke-width: 0.8"/>
      </g>
     </g>
     <g id="text_37">
      <!-- 200 -->
      <g transform="translate(324.021936 562.718438) scale(0.1 -0.1)">
       <use xlink:href="#DejaVuSans-32"/>
       <use xlink:href="#DejaVuSans-30" transform="translate(63.623047 0)"/>
       <use xlink:href="#DejaVuSans-30" transform="translate(127.246094 0)"/>
      </g>
     </g>
    </g>
    <g id="xtick_22">
     <g id="line2d_38">
      <g>
       <use xlink:href="#m8340a2aeea" x="404.519608" y="548.12" style="stroke: #000000; stroke-width: 0.8"/>
      </g>
     </g>
     <g id="text_38">
      <!-- 250 -->
      <g transform="translate(394.975858 562.718438) scale(0.1 -0.1)">
       <use xlink:href="#DejaVuSans-32"/>
       <use xlink:href="#DejaVuSans-35" transform="translate(63.623047 0)"/>
       <use xlink:href="#DejaVuSans-30" transform="translate(127.246094 0)"/>
      </g>
     </g>
    </g>
   </g>
   <g id="matplotlib.axis_6">
    <g id="ytick_15">
     <g id="line2d_39">
      <g>
       <use xlink:href="#m0585656976" x="49.75" y="545.834771" style="stroke: #000000; stroke-width: 0.8"/>
      </g>
     </g>
     <g id="text_39">
      <!-- 0 -->
      <g transform="translate(36.3875 549.63399) scale(0.1 -0.1)">
       <use xlink:href="#DejaVuSans-30"/>
      </g>
     </g>
    </g>
    <g id="ytick_16">
     <g id="line2d_40">
      <g>
       <use xlink:href="#m0585656976" x="49.75" y="515.864561" style="stroke: #000000; stroke-width: 0.8"/>
      </g>
     </g>
     <g id="text_40">
      <!-- 1000 -->
      <g transform="translate(17.3 519.66378) scale(0.1 -0.1)">
       <use xlink:href="#DejaVuSans-31"/>
       <use xlink:href="#DejaVuSans-30" transform="translate(63.623047 0)"/>
       <use xlink:href="#DejaVuSans-30" transform="translate(127.246094 0)"/>
       <use xlink:href="#DejaVuSans-30" transform="translate(190.869141 0)"/>
      </g>
     </g>
    </g>
    <g id="ytick_17">
     <g id="line2d_41">
      <g>
       <use xlink:href="#m0585656976" x="49.75" y="485.89435" style="stroke: #000000; stroke-width: 0.8"/>
      </g>
     </g>
     <g id="text_41">
      <!-- 2000 -->
      <g transform="translate(17.3 489.693569) scale(0.1 -0.1)">
       <use xlink:href="#DejaVuSans-32"/>
       <use xlink:href="#DejaVuSans-30" transform="translate(63.623047 0)"/>
       <use xlink:href="#DejaVuSans-30" transform="translate(127.246094 0)"/>
       <use xlink:href="#DejaVuSans-30" transform="translate(190.869141 0)"/>
      </g>
     </g>
    </g>
    <g id="ytick_18">
     <g id="line2d_42">
      <g>
       <use xlink:href="#m0585656976" x="49.75" y="455.92414" style="stroke: #000000; stroke-width: 0.8"/>
      </g>
     </g>
     <g id="text_42">
      <!-- 3000 -->
      <g transform="translate(17.3 459.723358) scale(0.1 -0.1)">
       <defs>
        <path id="DejaVuSans-33" d="M 2597 2516 
Q 3050 2419 3304 2112 
Q 3559 1806 3559 1356 
Q 3559 666 3084 287 
Q 2609 -91 1734 -91 
Q 1441 -91 1130 -33 
Q 819 25 488 141 
L 488 750 
Q 750 597 1062 519 
Q 1375 441 1716 441 
Q 2309 441 2620 675 
Q 2931 909 2931 1356 
Q 2931 1769 2642 2001 
Q 2353 2234 1838 2234 
L 1294 2234 
L 1294 2753 
L 1863 2753 
Q 2328 2753 2575 2939 
Q 2822 3125 2822 3475 
Q 2822 3834 2567 4026 
Q 2313 4219 1838 4219 
Q 1578 4219 1281 4162 
Q 984 4106 628 3988 
L 628 4550 
Q 988 4650 1302 4700 
Q 1616 4750 1894 4750 
Q 2613 4750 3031 4423 
Q 3450 4097 3450 3541 
Q 3450 3153 3228 2886 
Q 3006 2619 2597 2516 
z
" transform="scale(0.015625)"/>
       </defs>
       <use xlink:href="#DejaVuSans-33"/>
       <use xlink:href="#DejaVuSans-30" transform="translate(63.623047 0)"/>
       <use xlink:href="#DejaVuSans-30" transform="translate(127.246094 0)"/>
       <use xlink:href="#DejaVuSans-30" transform="translate(190.869141 0)"/>
      </g>
     </g>
    </g>
    <g id="ytick_19">
     <g id="line2d_43">
      <g>
       <use xlink:href="#m0585656976" x="49.75" y="425.953929" style="stroke: #000000; stroke-width: 0.8"/>
      </g>
     </g>
     <g id="text_43">
      <!-- 4000 -->
      <g transform="translate(17.3 429.753148) scale(0.1 -0.1)">
       <use xlink:href="#DejaVuSans-34"/>
       <use xlink:href="#DejaVuSans-30" transform="translate(63.623047 0)"/>
       <use xlink:href="#DejaVuSans-30" transform="translate(127.246094 0)"/>
       <use xlink:href="#DejaVuSans-30" transform="translate(190.869141 0)"/>
      </g>
     </g>
    </g>
   </g>
   <g id="line2d_44">
    <path d="M 49.75 539.99058 
L 51.169078 535.70484 
L 52.588157 534.446091 
L 54.007235 532.288236 
L 55.426314 519.760688 
L 56.845392 525.66482 
L 58.264471 532.228296 
L 59.683549 531.089428 
L 61.102627 533.876657 
L 62.521706 533.427104 
L 63.940784 534.985555 
L 65.359863 535.195347 
L 68.19802 535.375168 
L 69.617098 535.105436 
L 71.036176 535.495049 
L 72.455255 535.61493 
L 73.874333 535.315228 
L 75.293412 534.655883 
L 76.71249 536.334215 
L 78.131569 535.73481 
L 79.550647 536.004542 
L 80.969725 537.383172 
L 82.388804 537.622934 
L 83.807882 538.611951 
L 85.226961 538.222338 
L 86.646039 538.971593 
L 88.065118 538.641921 
L 89.484196 538.911653 
L 90.903275 539.660908 
L 92.322353 538.941623 
L 93.741431 539.780789 
L 95.16051 538.941623 
L 96.579588 539.421146 
L 99.417745 539.810759 
L 100.836824 540.140431 
L 102.255902 539.001563 
L 103.67498 540.110461 
L 105.094059 539.780789 
L 106.513137 540.170402 
L 107.932216 540.230342 
L 109.351294 539.660908 
L 110.770373 540.320253 
L 112.189451 539.570997 
L 113.608529 539.211355 
L 115.027608 539.511057 
L 116.446686 539.361206 
L 117.865765 541.159419 
L 119.284843 539.96061 
L 120.703922 541.039538 
L 122.123 539.690878 
L 123.542078 539.720848 
L 124.961157 540.589985 
L 126.380235 540.440134 
L 127.799314 539.720848 
L 129.218392 540.380193 
L 130.637471 540.829746 
L 132.056549 540.709865 
L 133.475627 540.799776 
L 134.894706 539.301266 
L 136.313784 540.589985 
L 137.732863 540.410163 
L 139.151941 539.99058 
L 140.57102 541.489091 
L 141.990098 540.260312 
L 144.828255 539.780789 
L 146.247333 540.739836 
L 147.666412 540.290282 
L 150.504569 539.93064 
L 151.923647 540.320253 
L 153.342725 539.720848 
L 154.761804 539.570997 
L 156.180882 540.110461 
L 157.599961 539.391176 
L 159.019039 539.570997 
L 160.438118 539.481087 
L 161.857196 539.181385 
L 163.276275 539.241325 
L 164.695353 538.611951 
L 166.114431 539.301266 
L 167.53351 539.121444 
L 168.952588 539.241325 
L 170.371667 539.241325 
L 171.790745 538.282278 
L 173.209824 539.541027 
L 176.04798 538.012546 
L 177.467059 536.963589 
L 178.886137 537.742815 
L 180.305216 538.761802 
L 181.724294 537.652904 
L 183.143373 538.012546 
L 184.562451 537.832725 
L 185.981529 536.364185 
L 187.400608 537.14341 
L 188.819686 536.843708 
L 190.238765 536.034513 
L 191.657843 535.764781 
L 193.076922 536.094453 
L 194.496 536.124423 
L 195.915078 535.974572 
L 197.334157 535.70484 
L 198.753235 535.285257 
L 200.172314 534.625913 
L 201.591392 534.476062 
L 203.010471 534.536002 
L 204.429549 533.097432 
L 205.848627 533.487045 
L 207.267706 533.517015 
L 208.686784 532.078445 
L 210.105863 533.307223 
L 211.524941 531.38913 
L 212.94402 532.198326 
L 214.363098 530.849666 
L 215.782176 529.890619 
L 217.201255 530.250262 
L 218.620333 528.781722 
L 220.039412 529.650858 
L 221.45849 530.909607 
L 222.877569 530.190322 
L 224.296647 530.400113 
L 227.134804 527.702794 
L 228.553882 529.051454 
L 229.972961 529.95056 
L 231.392039 528.961543 
L 234.230196 527.972526 
L 235.649275 526.983509 
L 237.068353 526.234254 
L 238.487431 523.866607 
L 239.90651 524.25622 
L 241.325588 519.670778 
L 242.744667 520.240212 
L 244.163745 517.512922 
L 245.582824 516.164263 
L 248.42098 512.777629 
L 249.840059 510.02037 
L 251.259137 508.5818 
L 252.678216 505.704659 
L 254.097294 503.157192 
L 255.516373 501.598741 
L 256.935451 496.503805 
L 258.354529 492.90738 
L 259.773608 495.275026 
L 261.192686 491.618661 
L 262.611765 492.427856 
L 264.030843 487.902354 
L 265.449922 487.452801 
L 266.869 484.45578 
L 268.288078 482.95727 
L 269.707157 483.646584 
L 271.126235 481.728491 
L 272.545314 478.67153 
L 273.964392 480.859355 
L 275.383471 478.971232 
L 276.802549 476.663525 
L 278.221627 478.281917 
L 279.640706 477.742453 
L 281.059784 473.966206 
L 282.478863 477.562632 
L 283.897941 478.431768 
L 285.31702 480.889325 
L 286.736098 480.020189 
L 288.155176 480.559653 
L 289.574255 481.368848 
L 290.993333 483.826406 
L 292.412412 483.01721 
L 293.83149 483.856376 
L 295.250569 488.981282 
L 296.669647 490.719554 
L 298.088725 495.544758 
L 299.507804 496.773537 
L 300.926882 497.732583 
L 302.345961 501.688651 
L 303.765039 502.258085 
L 305.184118 507.832544 
L 306.603196 509.600787 
L 308.022275 510.559834 
L 309.441353 513.556855 
L 310.860431 513.916497 
L 312.27951 516.463965 
L 313.698588 518.59185 
L 315.117667 517.872565 
L 316.536745 521.918543 
L 317.955824 520.330122 
L 319.374902 522.697769 
L 320.79398 523.207262 
L 322.213059 524.406071 
L 323.632137 523.746726 
L 325.051216 525.365118 
L 326.470294 526.144343 
L 327.889373 526.234254 
L 329.308451 527.043449 
L 330.727529 525.395088 
L 333.565686 526.773718 
L 334.984765 525.844641 
L 336.403843 527.07342 
L 337.822922 526.713777 
L 339.242 527.792705 
L 340.661078 526.683807 
L 342.080157 527.403092 
L 343.499235 527.343152 
L 344.918314 527.882615 
L 346.337392 528.032466 
L 347.756471 529.171334 
L 349.175549 528.631871 
L 350.594627 526.503986 
L 352.013706 527.343152 
L 353.432784 529.021483 
L 354.851863 527.882615 
L 356.270941 528.332168 
L 357.69002 529.051454 
L 359.109098 528.48202 
L 360.528176 529.171334 
L 361.947255 529.291215 
L 363.366333 528.54196 
L 364.785412 529.441066 
L 367.623569 527.702794 
L 369.042647 528.931573 
L 370.461725 529.710798 
L 371.880804 529.441066 
L 373.299882 528.48202 
L 374.718961 529.830679 
L 376.138039 528.811692 
L 377.557118 528.721781 
L 378.976196 527.882615 
L 380.395275 529.171334 
L 381.814353 528.452049 
L 383.233431 529.231275 
L 384.65251 528.182317 
L 386.071588 528.302198 
L 387.490667 528.781722 
L 388.909745 528.51199 
L 390.328824 526.324164 
L 391.747902 526.444045 
L 393.16698 527.043449 
L 394.586059 528.242258 
L 396.005137 524.765713 
L 397.424216 525.185296 
L 398.843294 526.563926 
L 400.262373 524.016458 
L 401.681451 509.780608 
L 403.100529 471.808351 
L 404.519608 408.870909 
L 405.938686 431.82809 
L 407.357765 483.227002 
L 408.776843 514.27614 
L 410.195922 527.672824 
L 411.615 466.833296 
L 411.615 466.833296 
" clip-path="url(#p82dafb4ff3)" style="fill: none; stroke: #0000ff; stroke-width: 1.5; stroke-linecap: square"/>
   </g>
   <g id="patch_13">
    <path d="M 49.75 548.12 
L 49.75 402.24 
" style="fill: none; stroke: #000000; stroke-width: 0.8; stroke-linejoin: miter; stroke-linecap: square"/>
   </g>
   <g id="patch_14">
    <path d="M 411.615 548.12 
L 411.615 402.24 
" style="fill: none; stroke: #000000; stroke-width: 0.8; stroke-linejoin: miter; stroke-linecap: square"/>
   </g>
   <g id="patch_15">
    <path d="M 49.75 548.12 
L 411.615 548.12 
" style="fill: none; stroke: #000000; stroke-width: 0.8; stroke-linejoin: miter; stroke-linecap: square"/>
   </g>
   <g id="patch_16">
    <path d="M 49.75 402.24 
L 411.615 402.24 
" style="fill: none; stroke: #000000; stroke-width: 0.8; stroke-linejoin: miter; stroke-linecap: square"/>
   </g>
   <g id="text_44">
    <!-- V histogram -->
    <g transform="translate(194.255937 396.24) scale(0.12 -0.12)">
     <defs>
      <path id="DejaVuSans-56" d="M 1831 0 
L 50 4666 
L 709 4666 
L 2188 738 
L 3669 4666 
L 4325 4666 
L 2547 0 
L 1831 0 
z
" transform="scale(0.015625)"/>
     </defs>
     <use xlink:href="#DejaVuSans-56"/>
     <use xlink:href="#DejaVuSans-20" transform="translate(68.408203 0)"/>
     <use xlink:href="#DejaVuSans-68" transform="translate(100.195312 0)"/>
     <use xlink:href="#DejaVuSans-69" transform="translate(163.574219 0)"/>
     <use xlink:href="#DejaVuSans-73" transform="translate(191.357422 0)"/>
     <use xlink:href="#DejaVuSans-74" transform="translate(243.457031 0)"/>
     <use xlink:href="#DejaVuSans-6f" transform="translate(282.666016 0)"/>
     <use xlink:href="#DejaVuSans-67" transform="translate(343.847656 0)"/>
     <use xlink:href="#DejaVuSans-72" transform="translate(407.324219 0)"/>
     <use xlink:href="#DejaVuSans-61" transform="translate(448.4375 0)"/>
     <use xlink:href="#DejaVuSans-6d" transform="translate(509.716797 0)"/>
    </g>
   </g>
  </g>
 </g>
 <defs>
  <clipPath id="p20fd7132c2">
   <rect x="49.75" y="25.44" width="361.865" height="145.88"/>
  </clipPath>
  <clipPath id="pf470003c50">
   <rect x="49.75" y="213.84" width="361.865" height="145.88"/>
  </clipPath>
  <clipPath id="p82dafb4ff3">
   <rect x="49.75" y="402.24" width="361.865" height="145.88"/>
  </clipPath>
 </defs>
</svg>
