<?xml version="1.0" encoding="utf-8" standalone="no"?>
<!DOCTYPE svg PUBLIC "-//W3C//DTD SVG 1.1//EN"
  "http://www.w3.org/Graphics/SVG/1.1/DTD/svg11.dtd">
<svg xmlns:xlink="http://www.w3.org/1999/xlink" width="432pt" height="576pt" viewBox="0 0 432 576" xmlns="http://www.w3.org/2000/svg" version="1.1">
 <metadata>
  <rdf:RDF xmlns:dc="http://purl.org/dc/elements/1.1/" xmlns:cc="http://creativecommons.org/ns#" xmlns:rdf="http://www.w3.org/1999/02/22-rdf-syntax-ns#">
   <cc:Work>
    <dc:type rdf:resource="http://purl.org/dc/dcmitype/StillImage"/>
    <dc:date>2026-01-22T15:02:15.255106</dc:date>
    <dc:format>image/svg+xml</dc:format>
    <dc:creator>
     <cc:Agent>
      <dc:title>Matplotlib v3.10.8, https://matplotlib.org/</dc:title>
     </cc:Agent>
    </dc:creator>
   </cc:Work>
  </rdf:RDF>
 </metadata>
 <defs>
  <style type="text/css">*{stroke-linejoin: round; stroke-linecap: butt}</style>
 </defs>
 <g id="figure_1">
  <g id="patch_1">
   <path d="M 0 576 
L 432 576 
L 432 0 
L 0 0 
z
" style="fill: #ffffff"/>
  </g>
  <g id="axes_1">
   <g id="patch_2">
    <path d="M 43.36 171.32 
L 411.615 171.32 
L 411.615 25.44 
L 43.36 25.44 
z
" style="fill: #ffffff"/>
   </g>
   <g id="matplotlib.axis_1">
    <g id="xtick_1">
     <g id="line2d_1">
      <defs>
       <path id="m06b4f9821d" d="M 0 0 
L 0 3.5 
" style="stroke: #000000; stroke-width: 0.8"/>
      </defs>
      <g>
       <use xlink:href="#m06b4f9821d" x="43.36" y="171.32" style="stroke: #000000; stroke-width: 0.8"/>
      </g>
     </g>
     <g id="text_1">
      <!-- 0 -->
      <g transform="translate(40.17875 185.918438) scale(0.1 -0.1)">
       <defs>
        <path id="DejaVuSans-30" d="M 2034 4250 
Q 1547 4250 1301 3770 
Q 1056 3291 1056 2328 
Q 1056 1369 1301 889 
Q 1547 409 2034 409 
Q 2525 409 2770 889 
Q 3016 1369 3016 2328 
Q 3016 3291 2770 3770 
Q 2525 4250 2034 4250 
z
M 2034 4750 
Q 2819 4750 3233 4129 
Q 3647 3509 3647 2328 
Q 3647 1150 3233 529 
Q 2819 -91 2034 -91 
Q 1250 -91 836 529 
Q 422 1150 422 2328 
Q 422 3509 836 4129 
Q 1250 4750 2034 4750 
z
" transform="scale(0.015625)"/>
       </defs>
       <use xlink:href="#DejaVuSans-30"/>
      </g>
     </g>
    </g>
    <g id="xtick_2">
     <g id="line2d_2">
      <g>
       <use xlink:href="#m06b4f9821d" x="84.277222" y="171.32" style="stroke: #000000; stroke-width: 0.8"/>
      </g>
     </g>
     <g id="text_2">
      <!-- 20 -->
      <g transform="translate(77.914722 185.918438) scale(0.1 -0.1)">
       <defs>
        <path id="DejaVuSans-32" d="M 1228 531 
L 3431 531 
L 3431 0 
L 469 0 
L 469 531 
Q 828 903 1448 1529 
Q 2069 2156 2228 2338 
Q 2531 2678 2651 2914 
Q 2772 3150 2772 3378 
Q 2772 3750 2511 3984 
Q 2250 4219 1831 4219 
Q 1534 4219 1204 4116 
Q 875 4013 500 3803 
L 500 4441 
Q 881 4594 1212 4672 
Q 1544 4750 1819 4750 
Q 2544 4750 2975 4387 
Q 3406 4025 3406 3419 
Q 3406 3131 3298 2873 
Q 3191 2616 2906 2266 
Q 2828 2175 2409 1742 
Q 1991 1309 1228 531 
z
" transform="scale(0.015625)"/>
       </defs>
       <use xlink:href="#DejaVuSans-32"/>
       <use xlink:href="#DejaVuSans-30" transform="translate(63.623047 0)"/>
      </g>
     </g>
    </g>
    <g id="xtick_3">
     <g id="line2d_3">
      <g>
       <use xlink:href="#m06b4f9821d" x="125.194444" y="171.32" style="stroke: #000000; stroke-width: 0.8"/>
      </g>
     </g>
     <g id="text_3">
      <!-- 40 -->
      <g transform="translate(118.831944 185.918438) scale(0.1 -0.1)">
       <defs>
        <path id="DejaVuSans-34" d="M 2419 4116 
L 825 1625 
L 2419 1625 
L 2419 4116 
z
M 2253 4666 
L 3047 4666 
L 3047 1625 
L 3713 1625 
L 3713 1100 
L 3047 1100 
L 3047 0 
L 2419 0 
L 2419 1100 
L 313 1100 
L 313 1709 
L 2253 4666 
z
" transform="scale(0.015625)"/>
       </defs>
       <use xlink:href="#DejaVuSans-34"/>
       <use xlink:href="#DejaVuSans-30" transform="translate(63.623047 0)"/>
      </g>
     </g>
    </g>
    <g id="xtick_4">
     <g id="line2d_4">
      <g>
       <use xlink:href="#m06b4f9821d" x="166.111667" y="171.32" style="stroke: #000000; stroke-width: 0.8"/>
      </g>
     </g>
     <g id="text_4">
      <!-- 60 -->
      <g transform="translate(159.749167 185.918438) scale(0.1 -0.1)">
       <defs>
        <path id="DejaVuSans-36" d="M 2113 2584 
Q 1688 2584 1439 2293 
Q 1191 2003 1191 1497 
Q 1191 994 1439 701 
Q 1688 409 2113 409 
Q 2538 409 2786 701 
Q 3034 994 3034 1497 
Q 3034 2003 2786 2293 
Q 2538 2584 2113 2584 
z
M 3366 4563 
L 3366 3988 
Q 3128 4100 2886 4159 
Q 2644 4219 2406 4219 
Q 1781 4219 1451 3797 
Q 1122 3375 1075 2522 
Q 1259 2794 1537 2939 
Q 1816 3084 2150 3084 
Q 2853 3084 3261 2657 
Q 3669 2231 3669 1497 
Q 3669 778 3244 343 
Q 2819 -91 2113 -91 
Q 1303 -91 875 529 
Q 447 1150 447 2328 
Q 447 3434 972 4092 
Q 1497 4750 2381 4750 
Q 2619 4750 2861 4703 
Q 3103 4656 3366 4563 
z
" transform="scale(0.015625)"/>
       </defs>
       <use xlink:href="#DejaVuSans-36"/>
       <use xlink:href="#DejaVuSans-30" transform="translate(63.623047 0)"/>
      </g>
     </g>
    </g>
    <g id="xtick_5">
     <g id="line2d_5">
      <g>
       <use xlink:href="#m06b4f9821d" x="207.028889" y="171.32" style="stroke: #000000; stroke-width: 0.8"/>
      </g>
     </g>
     <g id="text_5">
      <!-- 80 -->
      <g transform="translate(200.666389 185.918438) scale(0.1 -0.1)">
       <defs>
        <path id="DejaVuSans-38" d="M 2034 2216 
Q 1584 2216 1326 1975 
Q 1069 1734 1069 1313 
Q 1069 891 1326 650 
Q 1584 409 2034 409 
Q 2484 409 2743 651 
Q 3003 894 3003 1313 
Q 3003 1734 2745 1975 
Q 2488 2216 2034 2216 
z
M 1403 2484 
Q 997 2584 770 2862 
Q 544 3141 544 3541 
Q 544 4100 942 4425 
Q 1341 4750 2034 4750 
Q 2731 4750 3128 4425 
Q 3525 4100 3525 3541 
Q 3525 3141 3298 2862 
Q 3072 2584 2669 2484 
Q 3125 2378 3379 2068 
Q 3634 1759 3634 1313 
Q 3634 634 3220 271 
Q 2806 -91 2034 -91 
Q 1263 -91 848 271 
Q 434 634 434 1313 
Q 434 1759 690 2068 
Q 947 2378 1403 2484 
z
M 1172 3481 
Q 1172 3119 1398 2916 
Q 1625 2713 2034 2713 
Q 2441 2713 2670 2916 
Q 2900 3119 2900 3481 
Q 2900 3844 2670 4047 
Q 2441 4250 2034 4250 
Q 1625 4250 1398 4047 
Q 1172 3844 1172 3481 
z
" transform="scale(0.015625)"/>
       </defs>
       <use xlink:href="#DejaVuSans-38"/>
       <use xlink:href="#DejaVuSans-30" transform="translate(63.623047 0)"/>
      </g>
     </g>
    </g>
    <g id="xtick_6">
     <g id="line2d_6">
      <g>
       <use xlink:href="#m06b4f9821d" x="247.946111" y="171.32" style="stroke: #000000; stroke-width: 0.8"/>
      </g>
     </g>
     <g id="text_6">
      <!-- 100 -->
      <g transform="translate(238.402361 185.918438) scale(0.1 -0.1)">
       <defs>
        <path id="DejaVuSans-31" d="M 794 531 
L 1825 531 
L 1825 4091 
L 703 3866 
L 703 4441 
L 1819 4666 
L 2450 4666 
L 2450 531 
L 3481 531 
L 3481 0 
L 794 0 
L 794 531 
z
" transform="scale(0.015625)"/>
       </defs>
       <use xlink:href="#DejaVuSans-31"/>
       <use xlink:href="#DejaVuSans-30" transform="translate(63.623047 0)"/>
       <use xlink:href="#DejaVuSans-30" transform="translate(127.246094 0)"/>
      </g>
     </g>
    </g>
    <g id="xtick_7">
     <g id="line2d_7">
      <g>
       <use xlink:href="#m06b4f9821d" x="288.863333" y="171.32" style="stroke: #000000; stroke-width: 0.8"/>
      </g>
     </g>
     <g id="text_7">
      <!-- 120 -->
      <g transform="translate(279.319583 185.918438) scale(0.1 -0.1)">
       <use xlink:href="#DejaVuSans-31"/>
       <use xlink:href="#DejaVuSans-32" transform="translate(63.623047 0)"/>
       <use xlink:href="#DejaVuSans-30" transform="translate(127.246094 0)"/>
      </g>
     </g>
    </g>
    <g id="xtick_8">
     <g id="line2d_8">
      <g>
       <use xlink:href="#m06b4f9821d" x="329.780556" y="171.32" style="stroke: #000000; stroke-width: 0.8"/>
      </g>
     </g>
     <g id="text_8">
      <!-- 140 -->
      <g transform="translate(320.236806 185.918438) scale(0.1 -0.1)">
       <use xlink:href="#DejaVuSans-31"/>
       <use xlink:href="#DejaVuSans-34" transform="translate(63.623047 0)"/>
       <use xlink:href="#DejaVuSans-30" transform="translate(127.246094 0)"/>
      </g>
     </g>
    </g>
    <g id="xtick_9">
     <g id="line2d_9">
      <g>
       <use xlink:href="#m06b4f9821d" x="370.697778" y="171.32" style="stroke: #000000; stroke-width: 0.8"/>
      </g>
     </g>
     <g id="text_9">
      <!-- 160 -->
      <g transform="translate(361.154028 185.918438) scale(0.1 -0.1)">
       <use xlink:href="#DejaVuSans-31"/>
       <use xlink:href="#DejaVuSans-36" transform="translate(63.623047 0)"/>
       <use xlink:href="#DejaVuSans-30" transform="translate(127.246094 0)"/>
      </g>
     </g>
    </g>
    <g id="xtick_10">
     <g id="line2d_10">
      <g>
       <use xlink:href="#m06b4f9821d" x="411.615" y="171.32" style="stroke: #000000; stroke-width: 0.8"/>
      </g>
     </g>
     <g id="text_10">
      <!-- 180 -->
      <g transform="translate(402.07125 185.918438) scale(0.1 -0.1)">
       <use xlink:href="#DejaVuSans-31"/>
       <use xlink:href="#DejaVuSans-38" transform="translate(63.623047 0)"/>
       <use xlink:href="#DejaVuSans-30" transform="translate(127.246094 0)"/>
      </g>
     </g>
    </g>
   </g>
   <g id="matplotlib.axis_2">
    <g id="ytick_1">
     <g id="line2d_11">
      <defs>
       <path id="m8a6431bc98" d="M 0 0 
L -3.5 0 
" style="stroke: #000000; stroke-width: 0.8"/>
      </defs>
      <g>
       <use xlink:href="#m8a6431bc98" x="43.36" y="164.689091" style="stroke: #000000; stroke-width: 0.8"/>
      </g>
     </g>
     <g id="text_11">
      <!-- 0 -->
      <g transform="translate(29.9975 168.48831) scale(0.1 -0.1)">
       <use xlink:href="#DejaVuSans-30"/>
      </g>
     </g>
    </g>
    <g id="ytick_2">
     <g id="line2d_12">
      <g>
       <use xlink:href="#m8a6431bc98" x="43.36" y="134.507438" style="stroke: #000000; stroke-width: 0.8"/>
      </g>
     </g>
     <g id="text_12">
      <!-- 500 -->
      <g transform="translate(17.2725 138.306657) scale(0.1 -0.1)">
       <defs>
        <path id="DejaVuSans-35" d="M 691 4666 
L 3169 4666 
L 3169 4134 
L 1269 4134 
L 1269 2991 
Q 1406 3038 1543 3061 
Q 1681 3084 1819 3084 
Q 2600 3084 3056 2656 
Q 3513 2228 3513 1497 
Q 3513 744 3044 326 
Q 2575 -91 1722 -91 
Q 1428 -91 1123 -41 
Q 819 9 494 109 
L 494 744 
Q 775 591 1075 516 
Q 1375 441 1709 441 
Q 2250 441 2565 725 
Q 2881 1009 2881 1497 
Q 2881 1984 2565 2268 
Q 2250 2553 1709 2553 
Q 1456 2553 1204 2497 
Q 953 2441 691 2322 
L 691 4666 
z
" transform="scale(0.015625)"/>
       </defs>
       <use xlink:href="#DejaVuSans-35"/>
       <use xlink:href="#DejaVuSans-30" transform="translate(63.623047 0)"/>
       <use xlink:href="#DejaVuSans-30" transform="translate(127.246094 0)"/>
      </g>
     </g>
    </g>
    <g id="ytick_3">
     <g id="line2d_13">
      <g>
       <use xlink:href="#m8a6431bc98" x="43.36" y="104.325786" style="stroke: #000000; stroke-width: 0.8"/>
      </g>
     </g>
     <g id="text_13">
      <!-- 1000 -->
      <g transform="translate(10.91 108.125004) scale(0.1 -0.1)">
       <use xlink:href="#DejaVuSans-31"/>
       <use xlink:href="#DejaVuSans-30" transform="translate(63.623047 0)"/>
       <use xlink:href="#DejaVuSans-30" transform="translate(127.246094 0)"/>
       <use xlink:href="#DejaVuSans-30" transform="translate(190.869141 0)"/>
      </g>
     </g>
    </g>
    <g id="ytick_4">
     <g id="line2d_14">
      <g>
       <use xlink:href="#m8a6431bc98" x="43.36" y="74.144133" style="stroke: #000000; stroke-width: 0.8"/>
      </g>
     </g>
     <g id="text_14">
      <!-- 1500 -->
      <g transform="translate(10.91 77.943352) scale(0.1 -0.1)">
       <use xlink:href="#DejaVuSans-31"/>
       <use xlink:href="#DejaVuSans-35" transform="translate(63.623047 0)"/>
       <use xlink:href="#DejaVuSans-30" transform="translate(127.246094 0)"/>
       <use xlink:href="#DejaVuSans-30" transform="translate(190.869141 0)"/>
      </g>
     </g>
    </g>
    <g id="ytick_5">
     <g id="line2d_15">
      <g>
       <use xlink:href="#m8a6431bc98" x="43.36" y="43.96248" style="stroke: #000000; stroke-width: 0.8"/>
      </g>
     </g>
     <g id="text_15">
      <!-- 2000 -->
      <g transform="translate(10.91 47.761699) scale(0.1 -0.1)">
       <use xlink:href="#DejaVuSans-32"/>
       <use xlink:href="#DejaVuSans-30" transform="translate(63.623047 0)"/>
       <use xlink:href="#DejaVuSans-30" transform="translate(127.246094 0)"/>
       <use xlink:href="#DejaVuSans-30" transform="translate(190.869141 0)"/>
      </g>
     </g>
    </g>
   </g>
   <g id="line2d_16">
    <path d="M 43.36 117.243533 
L 45.405861 161.610562 
L 47.451722 163.300735 
L 51.543444 164.387274 
L 53.589306 163.421461 
L 55.635167 163.542188 
L 57.681028 164.628728 
L 59.726889 164.387274 
L 61.77275 164.689091 
L 63.818611 164.689091 
L 65.864472 164.145821 
L 67.910333 164.628728 
L 69.956194 164.206184 
L 72.002056 164.568364 
L 74.047917 164.689091 
L 76.093778 164.508001 
L 78.139639 164.689091 
L 80.1855 164.689091 
L 84.277222 164.266548 
L 86.323083 164.628728 
L 88.368944 164.689091 
L 90.414806 164.628728 
L 92.460667 164.266548 
L 94.506528 164.326911 
L 96.552389 164.689091 
L 102.689972 164.689091 
L 104.735833 164.266548 
L 106.781694 164.689091 
L 112.919278 164.628728 
L 114.965139 164.508001 
L 117.011 164.145821 
L 119.056861 164.689091 
L 127.240306 164.689091 
L 129.286167 164.447638 
L 131.332028 164.628728 
L 135.42375 164.689091 
L 143.607194 164.689091 
L 145.653056 164.266548 
L 147.698917 164.628728 
L 151.790639 164.689091 
L 153.8365 164.689091 
L 155.882361 164.568364 
L 157.928222 164.568364 
L 159.974083 164.689091 
L 164.065806 164.689091 
L 166.111667 164.387274 
L 168.157528 164.689091 
L 170.203389 164.689091 
L 172.24925 164.568364 
L 174.295111 164.689091 
L 176.340972 164.689091 
L 178.386833 164.387274 
L 180.432694 164.628728 
L 182.478556 164.387274 
L 184.524417 164.568364 
L 186.570278 164.085458 
L 188.616139 164.628728 
L 190.662 164.568364 
L 194.753722 163.904368 
L 196.799583 163.180008 
L 198.845444 164.266548 
L 200.891306 164.568364 
L 202.937167 164.447638 
L 204.983028 163.240372 
L 207.028889 160.584386 
L 209.07475 163.844005 
L 211.120611 162.455649 
L 213.166472 160.644749 
L 215.212333 157.807674 
L 217.258194 157.022951 
L 219.304056 156.358955 
L 221.349917 145.795376 
L 223.395778 144.708837 
L 225.441639 136.137247 
L 227.4875 135.473251 
L 229.533361 140.060862 
L 231.579222 144.286294 
L 233.625083 139.577956 
L 235.670944 131.549636 
L 237.716806 118.330072 
L 239.762667 132.334359 
L 241.808528 148.270272 
L 243.854389 126.599845 
L 245.90025 137.525604 
L 247.946111 141.690672 
L 249.991972 129.195467 
L 252.037833 148.209909 
L 254.083694 140.121226 
L 256.129556 155.393142 
L 258.175417 154.789509 
L 260.221278 158.230217 
L 262.267139 159.37712 
L 264.313 161.489836 
L 266.358861 159.135667 
L 268.404722 161.610562 
L 270.450583 160.584386 
L 272.496444 162.817828 
L 274.542306 162.274559 
L 276.588167 161.308746 
L 278.634028 161.791652 
L 280.679889 162.636739 
L 282.72575 164.689091 
L 284.771611 164.628728 
L 286.817472 164.689091 
L 288.863333 157.928401 
L 290.909194 164.689091 
L 292.955056 164.145821 
L 295.000917 164.689091 
L 297.046778 163.180008 
L 299.092639 162.153832 
L 301.1385 162.516012 
L 303.184361 164.568364 
L 305.230222 163.964731 
L 307.276083 163.904368 
L 309.321944 163.602551 
L 311.367806 164.689091 
L 313.413667 162.033105 
L 315.459528 162.516012 
L 317.505389 164.628728 
L 321.597111 164.326911 
L 323.642972 164.689091 
L 325.688833 163.421461 
L 327.734694 164.447638 
L 329.780556 163.421461 
L 331.826417 163.542188 
L 333.872278 163.844005 
L 335.918139 164.689091 
L 337.964 164.266548 
L 340.009861 162.576375 
L 342.055722 163.180008 
L 344.101583 164.085458 
L 346.147444 164.266548 
L 348.193306 164.266548 
L 350.239167 163.059282 
L 352.285028 164.568364 
L 356.37675 163.542188 
L 358.422611 164.387274 
L 360.468472 164.266548 
L 362.514333 160.946566 
L 364.560194 163.180008 
L 366.606056 163.602551 
L 370.697778 162.817828 
L 372.743639 163.361098 
L 374.7895 163.723278 
L 376.835361 162.153832 
L 378.881222 161.731289 
L 380.927083 161.127656 
L 382.972944 159.316757 
L 385.018806 156.660771 
L 387.064667 158.47167 
L 389.110528 154.548056 
L 391.156389 132.092906 
L 393.20225 132.273996 
L 395.248111 142.475395 
L 397.293972 129.678374 
L 399.339833 32.070909 
L 401.385694 38.10724 
L 403.431556 53.982789 
L 405.477417 63.822008 
L 407.523278 71.548511 
L 409.569139 67.081626 
L 409.569139 67.081626 
" clip-path="url(#pf89f5f192e)" style="fill: none; stroke: #ff0000; stroke-width: 1.5; stroke-linecap: square"/>
   </g>
   <g id="patch_3">
    <path d="M 43.36 171.32 
L 43.36 25.44 
" style="fill: none; stroke: #000000; stroke-width: 0.8; stroke-linejoin: miter; stroke-linecap: square"/>
   </g>
   <g id="patch_4">
    <path d="M 411.615 171.32 
L 411.615 25.44 
" style="fill: none; stroke: #000000; stroke-width: 0.8; stroke-linejoin: miter; stroke-linecap: square"/>
   </g>
   <g id="patch_5">
    <path d="M 43.36 171.32 
L 411.615 171.32 
" style="fill: none; stroke: #000000; stroke-width: 0.8; stroke-linejoin: miter; stroke-linecap: square"/>
   </g>
   <g id="patch_6">
    <path d="M 43.36 25.44 
L 411.615 25.44 
" style="fill: none; stroke: #000000; stroke-width: 0.8; stroke-linejoin: miter; stroke-linecap: square"/>
   </g>
   <g id="text_16">
    <!-- H histogram (bbox) -->
    <g transform="translate(169.41125 19.44) scale(0.12 -0.12)">
     <defs>
      <path id="DejaVuSans-48" d="M 628 4666 
L 1259 4666 
L 1259 2753 
L 3553 2753 
L 3553 4666 
L 4184 4666 
L 4184 0 
L 3553 0 
L 3553 2222 
L 1259 2222 
L 1259 0 
L 628 0 
L 628 4666 
z
" transform="scale(0.015625)"/>
      <path id="DejaVuSans-20" transform="scale(0.015625)"/>
      <path id="DejaVuSans-68" d="M 3513 2113 
L 3513 0 
L 2938 0 
L 2938 2094 
Q 2938 2591 2744 2837 
Q 2550 3084 2163 3084 
Q 1697 3084 1428 2787 
Q 1159 2491 1159 1978 
L 1159 0 
L 581 0 
L 581 4863 
L 1159 4863 
L 1159 2956 
Q 1366 3272 1645 3428 
Q 1925 3584 2291 3584 
Q 2894 3584 3203 3211 
Q 3513 2838 3513 2113 
z
" transform="scale(0.015625)"/>
      <path id="DejaVuSans-69" d="M 603 3500 
L 1178 3500 
L 1178 0 
L 603 0 
L 603 3500 
z
M 603 4863 
L 1178 4863 
L 1178 4134 
L 603 4134 
L 603 4863 
z
" transform="scale(0.015625)"/>
      <path id="DejaVuSans-73" d="M 2834 3397 
L 2834 2853 
Q 2591 2978 2328 3040 
Q 2066 3103 1784 3103 
Q 1356 3103 1142 2972 
Q 928 2841 928 2578 
Q 928 2378 1081 2264 
Q 1234 2150 1697 2047 
L 1894 2003 
Q 2506 1872 2764 1633 
Q 3022 1394 3022 966 
Q 3022 478 2636 193 
Q 2250 -91 1575 -91 
Q 1294 -91 989 -36 
Q 684 19 347 128 
L 347 722 
Q 666 556 975 473 
Q 1284 391 1588 391 
Q 1994 391 2212 530 
Q 2431 669 2431 922 
Q 2431 1156 2273 1281 
Q 2116 1406 1581 1522 
L 1381 1569 
Q 847 1681 609 1914 
Q 372 2147 372 2553 
Q 372 3047 722 3315 
Q 1072 3584 1716 3584 
Q 2034 3584 2315 3537 
Q 2597 3491 2834 3397 
z
" transform="scale(0.015625)"/>
      <path id="DejaVuSans-74" d="M 1172 4494 
L 1172 3500 
L 2356 3500 
L 2356 3053 
L 1172 3053 
L 1172 1153 
Q 1172 725 1289 603 
Q 1406 481 1766 481 
L 2356 481 
L 2356 0 
L 1766 0 
Q 1100 0 847 248 
Q 594 497 594 1153 
L 594 3053 
L 172 3053 
L 172 3500 
L 594 3500 
L 594 4494 
L 1172 4494 
z
" transform="scale(0.015625)"/>
      <path id="DejaVuSans-6f" d="M 1959 3097 
Q 1497 3097 1228 2736 
Q 959 2375 959 1747 
Q 959 1119 1226 758 
Q 1494 397 1959 397 
Q 2419 397 2687 759 
Q 2956 1122 2956 1747 
Q 2956 2369 2687 2733 
Q 2419 3097 1959 3097 
z
M 1959 3584 
Q 2709 3584 3137 3096 
Q 3566 2609 3566 1747 
Q 3566 888 3137 398 
Q 2709 -91 1959 -91 
Q 1206 -91 779 398 
Q 353 888 353 1747 
Q 353 2609 779 3096 
Q 1206 3584 1959 3584 
z
" transform="scale(0.015625)"/>
      <path id="DejaVuSans-67" d="M 2906 1791 
Q 2906 2416 2648 2759 
Q 2391 3103 1925 3103 
Q 1463 3103 1205 2759 
Q 947 2416 947 1791 
Q 947 1169 1205 825 
Q 1463 481 1925 481 
Q 2391 481 2648 825 
Q 2906 1169 2906 1791 
z
M 3481 434 
Q 3481 -459 3084 -895 
Q 2688 -1331 1869 -1331 
Q 1566 -1331 1297 -1286 
Q 1028 -1241 775 -1147 
L 775 -588 
Q 1028 -725 1275 -790 
Q 1522 -856 1778 -856 
Q 2344 -856 2625 -561 
Q 2906 -266 2906 331 
L 2906 616 
Q 2728 306 2450 153 
Q 2172 0 1784 0 
Q 1141 0 747 490 
Q 353 981 353 1791 
Q 353 2603 747 3093 
Q 1141 3584 1784 3584 
Q 2172 3584 2450 3431 
Q 2728 3278 2906 2969 
L 2906 3500 
L 3481 3500 
L 3481 434 
z
" transform="scale(0.015625)"/>
      <path id="DejaVuSans-72" d="M 2631 2963 
Q 2534 3019 2420 3045 
Q 2306 3072 2169 3072 
Q 1681 3072 1420 2755 
Q 1159 2438 1159 1844 
L 1159 0 
L 581 0 
L 581 3500 
L 1159 3500 
L 1159 2956 
Q 1341 3275 1631 3429 
Q 1922 3584 2338 3584 
Q 2397 3584 2469 3576 
Q 2541 3569 2628 3553 
L 2631 2963 
z
" transform="scale(0.015625)"/>
      <path id="DejaVuSans-61" d="M 2194 1759 
Q 1497 1759 1228 1600 
Q 959 1441 959 1056 
Q 959 750 1161 570 
Q 1363 391 1709 391 
Q 2188 391 2477 730 
Q 2766 1069 2766 1631 
L 2766 1759 
L 2194 1759 
z
M 3341 1997 
L 3341 0 
L 2766 0 
L 2766 531 
Q 2569 213 2275 61 
Q 1981 -91 1556 -91 
Q 1019 -91 701 211 
Q 384 513 384 1019 
Q 384 1609 779 1909 
Q 1175 2209 1959 2209 
L 2766 2209 
L 2766 2266 
Q 2766 2663 2505 2880 
Q 2244 3097 1772 3097 
Q 1472 3097 1187 3025 
Q 903 2953 641 2809 
L 641 3341 
Q 956 3463 1253 3523 
Q 1550 3584 1831 3584 
Q 2591 3584 2966 3190 
Q 3341 2797 3341 1997 
z
" transform="scale(0.015625)"/>
      <path id="DejaVuSans-6d" d="M 3328 2828 
Q 3544 3216 3844 3400 
Q 4144 3584 4550 3584 
Q 5097 3584 5394 3201 
Q 5691 2819 5691 2113 
L 5691 0 
L 5113 0 
L 5113 2094 
Q 5113 2597 4934 2840 
Q 4756 3084 4391 3084 
Q 3944 3084 3684 2787 
Q 3425 2491 3425 1978 
L 3425 0 
L 2847 0 
L 2847 2094 
Q 2847 2600 2669 2842 
Q 2491 3084 2119 3084 
Q 1678 3084 1418 2786 
Q 1159 2488 1159 1978 
L 1159 0 
L 581 0 
L 581 3500 
L 1159 3500 
L 1159 2956 
Q 1356 3278 1631 3431 
Q 1906 3584 2284 3584 
Q 2666 3584 2933 3390 
Q 3200 3197 3328 2828 
z
" transform="scale(0.015625)"/>
      <path id="DejaVuSans-28" d="M 1984 4856 
Q 1566 4138 1362 3434 
Q 1159 2731 1159 2009 
Q 1159 1288 1364 580 
Q 1569 -128 1984 -844 
L 1484 -844 
Q 1016 -109 783 600 
Q 550 1309 550 2009 
Q 550 2706 781 3412 
Q 1013 4119 1484 4856 
L 1984 4856 
z
" transform="scale(0.015625)"/>
      <path id="DejaVuSans-62" d="M 3116 1747 
Q 3116 2381 2855 2742 
Q 2594 3103 2138 3103 
Q 1681 3103 1420 2742 
Q 1159 2381 1159 1747 
Q 1159 1113 1420 752 
Q 1681 391 2138 391 
Q 2594 391 2855 752 
Q 3116 1113 3116 1747 
z
M 1159 2969 
Q 1341 3281 1617 3432 
Q 1894 3584 2278 3584 
Q 2916 3584 3314 3078 
Q 3713 2572 3713 1747 
Q 3713 922 3314 415 
Q 2916 -91 2278 -91 
Q 1894 -91 1617 61 
Q 1341 213 1159 525 
L 1159 0 
L 581 0 
L 581 4863 
L 1159 4863 
L 1159 2969 
z
" transform="scale(0.015625)"/>
      <path id="DejaVuSans-78" d="M 3513 3500 
L 2247 1797 
L 3578 0 
L 2900 0 
L 1881 1375 
L 863 0 
L 184 0 
L 1544 1831 
L 300 3500 
L 978 3500 
L 1906 2253 
L 2834 3500 
L 3513 3500 
z
" transform="scale(0.015625)"/>
      <path id="DejaVuSans-29" d="M 513 4856 
L 1013 4856 
Q 1481 4119 1714 3412 
Q 1947 2706 1947 2009 
Q 1947 1309 1714 600 
Q 1481 -109 1013 -844 
L 513 -844 
Q 928 -128 1133 580 
Q 1338 1288 1338 2009 
Q 1338 2731 1133 3434 
Q 928 4138 513 4856 
z
" transform="scale(0.015625)"/>
     </defs>
     <use xlink:href="#DejaVuSans-48"/>
     <use xlink:href="#DejaVuSans-20" transform="translate(75.195312 0)"/>
     <use xlink:href="#DejaVuSans-68" transform="translate(106.982422 0)"/>
     <use xlink:href="#DejaVuSans-69" transform="translate(170.361328 0)"/>
     <use xlink:href="#DejaVuSans-73" transform="translate(198.144531 0)"/>
     <use xlink:href="#DejaVuSans-74" transform="translate(250.244141 0)"/>
     <use xlink:href="#DejaVuSans-6f" transform="translate(289.453125 0)"/>
     <use xlink:href="#DejaVuSans-67" transform="translate(350.634766 0)"/>
     <use xlink:href="#DejaVuSans-72" transform="translate(414.111328 0)"/>
     <use xlink:href="#DejaVuSans-61" transform="translate(455.224609 0)"/>
     <use xlink:href="#DejaVuSans-6d" transform="translate(516.503906 0)"/>
     <use xlink:href="#DejaVuSans-20" transform="translate(613.916016 0)"/>
     <use xlink:href="#DejaVuSans-28" transform="translate(645.703125 0)"/>
     <use xlink:href="#DejaVuSans-62" transform="translate(684.716797 0)"/>
     <use xlink:href="#DejaVuSans-62" transform="translate(748.193359 0)"/>
     <use xlink:href="#DejaVuSans-6f" transform="translate(811.669922 0)"/>
     <use xlink:href="#DejaVuSans-78" transform="translate(869.726562 0)"/>
     <use xlink:href="#DejaVuSans-29" transform="translate(928.90625 0)"/>
    </g>
   </g>
  </g>
  <g id="axes_2">
   <g id="patch_7">
    <path d="M 43.36 359.72 
L 411.615 359.72 
L 411.615 213.84 
L 43.36 213.84 
z
" style="fill: #ffffff"/>
   </g>
   <g id="matplotlib.axis_3">
    <g id="xtick_11">
     <g id="line2d_17">
      <g>
       <use xlink:href="#m06b4f9821d" x="43.36" y="359.72" style="stroke: #000000; stroke-width: 0.8"/>
      </g>
     </g>
     <g id="text_17">
      <!-- 0 -->
      <g transform="translate(40.17875 374.318438) scale(0.1 -0.1)">
       <use xlink:href="#DejaVuSans-30"/>
      </g>
     </g>
    </g>
    <g id="xtick_12">
     <g id="line2d_18">
      <g>
       <use xlink:href="#m06b4f9821d" x="115.566863" y="359.72" style="stroke: #000000; stroke-width: 0.8"/>
      </g>
     </g>
     <g id="text_18">
      <!-- 50 -->
      <g transform="translate(109.204363 374.318438) scale(0.1 -0.1)">
       <use xlink:href="#DejaVuSans-35"/>
       <use xlink:href="#DejaVuSans-30" transform="translate(63.623047 0)"/>
      </g>
     </g>
    </g>
    <g id="xtick_13">
     <g id="line2d_19">
      <g>
       <use xlink:href="#m06b4f9821d" x="187.773725" y="359.72" style="stroke: #000000; stroke-width: 0.8"/>
      </g>
     </g>
     <g id="text_19">
      <!-- 100 -->
      <g transform="translate(178.229975 374.318438) scale(0.1 -0.1)">
       <use xlink:href="#DejaVuSans-31"/>
       <use xlink:href="#DejaVuSans-30" transform="translate(63.623047 0)"/>
       <use xlink:href="#DejaVuSans-30" transform="translate(127.246094 0)"/>
      </g>
     </g>
    </g>
    <g id="xtick_14">
     <g id="line2d_20">
      <g>
       <use xlink:href="#m06b4f9821d" x="259.980588" y="359.72" style="stroke: #000000; stroke-width: 0.8"/>
      </g>
     </g>
     <g id="text_20">
      <!-- 150 -->
      <g transform="translate(250.436838 374.318438) scale(0.1 -0.1)">
       <use xlink:href="#DejaVuSans-31"/>
       <use xlink:href="#DejaVuSans-35" transform="translate(63.623047 0)"/>
       <use xlink:href="#DejaVuSans-30" transform="translate(127.246094 0)"/>
      </g>
     </g>
    </g>
    <g id="xtick_15">
     <g id="line2d_21">
      <g>
       <use xlink:href="#m06b4f9821d" x="332.187451" y="359.72" style="stroke: #000000; stroke-width: 0.8"/>
      </g>
     </g>
     <g id="text_21">
      <!-- 200 -->
      <g transform="translate(322.643701 374.318438) scale(0.1 -0.1)">
       <use xlink:href="#DejaVuSans-32"/>
       <use xlink:href="#DejaVuSans-30" transform="translate(63.623047 0)"/>
       <use xlink:href="#DejaVuSans-30" transform="translate(127.246094 0)"/>
      </g>
     </g>
    </g>
    <g id="xtick_16">
     <g id="line2d_22">
      <g>
       <use xlink:href="#m06b4f9821d" x="404.394314" y="359.72" style="stroke: #000000; stroke-width: 0.8"/>
      </g>
     </g>
     <g id="text_22">
      <!-- 250 -->
      <g transform="translate(394.850564 374.318438) scale(0.1 -0.1)">
       <use xlink:href="#DejaVuSans-32"/>
       <use xlink:href="#DejaVuSans-35" transform="translate(63.623047 0)"/>
       <use xlink:href="#DejaVuSans-30" transform="translate(127.246094 0)"/>
      </g>
     </g>
    </g>
   </g>
   <g id="matplotlib.axis_4">
    <g id="ytick_6">
     <g id="line2d_23">
      <g>
       <use xlink:href="#m8a6431bc98" x="43.36" y="353.089091" style="stroke: #000000; stroke-width: 0.8"/>
      </g>
     </g>
     <g id="text_23">
      <!-- 0 -->
      <g transform="translate(29.9975 356.88831) scale(0.1 -0.1)">
       <use xlink:href="#DejaVuSans-30"/>
      </g>
     </g>
    </g>
    <g id="ytick_7">
     <g id="line2d_24">
      <g>
       <use xlink:href="#m8a6431bc98" x="43.36" y="316.655524" style="stroke: #000000; stroke-width: 0.8"/>
      </g>
     </g>
     <g id="text_24">
      <!-- 1000 -->
      <g transform="translate(10.91 320.454743) scale(0.1 -0.1)">
       <use xlink:href="#DejaVuSans-31"/>
       <use xlink:href="#DejaVuSans-30" transform="translate(63.623047 0)"/>
       <use xlink:href="#DejaVuSans-30" transform="translate(127.246094 0)"/>
       <use xlink:href="#DejaVuSans-30" transform="translate(190.869141 0)"/>
      </g>
     </g>
    </g>
    <g id="ytick_8">
     <g id="line2d_25">
      <g>
       <use xlink:href="#m8a6431bc98" x="43.36" y="280.221958" style="stroke: #000000; stroke-width: 0.8"/>
      </g>
     </g>
     <g id="text_25">
      <!-- 2000 -->
      <g transform="translate(10.91 284.021177) scale(0.1 -0.1)">
       <use xlink:href="#DejaVuSans-32"/>
       <use xlink:href="#DejaVuSans-30" transform="translate(63.623047 0)"/>
       <use xlink:href="#DejaVuSans-30" transform="translate(127.246094 0)"/>
       <use xlink:href="#DejaVuSans-30" transform="translate(190.869141 0)"/>
      </g>
     </g>
    </g>
    <g id="ytick_9">
     <g id="line2d_26">
      <g>
       <use xlink:href="#m8a6431bc98" x="43.36" y="243.788392" style="stroke: #000000; stroke-width: 0.8"/>
      </g>
     </g>
     <g id="text_26">
      <!-- 3000 -->
      <g transform="translate(10.91 247.58761) scale(0.1 -0.1)">
       <defs>
        <path id="DejaVuSans-33" d="M 2597 2516 
Q 3050 2419 3304 2112 
Q 3559 1806 3559 1356 
Q 3559 666 3084 287 
Q 2609 -91 1734 -91 
Q 1441 -91 1130 -33 
Q 819 25 488 141 
L 488 750 
Q 750 597 1062 519 
Q 1375 441 1716 441 
Q 2309 441 2620 675 
Q 2931 909 2931 1356 
Q 2931 1769 2642 2001 
Q 2353 2234 1838 2234 
L 1294 2234 
L 1294 2753 
L 1863 2753 
Q 2328 2753 2575 2939 
Q 2822 3125 2822 3475 
Q 2822 3834 2567 4026 
Q 2313 4219 1838 4219 
Q 1578 4219 1281 4162 
Q 984 4106 628 3988 
L 628 4550 
Q 988 4650 1302 4700 
Q 1616 4750 1894 4750 
Q 2613 4750 3031 4423 
Q 3450 4097 3450 3541 
Q 3450 3153 3228 2886 
Q 3006 2619 2597 2516 
z
" transform="scale(0.015625)"/>
       </defs>
       <use xlink:href="#DejaVuSans-33"/>
       <use xlink:href="#DejaVuSans-30" transform="translate(63.623047 0)"/>
       <use xlink:href="#DejaVuSans-30" transform="translate(127.246094 0)"/>
       <use xlink:href="#DejaVuSans-30" transform="translate(190.869141 0)"/>
      </g>
     </g>
    </g>
   </g>
   <g id="line2d_27">
    <path d="M 43.36 352.542587 
L 44.804137 353.089091 
L 46.248275 353.016224 
L 49.136549 352.506154 
L 50.580686 352.797622 
L 52.024824 352.46972 
L 53.468961 351.44958 
L 54.913098 351.777483 
L 57.801373 351.95965 
L 59.24551 351.44958 
L 60.689647 351.44958 
L 62.133784 351.704615 
L 63.577922 351.631748 
L 66.466196 351.230979 
L 69.354471 350.975944 
L 70.798608 351.44958 
L 72.242745 351.267413 
L 75.13102 351.158112 
L 76.575157 350.93951 
L 78.019294 351.048811 
L 79.463431 350.975944 
L 80.907569 351.194545 
L 82.351706 351.048811 
L 83.795843 350.356573 
L 86.684118 350.32014 
L 88.128255 350.611608 
L 89.572392 350.247273 
L 91.016529 350.575175 
L 92.460667 350.356573 
L 93.904804 350.903077 
L 95.348941 350.356573 
L 96.793078 351.194545 
L 98.237216 350.684476 
L 99.681353 350.866643 
L 101.12549 350.866643 
L 104.013765 351.413147 
L 105.457902 351.34028 
L 106.902039 351.012378 
L 108.346176 351.923217 
L 109.790314 350.93951 
L 111.234451 351.558881 
L 112.678588 351.558881 
L 114.122725 351.813916 
L 115.566863 351.558881 
L 118.455137 351.813916 
L 119.899275 350.757343 
L 121.343412 351.923217 
L 122.787549 351.34028 
L 124.231686 351.777483 
L 125.675824 351.886783 
L 127.119961 351.741049 
L 128.564098 352.105385 
L 130.008235 351.34028 
L 134.340647 352.105385 
L 135.784784 350.575175 
L 137.228922 351.886783 
L 138.673059 351.44958 
L 140.117196 351.668182 
L 141.561333 351.522448 
L 143.005471 351.85035 
L 144.449608 351.595315 
L 147.337882 351.813916 
L 150.226157 351.44958 
L 151.670294 351.522448 
L 153.114431 351.012378 
L 154.558569 351.267413 
L 156.002706 351.048811 
L 157.446843 351.923217 
L 161.779255 350.93951 
L 163.223392 351.413147 
L 164.667529 351.34028 
L 166.111667 350.757343 
L 167.555804 350.975944 
L 168.999941 351.048811 
L 170.444078 350.684476 
L 171.888216 350.720909 
L 173.332353 350.174406 
L 174.77649 350.393007 
L 176.220627 350.866643 
L 177.664765 350.429441 
L 179.108902 351.048811 
L 180.553039 350.210839 
L 181.997176 350.210839 
L 183.441314 350.429441 
L 184.885451 349.882937 
L 187.773725 350.393007 
L 189.217863 350.465874 
L 190.662 350.356573 
L 192.106137 350.648042 
L 193.550275 349.700769 
L 194.994412 350.757343 
L 196.438549 349.919371 
L 197.882686 350.502308 
L 199.326824 350.174406 
L 200.770961 348.972098 
L 202.215098 350.93951 
L 203.659235 350.720909 
L 206.54751 349.919371 
L 207.991647 350.247273 
L 209.435784 349.882937 
L 210.879922 349.882937 
L 212.324059 350.793776 
L 213.768196 349.700769 
L 215.212333 350.465874 
L 216.656471 350.393007 
L 218.100608 350.137972 
L 219.544745 350.793776 
L 220.988882 350.210839 
L 222.43302 350.757343 
L 223.877157 350.210839 
L 225.321294 350.065105 
L 226.765431 350.757343 
L 228.209569 348.680629 
L 229.653706 349.700769 
L 231.097843 350.538741 
L 232.54198 351.121678 
L 233.986118 349.737203 
L 235.430255 350.32014 
L 236.874392 350.137972 
L 238.318529 350.465874 
L 239.762667 350.101538 
L 241.206804 350.538741 
L 244.095078 350.101538 
L 245.539216 350.32014 
L 248.42749 350.101538 
L 249.871627 350.137972 
L 251.315765 350.975944 
L 252.759902 350.684476 
L 254.204039 349.700769 
L 255.648176 350.283706 
L 257.092314 350.648042 
L 258.536451 349.555035 
L 259.980588 350.101538 
L 261.424725 350.210839 
L 262.868863 350.611608 
L 264.313 350.356573 
L 265.757137 351.048811 
L 267.201275 350.648042 
L 268.645412 351.121678 
L 270.089549 350.065105 
L 271.533686 349.919371 
L 272.977824 350.32014 
L 274.421961 351.668182 
L 277.310235 350.210839 
L 281.642647 350.866643 
L 283.086784 350.502308 
L 284.530922 350.866643 
L 287.419196 351.230979 
L 288.863333 349.372867 
L 290.307471 351.486014 
L 293.195745 350.720909 
L 294.639882 350.975944 
L 296.08402 351.376713 
L 297.528157 351.303846 
L 298.972294 350.648042 
L 300.416431 350.83021 
L 301.860569 350.757343 
L 303.304706 351.631748 
L 306.19298 350.429441 
L 307.637118 351.522448 
L 309.081255 350.393007 
L 310.525392 350.793776 
L 311.969529 351.668182 
L 314.857804 350.903077 
L 316.301941 350.793776 
L 317.746078 350.975944 
L 319.190216 349.154266 
L 320.634353 351.303846 
L 323.522627 350.684476 
L 324.966765 350.720909 
L 326.410902 350.247273 
L 327.855039 350.575175 
L 329.299176 349.700769 
L 330.743314 350.903077 
L 332.187451 349.773636 
L 333.631588 349.409301 
L 335.075725 350.757343 
L 336.519863 350.684476 
L 337.964 349.117832 
L 339.408137 350.538741 
L 340.852275 349.846503 
L 342.296412 350.356573 
L 343.740549 350.174406 
L 345.184686 349.700769 
L 348.072961 350.502308 
L 349.517098 350.174406 
L 350.961235 349.154266 
L 352.405373 350.793776 
L 353.84951 349.518601 
L 355.293647 349.955804 
L 356.737784 350.065105 
L 358.181922 349.81007 
L 359.626059 348.27986 
L 362.514333 349.044965 
L 363.958471 349.117832 
L 365.402608 349.81007 
L 366.846745 349.919371 
L 368.290882 349.482168 
L 369.73502 349.591469 
L 371.179157 348.899231 
L 372.623294 349.117832 
L 374.067431 349.846503 
L 375.511569 348.352727 
L 376.955706 349.3 
L 378.399843 349.919371 
L 379.84398 348.534895 
L 381.288118 348.935664 
L 382.732255 349.044965 
L 384.176392 347.478322 
L 385.620529 348.462028 
L 387.064667 348.498462 
L 388.508804 347.551189 
L 389.952941 348.607762 
L 391.397078 347.733357 
L 392.841216 345.984545 
L 394.285353 345.72951 
L 395.72949 344.563636 
L 397.173627 344.782238 
L 398.617765 341.721818 
L 400.061902 344.09 
L 401.506039 339.827273 
L 402.950176 341.758252 
L 404.394314 331.374685 
L 405.838451 340.009441 
L 407.282588 328.496434 
L 408.726725 318.440769 
L 410.170863 348.78993 
L 411.615 220.470909 
L 411.615 220.470909 
" clip-path="url(#pfdca65c1e0)" style="fill: none; stroke: #008000; stroke-width: 1.5; stroke-linecap: square"/>
   </g>
   <g id="patch_8">
    <path d="M 43.36 359.72 
L 43.36 213.84 
" style="fill: none; stroke: #000000; stroke-width: 0.8; stroke-linejoin: miter; stroke-linecap: square"/>
   </g>
   <g id="patch_9">
    <path d="M 411.615 359.72 
L 411.615 213.84 
" style="fill: none; stroke: #000000; stroke-width: 0.8; stroke-linejoin: miter; stroke-linecap: square"/>
   </g>
   <g id="patch_10">
    <path d="M 43.36 359.72 
L 411.615 359.72 
" style="fill: none; stroke: #000000; stroke-width: 0.8; stroke-linejoin: miter; stroke-linecap: square"/>
   </g>
   <g id="patch_11">
    <path d="M 43.36 213.84 
L 411.615 213.84 
" style="fill: none; stroke: #000000; stroke-width: 0.8; stroke-linejoin: miter; stroke-linecap: square"/>
   </g>
   <g id="text_27">
    <!-- S histogram (bbox) -->
    <g transform="translate(170.114375 207.84) scale(0.12 -0.12)">
     <defs>
      <path id="DejaVuSans-53" d="M 3425 4513 
L 3425 3897 
Q 3066 4069 2747 4153 
Q 2428 4238 2131 4238 
Q 1616 4238 1336 4038 
Q 1056 3838 1056 3469 
Q 1056 3159 1242 3001 
Q 1428 2844 1947 2747 
L 2328 2669 
Q 3034 2534 3370 2195 
Q 3706 1856 3706 1288 
Q 3706 609 3251 259 
Q 2797 -91 1919 -91 
Q 1588 -91 1214 -16 
Q 841 59 441 206 
L 441 856 
Q 825 641 1194 531 
Q 1563 422 1919 422 
Q 2459 422 2753 634 
Q 3047 847 3047 1241 
Q 3047 1584 2836 1778 
Q 2625 1972 2144 2069 
L 1759 2144 
Q 1053 2284 737 2584 
Q 422 2884 422 3419 
Q 422 4038 858 4394 
Q 1294 4750 2059 4750 
Q 2388 4750 2728 4690 
Q 3069 4631 3425 4513 
z
" transform="scale(0.015625)"/>
     </defs>
     <use xlink:href="#DejaVuSans-53"/>
     <use xlink:href="#DejaVuSans-20" transform="translate(63.476562 0)"/>
     <use xlink:href="#DejaVuSans-68" transform="translate(95.263672 0)"/>
     <use xlink:href="#DejaVuSans-69" transform="translate(158.642578 0)"/>
     <use xlink:href="#DejaVuSans-73" transform="translate(186.425781 0)"/>
     <use xlink:href="#DejaVuSans-74" transform="translate(238.525391 0)"/>
     <use xlink:href="#DejaVuSans-6f" transform="translate(277.734375 0)"/>
     <use xlink:href="#DejaVuSans-67" transform="translate(338.916016 0)"/>
     <use xlink:href="#DejaVuSans-72" transform="translate(402.392578 0)"/>
     <use xlink:href="#DejaVuSans-61" transform="translate(443.505859 0)"/>
     <use xlink:href="#DejaVuSans-6d" transform="translate(504.785156 0)"/>
     <use xlink:href="#DejaVuSans-20" transform="translate(602.197266 0)"/>
     <use xlink:href="#DejaVuSans-28" transform="translate(633.984375 0)"/>
     <use xlink:href="#DejaVuSans-62" transform="translate(672.998047 0)"/>
     <use xlink:href="#DejaVuSans-62" transform="translate(736.474609 0)"/>
     <use xlink:href="#DejaVuSans-6f" transform="translate(799.951172 0)"/>
     <use xlink:href="#DejaVuSans-78" transform="translate(858.007812 0)"/>
     <use xlink:href="#DejaVuSans-29" transform="translate(917.1875 0)"/>
    </g>
   </g>
  </g>
  <g id="axes_3">
   <g id="patch_12">
    <path d="M 43.36 548.12 
L 411.615 548.12 
L 411.615 402.24 
L 43.36 402.24 
z
" style="fill: #ffffff"/>
   </g>
   <g id="matplotlib.axis_5">
    <g id="xtick_17">
     <g id="line2d_28">
      <g>
       <use xlink:href="#m06b4f9821d" x="43.36" y="548.12" style="stroke: #000000; stroke-width: 0.8"/>
      </g>
     </g>
     <g id="text_28">
      <!-- 0 -->
      <g transform="translate(40.17875 562.718438) scale(0.1 -0.1)">
       <use xlink:href="#DejaVuSans-30"/>
      </g>
     </g>
    </g>
    <g id="xtick_18">
     <g id="line2d_29">
      <g>
       <use xlink:href="#m06b4f9821d" x="115.566863" y="548.12" style="stroke: #000000; stroke-width: 0.8"/>
      </g>
     </g>
     <g id="text_29">
      <!-- 50 -->
      <g transform="translate(109.204363 562.718438) scale(0.1 -0.1)">
       <use xlink:href="#DejaVuSans-35"/>
       <use xlink:href="#DejaVuSans-30" transform="translate(63.623047 0)"/>
      </g>
     </g>
    </g>
    <g id="xtick_19">
     <g id="line2d_30">
      <g>
       <use xlink:href="#m06b4f9821d" x="187.773725" y="548.12" style="stroke: #000000; stroke-width: 0.8"/>
      </g>
     </g>
     <g id="text_30">
      <!-- 100 -->
      <g transform="translate(178.229975 562.718438) scale(0.1 -0.1)">
       <use xlink:href="#DejaVuSans-31"/>
       <use xlink:href="#DejaVuSans-30" transform="translate(63.623047 0)"/>
       <use xlink:href="#DejaVuSans-30" transform="translate(127.246094 0)"/>
      </g>
     </g>
    </g>
    <g id="xtick_20">
     <g id="line2d_31">
      <g>
       <use xlink:href="#m06b4f9821d" x="259.980588" y="548.12" style="stroke: #000000; stroke-width: 0.8"/>
      </g>
     </g>
     <g id="text_31">
      <!-- 150 -->
      <g transform="translate(250.436838 562.718438) scale(0.1 -0.1)">
       <use xlink:href="#DejaVuSans-31"/>
       <use xlink:href="#DejaVuSans-35" transform="translate(63.623047 0)"/>
       <use xlink:href="#DejaVuSans-30" transform="translate(127.246094 0)"/>
      </g>
     </g>
    </g>
    <g id="xtick_21">
     <g id="line2d_32">
      <g>
       <use xlink:href="#m06b4f9821d" x="332.187451" y="548.12" style="stroke: #000000; stroke-width: 0.8"/>
      </g>
     </g>
     <g id="text_32">
      <!-- 200 -->
      <g transform="translate(322.643701 562.718438) scale(0.1 -0.1)">
       <use xlink:href="#DejaVuSans-32"/>
       <use xlink:href="#DejaVuSans-30" transform="translate(63.623047 0)"/>
       <use xlink:href="#DejaVuSans-30" transform="translate(127.246094 0)"/>
      </g>
     </g>
    </g>
    <g id="xtick_22">
     <g id="line2d_33">
      <g>
       <use xlink:href="#m06b4f9821d" x="404.394314" y="548.12" style="stroke: #000000; stroke-width: 0.8"/>
      </g>
     </g>
     <g id="text_33">
      <!-- 250 -->
      <g transform="translate(394.850564 562.718438) scale(0.1 -0.1)">
       <use xlink:href="#DejaVuSans-32"/>
       <use xlink:href="#DejaVuSans-35" transform="translate(63.623047 0)"/>
       <use xlink:href="#DejaVuSans-30" transform="translate(127.246094 0)"/>
      </g>
     </g>
    </g>
   </g>
   <g id="matplotlib.axis_6">
    <g id="ytick_10">
     <g id="line2d_34">
      <g>
       <use xlink:href="#m8a6431bc98" x="43.36" y="541.489091" style="stroke: #000000; stroke-width: 0.8"/>
      </g>
     </g>
     <g id="text_34">
      <!-- 0 -->
      <g transform="translate(29.9975 545.28831) scale(0.1 -0.1)">
       <use xlink:href="#DejaVuSans-30"/>
      </g>
     </g>
    </g>
    <g id="ytick_11">
     <g id="line2d_35">
      <g>
       <use xlink:href="#m8a6431bc98" x="43.36" y="499.915993" style="stroke: #000000; stroke-width: 0.8"/>
      </g>
     </g>
     <g id="text_35">
      <!-- 100 -->
      <g transform="translate(17.2725 503.715212) scale(0.1 -0.1)">
       <use xlink:href="#DejaVuSans-31"/>
       <use xlink:href="#DejaVuSans-30" transform="translate(63.623047 0)"/>
       <use xlink:href="#DejaVuSans-30" transform="translate(127.246094 0)"/>
      </g>
     </g>
    </g>
    <g id="ytick_12">
     <g id="line2d_36">
      <g>
       <use xlink:href="#m8a6431bc98" x="43.36" y="458.342895" style="stroke: #000000; stroke-width: 0.8"/>
      </g>
     </g>
     <g id="text_36">
      <!-- 200 -->
      <g transform="translate(17.2725 462.142114) scale(0.1 -0.1)">
       <use xlink:href="#DejaVuSans-32"/>
       <use xlink:href="#DejaVuSans-30" transform="translate(63.623047 0)"/>
       <use xlink:href="#DejaVuSans-30" transform="translate(127.246094 0)"/>
      </g>
     </g>
    </g>
    <g id="ytick_13">
     <g id="line2d_37">
      <g>
       <use xlink:href="#m8a6431bc98" x="43.36" y="416.769798" style="stroke: #000000; stroke-width: 0.8"/>
      </g>
     </g>
     <g id="text_37">
      <!-- 300 -->
      <g transform="translate(17.2725 420.569016) scale(0.1 -0.1)">
       <use xlink:href="#DejaVuSans-33"/>
       <use xlink:href="#DejaVuSans-30" transform="translate(63.623047 0)"/>
       <use xlink:href="#DejaVuSans-30" transform="translate(127.246094 0)"/>
      </g>
     </g>
    </g>
   </g>
   <g id="line2d_38">
    <path d="M 43.36 541.489091 
L 44.804137 539.410436 
L 46.248275 538.578974 
L 47.692412 538.578974 
L 49.136549 531.095816 
L 50.580686 531.927278 
L 52.024824 534.005933 
L 53.468961 522.781197 
L 54.913098 517.792425 
L 56.357235 518.208156 
L 57.801373 511.972192 
L 59.24551 507.814882 
L 60.689647 506.567689 
L 62.133784 506.98342 
L 63.577922 506.567689 
L 65.022059 510.309268 
L 66.466196 508.646344 
L 67.910333 504.073303 
L 69.354471 502.410379 
L 70.798608 498.253069 
L 72.242745 500.331724 
L 73.686882 498.6688 
L 75.13102 499.084531 
L 76.575157 501.994648 
L 78.019294 502.410379 
L 79.463431 497.421607 
L 80.907569 499.500262 
L 82.351706 489.93845 
L 83.795843 491.601374 
L 85.23998 489.522719 
L 86.684118 492.017105 
L 88.128255 484.533947 
L 89.572392 497.421607 
L 91.016529 507.399151 
L 92.460667 509.893537 
L 93.904804 516.545232 
L 95.348941 519.039618 
L 96.793078 523.196928 
L 98.237216 524.859852 
L 99.681353 530.264355 
L 101.12549 531.511547 
L 102.569627 529.432893 
L 104.013765 530.680085 
L 105.457902 528.1857 
L 106.902039 531.511547 
L 108.346176 525.275583 
L 109.790314 529.432893 
L 111.234451 521.949735 
L 112.678588 521.949735 
L 114.122725 528.601431 
L 115.566863 527.769969 
L 117.011 521.949735 
L 118.455137 514.882308 
L 119.899275 520.286811 
L 121.343412 524.444121 
L 122.787549 518.623887 
L 124.231686 520.286811 
L 125.675824 514.050846 
L 127.119961 516.545232 
L 128.564098 526.938507 
L 130.008235 516.960963 
L 131.452373 505.320496 
L 132.89651 514.050846 
L 134.340647 513.635115 
L 135.784784 518.623887 
L 137.228922 510.724999 
L 138.673059 499.915993 
L 140.117196 500.747455 
L 141.561333 506.151958 
L 143.005471 500.331724 
L 144.449608 504.489034 
L 145.893745 504.489034 
L 147.337882 501.578917 
L 148.78202 511.972192 
L 150.226157 506.98342 
L 151.670294 506.567689 
L 153.114431 497.837338 
L 154.558569 497.005876 
L 156.002706 502.410379 
L 157.446843 493.680028 
L 158.89098 498.6688 
L 160.335118 497.837338 
L 161.779255 487.859795 
L 163.223392 499.915993 
L 164.667529 494.51149 
L 166.111667 506.98342 
L 167.555804 494.927221 
L 168.999941 495.342952 
L 170.444078 494.927221 
L 171.888216 493.680028 
L 173.332353 489.522719 
L 174.77649 476.219327 
L 176.220627 492.017105 
L 177.664765 484.118216 
L 179.108902 483.286754 
L 180.553039 481.208099 
L 181.997176 497.005876 
L 183.441314 484.949678 
L 184.885451 487.028333 
L 186.329588 484.949678 
L 187.773725 482.455292 
L 189.217863 495.342952 
L 190.662 484.949678 
L 192.106137 485.78114 
L 193.550275 492.432836 
L 194.994412 486.612602 
L 196.438549 487.028333 
L 197.882686 491.185643 
L 199.326824 491.601374 
L 200.770961 497.837338 
L 202.215098 498.6688 
L 203.659235 484.949678 
L 205.103373 487.028333 
L 206.54751 497.005876 
L 207.991647 487.444064 
L 209.435784 484.118216 
L 210.879922 481.62383 
L 212.324059 490.354181 
L 213.768196 482.455292 
L 215.212333 481.208099 
L 216.656471 485.365409 
L 218.100608 491.185643 
L 219.544745 487.444064 
L 220.988882 488.275526 
L 222.43302 497.421607 
L 223.877157 484.118216 
L 225.321294 499.500262 
L 229.653706 500.747455 
L 231.097843 493.680028 
L 232.54198 503.657572 
L 233.986118 494.095759 
L 235.430255 496.174414 
L 236.874392 485.78114 
L 238.318529 491.601374 
L 239.762667 486.612602 
L 241.206804 473.309211 
L 242.650941 469.983363 
L 244.095078 467.488977 
L 245.539216 455.84851 
L 246.983353 447.118159 
L 248.42749 441.297925 
L 249.871627 441.713656 
L 251.315765 424.252955 
L 252.759902 447.53389 
L 254.204039 408.870909 
L 255.648176 421.342838 
L 257.092314 425.915879 
L 258.536451 459.590088 
L 259.980588 428.825996 
L 261.424725 455.84851 
L 262.868863 436.309154 
L 264.313 441.713656 
L 265.757137 459.174357 
L 267.201275 453.354124 
L 268.645412 437.140616 
L 270.089549 440.466463 
L 271.533686 459.590088 
L 272.977824 462.084474 
L 274.421961 456.679972 
L 275.866098 455.432779 
L 277.310235 465.826053 
L 278.754373 465.826053 
L 280.19851 454.185586 
L 281.642647 455.432779 
L 283.086784 460.42155 
L 284.530922 448.781083 
L 285.975059 465.826053 
L 287.419196 449.612545 
L 288.863333 478.713713 
L 290.307471 479.129444 
L 291.751608 458.342895 
L 293.195745 462.500205 
L 294.639882 481.62383 
L 296.08402 486.612602 
L 297.528157 479.545175 
L 298.972294 489.522719 
L 300.416431 490.354181 
L 301.860569 483.286754 
L 303.304706 491.601374 
L 304.748843 485.78114 
L 306.19298 494.51149 
L 307.637118 504.073303 
L 309.081255 497.837338 
L 310.525392 498.253069 
L 311.969529 495.758683 
L 313.413667 500.747455 
L 314.857804 489.93845 
L 316.301941 490.354181 
L 317.746078 495.342952 
L 319.190216 508.646344 
L 320.634353 505.736227 
L 322.07849 504.073303 
L 323.522627 505.736227 
L 324.966765 504.904765 
L 326.410902 508.646344 
L 327.855039 511.972192 
L 329.299176 516.545232 
L 330.743314 517.376694 
L 332.187451 521.949735 
L 333.631588 513.635115 
L 335.075725 518.208156 
L 336.519863 521.534004 
L 337.964 521.534004 
L 339.408137 517.792425 
L 340.852275 513.635115 
L 342.296412 522.365466 
L 345.184686 524.02839 
L 346.628824 521.118273 
L 348.072961 524.02839 
L 349.517098 524.859852 
L 350.961235 529.017162 
L 352.405373 524.859852 
L 353.84951 522.365466 
L 355.293647 530.264355 
L 356.737784 530.264355 
L 358.181922 527.354238 
L 359.626059 528.601431 
L 361.070196 532.75874 
L 362.514333 526.522776 
L 363.958471 530.264355 
L 365.402608 530.680085 
L 366.846745 531.511547 
L 368.290882 535.253126 
L 369.73502 533.174471 
L 371.179157 530.680085 
L 372.623294 532.343009 
L 374.067431 532.75874 
L 375.511569 534.837395 
L 376.955706 535.253126 
L 378.399843 531.927278 
L 379.84398 535.668857 
L 381.288118 533.174471 
L 382.732255 537.331781 
L 384.176392 536.91605 
L 385.620529 537.747512 
L 387.064667 533.174471 
L 388.508804 533.174471 
L 389.952941 536.91605 
L 391.397078 534.005933 
L 392.841216 536.91605 
L 394.285353 536.91605 
L 395.72949 535.253126 
L 397.173627 536.91605 
L 398.617765 534.005933 
L 400.061902 537.747512 
L 401.506039 534.837395 
L 402.950176 534.837395 
L 404.394314 536.084588 
L 405.838451 536.084588 
L 407.282588 537.747512 
L 408.726725 536.500319 
L 410.170863 537.747512 
L 411.615 489.106988 
L 411.615 489.106988 
" clip-path="url(#p282bbfdfb4)" style="fill: none; stroke: #0000ff; stroke-width: 1.5; stroke-linecap: square"/>
   </g>
   <g id="patch_13">
    <path d="M 43.36 548.12 
L 43.36 402.24 
" style="fill: none; stroke: #000000; stroke-width: 0.8; stroke-linejoin: miter; stroke-linecap: square"/>
   </g>
   <g id="patch_14">
    <path d="M 411.615 548.12 
L 411.615 402.24 
" style="fill: none; stroke: #000000; stroke-width: 0.8; stroke-linejoin: miter; stroke-linecap: square"/>
   </g>
   <g id="patch_15">
    <path d="M 43.36 548.12 
L 411.615 548.12 
" style="fill: none; stroke: #000000; stroke-width: 0.8; stroke-linejoin: miter; stroke-linecap: square"/>
   </g>
   <g id="patch_16">
    <path d="M 43.36 402.24 
L 411.615 402.24 
" style="fill: none; stroke: #000000; stroke-width: 0.8; stroke-linejoin: miter; stroke-linecap: square"/>
   </g>
   <g id="text_38">
    <!-- V histogram (bbox) -->
    <g transform="translate(169.819063 396.24) scale(0.12 -0.12)">
     <defs>
      <path id="DejaVuSans-56" d="M 1831 0 
L 50 4666 
L 709 4666 
L 2188 738 
L 3669 4666 
L 4325 4666 
L 2547 0 
L 1831 0 
z
" transform="scale(0.015625)"/>
     </defs>
     <use xlink:href="#DejaVuSans-56"/>
     <use xlink:href="#DejaVuSans-20" transform="translate(68.408203 0)"/>
     <use xlink:href="#DejaVuSans-68" transform="translate(100.195312 0)"/>
     <use xlink:href="#DejaVuSans-69" transform="translate(163.574219 0)"/>
     <use xlink:href="#DejaVuSans-73" transform="translate(191.357422 0)"/>
     <use xlink:href="#DejaVuSans-74" transform="translate(243.457031 0)"/>
     <use xlink:href="#DejaVuSans-6f" transform="translate(282.666016 0)"/>
     <use xlink:href="#DejaVuSans-67" transform="translate(343.847656 0)"/>
     <use xlink:href="#DejaVuSans-72" transform="translate(407.324219 0)"/>
     <use xlink:href="#DejaVuSans-61" transform="translate(448.4375 0)"/>
     <use xlink:href="#DejaVuSans-6d" transform="translate(509.716797 0)"/>
     <use xlink:href="#DejaVuSans-20" transform="translate(607.128906 0)"/>
     <use xlink:href="#DejaVuSans-28" transform="translate(638.916016 0)"/>
     <use xlink:href="#DejaVuSans-62" transform="translate(677.929688 0)"/>
     <use xlink:href="#DejaVuSans-62" transform="translate(741.40625 0)"/>
     <use xlink:href="#DejaVuSans-6f" transform="translate(804.882812 0)"/>
     <use xlink:href="#DejaVuSans-78" transform="translate(862.939453 0)"/>
     <use xlink:href="#DejaVuSans-29" transform="translate(922.119141 0)"/>
    </g>
   </g>
  </g>
 </g>
 <defs>
  <clipPath id="pf89f5f192e">
   <rect x="43.36" y="25.44" width="368.255" height="145.88"/>
  </clipPath>
  <clipPath id="pfdca65c1e0">
   <rect x="43.36" y="213.84" width="368.255" height="145.88"/>
  </clipPath>
  <clipPath id="p282bbfdfb4">
   <rect x="43.36" y="402.24" width="368.255" height="145.88"/>
  </clipPath>
 </defs>
</svg>
