<?xml version="1.0" encoding="utf-8" standalone="no"?>
<!DOCTYPE svg PUBLIC "-//W3C//DTD SVG 1.1//EN"
  "http://www.w3.org/Graphics/SVG/1.1/DTD/svg11.dtd">
<svg xmlns:xlink="http://www.w3.org/1999/xlink" width="432pt" height="576pt" viewBox="0 0 432 576" xmlns="http://www.w3.org/2000/svg" version="1.1">
 <metadata>
  <rdf:RDF xmlns:dc="http://purl.org/dc/elements/1.1/" xmlns:cc="http://creativecommons.org/ns#" xmlns:rdf="http://www.w3.org/1999/02/22-rdf-syntax-ns#">
   <cc:Work>
    <dc:type rdf:resource="http://purl.org/dc/dcmitype/StillImage"/>
    <dc:date>2026-01-22T15:02:15.649106</dc:date>
    <dc:format>image/svg+xml</dc:format>
    <dc:creator>
     <cc:Agent>
      <dc:title>Matplotlib v3.10.8, https://matplotlib.org/</dc:title>
     </cc:Agent>
    </dc:creator>
   </cc:Work>
  </rdf:RDF>
 </metadata>
 <defs>
  <style type="text/css">*{stroke-linejoin: round; stroke-linecap: butt}</style>
 </defs>
 <g id="figure_1">
  <g id="patch_1">
   <path d="M 0 576 
L 432 576 
L 432 0 
L 0 0 
z
" style="fill: #ffffff"/>
  </g>
  <g id="axes_1">
   <g id="patch_2">
    <path d="M 49.75 171.32 
L 411.615 171.32 
L 411.615 25.44 
L 49.75 25.44 
z
" style="fill: #ffffff"/>
   </g>
   <g id="matplotlib.axis_1">
    <g id="xtick_1">
     <g id="line2d_1">
      <defs>
       <path id="mf2f5364db2" d="M 0 0 
L 0 3.5 
" style="stroke: #000000; stroke-width: 0.8"/>
      </defs>
      <g>
       <use xlink:href="#mf2f5364db2" x="49.75" y="171.32" style="stroke: #000000; stroke-width: 0.8"/>
      </g>
     </g>
     <g id="text_1">
      <!-- 0 -->
      <g transform="translate(46.56875 185.918438) scale(0.1 -0.1)">
       <defs>
        <path id="DejaVuSans-30" d="M 2034 4250 
Q 1547 4250 1301 3770 
Q 1056 3291 1056 2328 
Q 1056 1369 1301 889 
Q 1547 409 2034 409 
Q 2525 409 2770 889 
Q 3016 1369 3016 2328 
Q 3016 3291 2770 3770 
Q 2525 4250 2034 4250 
z
M 2034 4750 
Q 2819 4750 3233 4129 
Q 3647 3509 3647 2328 
Q 3647 1150 3233 529 
Q 2819 -91 2034 -91 
Q 1250 -91 836 529 
Q 422 1150 422 2328 
Q 422 3509 836 4129 
Q 1250 4750 2034 4750 
z
" transform="scale(0.015625)"/>
       </defs>
       <use xlink:href="#DejaVuSans-30"/>
      </g>
     </g>
    </g>
    <g id="xtick_2">
     <g id="line2d_2">
      <g>
       <use xlink:href="#mf2f5364db2" x="89.957222" y="171.32" style="stroke: #000000; stroke-width: 0.8"/>
      </g>
     </g>
     <g id="text_2">
      <!-- 20 -->
      <g transform="translate(83.594722 185.918438) scale(0.1 -0.1)">
       <defs>
        <path id="DejaVuSans-32" d="M 1228 531 
L 3431 531 
L 3431 0 
L 469 0 
L 469 531 
Q 828 903 1448 1529 
Q 2069 2156 2228 2338 
Q 2531 2678 2651 2914 
Q 2772 3150 2772 3378 
Q 2772 3750 2511 3984 
Q 2250 4219 1831 4219 
Q 1534 4219 1204 4116 
Q 875 4013 500 3803 
L 500 4441 
Q 881 4594 1212 4672 
Q 1544 4750 1819 4750 
Q 2544 4750 2975 4387 
Q 3406 4025 3406 3419 
Q 3406 3131 3298 2873 
Q 3191 2616 2906 2266 
Q 2828 2175 2409 1742 
Q 1991 1309 1228 531 
z
" transform="scale(0.015625)"/>
       </defs>
       <use xlink:href="#DejaVuSans-32"/>
       <use xlink:href="#DejaVuSans-30" transform="translate(63.623047 0)"/>
      </g>
     </g>
    </g>
    <g id="xtick_3">
     <g id="line2d_3">
      <g>
       <use xlink:href="#mf2f5364db2" x="130.164444" y="171.32" style="stroke: #000000; stroke-width: 0.8"/>
      </g>
     </g>
     <g id="text_3">
      <!-- 40 -->
      <g transform="translate(123.801944 185.918438) scale(0.1 -0.1)">
       <defs>
        <path id="DejaVuSans-34" d="M 2419 4116 
L 825 1625 
L 2419 1625 
L 2419 4116 
z
M 2253 4666 
L 3047 4666 
L 3047 1625 
L 3713 1625 
L 3713 1100 
L 3047 1100 
L 3047 0 
L 2419 0 
L 2419 1100 
L 313 1100 
L 313 1709 
L 2253 4666 
z
" transform="scale(0.015625)"/>
       </defs>
       <use xlink:href="#DejaVuSans-34"/>
       <use xlink:href="#DejaVuSans-30" transform="translate(63.623047 0)"/>
      </g>
     </g>
    </g>
    <g id="xtick_4">
     <g id="line2d_4">
      <g>
       <use xlink:href="#mf2f5364db2" x="170.371667" y="171.32" style="stroke: #000000; stroke-width: 0.8"/>
      </g>
     </g>
     <g id="text_4">
      <!-- 60 -->
      <g transform="translate(164.009167 185.918438) scale(0.1 -0.1)">
       <defs>
        <path id="DejaVuSans-36" d="M 2113 2584 
Q 1688 2584 1439 2293 
Q 1191 2003 1191 1497 
Q 1191 994 1439 701 
Q 1688 409 2113 409 
Q 2538 409 2786 701 
Q 3034 994 3034 1497 
Q 3034 2003 2786 2293 
Q 2538 2584 2113 2584 
z
M 3366 4563 
L 3366 3988 
Q 3128 4100 2886 4159 
Q 2644 4219 2406 4219 
Q 1781 4219 1451 3797 
Q 1122 3375 1075 2522 
Q 1259 2794 1537 2939 
Q 1816 3084 2150 3084 
Q 2853 3084 3261 2657 
Q 3669 2231 3669 1497 
Q 3669 778 3244 343 
Q 2819 -91 2113 -91 
Q 1303 -91 875 529 
Q 447 1150 447 2328 
Q 447 3434 972 4092 
Q 1497 4750 2381 4750 
Q 2619 4750 2861 4703 
Q 3103 4656 3366 4563 
z
" transform="scale(0.015625)"/>
       </defs>
       <use xlink:href="#DejaVuSans-36"/>
       <use xlink:href="#DejaVuSans-30" transform="translate(63.623047 0)"/>
      </g>
     </g>
    </g>
    <g id="xtick_5">
     <g id="line2d_5">
      <g>
       <use xlink:href="#mf2f5364db2" x="210.578889" y="171.32" style="stroke: #000000; stroke-width: 0.8"/>
      </g>
     </g>
     <g id="text_5">
      <!-- 80 -->
      <g transform="translate(204.216389 185.918438) scale(0.1 -0.1)">
       <defs>
        <path id="DejaVuSans-38" d="M 2034 2216 
Q 1584 2216 1326 1975 
Q 1069 1734 1069 1313 
Q 1069 891 1326 650 
Q 1584 409 2034 409 
Q 2484 409 2743 651 
Q 3003 894 3003 1313 
Q 3003 1734 2745 1975 
Q 2488 2216 2034 2216 
z
M 1403 2484 
Q 997 2584 770 2862 
Q 544 3141 544 3541 
Q 544 4100 942 4425 
Q 1341 4750 2034 4750 
Q 2731 4750 3128 4425 
Q 3525 4100 3525 3541 
Q 3525 3141 3298 2862 
Q 3072 2584 2669 2484 
Q 3125 2378 3379 2068 
Q 3634 1759 3634 1313 
Q 3634 634 3220 271 
Q 2806 -91 2034 -91 
Q 1263 -91 848 271 
Q 434 634 434 1313 
Q 434 1759 690 2068 
Q 947 2378 1403 2484 
z
M 1172 3481 
Q 1172 3119 1398 2916 
Q 1625 2713 2034 2713 
Q 2441 2713 2670 2916 
Q 2900 3119 2900 3481 
Q 2900 3844 2670 4047 
Q 2441 4250 2034 4250 
Q 1625 4250 1398 4047 
Q 1172 3844 1172 3481 
z
" transform="scale(0.015625)"/>
       </defs>
       <use xlink:href="#DejaVuSans-38"/>
       <use xlink:href="#DejaVuSans-30" transform="translate(63.623047 0)"/>
      </g>
     </g>
    </g>
    <g id="xtick_6">
     <g id="line2d_6">
      <g>
       <use xlink:href="#mf2f5364db2" x="250.786111" y="171.32" style="stroke: #000000; stroke-width: 0.8"/>
      </g>
     </g>
     <g id="text_6">
      <!-- 100 -->
      <g transform="translate(241.242361 185.918438) scale(0.1 -0.1)">
       <defs>
        <path id="DejaVuSans-31" d="M 794 531 
L 1825 531 
L 1825 4091 
L 703 3866 
L 703 4441 
L 1819 4666 
L 2450 4666 
L 2450 531 
L 3481 531 
L 3481 0 
L 794 0 
L 794 531 
z
" transform="scale(0.015625)"/>
       </defs>
       <use xlink:href="#DejaVuSans-31"/>
       <use xlink:href="#DejaVuSans-30" transform="translate(63.623047 0)"/>
       <use xlink:href="#DejaVuSans-30" transform="translate(127.246094 0)"/>
      </g>
     </g>
    </g>
    <g id="xtick_7">
     <g id="line2d_7">
      <g>
       <use xlink:href="#mf2f5364db2" x="290.993333" y="171.32" style="stroke: #000000; stroke-width: 0.8"/>
      </g>
     </g>
     <g id="text_7">
      <!-- 120 -->
      <g transform="translate(281.449583 185.918438) scale(0.1 -0.1)">
       <use xlink:href="#DejaVuSans-31"/>
       <use xlink:href="#DejaVuSans-32" transform="translate(63.623047 0)"/>
       <use xlink:href="#DejaVuSans-30" transform="translate(127.246094 0)"/>
      </g>
     </g>
    </g>
    <g id="xtick_8">
     <g id="line2d_8">
      <g>
       <use xlink:href="#mf2f5364db2" x="331.200556" y="171.32" style="stroke: #000000; stroke-width: 0.8"/>
      </g>
     </g>
     <g id="text_8">
      <!-- 140 -->
      <g transform="translate(321.656806 185.918438) scale(0.1 -0.1)">
       <use xlink:href="#DejaVuSans-31"/>
       <use xlink:href="#DejaVuSans-34" transform="translate(63.623047 0)"/>
       <use xlink:href="#DejaVuSans-30" transform="translate(127.246094 0)"/>
      </g>
     </g>
    </g>
    <g id="xtick_9">
     <g id="line2d_9">
      <g>
       <use xlink:href="#mf2f5364db2" x="371.407778" y="171.32" style="stroke: #000000; stroke-width: 0.8"/>
      </g>
     </g>
     <g id="text_9">
      <!-- 160 -->
      <g transform="translate(361.864028 185.918438) scale(0.1 -0.1)">
       <use xlink:href="#DejaVuSans-31"/>
       <use xlink:href="#DejaVuSans-36" transform="translate(63.623047 0)"/>
       <use xlink:href="#DejaVuSans-30" transform="translate(127.246094 0)"/>
      </g>
     </g>
    </g>
    <g id="xtick_10">
     <g id="line2d_10">
      <g>
       <use xlink:href="#mf2f5364db2" x="411.615" y="171.32" style="stroke: #000000; stroke-width: 0.8"/>
      </g>
     </g>
     <g id="text_10">
      <!-- 180 -->
      <g transform="translate(402.07125 185.918438) scale(0.1 -0.1)">
       <use xlink:href="#DejaVuSans-31"/>
       <use xlink:href="#DejaVuSans-38" transform="translate(63.623047 0)"/>
       <use xlink:href="#DejaVuSans-30" transform="translate(127.246094 0)"/>
      </g>
     </g>
    </g>
   </g>
   <g id="matplotlib.axis_2">
    <g id="ytick_1">
     <g id="line2d_11">
      <defs>
       <path id="m5d918f2e45" d="M 0 0 
L -3.5 0 
" style="stroke: #000000; stroke-width: 0.8"/>
      </defs>
      <g>
       <use xlink:href="#m5d918f2e45" x="49.75" y="164.689091" style="stroke: #000000; stroke-width: 0.8"/>
      </g>
     </g>
     <g id="text_11">
      <!-- 0 -->
      <g transform="translate(36.3875 168.48831) scale(0.1 -0.1)">
       <use xlink:href="#DejaVuSans-30"/>
      </g>
     </g>
    </g>
    <g id="ytick_2">
     <g id="line2d_12">
      <g>
       <use xlink:href="#m5d918f2e45" x="49.75" y="143.465088" style="stroke: #000000; stroke-width: 0.8"/>
      </g>
     </g>
     <g id="text_12">
      <!-- 2000 -->
      <g transform="translate(17.3 147.264307) scale(0.1 -0.1)">
       <use xlink:href="#DejaVuSans-32"/>
       <use xlink:href="#DejaVuSans-30" transform="translate(63.623047 0)"/>
       <use xlink:href="#DejaVuSans-30" transform="translate(127.246094 0)"/>
       <use xlink:href="#DejaVuSans-30" transform="translate(190.869141 0)"/>
      </g>
     </g>
    </g>
    <g id="ytick_3">
     <g id="line2d_13">
      <g>
       <use xlink:href="#m5d918f2e45" x="49.75" y="122.241085" style="stroke: #000000; stroke-width: 0.8"/>
      </g>
     </g>
     <g id="text_13">
      <!-- 4000 -->
      <g transform="translate(17.3 126.040304) scale(0.1 -0.1)">
       <use xlink:href="#DejaVuSans-34"/>
       <use xlink:href="#DejaVuSans-30" transform="translate(63.623047 0)"/>
       <use xlink:href="#DejaVuSans-30" transform="translate(127.246094 0)"/>
       <use xlink:href="#DejaVuSans-30" transform="translate(190.869141 0)"/>
      </g>
     </g>
    </g>
    <g id="ytick_4">
     <g id="line2d_14">
      <g>
       <use xlink:href="#m5d918f2e45" x="49.75" y="101.017082" style="stroke: #000000; stroke-width: 0.8"/>
      </g>
     </g>
     <g id="text_14">
      <!-- 6000 -->
      <g transform="translate(17.3 104.816301) scale(0.1 -0.1)">
       <use xlink:href="#DejaVuSans-36"/>
       <use xlink:href="#DejaVuSans-30" transform="translate(63.623047 0)"/>
       <use xlink:href="#DejaVuSans-30" transform="translate(127.246094 0)"/>
       <use xlink:href="#DejaVuSans-30" transform="translate(190.869141 0)"/>
      </g>
     </g>
    </g>
    <g id="ytick_5">
     <g id="line2d_15">
      <g>
       <use xlink:href="#m5d918f2e45" x="49.75" y="79.79308" style="stroke: #000000; stroke-width: 0.8"/>
      </g>
     </g>
     <g id="text_15">
      <!-- 8000 -->
      <g transform="translate(17.3 83.592298) scale(0.1 -0.1)">
       <use xlink:href="#DejaVuSans-38"/>
       <use xlink:href="#DejaVuSans-30" transform="translate(63.623047 0)"/>
       <use xlink:href="#DejaVuSans-30" transform="translate(127.246094 0)"/>
       <use xlink:href="#DejaVuSans-30" transform="translate(190.869141 0)"/>
      </g>
     </g>
    </g>
    <g id="ytick_6">
     <g id="line2d_16">
      <g>
       <use xlink:href="#m5d918f2e45" x="49.75" y="58.569077" style="stroke: #000000; stroke-width: 0.8"/>
      </g>
     </g>
     <g id="text_16">
      <!-- 10000 -->
      <g transform="translate(10.9375 62.368295) scale(0.1 -0.1)">
       <use xlink:href="#DejaVuSans-31"/>
       <use xlink:href="#DejaVuSans-30" transform="translate(63.623047 0)"/>
       <use xlink:href="#DejaVuSans-30" transform="translate(127.246094 0)"/>
       <use xlink:href="#DejaVuSans-30" transform="translate(190.869141 0)"/>
       <use xlink:href="#DejaVuSans-30" transform="translate(254.492188 0)"/>
      </g>
     </g>
    </g>
    <g id="ytick_7">
     <g id="line2d_17">
      <g>
       <use xlink:href="#m5d918f2e45" x="49.75" y="37.345074" style="stroke: #000000; stroke-width: 0.8"/>
      </g>
     </g>
     <g id="text_17">
      <!-- 12000 -->
      <g transform="translate(10.9375 41.144293) scale(0.1 -0.1)">
       <use xlink:href="#DejaVuSans-31"/>
       <use xlink:href="#DejaVuSans-32" transform="translate(63.623047 0)"/>
       <use xlink:href="#DejaVuSans-30" transform="translate(127.246094 0)"/>
       <use xlink:href="#DejaVuSans-30" transform="translate(190.869141 0)"/>
       <use xlink:href="#DejaVuSans-30" transform="translate(254.492188 0)"/>
      </g>
     </g>
    </g>
   </g>
   <g id="line2d_18">
    <path d="M 49.75 147.709889 
L 51.760361 162.524243 
L 53.770722 161.654059 
L 55.781083 149.429033 
L 57.791444 161.898135 
L 59.801806 143.63488 
L 61.812167 152.432229 
L 63.822528 160.454902 
L 65.832889 143.4757 
L 67.84325 147.264185 
L 69.853611 143.465088 
L 71.863972 130.019682 
L 73.874333 143.507536 
L 75.884694 131.664542 
L 77.895056 149.938409 
L 79.905417 144.717304 
L 81.915778 152.082033 
L 83.926139 158.130874 
L 85.9365 161.845075 
L 87.946861 160.571634 
L 89.957222 158.926774 
L 91.967583 160.86877 
L 93.977944 162.566691 
L 95.988306 163.192799 
L 97.998667 160.624694 
L 100.009028 162.343839 
L 102.019389 161.367534 
L 104.02975 164.147879 
L 106.040111 163.935639 
L 108.050472 163.277695 
L 110.060833 153.514653 
L 112.071194 164.593583 
L 114.081556 157.748842 
L 116.091917 161.123458 
L 118.102278 138.806419 
L 120.112639 118.070569 
L 122.123 161.091622 
L 124.133361 154.841154 
L 126.143722 32.070909 
L 128.154083 104.306803 
L 130.164444 158.183934 
L 132.174806 163.521771 
L 134.185167 158.64025 
L 136.195528 60.351893 
L 138.205889 164.232775 
L 140.21625 127.62137 
L 142.226611 153.504041 
L 144.236972 164.625419 
L 146.247333 150.002081 
L 148.257694 161.983031 
L 150.268056 160.17899 
L 152.278417 145.078112 
L 154.288778 159.796958 
L 156.299139 162.099763 
L 158.3095 141.491256 
L 160.319861 158.396174 
L 162.330222 154.512182 
L 164.340583 145.502592 
L 166.350944 164.009923 
L 168.361306 164.593583 
L 170.371667 144.367108 
L 172.382028 164.614807 
L 174.392389 162.460571 
L 176.40275 158.00353 
L 178.413111 164.646643 
L 180.423472 155.902354 
L 182.433833 149.004553 
L 184.444194 163.012395 
L 186.454556 144.876484 
L 188.464917 154.331778 
L 190.475278 161.855687 
L 192.485639 163.946251 
L 194.496 164.232775 
L 196.506361 157.006002 
L 198.516722 146.701748 
L 200.527083 159.998586 
L 202.537444 162.545467 
L 204.547806 164.402567 
L 206.558167 164.657255 
L 208.568528 158.16271 
L 210.578889 146.807869 
L 212.58925 164.455627 
L 214.599611 164.646643 
L 216.609972 160.062258 
L 218.620333 158.48107 
L 220.630694 163.023007 
L 222.641056 164.657255 
L 224.651417 152.251825 
L 226.661778 163.744623 
L 228.672139 164.551135 
L 230.6825 157.345586 
L 232.692861 163.532383 
L 234.703222 164.285835 
L 236.713583 159.80757 
L 238.723944 164.657255 
L 240.734306 158.311278 
L 242.744667 154.681974 
L 244.755028 164.625419 
L 246.765389 157.695782 
L 248.77575 164.476851 
L 250.786111 164.551135 
L 252.796472 158.650862 
L 254.806833 164.476851 
L 256.817194 154.161985 
L 258.827556 159.414926 
L 260.837917 163.288307 
L 262.848278 156.94233 
L 264.858639 164.031147 
L 266.869 162.630363 
L 268.879361 154.544018 
L 270.889722 159.054118 
L 272.900083 136.036687 
L 274.910444 162.046703 
L 276.920806 69.839022 
L 278.931167 158.152098 
L 280.941528 151.604493 
L 282.951889 144.282212 
L 284.96225 164.540523 
L 286.972611 164.253999 
L 288.982972 164.529911 
L 290.993333 138.201535 
L 293.003694 164.689091 
L 295.014056 163.797683 
L 297.024417 164.572359 
L 299.034778 160.33817 
L 301.045139 154.586466 
L 303.0555 159.457374 
L 305.065861 164.667867 
L 307.076222 163.840131 
L 309.086583 164.434403 
L 311.096944 163.235247 
L 313.107306 164.689091 
L 315.117667 161.08101 
L 317.128028 161.61161 
L 319.138389 164.689091 
L 321.14875 164.275223 
L 323.159111 164.636031 
L 325.169472 164.678479 
L 327.179833 163.999311 
L 329.190194 164.689091 
L 331.200556 160.805098 
L 333.210917 163.447487 
L 335.221278 164.370731 
L 337.231639 164.646643 
L 339.242 164.582971 
L 341.252361 163.160963 
L 343.262722 164.105431 
L 345.273083 164.508687 
L 349.293806 164.689091 
L 351.304167 163.659727 
L 353.314528 164.689091 
L 355.324889 164.667867 
L 357.33525 164.402567 
L 359.345611 164.689091 
L 361.355972 164.498075 
L 363.366333 161.717731 
L 365.376694 164.561747 
L 367.387056 164.476851 
L 369.397417 164.529911 
L 371.407778 163.182187 
L 373.418139 164.593583 
L 375.4285 164.582971 
L 377.438861 163.925027 
L 379.449222 163.787071 
L 381.459583 161.622222 
L 383.469944 164.508687 
L 385.480306 164.636031 
L 387.490667 164.625419 
L 389.501028 163.659727 
L 391.511389 158.756982 
L 393.52175 164.402567 
L 395.532111 164.413179 
L 397.542472 160.582246 
L 399.552833 162.471183 
L 401.563194 161.632834 
L 403.573556 162.089151 
L 405.583917 153.737505 
L 407.594278 161.547938 
L 409.604639 162.821379 
L 409.604639 162.821379 
" clip-path="url(#peceec33919)" style="fill: none; stroke: #ff0000; stroke-width: 1.5; stroke-linecap: square"/>
   </g>
   <g id="patch_3">
    <path d="M 49.75 171.32 
L 49.75 25.44 
" style="fill: none; stroke: #000000; stroke-width: 0.8; stroke-linejoin: miter; stroke-linecap: square"/>
   </g>
   <g id="patch_4">
    <path d="M 411.615 171.32 
L 411.615 25.44 
" style="fill: none; stroke: #000000; stroke-width: 0.8; stroke-linejoin: miter; stroke-linecap: square"/>
   </g>
   <g id="patch_5">
    <path d="M 49.75 171.32 
L 411.615 171.32 
" style="fill: none; stroke: #000000; stroke-width: 0.8; stroke-linejoin: miter; stroke-linecap: square"/>
   </g>
   <g id="patch_6">
    <path d="M 49.75 25.44 
L 411.615 25.44 
" style="fill: none; stroke: #000000; stroke-width: 0.8; stroke-linejoin: miter; stroke-linecap: square"/>
   </g>
   <g id="text_18">
    <!-- H histogram -->
    <g transform="translate(193.848125 19.44) scale(0.12 -0.12)">
     <defs>
      <path id="DejaVuSans-48" d="M 628 4666 
L 1259 4666 
L 1259 2753 
L 3553 2753 
L 3553 4666 
L 4184 4666 
L 4184 0 
L 3553 0 
L 3553 2222 
L 1259 2222 
L 1259 0 
L 628 0 
L 628 4666 
z
" transform="scale(0.015625)"/>
      <path id="DejaVuSans-20" transform="scale(0.015625)"/>
      <path id="DejaVuSans-68" d="M 3513 2113 
L 3513 0 
L 2938 0 
L 2938 2094 
Q 2938 2591 2744 2837 
Q 2550 3084 2163 3084 
Q 1697 3084 1428 2787 
Q 1159 2491 1159 1978 
L 1159 0 
L 581 0 
L 581 4863 
L 1159 4863 
L 1159 2956 
Q 1366 3272 1645 3428 
Q 1925 3584 2291 3584 
Q 2894 3584 3203 3211 
Q 3513 2838 3513 2113 
z
" transform="scale(0.015625)"/>
      <path id="DejaVuSans-69" d="M 603 3500 
L 1178 3500 
L 1178 0 
L 603 0 
L 603 3500 
z
M 603 4863 
L 1178 4863 
L 1178 4134 
L 603 4134 
L 603 4863 
z
" transform="scale(0.015625)"/>
      <path id="DejaVuSans-73" d="M 2834 3397 
L 2834 2853 
Q 2591 2978 2328 3040 
Q 2066 3103 1784 3103 
Q 1356 3103 1142 2972 
Q 928 2841 928 2578 
Q 928 2378 1081 2264 
Q 1234 2150 1697 2047 
L 1894 2003 
Q 2506 1872 2764 1633 
Q 3022 1394 3022 966 
Q 3022 478 2636 193 
Q 2250 -91 1575 -91 
Q 1294 -91 989 -36 
Q 684 19 347 128 
L 347 722 
Q 666 556 975 473 
Q 1284 391 1588 391 
Q 1994 391 2212 530 
Q 2431 669 2431 922 
Q 2431 1156 2273 1281 
Q 2116 1406 1581 1522 
L 1381 1569 
Q 847 1681 609 1914 
Q 372 2147 372 2553 
Q 372 3047 722 3315 
Q 1072 3584 1716 3584 
Q 2034 3584 2315 3537 
Q 2597 3491 2834 3397 
z
" transform="scale(0.015625)"/>
      <path id="DejaVuSans-74" d="M 1172 4494 
L 1172 3500 
L 2356 3500 
L 2356 3053 
L 1172 3053 
L 1172 1153 
Q 1172 725 1289 603 
Q 1406 481 1766 481 
L 2356 481 
L 2356 0 
L 1766 0 
Q 1100 0 847 248 
Q 594 497 594 1153 
L 594 3053 
L 172 3053 
L 172 3500 
L 594 3500 
L 594 4494 
L 1172 4494 
z
" transform="scale(0.015625)"/>
      <path id="DejaVuSans-6f" d="M 1959 3097 
Q 1497 3097 1228 2736 
Q 959 2375 959 1747 
Q 959 1119 1226 758 
Q 1494 397 1959 397 
Q 2419 397 2687 759 
Q 2956 1122 2956 1747 
Q 2956 2369 2687 2733 
Q 2419 3097 1959 3097 
z
M 1959 3584 
Q 2709 3584 3137 3096 
Q 3566 2609 3566 1747 
Q 3566 888 3137 398 
Q 2709 -91 1959 -91 
Q 1206 -91 779 398 
Q 353 888 353 1747 
Q 353 2609 779 3096 
Q 1206 3584 1959 3584 
z
" transform="scale(0.015625)"/>
      <path id="DejaVuSans-67" d="M 2906 1791 
Q 2906 2416 2648 2759 
Q 2391 3103 1925 3103 
Q 1463 3103 1205 2759 
Q 947 2416 947 1791 
Q 947 1169 1205 825 
Q 1463 481 1925 481 
Q 2391 481 2648 825 
Q 2906 1169 2906 1791 
z
M 3481 434 
Q 3481 -459 3084 -895 
Q 2688 -1331 1869 -1331 
Q 1566 -1331 1297 -1286 
Q 1028 -1241 775 -1147 
L 775 -588 
Q 1028 -725 1275 -790 
Q 1522 -856 1778 -856 
Q 2344 -856 2625 -561 
Q 2906 -266 2906 331 
L 2906 616 
Q 2728 306 2450 153 
Q 2172 0 1784 0 
Q 1141 0 747 490 
Q 353 981 353 1791 
Q 353 2603 747 3093 
Q 1141 3584 1784 3584 
Q 2172 3584 2450 3431 
Q 2728 3278 2906 2969 
L 2906 3500 
L 3481 3500 
L 3481 434 
z
" transform="scale(0.015625)"/>
      <path id="DejaVuSans-72" d="M 2631 2963 
Q 2534 3019 2420 3045 
Q 2306 3072 2169 3072 
Q 1681 3072 1420 2755 
Q 1159 2438 1159 1844 
L 1159 0 
L 581 0 
L 581 3500 
L 1159 3500 
L 1159 2956 
Q 1341 3275 1631 3429 
Q 1922 3584 2338 3584 
Q 2397 3584 2469 3576 
Q 2541 3569 2628 3553 
L 2631 2963 
z
" transform="scale(0.015625)"/>
      <path id="DejaVuSans-61" d="M 2194 1759 
Q 1497 1759 1228 1600 
Q 959 1441 959 1056 
Q 959 750 1161 570 
Q 1363 391 1709 391 
Q 2188 391 2477 730 
Q 2766 1069 2766 1631 
L 2766 1759 
L 2194 1759 
z
M 3341 1997 
L 3341 0 
L 2766 0 
L 2766 531 
Q 2569 213 2275 61 
Q 1981 -91 1556 -91 
Q 1019 -91 701 211 
Q 384 513 384 1019 
Q 384 1609 779 1909 
Q 1175 2209 1959 2209 
L 2766 2209 
L 2766 2266 
Q 2766 2663 2505 2880 
Q 2244 3097 1772 3097 
Q 1472 3097 1187 3025 
Q 903 2953 641 2809 
L 641 3341 
Q 956 3463 1253 3523 
Q 1550 3584 1831 3584 
Q 2591 3584 2966 3190 
Q 3341 2797 3341 1997 
z
" transform="scale(0.015625)"/>
      <path id="DejaVuSans-6d" d="M 3328 2828 
Q 3544 3216 3844 3400 
Q 4144 3584 4550 3584 
Q 5097 3584 5394 3201 
Q 5691 2819 5691 2113 
L 5691 0 
L 5113 0 
L 5113 2094 
Q 5113 2597 4934 2840 
Q 4756 3084 4391 3084 
Q 3944 3084 3684 2787 
Q 3425 2491 3425 1978 
L 3425 0 
L 2847 0 
L 2847 2094 
Q 2847 2600 2669 2842 
Q 2491 3084 2119 3084 
Q 1678 3084 1418 2786 
Q 1159 2488 1159 1978 
L 1159 0 
L 581 0 
L 581 3500 
L 1159 3500 
L 1159 2956 
Q 1356 3278 1631 3431 
Q 1906 3584 2284 3584 
Q 2666 3584 2933 3390 
Q 3200 3197 3328 2828 
z
" transform="scale(0.015625)"/>
     </defs>
     <use xlink:href="#DejaVuSans-48"/>
     <use xlink:href="#DejaVuSans-20" transform="translate(75.195312 0)"/>
     <use xlink:href="#DejaVuSans-68" transform="translate(106.982422 0)"/>
     <use xlink:href="#DejaVuSans-69" transform="translate(170.361328 0)"/>
     <use xlink:href="#DejaVuSans-73" transform="translate(198.144531 0)"/>
     <use xlink:href="#DejaVuSans-74" transform="translate(250.244141 0)"/>
     <use xlink:href="#DejaVuSans-6f" transform="translate(289.453125 0)"/>
     <use xlink:href="#DejaVuSans-67" transform="translate(350.634766 0)"/>
     <use xlink:href="#DejaVuSans-72" transform="translate(414.111328 0)"/>
     <use xlink:href="#DejaVuSans-61" transform="translate(455.224609 0)"/>
     <use xlink:href="#DejaVuSans-6d" transform="translate(516.503906 0)"/>
    </g>
   </g>
  </g>
  <g id="axes_2">
   <g id="patch_7">
    <path d="M 49.75 359.72 
L 411.615 359.72 
L 411.615 213.84 
L 49.75 213.84 
z
" style="fill: #ffffff"/>
   </g>
   <g id="matplotlib.axis_3">
    <g id="xtick_11">
     <g id="line2d_19">
      <g>
       <use xlink:href="#mf2f5364db2" x="49.75" y="359.72" style="stroke: #000000; stroke-width: 0.8"/>
      </g>
     </g>
     <g id="text_19">
      <!-- 0 -->
      <g transform="translate(46.56875 374.318438) scale(0.1 -0.1)">
       <use xlink:href="#DejaVuSans-30"/>
      </g>
     </g>
    </g>
    <g id="xtick_12">
     <g id="line2d_20">
      <g>
       <use xlink:href="#mf2f5364db2" x="120.703922" y="359.72" style="stroke: #000000; stroke-width: 0.8"/>
      </g>
     </g>
     <g id="text_20">
      <!-- 50 -->
      <g transform="translate(114.341422 374.318438) scale(0.1 -0.1)">
       <defs>
        <path id="DejaVuSans-35" d="M 691 4666 
L 3169 4666 
L 3169 4134 
L 1269 4134 
L 1269 2991 
Q 1406 3038 1543 3061 
Q 1681 3084 1819 3084 
Q 2600 3084 3056 2656 
Q 3513 2228 3513 1497 
Q 3513 744 3044 326 
Q 2575 -91 1722 -91 
Q 1428 -91 1123 -41 
Q 819 9 494 109 
L 494 744 
Q 775 591 1075 516 
Q 1375 441 1709 441 
Q 2250 441 2565 725 
Q 2881 1009 2881 1497 
Q 2881 1984 2565 2268 
Q 2250 2553 1709 2553 
Q 1456 2553 1204 2497 
Q 953 2441 691 2322 
L 691 4666 
z
" transform="scale(0.015625)"/>
       </defs>
       <use xlink:href="#DejaVuSans-35"/>
       <use xlink:href="#DejaVuSans-30" transform="translate(63.623047 0)"/>
      </g>
     </g>
    </g>
    <g id="xtick_13">
     <g id="line2d_21">
      <g>
       <use xlink:href="#mf2f5364db2" x="191.657843" y="359.72" style="stroke: #000000; stroke-width: 0.8"/>
      </g>
     </g>
     <g id="text_21">
      <!-- 100 -->
      <g transform="translate(182.114093 374.318438) scale(0.1 -0.1)">
       <use xlink:href="#DejaVuSans-31"/>
       <use xlink:href="#DejaVuSans-30" transform="translate(63.623047 0)"/>
       <use xlink:href="#DejaVuSans-30" transform="translate(127.246094 0)"/>
      </g>
     </g>
    </g>
    <g id="xtick_14">
     <g id="line2d_22">
      <g>
       <use xlink:href="#mf2f5364db2" x="262.611765" y="359.72" style="stroke: #000000; stroke-width: 0.8"/>
      </g>
     </g>
     <g id="text_22">
      <!-- 150 -->
      <g transform="translate(253.068015 374.318438) scale(0.1 -0.1)">
       <use xlink:href="#DejaVuSans-31"/>
       <use xlink:href="#DejaVuSans-35" transform="translate(63.623047 0)"/>
       <use xlink:href="#DejaVuSans-30" transform="translate(127.246094 0)"/>
      </g>
     </g>
    </g>
    <g id="xtick_15">
     <g id="line2d_23">
      <g>
       <use xlink:href="#mf2f5364db2" x="333.565686" y="359.72" style="stroke: #000000; stroke-width: 0.8"/>
      </g>
     </g>
     <g id="text_23">
      <!-- 200 -->
      <g transform="translate(324.021936 374.318438) scale(0.1 -0.1)">
       <use xlink:href="#DejaVuSans-32"/>
       <use xlink:href="#DejaVuSans-30" transform="translate(63.623047 0)"/>
       <use xlink:href="#DejaVuSans-30" transform="translate(127.246094 0)"/>
      </g>
     </g>
    </g>
    <g id="xtick_16">
     <g id="line2d_24">
      <g>
       <use xlink:href="#mf2f5364db2" x="404.519608" y="359.72" style="stroke: #000000; stroke-width: 0.8"/>
      </g>
     </g>
     <g id="text_24">
      <!-- 250 -->
      <g transform="translate(394.975858 374.318438) scale(0.1 -0.1)">
       <use xlink:href="#DejaVuSans-32"/>
       <use xlink:href="#DejaVuSans-35" transform="translate(63.623047 0)"/>
       <use xlink:href="#DejaVuSans-30" transform="translate(127.246094 0)"/>
      </g>
     </g>
    </g>
   </g>
   <g id="matplotlib.axis_4">
    <g id="ytick_8">
     <g id="line2d_25">
      <g>
       <use xlink:href="#m5d918f2e45" x="49.75" y="353.089091" style="stroke: #000000; stroke-width: 0.8"/>
      </g>
     </g>
     <g id="text_25">
      <!-- 0 -->
      <g transform="translate(36.3875 356.88831) scale(0.1 -0.1)">
       <use xlink:href="#DejaVuSans-30"/>
      </g>
     </g>
    </g>
    <g id="ytick_9">
     <g id="line2d_26">
      <g>
       <use xlink:href="#m5d918f2e45" x="49.75" y="324.645513" style="stroke: #000000; stroke-width: 0.8"/>
      </g>
     </g>
     <g id="text_26">
      <!-- 2000 -->
      <g transform="translate(17.3 328.444732) scale(0.1 -0.1)">
       <use xlink:href="#DejaVuSans-32"/>
       <use xlink:href="#DejaVuSans-30" transform="translate(63.623047 0)"/>
       <use xlink:href="#DejaVuSans-30" transform="translate(127.246094 0)"/>
       <use xlink:href="#DejaVuSans-30" transform="translate(190.869141 0)"/>
      </g>
     </g>
    </g>
    <g id="ytick_10">
     <g id="line2d_27">
      <g>
       <use xlink:href="#m5d918f2e45" x="49.75" y="296.201935" style="stroke: #000000; stroke-width: 0.8"/>
      </g>
     </g>
     <g id="text_27">
      <!-- 4000 -->
      <g transform="translate(17.3 300.001154) scale(0.1 -0.1)">
       <use xlink:href="#DejaVuSans-34"/>
       <use xlink:href="#DejaVuSans-30" transform="translate(63.623047 0)"/>
       <use xlink:href="#DejaVuSans-30" transform="translate(127.246094 0)"/>
       <use xlink:href="#DejaVuSans-30" transform="translate(190.869141 0)"/>
      </g>
     </g>
    </g>
    <g id="ytick_11">
     <g id="line2d_28">
      <g>
       <use xlink:href="#m5d918f2e45" x="49.75" y="267.758357" style="stroke: #000000; stroke-width: 0.8"/>
      </g>
     </g>
     <g id="text_28">
      <!-- 6000 -->
      <g transform="translate(17.3 271.557576) scale(0.1 -0.1)">
       <use xlink:href="#DejaVuSans-36"/>
       <use xlink:href="#DejaVuSans-30" transform="translate(63.623047 0)"/>
       <use xlink:href="#DejaVuSans-30" transform="translate(127.246094 0)"/>
       <use xlink:href="#DejaVuSans-30" transform="translate(190.869141 0)"/>
      </g>
     </g>
    </g>
    <g id="ytick_12">
     <g id="line2d_29">
      <g>
       <use xlink:href="#m5d918f2e45" x="49.75" y="239.314779" style="stroke: #000000; stroke-width: 0.8"/>
      </g>
     </g>
     <g id="text_29">
      <!-- 8000 -->
      <g transform="translate(17.3 243.113998) scale(0.1 -0.1)">
       <use xlink:href="#DejaVuSans-38"/>
       <use xlink:href="#DejaVuSans-30" transform="translate(63.623047 0)"/>
       <use xlink:href="#DejaVuSans-30" transform="translate(127.246094 0)"/>
       <use xlink:href="#DejaVuSans-30" transform="translate(190.869141 0)"/>
      </g>
     </g>
    </g>
   </g>
   <g id="line2d_30">
    <path d="M 49.75 345.338216 
L 51.169078 353.074869 
L 52.588157 352.76199 
L 54.007235 351.837573 
L 55.426314 350.742496 
L 56.845392 348.026134 
L 58.264471 344.641348 
L 59.683549 346.177301 
L 61.102627 344.371134 
L 62.521706 342.778294 
L 63.940784 341.996096 
L 65.359863 339.820162 
L 66.778941 330.092458 
L 68.19802 323.877536 
L 69.617098 301.321779 
L 71.036176 273.233746 
L 72.455255 257.020907 
L 73.874333 220.470909 
L 75.293412 249.028261 
L 76.71249 264.743338 
L 78.131569 273.873727 
L 79.550647 266.094408 
L 80.969725 282.975671 
L 82.388804 295.903278 
L 83.807882 313.140086 
L 85.226961 322.697128 
L 88.065118 334.486991 
L 89.484196 336.776699 
L 90.903275 339.493061 
L 92.322353 338.184656 
L 93.741431 338.625532 
L 95.16051 340.04771 
L 96.579588 338.952633 
L 97.998667 340.858352 
L 99.417745 340.431699 
L 100.836824 338.753528 
L 102.255902 343.830706 
L 103.67498 340.744578 
L 105.094059 341.299228 
L 106.513137 339.606835 
L 107.932216 342.380084 
L 109.351294 344.072477 
L 110.770373 341.142788 
L 112.189451 343.916037 
L 113.608529 346.106193 
L 115.027608 343.404053 
L 116.446686 345.466212 
L 117.865765 344.115142 
L 119.284843 342.536524 
L 120.703922 343.788041 
L 122.123 344.385356 
L 123.542078 343.532049 
L 124.961157 342.977399 
L 126.380235 342.792516 
L 127.799314 343.404053 
L 129.218392 344.65557 
L 130.637471 343.674267 
L 132.056549 344.769344 
L 134.894706 343.916037 
L 136.313784 343.3045 
L 137.732863 343.588936 
L 139.151941 347.11594 
L 140.57102 341.725882 
L 141.990098 344.627126 
L 143.409176 346.276854 
L 144.828255 343.3045 
L 146.247333 344.684014 
L 147.666412 346.717729 
L 149.08549 342.294753 
L 150.504569 342.977399 
L 151.923647 346.689286 
L 153.342725 342.650298 
L 154.761804 346.276854 
L 156.180882 343.105395 
L 157.599961 346.475959 
L 159.019039 343.219169 
L 160.438118 342.792516 
L 161.857196 346.902613 
L 163.276275 345.992418 
L 164.695353 342.66452 
L 166.114431 346.817282 
L 167.53351 342.152535 
L 168.952588 346.433294 
L 170.371667 342.678741 
L 171.790745 345.76487 
L 173.209824 342.195201 
L 174.628902 346.689286 
L 176.04798 345.622652 
L 177.467059 342.778294 
L 178.886137 346.618177 
L 180.305216 346.547068 
L 181.724294 343.844928 
L 183.143373 347.258157 
L 184.562451 347.670589 
L 185.981529 343.318722 
L 187.400608 348.395901 
L 188.819686 347.528371 
L 190.238765 345.195998 
L 191.657843 348.680336 
L 193.076922 348.978994 
L 194.496 344.49913 
L 195.915078 349.761192 
L 197.334157 349.946076 
L 198.753235 350.244733 
L 200.172314 346.16308 
L 201.591392 350.344286 
L 203.010471 350.514947 
L 204.429549 346.319519 
L 205.848627 351.624247 
L 207.267706 350.870492 
L 208.686784 351.282924 
L 210.105863 346.603955 
L 211.524941 351.524694 
L 212.94402 351.453585 
L 214.363098 351.595803 
L 215.782176 352.008235 
L 217.201255 347.741698 
L 218.620333 352.150453 
L 220.039412 351.624247 
L 221.45849 352.022457 
L 222.877569 348.623449 
L 224.296647 351.894461 
L 227.134804 352.477554 
L 228.553882 352.619772 
L 229.972961 352.150453 
L 231.392039 347.20127 
L 232.811118 352.619772 
L 234.230196 352.776212 
L 237.068353 352.378001 
L 238.487431 350.514947 
L 239.90651 352.221562 
L 241.325588 352.534441 
L 242.744667 352.306893 
L 244.163745 352.378001 
L 245.582824 352.690881 
L 247.001902 351.169149 
L 248.42098 352.676659 
L 249.840059 352.690881 
L 251.259137 352.0509 
L 252.678216 352.548663 
L 254.097294 352.676659 
L 255.516373 352.690881 
L 256.935451 351.240258 
L 258.354529 352.619772 
L 259.773608 352.705103 
L 261.192686 352.420667 
L 265.449922 352.889986 
L 266.869 351.197593 
L 268.288078 352.961095 
L 269.707157 352.633994 
L 271.126235 352.804655 
L 272.545314 352.477554 
L 273.964392 352.889986 
L 275.383471 351.908682 
L 276.802549 352.889986 
L 278.221627 352.079344 
L 279.640706 352.577107 
L 281.059784 352.918429 
L 282.478863 352.804655 
L 288.155176 352.904208 
L 289.574255 352.989538 
L 290.993333 350.557612 
L 292.412412 353.00376 
L 293.83149 352.875764 
L 295.250569 352.889986 
L 296.669647 352.619772 
L 298.088725 352.889986 
L 299.507804 352.946873 
L 300.926882 352.733546 
L 302.345961 352.975317 
L 305.184118 352.378001 
L 306.603196 353.00376 
L 308.022275 352.065122 
L 309.441353 353.017982 
L 310.860431 352.875764 
L 312.27951 352.107787 
L 313.698588 352.932651 
L 316.536745 352.776212 
L 317.955824 353.017982 
L 319.374902 352.961095 
L 320.79398 351.723799 
L 322.213059 353.00376 
L 327.889373 352.60555 
L 329.308451 352.84732 
L 330.727529 352.633994 
L 332.146608 353.00376 
L 333.565686 352.76199 
L 334.984765 352.889986 
L 337.822922 352.889986 
L 339.242 352.008235 
L 340.661078 352.904208 
L 349.175549 353.00376 
L 350.594627 353.032204 
L 352.013706 352.122009 
L 353.432784 352.84732 
L 356.270941 352.790433 
L 357.69002 352.989538 
L 359.109098 352.975317 
L 360.528176 352.250005 
L 361.947255 352.932651 
L 363.366333 352.84732 
L 364.785412 352.946873 
L 366.20449 352.776212 
L 367.623569 352.975317 
L 370.461725 352.946873 
L 371.880804 352.633994 
L 373.299882 352.918429 
L 374.718961 353.046426 
L 376.138039 352.889986 
L 377.557118 352.961095 
L 378.976196 352.705103 
L 380.395275 352.975317 
L 381.814353 352.747768 
L 383.233431 352.719324 
L 384.65251 352.932651 
L 386.071588 352.804655 
L 390.328824 353.00376 
L 398.843294 352.961095 
L 400.262373 353.046426 
L 403.100529 352.961095 
L 410.195922 353.089091 
L 411.615 339.635279 
L 411.615 339.635279 
" clip-path="url(#p50148f757f)" style="fill: none; stroke: #008000; stroke-width: 1.5; stroke-linecap: square"/>
   </g>
   <g id="patch_8">
    <path d="M 49.75 359.72 
L 49.75 213.84 
" style="fill: none; stroke: #000000; stroke-width: 0.8; stroke-linejoin: miter; stroke-linecap: square"/>
   </g>
   <g id="patch_9">
    <path d="M 411.615 359.72 
L 411.615 213.84 
" style="fill: none; stroke: #000000; stroke-width: 0.8; stroke-linejoin: miter; stroke-linecap: square"/>
   </g>
   <g id="patch_10">
    <path d="M 49.75 359.72 
L 411.615 359.72 
" style="fill: none; stroke: #000000; stroke-width: 0.8; stroke-linejoin: miter; stroke-linecap: square"/>
   </g>
   <g id="patch_11">
    <path d="M 49.75 213.84 
L 411.615 213.84 
" style="fill: none; stroke: #000000; stroke-width: 0.8; stroke-linejoin: miter; stroke-linecap: square"/>
   </g>
   <g id="text_30">
    <!-- S histogram -->
    <g transform="translate(194.55125 207.84) scale(0.12 -0.12)">
     <defs>
      <path id="DejaVuSans-53" d="M 3425 4513 
L 3425 3897 
Q 3066 4069 2747 4153 
Q 2428 4238 2131 4238 
Q 1616 4238 1336 4038 
Q 1056 3838 1056 3469 
Q 1056 3159 1242 3001 
Q 1428 2844 1947 2747 
L 2328 2669 
Q 3034 2534 3370 2195 
Q 3706 1856 3706 1288 
Q 3706 609 3251 259 
Q 2797 -91 1919 -91 
Q 1588 -91 1214 -16 
Q 841 59 441 206 
L 441 856 
Q 825 641 1194 531 
Q 1563 422 1919 422 
Q 2459 422 2753 634 
Q 3047 847 3047 1241 
Q 3047 1584 2836 1778 
Q 2625 1972 2144 2069 
L 1759 2144 
Q 1053 2284 737 2584 
Q 422 2884 422 3419 
Q 422 4038 858 4394 
Q 1294 4750 2059 4750 
Q 2388 4750 2728 4690 
Q 3069 4631 3425 4513 
z
" transform="scale(0.015625)"/>
     </defs>
     <use xlink:href="#DejaVuSans-53"/>
     <use xlink:href="#DejaVuSans-20" transform="translate(63.476562 0)"/>
     <use xlink:href="#DejaVuSans-68" transform="translate(95.263672 0)"/>
     <use xlink:href="#DejaVuSans-69" transform="translate(158.642578 0)"/>
     <use xlink:href="#DejaVuSans-73" transform="translate(186.425781 0)"/>
     <use xlink:href="#DejaVuSans-74" transform="translate(238.525391 0)"/>
     <use xlink:href="#DejaVuSans-6f" transform="translate(277.734375 0)"/>
     <use xlink:href="#DejaVuSans-67" transform="translate(338.916016 0)"/>
     <use xlink:href="#DejaVuSans-72" transform="translate(402.392578 0)"/>
     <use xlink:href="#DejaVuSans-61" transform="translate(443.505859 0)"/>
     <use xlink:href="#DejaVuSans-6d" transform="translate(504.785156 0)"/>
    </g>
   </g>
  </g>
  <g id="axes_3">
   <g id="patch_12">
    <path d="M 49.75 548.12 
L 411.615 548.12 
L 411.615 402.24 
L 49.75 402.24 
z
" style="fill: #ffffff"/>
   </g>
   <g id="matplotlib.axis_5">
    <g id="xtick_17">
     <g id="line2d_31">
      <g>
       <use xlink:href="#mf2f5364db2" x="49.75" y="548.12" style="stroke: #000000; stroke-width: 0.8"/>
      </g>
     </g>
     <g id="text_31">
      <!-- 0 -->
      <g transform="translate(46.56875 562.718438) scale(0.1 -0.1)">
       <use xlink:href="#DejaVuSans-30"/>
      </g>
     </g>
    </g>
    <g id="xtick_18">
     <g id="line2d_32">
      <g>
       <use xlink:href="#mf2f5364db2" x="120.703922" y="548.12" style="stroke: #000000; stroke-width: 0.8"/>
      </g>
     </g>
     <g id="text_32">
      <!-- 50 -->
      <g transform="translate(114.341422 562.718438) scale(0.1 -0.1)">
       <use xlink:href="#DejaVuSans-35"/>
       <use xlink:href="#DejaVuSans-30" transform="translate(63.623047 0)"/>
      </g>
     </g>
    </g>
    <g id="xtick_19">
     <g id="line2d_33">
      <g>
       <use xlink:href="#mf2f5364db2" x="191.657843" y="548.12" style="stroke: #000000; stroke-width: 0.8"/>
      </g>
     </g>
     <g id="text_33">
      <!-- 100 -->
      <g transform="translate(182.114093 562.718438) scale(0.1 -0.1)">
       <use xlink:href="#DejaVuSans-31"/>
       <use xlink:href="#DejaVuSans-30" transform="translate(63.623047 0)"/>
       <use xlink:href="#DejaVuSans-30" transform="translate(127.246094 0)"/>
      </g>
     </g>
    </g>
    <g id="xtick_20">
     <g id="line2d_34">
      <g>
       <use xlink:href="#mf2f5364db2" x="262.611765" y="548.12" style="stroke: #000000; stroke-width: 0.8"/>
      </g>
     </g>
     <g id="text_34">
      <!-- 150 -->
      <g transform="translate(253.068015 562.718438) scale(0.1 -0.1)">
       <use xlink:href="#DejaVuSans-31"/>
       <use xlink:href="#DejaVuSans-35" transform="translate(63.623047 0)"/>
       <use xlink:href="#DejaVuSans-30" transform="translate(127.246094 0)"/>
      </g>
     </g>
    </g>
    <g id="xtick_21">
     <g id="line2d_35">
      <g>
       <use xlink:href="#mf2f5364db2" x="333.565686" y="548.12" style="stroke: #000000; stroke-width: 0.8"/>
      </g>
     </g>
     <g id="text_35">
      <!-- 200 -->
      <g transform="translate(324.021936 562.718438) scale(0.1 -0.1)">
       <use xlink:href="#DejaVuSans-32"/>
       <use xlink:href="#DejaVuSans-30" transform="translate(63.623047 0)"/>
       <use xlink:href="#DejaVuSans-30" transform="translate(127.246094 0)"/>
      </g>
     </g>
    </g>
    <g id="xtick_22">
     <g id="line2d_36">
      <g>
       <use xlink:href="#mf2f5364db2" x="404.519608" y="548.12" style="stroke: #000000; stroke-width: 0.8"/>
      </g>
     </g>
     <g id="text_36">
      <!-- 250 -->
      <g transform="translate(394.975858 562.718438) scale(0.1 -0.1)">
       <use xlink:href="#DejaVuSans-32"/>
       <use xlink:href="#DejaVuSans-35" transform="translate(63.623047 0)"/>
       <use xlink:href="#DejaVuSans-30" transform="translate(127.246094 0)"/>
      </g>
     </g>
    </g>
   </g>
   <g id="matplotlib.axis_6">
    <g id="ytick_13">
     <g id="line2d_37">
      <g>
       <use xlink:href="#m5d918f2e45" x="49.75" y="542.693616" style="stroke: #000000; stroke-width: 0.8"/>
      </g>
     </g>
     <g id="text_37">
      <!-- 0 -->
      <g transform="translate(36.3875 546.492834) scale(0.1 -0.1)">
       <use xlink:href="#DejaVuSans-30"/>
      </g>
     </g>
    </g>
    <g id="ytick_14">
     <g id="line2d_38">
      <g>
       <use xlink:href="#m5d918f2e45" x="49.75" y="518.603119" style="stroke: #000000; stroke-width: 0.8"/>
      </g>
     </g>
     <g id="text_38">
      <!-- 200 -->
      <g transform="translate(23.6625 522.402338) scale(0.1 -0.1)">
       <use xlink:href="#DejaVuSans-32"/>
       <use xlink:href="#DejaVuSans-30" transform="translate(63.623047 0)"/>
       <use xlink:href="#DejaVuSans-30" transform="translate(127.246094 0)"/>
      </g>
     </g>
    </g>
    <g id="ytick_15">
     <g id="line2d_39">
      <g>
       <use xlink:href="#m5d918f2e45" x="49.75" y="494.512623" style="stroke: #000000; stroke-width: 0.8"/>
      </g>
     </g>
     <g id="text_39">
      <!-- 400 -->
      <g transform="translate(23.6625 498.311842) scale(0.1 -0.1)">
       <use xlink:href="#DejaVuSans-34"/>
       <use xlink:href="#DejaVuSans-30" transform="translate(63.623047 0)"/>
       <use xlink:href="#DejaVuSans-30" transform="translate(127.246094 0)"/>
      </g>
     </g>
    </g>
    <g id="ytick_16">
     <g id="line2d_40">
      <g>
       <use xlink:href="#m5d918f2e45" x="49.75" y="470.422127" style="stroke: #000000; stroke-width: 0.8"/>
      </g>
     </g>
     <g id="text_40">
      <!-- 600 -->
      <g transform="translate(23.6625 474.221346) scale(0.1 -0.1)">
       <use xlink:href="#DejaVuSans-36"/>
       <use xlink:href="#DejaVuSans-30" transform="translate(63.623047 0)"/>
       <use xlink:href="#DejaVuSans-30" transform="translate(127.246094 0)"/>
      </g>
     </g>
    </g>
    <g id="ytick_17">
     <g id="line2d_41">
      <g>
       <use xlink:href="#m5d918f2e45" x="49.75" y="446.331631" style="stroke: #000000; stroke-width: 0.8"/>
      </g>
     </g>
     <g id="text_41">
      <!-- 800 -->
      <g transform="translate(23.6625 450.130849) scale(0.1 -0.1)">
       <use xlink:href="#DejaVuSans-38"/>
       <use xlink:href="#DejaVuSans-30" transform="translate(63.623047 0)"/>
       <use xlink:href="#DejaVuSans-30" transform="translate(127.246094 0)"/>
      </g>
     </g>
    </g>
    <g id="ytick_18">
     <g id="line2d_42">
      <g>
       <use xlink:href="#m5d918f2e45" x="49.75" y="422.241135" style="stroke: #000000; stroke-width: 0.8"/>
      </g>
     </g>
     <g id="text_42">
      <!-- 1000 -->
      <g transform="translate(17.3 426.040353) scale(0.1 -0.1)">
       <use xlink:href="#DejaVuSans-31"/>
       <use xlink:href="#DejaVuSans-30" transform="translate(63.623047 0)"/>
       <use xlink:href="#DejaVuSans-30" transform="translate(127.246094 0)"/>
       <use xlink:href="#DejaVuSans-30" transform="translate(190.869141 0)"/>
      </g>
     </g>
    </g>
   </g>
   <g id="line2d_43">
    <path d="M 49.75 541.489091 
L 51.169078 538.598231 
L 52.588157 534.623299 
L 54.007235 538.718684 
L 55.426314 529.684748 
L 56.845392 526.673436 
L 58.264471 530.527915 
L 59.683549 522.939409 
L 61.102627 526.071173 
L 62.521706 524.143934 
L 63.940784 524.746196 
L 65.359863 522.698504 
L 69.617098 521.012169 
L 71.036176 519.566739 
L 72.455255 518.964477 
L 73.874333 518.000857 
L 75.293412 516.19407 
L 76.71249 514.74864 
L 78.131569 514.507735 
L 79.550647 514.74864 
L 80.969725 511.375971 
L 82.388804 501.860225 
L 83.807882 495.476243 
L 85.226961 490.296786 
L 86.646039 490.176334 
L 88.065118 487.767284 
L 89.484196 483.069638 
L 90.903275 487.405927 
L 92.322353 482.106018 
L 93.741431 484.876425 
L 96.579588 487.646832 
L 97.998667 486.08095 
L 99.417745 490.658144 
L 100.836824 494.753528 
L 102.255902 490.537691 
L 103.67498 487.887737 
L 105.094059 482.587828 
L 106.513137 488.489999 
L 107.932216 477.890181 
L 109.351294 475.842489 
L 110.770373 479.215158 
L 112.189451 481.985565 
L 113.608529 487.646832 
L 115.027608 484.033257 
L 116.446686 485.59914 
L 117.865765 486.803664 
L 119.284843 487.646832 
L 120.703922 480.901493 
L 122.123 485.358235 
L 123.542078 482.467375 
L 124.961157 473.192534 
L 126.380235 476.685656 
L 127.799314 466.326743 
L 129.218392 468.253982 
L 132.056549 452.715612 
L 133.475627 446.692988 
L 134.894706 444.524844 
L 136.313784 437.05679 
L 137.732863 445.608916 
L 139.151941 448.620228 
L 140.57102 445.127106 
L 141.990098 459.340499 
L 143.409176 454.522399 
L 144.828255 459.460951 
L 146.247333 462.110906 
L 147.666412 455.606472 
L 149.08549 463.315431 
L 150.504569 467.772172 
L 151.923647 465.72448 
L 153.342725 462.351811 
L 154.761804 460.785928 
L 156.180882 456.208734 
L 157.599961 455.606472 
L 159.019039 465.001765 
L 160.438118 462.954073 
L 161.857196 461.388191 
L 163.276275 461.629096 
L 164.695353 469.217602 
L 166.114431 465.363123 
L 167.53351 466.085838 
L 168.952588 460.906381 
L 170.371667 461.629096 
L 171.790745 456.570092 
L 173.209824 459.460951 
L 174.628902 456.088282 
L 176.04798 462.472263 
L 177.467059 465.844933 
L 178.886137 457.292807 
L 180.305216 459.220046 
L 181.724294 463.676788 
L 183.143373 462.231358 
L 184.562451 459.220046 
L 185.981529 463.435883 
L 187.400608 469.699412 
L 188.819686 463.194978 
L 190.238765 463.435883 
L 191.657843 464.76086 
L 194.496 460.545024 
L 195.915078 462.110906 
L 197.334157 463.435883 
L 198.753235 467.531267 
L 200.172314 465.001765 
L 201.591392 463.194978 
L 203.010471 469.09715 
L 204.429549 466.6881 
L 205.848627 474.637964 
L 207.267706 471.385747 
L 208.686784 476.203846 
L 210.105863 475.481131 
L 211.524941 475.119774 
L 212.94402 474.878869 
L 214.363098 474.397059 
L 215.782176 472.469819 
L 217.201255 480.660588 
L 218.620333 474.397059 
L 220.039412 479.094706 
L 221.45849 476.806108 
L 222.877569 481.021945 
L 224.296647 475.481131 
L 225.715725 483.430995 
L 227.134804 479.817421 
L 228.553882 479.456063 
L 229.972961 482.467375 
L 231.392039 488.128642 
L 232.811118 488.008189 
L 234.230196 482.22647 
L 235.649275 485.719592 
L 237.068353 484.876425 
L 238.487431 492.946741 
L 239.90651 482.346923 
L 241.325588 477.408371 
L 242.744667 478.492443 
L 244.163745 481.503755 
L 245.582824 481.26285 
L 247.001902 483.310542 
L 248.42098 483.19009 
L 249.840059 481.624208 
L 251.259137 479.817421 
L 252.678216 480.058325 
L 254.097294 488.008189 
L 255.516373 482.828733 
L 256.935451 479.937873 
L 258.354529 479.817421 
L 259.773608 484.755972 
L 261.192686 477.649276 
L 262.611765 482.22647 
L 264.030843 482.106018 
L 266.869 484.63552 
L 268.288078 478.612896 
L 269.707157 476.926561 
L 271.126235 474.878869 
L 272.545314 474.878869 
L 273.964392 478.492443 
L 276.802549 471.506199 
L 278.221627 475.119774 
L 279.640706 477.167466 
L 281.059784 475.842489 
L 282.478863 476.203846 
L 283.897941 478.251538 
L 285.31702 480.058325 
L 286.736098 480.78104 
L 288.155176 476.565204 
L 289.574255 487.165022 
L 290.993333 491.260406 
L 292.412412 484.876425 
L 293.83149 486.321855 
L 295.250569 488.128642 
L 296.669647 487.405927 
L 298.088725 495.476243 
L 299.507804 492.705836 
L 300.926882 494.271718 
L 302.345961 491.139954 
L 303.765039 485.59914 
L 305.184118 490.899049 
L 306.603196 493.187646 
L 308.022275 486.562759 
L 309.441353 487.767284 
L 310.860431 487.165022 
L 312.27951 475.481131 
L 313.698588 479.456063 
L 315.117667 472.710724 
L 316.536745 480.660588 
L 317.955824 481.383303 
L 319.374902 480.058325 
L 320.79398 477.769728 
L 322.213059 475.240226 
L 323.632137 477.047013 
L 325.051216 483.430995 
L 326.470294 480.419683 
L 327.889373 474.517511 
L 329.308451 478.612896 
L 332.146608 472.831177 
L 333.565686 473.674344 
L 334.984765 459.340499 
L 336.403843 461.267738 
L 337.822922 477.890181 
L 339.242 462.231358 
L 340.661078 461.508643 
L 342.080157 463.435883 
L 343.499235 466.326743 
L 344.918314 470.663032 
L 346.337392 460.906381 
L 347.756471 458.376879 
L 349.175549 448.017965 
L 350.594627 451.872445 
L 352.013706 462.472263 
L 353.432784 444.524844 
L 354.851863 434.16593 
L 356.270941 443.079414 
L 357.69002 453.07697 
L 359.109098 465.363123 
L 360.528176 440.188554 
L 361.947255 426.938781 
L 363.366333 437.177242 
L 364.785412 431.877333 
L 366.20449 458.015521 
L 367.623569 448.861133 
L 369.042647 462.833621 
L 370.461725 466.447195 
L 371.880804 473.312987 
L 373.299882 469.940317 
L 376.138039 420.795705 
L 377.557118 408.870909 
L 378.976196 434.888645 
L 380.395275 434.045478 
L 381.814353 419.832085 
L 383.233431 439.465839 
L 384.65251 461.267738 
L 386.071588 477.167466 
L 387.490667 487.526379 
L 388.909745 481.503755 
L 390.328824 474.276606 
L 393.16698 500.17389 
L 394.586059 513.905473 
L 396.005137 515.471355 
L 397.424216 524.384839 
L 400.262373 532.21425 
L 401.681451 533.057417 
L 403.100529 535.707372 
L 404.519608 535.948277 
L 405.938686 537.755064 
L 407.357765 538.357326 
L 408.776843 536.911897 
L 410.195922 537.875516 
L 411.615 523.662124 
L 411.615 523.662124 
" clip-path="url(#pcdc52fc256)" style="fill: none; stroke: #0000ff; stroke-width: 1.5; stroke-linecap: square"/>
   </g>
   <g id="patch_13">
    <path d="M 49.75 548.12 
L 49.75 402.24 
" style="fill: none; stroke: #000000; stroke-width: 0.8; stroke-linejoin: miter; stroke-linecap: square"/>
   </g>
   <g id="patch_14">
    <path d="M 411.615 548.12 
L 411.615 402.24 
" style="fill: none; stroke: #000000; stroke-width: 0.8; stroke-linejoin: miter; stroke-linecap: square"/>
   </g>
   <g id="patch_15">
    <path d="M 49.75 548.12 
L 411.615 548.12 
" style="fill: none; stroke: #000000; stroke-width: 0.8; stroke-linejoin: miter; stroke-linecap: square"/>
   </g>
   <g id="patch_16">
    <path d="M 49.75 402.24 
L 411.615 402.24 
" style="fill: none; stroke: #000000; stroke-width: 0.8; stroke-linejoin: miter; stroke-linecap: square"/>
   </g>
   <g id="text_43">
    <!-- V histogram -->
    <g transform="translate(194.255937 396.24) scale(0.12 -0.12)">
     <defs>
      <path id="DejaVuSans-56" d="M 1831 0 
L 50 4666 
L 709 4666 
L 2188 738 
L 3669 4666 
L 4325 4666 
L 2547 0 
L 1831 0 
z
" transform="scale(0.015625)"/>
     </defs>
     <use xlink:href="#DejaVuSans-56"/>
     <use xlink:href="#DejaVuSans-20" transform="translate(68.408203 0)"/>
     <use xlink:href="#DejaVuSans-68" transform="translate(100.195312 0)"/>
     <use xlink:href="#DejaVuSans-69" transform="translate(163.574219 0)"/>
     <use xlink:href="#DejaVuSans-73" transform="translate(191.357422 0)"/>
     <use xlink:href="#DejaVuSans-74" transform="translate(243.457031 0)"/>
     <use xlink:href="#DejaVuSans-6f" transform="translate(282.666016 0)"/>
     <use xlink:href="#DejaVuSans-67" transform="translate(343.847656 0)"/>
     <use xlink:href="#DejaVuSans-72" transform="translate(407.324219 0)"/>
     <use xlink:href="#DejaVuSans-61" transform="translate(448.4375 0)"/>
     <use xlink:href="#DejaVuSans-6d" transform="translate(509.716797 0)"/>
    </g>
   </g>
  </g>
 </g>
 <defs>
  <clipPath id="peceec33919">
   <rect x="49.75" y="25.44" width="361.865" height="145.88"/>
  </clipPath>
  <clipPath id="p50148f757f">
   <rect x="49.75" y="213.84" width="361.865" height="145.88"/>
  </clipPath>
  <clipPath id="pcdc52fc256">
   <rect x="49.75" y="402.24" width="361.865" height="145.88"/>
  </clipPath>
 </defs>
</svg>
