<?xml version="1.0" encoding="utf-8" standalone="no"?>
<!DOCTYPE svg PUBLIC "-//W3C//DTD SVG 1.1//EN"
  "http://www.w3.org/Graphics/SVG/1.1/DTD/svg11.dtd">
<svg xmlns:xlink="http://www.w3.org/1999/xlink" width="432pt" height="576pt" viewBox="0 0 432 576" xmlns="http://www.w3.org/2000/svg" version="1.1">
 <metadata>
  <rdf:RDF xmlns:dc="http://purl.org/dc/elements/1.1/" xmlns:cc="http://creativecommons.org/ns#" xmlns:rdf="http://www.w3.org/1999/02/22-rdf-syntax-ns#">
   <cc:Work>
    <dc:type rdf:resource="http://purl.org/dc/dcmitype/StillImage"/>
    <dc:date>2026-01-22T15:02:15.962106</dc:date>
    <dc:format>image/svg+xml</dc:format>
    <dc:creator>
     <cc:Agent>
      <dc:title>Matplotlib v3.10.8, https://matplotlib.org/</dc:title>
     </cc:Agent>
    </dc:creator>
   </cc:Work>
  </rdf:RDF>
 </metadata>
 <defs>
  <style type="text/css">*{stroke-linejoin: round; stroke-linecap: butt}</style>
 </defs>
 <g id="figure_1">
  <g id="patch_1">
   <path d="M 0 576 
L 432 576 
L 432 0 
L 0 0 
z
" style="fill: #ffffff"/>
  </g>
  <g id="axes_1">
   <g id="patch_2">
    <path d="M 43.36 171.32 
L 411.615 171.32 
L 411.615 25.44 
L 43.36 25.44 
z
" style="fill: #ffffff"/>
   </g>
   <g id="matplotlib.axis_1">
    <g id="xtick_1">
     <g id="line2d_1">
      <defs>
       <path id="m2671d96e4e" d="M 0 0 
L 0 3.5 
" style="stroke: #000000; stroke-width: 0.8"/>
      </defs>
      <g>
       <use xlink:href="#m2671d96e4e" x="43.36" y="171.32" style="stroke: #000000; stroke-width: 0.8"/>
      </g>
     </g>
     <g id="text_1">
      <!-- 0 -->
      <g transform="translate(40.17875 185.918438) scale(0.1 -0.1)">
       <defs>
        <path id="DejaVuSans-30" d="M 2034 4250 
Q 1547 4250 1301 3770 
Q 1056 3291 1056 2328 
Q 1056 1369 1301 889 
Q 1547 409 2034 409 
Q 2525 409 2770 889 
Q 3016 1369 3016 2328 
Q 3016 3291 2770 3770 
Q 2525 4250 2034 4250 
z
M 2034 4750 
Q 2819 4750 3233 4129 
Q 3647 3509 3647 2328 
Q 3647 1150 3233 529 
Q 2819 -91 2034 -91 
Q 1250 -91 836 529 
Q 422 1150 422 2328 
Q 422 3509 836 4129 
Q 1250 4750 2034 4750 
z
" transform="scale(0.015625)"/>
       </defs>
       <use xlink:href="#DejaVuSans-30"/>
      </g>
     </g>
    </g>
    <g id="xtick_2">
     <g id="line2d_2">
      <g>
       <use xlink:href="#m2671d96e4e" x="84.277222" y="171.32" style="stroke: #000000; stroke-width: 0.8"/>
      </g>
     </g>
     <g id="text_2">
      <!-- 20 -->
      <g transform="translate(77.914722 185.918438) scale(0.1 -0.1)">
       <defs>
        <path id="DejaVuSans-32" d="M 1228 531 
L 3431 531 
L 3431 0 
L 469 0 
L 469 531 
Q 828 903 1448 1529 
Q 2069 2156 2228 2338 
Q 2531 2678 2651 2914 
Q 2772 3150 2772 3378 
Q 2772 3750 2511 3984 
Q 2250 4219 1831 4219 
Q 1534 4219 1204 4116 
Q 875 4013 500 3803 
L 500 4441 
Q 881 4594 1212 4672 
Q 1544 4750 1819 4750 
Q 2544 4750 2975 4387 
Q 3406 4025 3406 3419 
Q 3406 3131 3298 2873 
Q 3191 2616 2906 2266 
Q 2828 2175 2409 1742 
Q 1991 1309 1228 531 
z
" transform="scale(0.015625)"/>
       </defs>
       <use xlink:href="#DejaVuSans-32"/>
       <use xlink:href="#DejaVuSans-30" transform="translate(63.623047 0)"/>
      </g>
     </g>
    </g>
    <g id="xtick_3">
     <g id="line2d_3">
      <g>
       <use xlink:href="#m2671d96e4e" x="125.194444" y="171.32" style="stroke: #000000; stroke-width: 0.8"/>
      </g>
     </g>
     <g id="text_3">
      <!-- 40 -->
      <g transform="translate(118.831944 185.918438) scale(0.1 -0.1)">
       <defs>
        <path id="DejaVuSans-34" d="M 2419 4116 
L 825 1625 
L 2419 1625 
L 2419 4116 
z
M 2253 4666 
L 3047 4666 
L 3047 1625 
L 3713 1625 
L 3713 1100 
L 3047 1100 
L 3047 0 
L 2419 0 
L 2419 1100 
L 313 1100 
L 313 1709 
L 2253 4666 
z
" transform="scale(0.015625)"/>
       </defs>
       <use xlink:href="#DejaVuSans-34"/>
       <use xlink:href="#DejaVuSans-30" transform="translate(63.623047 0)"/>
      </g>
     </g>
    </g>
    <g id="xtick_4">
     <g id="line2d_4">
      <g>
       <use xlink:href="#m2671d96e4e" x="166.111667" y="171.32" style="stroke: #000000; stroke-width: 0.8"/>
      </g>
     </g>
     <g id="text_4">
      <!-- 60 -->
      <g transform="translate(159.749167 185.918438) scale(0.1 -0.1)">
       <defs>
        <path id="DejaVuSans-36" d="M 2113 2584 
Q 1688 2584 1439 2293 
Q 1191 2003 1191 1497 
Q 1191 994 1439 701 
Q 1688 409 2113 409 
Q 2538 409 2786 701 
Q 3034 994 3034 1497 
Q 3034 2003 2786 2293 
Q 2538 2584 2113 2584 
z
M 3366 4563 
L 3366 3988 
Q 3128 4100 2886 4159 
Q 2644 4219 2406 4219 
Q 1781 4219 1451 3797 
Q 1122 3375 1075 2522 
Q 1259 2794 1537 2939 
Q 1816 3084 2150 3084 
Q 2853 3084 3261 2657 
Q 3669 2231 3669 1497 
Q 3669 778 3244 343 
Q 2819 -91 2113 -91 
Q 1303 -91 875 529 
Q 447 1150 447 2328 
Q 447 3434 972 4092 
Q 1497 4750 2381 4750 
Q 2619 4750 2861 4703 
Q 3103 4656 3366 4563 
z
" transform="scale(0.015625)"/>
       </defs>
       <use xlink:href="#DejaVuSans-36"/>
       <use xlink:href="#DejaVuSans-30" transform="translate(63.623047 0)"/>
      </g>
     </g>
    </g>
    <g id="xtick_5">
     <g id="line2d_5">
      <g>
       <use xlink:href="#m2671d96e4e" x="207.028889" y="171.32" style="stroke: #000000; stroke-width: 0.8"/>
      </g>
     </g>
     <g id="text_5">
      <!-- 80 -->
      <g transform="translate(200.666389 185.918438) scale(0.1 -0.1)">
       <defs>
        <path id="DejaVuSans-38" d="M 2034 2216 
Q 1584 2216 1326 1975 
Q 1069 1734 1069 1313 
Q 1069 891 1326 650 
Q 1584 409 2034 409 
Q 2484 409 2743 651 
Q 3003 894 3003 1313 
Q 3003 1734 2745 1975 
Q 2488 2216 2034 2216 
z
M 1403 2484 
Q 997 2584 770 2862 
Q 544 3141 544 3541 
Q 544 4100 942 4425 
Q 1341 4750 2034 4750 
Q 2731 4750 3128 4425 
Q 3525 4100 3525 3541 
Q 3525 3141 3298 2862 
Q 3072 2584 2669 2484 
Q 3125 2378 3379 2068 
Q 3634 1759 3634 1313 
Q 3634 634 3220 271 
Q 2806 -91 2034 -91 
Q 1263 -91 848 271 
Q 434 634 434 1313 
Q 434 1759 690 2068 
Q 947 2378 1403 2484 
z
M 1172 3481 
Q 1172 3119 1398 2916 
Q 1625 2713 2034 2713 
Q 2441 2713 2670 2916 
Q 2900 3119 2900 3481 
Q 2900 3844 2670 4047 
Q 2441 4250 2034 4250 
Q 1625 4250 1398 4047 
Q 1172 3844 1172 3481 
z
" transform="scale(0.015625)"/>
       </defs>
       <use xlink:href="#DejaVuSans-38"/>
       <use xlink:href="#DejaVuSans-30" transform="translate(63.623047 0)"/>
      </g>
     </g>
    </g>
    <g id="xtick_6">
     <g id="line2d_6">
      <g>
       <use xlink:href="#m2671d96e4e" x="247.946111" y="171.32" style="stroke: #000000; stroke-width: 0.8"/>
      </g>
     </g>
     <g id="text_6">
      <!-- 100 -->
      <g transform="translate(238.402361 185.918438) scale(0.1 -0.1)">
       <defs>
        <path id="DejaVuSans-31" d="M 794 531 
L 1825 531 
L 1825 4091 
L 703 3866 
L 703 4441 
L 1819 4666 
L 2450 4666 
L 2450 531 
L 3481 531 
L 3481 0 
L 794 0 
L 794 531 
z
" transform="scale(0.015625)"/>
       </defs>
       <use xlink:href="#DejaVuSans-31"/>
       <use xlink:href="#DejaVuSans-30" transform="translate(63.623047 0)"/>
       <use xlink:href="#DejaVuSans-30" transform="translate(127.246094 0)"/>
      </g>
     </g>
    </g>
    <g id="xtick_7">
     <g id="line2d_7">
      <g>
       <use xlink:href="#m2671d96e4e" x="288.863333" y="171.32" style="stroke: #000000; stroke-width: 0.8"/>
      </g>
     </g>
     <g id="text_7">
      <!-- 120 -->
      <g transform="translate(279.319583 185.918438) scale(0.1 -0.1)">
       <use xlink:href="#DejaVuSans-31"/>
       <use xlink:href="#DejaVuSans-32" transform="translate(63.623047 0)"/>
       <use xlink:href="#DejaVuSans-30" transform="translate(127.246094 0)"/>
      </g>
     </g>
    </g>
    <g id="xtick_8">
     <g id="line2d_8">
      <g>
       <use xlink:href="#m2671d96e4e" x="329.780556" y="171.32" style="stroke: #000000; stroke-width: 0.8"/>
      </g>
     </g>
     <g id="text_8">
      <!-- 140 -->
      <g transform="translate(320.236806 185.918438) scale(0.1 -0.1)">
       <use xlink:href="#DejaVuSans-31"/>
       <use xlink:href="#DejaVuSans-34" transform="translate(63.623047 0)"/>
       <use xlink:href="#DejaVuSans-30" transform="translate(127.246094 0)"/>
      </g>
     </g>
    </g>
    <g id="xtick_9">
     <g id="line2d_9">
      <g>
       <use xlink:href="#m2671d96e4e" x="370.697778" y="171.32" style="stroke: #000000; stroke-width: 0.8"/>
      </g>
     </g>
     <g id="text_9">
      <!-- 160 -->
      <g transform="translate(361.154028 185.918438) scale(0.1 -0.1)">
       <use xlink:href="#DejaVuSans-31"/>
       <use xlink:href="#DejaVuSans-36" transform="translate(63.623047 0)"/>
       <use xlink:href="#DejaVuSans-30" transform="translate(127.246094 0)"/>
      </g>
     </g>
    </g>
    <g id="xtick_10">
     <g id="line2d_10">
      <g>
       <use xlink:href="#m2671d96e4e" x="411.615" y="171.32" style="stroke: #000000; stroke-width: 0.8"/>
      </g>
     </g>
     <g id="text_10">
      <!-- 180 -->
      <g transform="translate(402.07125 185.918438) scale(0.1 -0.1)">
       <use xlink:href="#DejaVuSans-31"/>
       <use xlink:href="#DejaVuSans-38" transform="translate(63.623047 0)"/>
       <use xlink:href="#DejaVuSans-30" transform="translate(127.246094 0)"/>
      </g>
     </g>
    </g>
   </g>
   <g id="matplotlib.axis_2">
    <g id="ytick_1">
     <g id="line2d_11">
      <defs>
       <path id="m1faf1f7bcf" d="M 0 0 
L -3.5 0 
" style="stroke: #000000; stroke-width: 0.8"/>
      </defs>
      <g>
       <use xlink:href="#m1faf1f7bcf" x="43.36" y="164.689091" style="stroke: #000000; stroke-width: 0.8"/>
      </g>
     </g>
     <g id="text_11">
      <!-- 0 -->
      <g transform="translate(29.9975 168.48831) scale(0.1 -0.1)">
       <use xlink:href="#DejaVuSans-30"/>
      </g>
     </g>
    </g>
    <g id="ytick_2">
     <g id="line2d_12">
      <g>
       <use xlink:href="#m1faf1f7bcf" x="43.36" y="130.135109" style="stroke: #000000; stroke-width: 0.8"/>
      </g>
     </g>
     <g id="text_12">
      <!-- 500 -->
      <g transform="translate(17.2725 133.934328) scale(0.1 -0.1)">
       <defs>
        <path id="DejaVuSans-35" d="M 691 4666 
L 3169 4666 
L 3169 4134 
L 1269 4134 
L 1269 2991 
Q 1406 3038 1543 3061 
Q 1681 3084 1819 3084 
Q 2600 3084 3056 2656 
Q 3513 2228 3513 1497 
Q 3513 744 3044 326 
Q 2575 -91 1722 -91 
Q 1428 -91 1123 -41 
Q 819 9 494 109 
L 494 744 
Q 775 591 1075 516 
Q 1375 441 1709 441 
Q 2250 441 2565 725 
Q 2881 1009 2881 1497 
Q 2881 1984 2565 2268 
Q 2250 2553 1709 2553 
Q 1456 2553 1204 2497 
Q 953 2441 691 2322 
L 691 4666 
z
" transform="scale(0.015625)"/>
       </defs>
       <use xlink:href="#DejaVuSans-35"/>
       <use xlink:href="#DejaVuSans-30" transform="translate(63.623047 0)"/>
       <use xlink:href="#DejaVuSans-30" transform="translate(127.246094 0)"/>
      </g>
     </g>
    </g>
    <g id="ytick_3">
     <g id="line2d_13">
      <g>
       <use xlink:href="#m1faf1f7bcf" x="43.36" y="95.581127" style="stroke: #000000; stroke-width: 0.8"/>
      </g>
     </g>
     <g id="text_13">
      <!-- 1000 -->
      <g transform="translate(10.91 99.380346) scale(0.1 -0.1)">
       <use xlink:href="#DejaVuSans-31"/>
       <use xlink:href="#DejaVuSans-30" transform="translate(63.623047 0)"/>
       <use xlink:href="#DejaVuSans-30" transform="translate(127.246094 0)"/>
       <use xlink:href="#DejaVuSans-30" transform="translate(190.869141 0)"/>
      </g>
     </g>
    </g>
    <g id="ytick_4">
     <g id="line2d_14">
      <g>
       <use xlink:href="#m1faf1f7bcf" x="43.36" y="61.027146" style="stroke: #000000; stroke-width: 0.8"/>
      </g>
     </g>
     <g id="text_14">
      <!-- 1500 -->
      <g transform="translate(10.91 64.826365) scale(0.1 -0.1)">
       <use xlink:href="#DejaVuSans-31"/>
       <use xlink:href="#DejaVuSans-35" transform="translate(63.623047 0)"/>
       <use xlink:href="#DejaVuSans-30" transform="translate(127.246094 0)"/>
       <use xlink:href="#DejaVuSans-30" transform="translate(190.869141 0)"/>
      </g>
     </g>
    </g>
    <g id="ytick_5">
     <g id="line2d_15">
      <g>
       <use xlink:href="#m1faf1f7bcf" x="43.36" y="26.473164" style="stroke: #000000; stroke-width: 0.8"/>
      </g>
     </g>
     <g id="text_15">
      <!-- 2000 -->
      <g transform="translate(10.91 30.272383) scale(0.1 -0.1)">
       <use xlink:href="#DejaVuSans-32"/>
       <use xlink:href="#DejaVuSans-30" transform="translate(63.623047 0)"/>
       <use xlink:href="#DejaVuSans-30" transform="translate(127.246094 0)"/>
       <use xlink:href="#DejaVuSans-30" transform="translate(190.869141 0)"/>
      </g>
     </g>
    </g>
   </g>
   <g id="line2d_16">
    <path d="M 43.36 141.123275 
L 45.405861 160.197073 
L 47.451722 156.396135 
L 49.497583 146.997452 
L 51.543444 153.562709 
L 53.589306 88.601223 
L 55.635167 133.037644 
L 57.681028 143.265622 
L 59.726889 77.613057 
L 61.77275 80.930239 
L 63.818611 61.718225 
L 65.864472 32.070909 
L 67.910333 81.897751 
L 69.956194 45.201422 
L 72.002056 110.992203 
L 74.047917 83.418126 
L 76.093778 120.183562 
L 78.139639 145.822617 
L 80.1855 158.814914 
L 82.231361 159.091346 
L 84.277222 159.505994 
L 86.323083 161.648341 
L 88.368944 162.132096 
L 90.414806 163.514256 
L 92.460667 162.408528 
L 94.506528 163.099608 
L 96.552389 162.892284 
L 98.59825 164.412659 
L 100.644111 164.136227 
L 102.689972 164.136227 
L 104.735833 159.989749 
L 106.781694 164.412659 
L 108.827556 163.998011 
L 112.919278 163.859795 
L 114.965139 163.099608 
L 117.011 164.067119 
L 119.056861 164.343551 
L 121.102722 164.205335 
L 123.148583 164.481767 
L 125.194444 164.343551 
L 127.240306 164.550875 
L 129.286167 163.445148 
L 131.332028 164.274443 
L 133.377889 164.689091 
L 135.42375 164.481767 
L 139.515472 164.689091 
L 141.561333 164.136227 
L 143.607194 164.550875 
L 145.653056 163.721579 
L 147.698917 163.998011 
L 149.744778 164.136227 
L 151.790639 164.689091 
L 153.8365 164.343551 
L 157.928222 164.067119 
L 162.019944 164.689091 
L 164.065806 164.689091 
L 166.111667 164.067119 
L 168.157528 164.689091 
L 170.203389 164.619983 
L 172.24925 164.205335 
L 174.295111 164.689091 
L 176.340972 164.619983 
L 178.386833 162.892284 
L 180.432694 164.619983 
L 182.478556 164.136227 
L 184.524417 164.481767 
L 186.570278 163.998011 
L 188.616139 164.412659 
L 190.662 164.619983 
L 192.707861 163.514256 
L 194.753722 162.615852 
L 196.799583 162.477636 
L 198.845444 164.550875 
L 200.891306 164.550875 
L 202.937167 164.689091 
L 204.983028 162.615852 
L 207.028889 160.127965 
L 209.07475 164.619983 
L 211.120611 164.689091 
L 213.166472 163.168716 
L 215.212333 162.961392 
L 217.258194 163.168716 
L 219.304056 164.689091 
L 221.349917 159.782426 
L 223.395778 164.205335 
L 225.441639 164.689091 
L 227.4875 158.192942 
L 229.533361 164.481767 
L 231.579222 163.928903 
L 233.625083 158.745806 
L 235.670944 164.689091 
L 237.716806 150.729282 
L 239.762667 156.257919 
L 241.808528 164.481767 
L 243.854389 153.355385 
L 245.90025 163.859795 
L 247.946111 164.136227 
L 249.991972 152.664305 
L 252.037833 164.067119 
L 254.083694 151.48947 
L 256.129556 157.018107 
L 258.175417 161.371909 
L 260.221278 154.668436 
L 262.267139 163.099608 
L 264.313 162.823176 
L 266.358861 158.123834 
L 268.404722 159.713318 
L 270.450583 151.83501 
L 272.496444 161.579233 
L 274.542306 159.367778 
L 276.588167 157.709187 
L 278.634028 156.465243 
L 280.679889 161.441017 
L 282.72575 164.689091 
L 284.771611 164.481767 
L 286.817472 164.481767 
L 288.863333 149.899987 
L 290.909194 164.689091 
L 292.955056 163.583363 
L 295.000917 164.412659 
L 297.046778 161.441017 
L 299.092639 158.123834 
L 301.1385 159.505994 
L 303.184361 164.619983 
L 305.230222 163.237824 
L 307.276083 164.274443 
L 309.321944 163.306932 
L 311.367806 164.689091 
L 313.413667 160.680829 
L 315.459528 161.648341 
L 317.505389 164.689091 
L 319.55125 164.067119 
L 321.597111 164.619983 
L 323.642972 164.619983 
L 325.688833 163.790687 
L 327.734694 164.689091 
L 329.780556 159.64421 
L 331.826417 163.652471 
L 333.872278 164.343551 
L 335.918139 164.550875 
L 337.964 164.481767 
L 340.009861 162.823176 
L 344.101583 164.274443 
L 346.147444 164.550875 
L 348.193306 164.689091 
L 350.239167 163.168716 
L 352.285028 164.689091 
L 354.330889 164.689091 
L 356.37675 164.205335 
L 358.422611 164.689091 
L 360.468472 164.619983 
L 362.514333 160.749937 
L 364.560194 164.412659 
L 366.606056 164.412659 
L 368.651917 164.550875 
L 370.697778 162.68496 
L 372.743639 164.481767 
L 374.7895 164.550875 
L 376.835361 163.790687 
L 378.881222 162.823176 
L 380.927083 160.819045 
L 382.972944 164.343551 
L 387.064667 164.689091 
L 389.110528 162.823176 
L 391.156389 158.054726 
L 393.20225 164.205335 
L 395.248111 164.619983 
L 397.293972 160.749937 
L 399.339833 162.408528 
L 401.385694 162.961392 
L 403.431556 164.274443 
L 405.477417 157.225431 
L 407.523278 162.546744 
L 409.569139 163.306932 
L 409.569139 163.306932 
" clip-path="url(#p5626bd3dd5)" style="fill: none; stroke: #ff0000; stroke-width: 1.5; stroke-linecap: square"/>
   </g>
   <g id="patch_3">
    <path d="M 43.36 171.32 
L 43.36 25.44 
" style="fill: none; stroke: #000000; stroke-width: 0.8; stroke-linejoin: miter; stroke-linecap: square"/>
   </g>
   <g id="patch_4">
    <path d="M 411.615 171.32 
L 411.615 25.44 
" style="fill: none; stroke: #000000; stroke-width: 0.8; stroke-linejoin: miter; stroke-linecap: square"/>
   </g>
   <g id="patch_5">
    <path d="M 43.36 171.32 
L 411.615 171.32 
" style="fill: none; stroke: #000000; stroke-width: 0.8; stroke-linejoin: miter; stroke-linecap: square"/>
   </g>
   <g id="patch_6">
    <path d="M 43.36 25.44 
L 411.615 25.44 
" style="fill: none; stroke: #000000; stroke-width: 0.8; stroke-linejoin: miter; stroke-linecap: square"/>
   </g>
   <g id="text_16">
    <!-- H histogram (bbox) -->
    <g transform="translate(169.41125 19.44) scale(0.12 -0.12)">
     <defs>
      <path id="DejaVuSans-48" d="M 628 4666 
L 1259 4666 
L 1259 2753 
L 3553 2753 
L 3553 4666 
L 4184 4666 
L 4184 0 
L 3553 0 
L 3553 2222 
L 1259 2222 
L 1259 0 
L 628 0 
L 628 4666 
z
" transform="scale(0.015625)"/>
      <path id="DejaVuSans-20" transform="scale(0.015625)"/>
      <path id="DejaVuSans-68" d="M 3513 2113 
L 3513 0 
L 2938 0 
L 2938 2094 
Q 2938 2591 2744 2837 
Q 2550 3084 2163 3084 
Q 1697 3084 1428 2787 
Q 1159 2491 1159 1978 
L 1159 0 
L 581 0 
L 581 4863 
L 1159 4863 
L 1159 2956 
Q 1366 3272 1645 3428 
Q 1925 3584 2291 3584 
Q 2894 3584 3203 3211 
Q 3513 2838 3513 2113 
z
" transform="scale(0.015625)"/>
      <path id="DejaVuSans-69" d="M 603 3500 
L 1178 3500 
L 1178 0 
L 603 0 
L 603 3500 
z
M 603 4863 
L 1178 4863 
L 1178 4134 
L 603 4134 
L 603 4863 
z
" transform="scale(0.015625)"/>
      <path id="DejaVuSans-73" d="M 2834 3397 
L 2834 2853 
Q 2591 2978 2328 3040 
Q 2066 3103 1784 3103 
Q 1356 3103 1142 2972 
Q 928 2841 928 2578 
Q 928 2378 1081 2264 
Q 1234 2150 1697 2047 
L 1894 2003 
Q 2506 1872 2764 1633 
Q 3022 1394 3022 966 
Q 3022 478 2636 193 
Q 2250 -91 1575 -91 
Q 1294 -91 989 -36 
Q 684 19 347 128 
L 347 722 
Q 666 556 975 473 
Q 1284 391 1588 391 
Q 1994 391 2212 530 
Q 2431 669 2431 922 
Q 2431 1156 2273 1281 
Q 2116 1406 1581 1522 
L 1381 1569 
Q 847 1681 609 1914 
Q 372 2147 372 2553 
Q 372 3047 722 3315 
Q 1072 3584 1716 3584 
Q 2034 3584 2315 3537 
Q 2597 3491 2834 3397 
z
" transform="scale(0.015625)"/>
      <path id="DejaVuSans-74" d="M 1172 4494 
L 1172 3500 
L 2356 3500 
L 2356 3053 
L 1172 3053 
L 1172 1153 
Q 1172 725 1289 603 
Q 1406 481 1766 481 
L 2356 481 
L 2356 0 
L 1766 0 
Q 1100 0 847 248 
Q 594 497 594 1153 
L 594 3053 
L 172 3053 
L 172 3500 
L 594 3500 
L 594 4494 
L 1172 4494 
z
" transform="scale(0.015625)"/>
      <path id="DejaVuSans-6f" d="M 1959 3097 
Q 1497 3097 1228 2736 
Q 959 2375 959 1747 
Q 959 1119 1226 758 
Q 1494 397 1959 397 
Q 2419 397 2687 759 
Q 2956 1122 2956 1747 
Q 2956 2369 2687 2733 
Q 2419 3097 1959 3097 
z
M 1959 3584 
Q 2709 3584 3137 3096 
Q 3566 2609 3566 1747 
Q 3566 888 3137 398 
Q 2709 -91 1959 -91 
Q 1206 -91 779 398 
Q 353 888 353 1747 
Q 353 2609 779 3096 
Q 1206 3584 1959 3584 
z
" transform="scale(0.015625)"/>
      <path id="DejaVuSans-67" d="M 2906 1791 
Q 2906 2416 2648 2759 
Q 2391 3103 1925 3103 
Q 1463 3103 1205 2759 
Q 947 2416 947 1791 
Q 947 1169 1205 825 
Q 1463 481 1925 481 
Q 2391 481 2648 825 
Q 2906 1169 2906 1791 
z
M 3481 434 
Q 3481 -459 3084 -895 
Q 2688 -1331 1869 -1331 
Q 1566 -1331 1297 -1286 
Q 1028 -1241 775 -1147 
L 775 -588 
Q 1028 -725 1275 -790 
Q 1522 -856 1778 -856 
Q 2344 -856 2625 -561 
Q 2906 -266 2906 331 
L 2906 616 
Q 2728 306 2450 153 
Q 2172 0 1784 0 
Q 1141 0 747 490 
Q 353 981 353 1791 
Q 353 2603 747 3093 
Q 1141 3584 1784 3584 
Q 2172 3584 2450 3431 
Q 2728 3278 2906 2969 
L 2906 3500 
L 3481 3500 
L 3481 434 
z
" transform="scale(0.015625)"/>
      <path id="DejaVuSans-72" d="M 2631 2963 
Q 2534 3019 2420 3045 
Q 2306 3072 2169 3072 
Q 1681 3072 1420 2755 
Q 1159 2438 1159 1844 
L 1159 0 
L 581 0 
L 581 3500 
L 1159 3500 
L 1159 2956 
Q 1341 3275 1631 3429 
Q 1922 3584 2338 3584 
Q 2397 3584 2469 3576 
Q 2541 3569 2628 3553 
L 2631 2963 
z
" transform="scale(0.015625)"/>
      <path id="DejaVuSans-61" d="M 2194 1759 
Q 1497 1759 1228 1600 
Q 959 1441 959 1056 
Q 959 750 1161 570 
Q 1363 391 1709 391 
Q 2188 391 2477 730 
Q 2766 1069 2766 1631 
L 2766 1759 
L 2194 1759 
z
M 3341 1997 
L 3341 0 
L 2766 0 
L 2766 531 
Q 2569 213 2275 61 
Q 1981 -91 1556 -91 
Q 1019 -91 701 211 
Q 384 513 384 1019 
Q 384 1609 779 1909 
Q 1175 2209 1959 2209 
L 2766 2209 
L 2766 2266 
Q 2766 2663 2505 2880 
Q 2244 3097 1772 3097 
Q 1472 3097 1187 3025 
Q 903 2953 641 2809 
L 641 3341 
Q 956 3463 1253 3523 
Q 1550 3584 1831 3584 
Q 2591 3584 2966 3190 
Q 3341 2797 3341 1997 
z
" transform="scale(0.015625)"/>
      <path id="DejaVuSans-6d" d="M 3328 2828 
Q 3544 3216 3844 3400 
Q 4144 3584 4550 3584 
Q 5097 3584 5394 3201 
Q 5691 2819 5691 2113 
L 5691 0 
L 5113 0 
L 5113 2094 
Q 5113 2597 4934 2840 
Q 4756 3084 4391 3084 
Q 3944 3084 3684 2787 
Q 3425 2491 3425 1978 
L 3425 0 
L 2847 0 
L 2847 2094 
Q 2847 2600 2669 2842 
Q 2491 3084 2119 3084 
Q 1678 3084 1418 2786 
Q 1159 2488 1159 1978 
L 1159 0 
L 581 0 
L 581 3500 
L 1159 3500 
L 1159 2956 
Q 1356 3278 1631 3431 
Q 1906 3584 2284 3584 
Q 2666 3584 2933 3390 
Q 3200 3197 3328 2828 
z
" transform="scale(0.015625)"/>
      <path id="DejaVuSans-28" d="M 1984 4856 
Q 1566 4138 1362 3434 
Q 1159 2731 1159 2009 
Q 1159 1288 1364 580 
Q 1569 -128 1984 -844 
L 1484 -844 
Q 1016 -109 783 600 
Q 550 1309 550 2009 
Q 550 2706 781 3412 
Q 1013 4119 1484 4856 
L 1984 4856 
z
" transform="scale(0.015625)"/>
      <path id="DejaVuSans-62" d="M 3116 1747 
Q 3116 2381 2855 2742 
Q 2594 3103 2138 3103 
Q 1681 3103 1420 2742 
Q 1159 2381 1159 1747 
Q 1159 1113 1420 752 
Q 1681 391 2138 391 
Q 2594 391 2855 752 
Q 3116 1113 3116 1747 
z
M 1159 2969 
Q 1341 3281 1617 3432 
Q 1894 3584 2278 3584 
Q 2916 3584 3314 3078 
Q 3713 2572 3713 1747 
Q 3713 922 3314 415 
Q 2916 -91 2278 -91 
Q 1894 -91 1617 61 
Q 1341 213 1159 525 
L 1159 0 
L 581 0 
L 581 4863 
L 1159 4863 
L 1159 2969 
z
" transform="scale(0.015625)"/>
      <path id="DejaVuSans-78" d="M 3513 3500 
L 2247 1797 
L 3578 0 
L 2900 0 
L 1881 1375 
L 863 0 
L 184 0 
L 1544 1831 
L 300 3500 
L 978 3500 
L 1906 2253 
L 2834 3500 
L 3513 3500 
z
" transform="scale(0.015625)"/>
      <path id="DejaVuSans-29" d="M 513 4856 
L 1013 4856 
Q 1481 4119 1714 3412 
Q 1947 2706 1947 2009 
Q 1947 1309 1714 600 
Q 1481 -109 1013 -844 
L 513 -844 
Q 928 -128 1133 580 
Q 1338 1288 1338 2009 
Q 1338 2731 1133 3434 
Q 928 4138 513 4856 
z
" transform="scale(0.015625)"/>
     </defs>
     <use xlink:href="#DejaVuSans-48"/>
     <use xlink:href="#DejaVuSans-20" transform="translate(75.195312 0)"/>
     <use xlink:href="#DejaVuSans-68" transform="translate(106.982422 0)"/>
     <use xlink:href="#DejaVuSans-69" transform="translate(170.361328 0)"/>
     <use xlink:href="#DejaVuSans-73" transform="translate(198.144531 0)"/>
     <use xlink:href="#DejaVuSans-74" transform="translate(250.244141 0)"/>
     <use xlink:href="#DejaVuSans-6f" transform="translate(289.453125 0)"/>
     <use xlink:href="#DejaVuSans-67" transform="translate(350.634766 0)"/>
     <use xlink:href="#DejaVuSans-72" transform="translate(414.111328 0)"/>
     <use xlink:href="#DejaVuSans-61" transform="translate(455.224609 0)"/>
     <use xlink:href="#DejaVuSans-6d" transform="translate(516.503906 0)"/>
     <use xlink:href="#DejaVuSans-20" transform="translate(613.916016 0)"/>
     <use xlink:href="#DejaVuSans-28" transform="translate(645.703125 0)"/>
     <use xlink:href="#DejaVuSans-62" transform="translate(684.716797 0)"/>
     <use xlink:href="#DejaVuSans-62" transform="translate(748.193359 0)"/>
     <use xlink:href="#DejaVuSans-6f" transform="translate(811.669922 0)"/>
     <use xlink:href="#DejaVuSans-78" transform="translate(869.726562 0)"/>
     <use xlink:href="#DejaVuSans-29" transform="translate(928.90625 0)"/>
    </g>
   </g>
  </g>
  <g id="axes_2">
   <g id="patch_7">
    <path d="M 43.36 359.72 
L 411.615 359.72 
L 411.615 213.84 
L 43.36 213.84 
z
" style="fill: #ffffff"/>
   </g>
   <g id="matplotlib.axis_3">
    <g id="xtick_11">
     <g id="line2d_17">
      <g>
       <use xlink:href="#m2671d96e4e" x="43.36" y="359.72" style="stroke: #000000; stroke-width: 0.8"/>
      </g>
     </g>
     <g id="text_17">
      <!-- 0 -->
      <g transform="translate(40.17875 374.318438) scale(0.1 -0.1)">
       <use xlink:href="#DejaVuSans-30"/>
      </g>
     </g>
    </g>
    <g id="xtick_12">
     <g id="line2d_18">
      <g>
       <use xlink:href="#m2671d96e4e" x="115.566863" y="359.72" style="stroke: #000000; stroke-width: 0.8"/>
      </g>
     </g>
     <g id="text_18">
      <!-- 50 -->
      <g transform="translate(109.204363 374.318438) scale(0.1 -0.1)">
       <use xlink:href="#DejaVuSans-35"/>
       <use xlink:href="#DejaVuSans-30" transform="translate(63.623047 0)"/>
      </g>
     </g>
    </g>
    <g id="xtick_13">
     <g id="line2d_19">
      <g>
       <use xlink:href="#m2671d96e4e" x="187.773725" y="359.72" style="stroke: #000000; stroke-width: 0.8"/>
      </g>
     </g>
     <g id="text_19">
      <!-- 100 -->
      <g transform="translate(178.229975 374.318438) scale(0.1 -0.1)">
       <use xlink:href="#DejaVuSans-31"/>
       <use xlink:href="#DejaVuSans-30" transform="translate(63.623047 0)"/>
       <use xlink:href="#DejaVuSans-30" transform="translate(127.246094 0)"/>
      </g>
     </g>
    </g>
    <g id="xtick_14">
     <g id="line2d_20">
      <g>
       <use xlink:href="#m2671d96e4e" x="259.980588" y="359.72" style="stroke: #000000; stroke-width: 0.8"/>
      </g>
     </g>
     <g id="text_20">
      <!-- 150 -->
      <g transform="translate(250.436838 374.318438) scale(0.1 -0.1)">
       <use xlink:href="#DejaVuSans-31"/>
       <use xlink:href="#DejaVuSans-35" transform="translate(63.623047 0)"/>
       <use xlink:href="#DejaVuSans-30" transform="translate(127.246094 0)"/>
      </g>
     </g>
    </g>
    <g id="xtick_15">
     <g id="line2d_21">
      <g>
       <use xlink:href="#m2671d96e4e" x="332.187451" y="359.72" style="stroke: #000000; stroke-width: 0.8"/>
      </g>
     </g>
     <g id="text_21">
      <!-- 200 -->
      <g transform="translate(322.643701 374.318438) scale(0.1 -0.1)">
       <use xlink:href="#DejaVuSans-32"/>
       <use xlink:href="#DejaVuSans-30" transform="translate(63.623047 0)"/>
       <use xlink:href="#DejaVuSans-30" transform="translate(127.246094 0)"/>
      </g>
     </g>
    </g>
    <g id="xtick_16">
     <g id="line2d_22">
      <g>
       <use xlink:href="#m2671d96e4e" x="404.394314" y="359.72" style="stroke: #000000; stroke-width: 0.8"/>
      </g>
     </g>
     <g id="text_22">
      <!-- 250 -->
      <g transform="translate(394.850564 374.318438) scale(0.1 -0.1)">
       <use xlink:href="#DejaVuSans-32"/>
       <use xlink:href="#DejaVuSans-35" transform="translate(63.623047 0)"/>
       <use xlink:href="#DejaVuSans-30" transform="translate(127.246094 0)"/>
      </g>
     </g>
    </g>
   </g>
   <g id="matplotlib.axis_4">
    <g id="ytick_6">
     <g id="line2d_23">
      <g>
       <use xlink:href="#m1faf1f7bcf" x="43.36" y="353.089091" style="stroke: #000000; stroke-width: 0.8"/>
      </g>
     </g>
     <g id="text_23">
      <!-- 0 -->
      <g transform="translate(29.9975 356.88831) scale(0.1 -0.1)">
       <use xlink:href="#DejaVuSans-30"/>
      </g>
     </g>
    </g>
    <g id="ytick_7">
     <g id="line2d_24">
      <g>
       <use xlink:href="#m1faf1f7bcf" x="43.36" y="320.900212" style="stroke: #000000; stroke-width: 0.8"/>
      </g>
     </g>
     <g id="text_24">
      <!-- 100 -->
      <g transform="translate(17.2725 324.699431) scale(0.1 -0.1)">
       <use xlink:href="#DejaVuSans-31"/>
       <use xlink:href="#DejaVuSans-30" transform="translate(63.623047 0)"/>
       <use xlink:href="#DejaVuSans-30" transform="translate(127.246094 0)"/>
      </g>
     </g>
    </g>
    <g id="ytick_8">
     <g id="line2d_25">
      <g>
       <use xlink:href="#m1faf1f7bcf" x="43.36" y="288.711333" style="stroke: #000000; stroke-width: 0.8"/>
      </g>
     </g>
     <g id="text_25">
      <!-- 200 -->
      <g transform="translate(17.2725 292.510551) scale(0.1 -0.1)">
       <use xlink:href="#DejaVuSans-32"/>
       <use xlink:href="#DejaVuSans-30" transform="translate(63.623047 0)"/>
       <use xlink:href="#DejaVuSans-30" transform="translate(127.246094 0)"/>
      </g>
     </g>
    </g>
    <g id="ytick_9">
     <g id="line2d_26">
      <g>
       <use xlink:href="#m1faf1f7bcf" x="43.36" y="256.522454" style="stroke: #000000; stroke-width: 0.8"/>
      </g>
     </g>
     <g id="text_26">
      <!-- 300 -->
      <g transform="translate(17.2725 260.321672) scale(0.1 -0.1)">
       <defs>
        <path id="DejaVuSans-33" d="M 2597 2516 
Q 3050 2419 3304 2112 
Q 3559 1806 3559 1356 
Q 3559 666 3084 287 
Q 2609 -91 1734 -91 
Q 1441 -91 1130 -33 
Q 819 25 488 141 
L 488 750 
Q 750 597 1062 519 
Q 1375 441 1716 441 
Q 2309 441 2620 675 
Q 2931 909 2931 1356 
Q 2931 1769 2642 2001 
Q 2353 2234 1838 2234 
L 1294 2234 
L 1294 2753 
L 1863 2753 
Q 2328 2753 2575 2939 
Q 2822 3125 2822 3475 
Q 2822 3834 2567 4026 
Q 2313 4219 1838 4219 
Q 1578 4219 1281 4162 
Q 984 4106 628 3988 
L 628 4550 
Q 988 4650 1302 4700 
Q 1616 4750 1894 4750 
Q 2613 4750 3031 4423 
Q 3450 4097 3450 3541 
Q 3450 3153 3228 2886 
Q 3006 2619 2597 2516 
z
" transform="scale(0.015625)"/>
       </defs>
       <use xlink:href="#DejaVuSans-33"/>
       <use xlink:href="#DejaVuSans-30" transform="translate(63.623047 0)"/>
       <use xlink:href="#DejaVuSans-30" transform="translate(127.246094 0)"/>
      </g>
     </g>
    </g>
    <g id="ytick_10">
     <g id="line2d_27">
      <g>
       <use xlink:href="#m1faf1f7bcf" x="43.36" y="224.333575" style="stroke: #000000; stroke-width: 0.8"/>
      </g>
     </g>
     <g id="text_27">
      <!-- 400 -->
      <g transform="translate(17.2725 228.132793) scale(0.1 -0.1)">
       <use xlink:href="#DejaVuSans-34"/>
       <use xlink:href="#DejaVuSans-30" transform="translate(63.623047 0)"/>
       <use xlink:href="#DejaVuSans-30" transform="translate(127.246094 0)"/>
      </g>
     </g>
    </g>
   </g>
   <g id="line2d_28">
    <path d="M 43.36 338.604095 
L 44.804137 353.089091 
L 46.248275 353.089091 
L 49.136549 351.157758 
L 50.580686 349.226425 
L 52.024824 347.616981 
L 53.468961 346.651315 
L 54.913098 346.973204 
L 56.357235 346.329426 
L 57.801373 340.213539 
L 59.24551 341.822983 
L 60.689647 341.822983 
L 62.133784 338.604095 
L 63.577922 342.466761 
L 65.022059 339.247873 
L 66.466196 337.31654 
L 67.910333 336.350874 
L 69.354471 339.89165 
L 70.798608 337.960318 
L 72.242745 331.200653 
L 73.686882 333.775763 
L 75.13102 333.131986 
L 76.575157 334.419541 
L 78.019294 332.488208 
L 79.463431 335.385207 
L 80.907569 328.625543 
L 82.351706 333.775763 
L 83.795843 325.084766 
L 85.23998 326.69421 
L 86.684118 327.659876 
L 88.128255 330.556876 
L 89.572392 328.947432 
L 91.016529 322.831545 
L 92.460667 320.578323 
L 93.904804 320.900212 
L 95.348941 317.359435 
L 96.793078 326.69421 
L 98.237216 314.784325 
L 99.681353 314.784325 
L 101.12549 309.312215 
L 102.569627 318.003213 
L 104.013765 314.784325 
L 105.457902 313.174881 
L 106.902039 306.737105 
L 108.346176 317.681324 
L 109.790314 305.771439 
L 111.234451 315.106214 
L 112.678588 306.415216 
L 114.122725 315.428102 
L 115.566863 314.784325 
L 117.011 314.784325 
L 118.455137 311.565437 
L 119.899275 303.196328 
L 121.343412 297.080441 
L 122.787549 299.97744 
L 124.231686 316.715658 
L 125.675824 298.367996 
L 127.119961 303.840106 
L 128.564098 292.252109 
L 130.008235 293.217776 
L 131.452373 281.951668 
L 132.89651 280.020335 
L 134.340647 294.183442 
L 135.784784 255.556787 
L 137.228922 283.239223 
L 138.673059 286.78 
L 140.117196 273.260671 
L 141.561333 288.711333 
L 143.005471 289.998888 
L 144.449608 254.591121 
L 145.893745 277.767114 
L 147.337882 271.973116 
L 148.78202 268.754228 
L 150.226157 271.329338 
L 151.670294 263.604007 
L 153.114431 268.432339 
L 154.558569 250.084678 
L 156.002706 247.509568 
L 157.446843 264.247785 
L 158.89098 250.728455 
L 160.335118 239.140459 
L 161.779255 261.672674 
L 163.223392 222.080353 
L 166.111667 251.372233 
L 167.555804 220.470909 
L 168.999941 227.230574 
L 170.444078 246.543901 
L 171.888216 238.174793 
L 173.332353 237.531015 
L 174.77649 247.509568 
L 176.220627 248.797123 
L 177.664765 259.741342 
L 179.108902 258.453786 
L 180.553039 260.06323 
L 181.997176 262.316452 
L 183.441314 283.239223 
L 184.885451 274.226337 
L 186.329588 293.217776 
L 187.773725 285.814334 
L 189.217863 296.758553 
L 190.662 304.483883 
L 192.106137 302.230662 
L 193.550275 303.196328 
L 194.994412 312.209214 
L 196.438549 314.462436 
L 197.882686 318.003213 
L 199.326824 315.428102 
L 202.215098 331.522542 
L 203.659235 328.303654 
L 205.103373 327.659876 
L 206.54751 322.831545 
L 207.991647 335.707096 
L 210.879922 337.638429 
L 212.324059 339.569762 
L 213.768196 334.74143 
L 215.212333 343.432427 
L 216.656471 339.569762 
L 218.100608 341.822983 
L 220.988882 341.179206 
L 222.43302 344.076205 
L 223.877157 347.616981 
L 225.321294 346.329426 
L 226.765431 343.754316 
L 228.209569 332.16632 
L 229.653706 348.260759 
L 231.097843 349.548314 
L 232.54198 346.973204 
L 233.986118 346.973204 
L 235.430255 346.329426 
L 236.874392 346.007538 
L 238.318529 347.93887 
L 239.762667 347.616981 
L 241.206804 348.582648 
L 242.650941 350.192092 
L 244.095078 348.260759 
L 245.539216 348.904537 
L 246.983353 351.479647 
L 248.42749 350.513981 
L 249.871627 352.123425 
L 251.315765 350.513981 
L 254.204039 348.582648 
L 255.648176 351.479647 
L 257.092314 350.192092 
L 258.536451 350.192092 
L 259.980588 352.445313 
L 261.424725 351.479647 
L 262.868863 351.801536 
L 264.313 347.295093 
L 265.757137 351.801536 
L 267.201275 351.801536 
L 268.645412 351.479647 
L 270.089549 351.479647 
L 271.533686 353.089091 
L 272.977824 347.93887 
L 274.421961 353.089091 
L 275.866098 352.123425 
L 277.310235 352.123425 
L 278.754373 352.445313 
L 280.19851 352.123425 
L 281.642647 351.157758 
L 283.086784 352.445313 
L 284.530922 353.089091 
L 285.975059 352.767202 
L 287.419196 353.089091 
L 288.863333 346.973204 
L 290.307471 353.089091 
L 291.751608 353.089091 
L 293.195745 351.801536 
L 294.639882 351.479647 
L 297.528157 352.123425 
L 298.972294 351.479647 
L 300.416431 353.089091 
L 301.860569 350.835869 
L 303.304706 352.445313 
L 304.748843 352.767202 
L 306.19298 349.226425 
L 307.637118 353.089091 
L 309.081255 352.445313 
L 310.525392 351.479647 
L 311.969529 353.089091 
L 313.413667 351.479647 
L 314.857804 352.767202 
L 317.746078 352.767202 
L 319.190216 350.192092 
L 320.634353 353.089091 
L 322.07849 352.445313 
L 323.522627 353.089091 
L 326.410902 351.801536 
L 327.855039 352.767202 
L 329.299176 352.445313 
L 330.743314 353.089091 
L 332.187451 352.123425 
L 333.631588 353.089091 
L 335.075725 353.089091 
L 336.519863 352.767202 
L 337.964 352.123425 
L 339.408137 353.089091 
L 340.852275 353.089091 
L 342.296412 352.445313 
L 343.740549 352.767202 
L 345.184686 352.767202 
L 346.628824 352.445313 
L 349.517098 353.089091 
L 350.961235 352.123425 
L 352.405373 353.089091 
L 353.84951 353.089091 
L 355.293647 352.445313 
L 356.737784 353.089091 
L 358.181922 353.089091 
L 359.626059 351.479647 
L 361.070196 352.767202 
L 362.514333 351.801536 
L 363.958471 352.767202 
L 365.402608 351.801536 
L 366.846745 353.089091 
L 368.290882 353.089091 
L 369.73502 352.767202 
L 371.179157 352.767202 
L 372.623294 352.445313 
L 374.067431 353.089091 
L 375.511569 352.767202 
L 376.955706 353.089091 
L 379.84398 353.089091 
L 381.288118 352.123425 
L 382.732255 352.123425 
L 384.176392 352.767202 
L 385.620529 352.445313 
L 387.064667 352.767202 
L 388.508804 352.123425 
L 389.952941 352.767202 
L 391.397078 353.089091 
L 392.841216 352.767202 
L 394.285353 353.089091 
L 395.72949 352.767202 
L 397.173627 353.089091 
L 398.617765 352.767202 
L 400.061902 353.089091 
L 410.170863 353.089091 
L 411.615 314.784325 
L 411.615 314.784325 
" clip-path="url(#p08d21fe5d0)" style="fill: none; stroke: #008000; stroke-width: 1.5; stroke-linecap: square"/>
   </g>
   <g id="patch_8">
    <path d="M 43.36 359.72 
L 43.36 213.84 
" style="fill: none; stroke: #000000; stroke-width: 0.8; stroke-linejoin: miter; stroke-linecap: square"/>
   </g>
   <g id="patch_9">
    <path d="M 411.615 359.72 
L 411.615 213.84 
" style="fill: none; stroke: #000000; stroke-width: 0.8; stroke-linejoin: miter; stroke-linecap: square"/>
   </g>
   <g id="patch_10">
    <path d="M 43.36 359.72 
L 411.615 359.72 
" style="fill: none; stroke: #000000; stroke-width: 0.8; stroke-linejoin: miter; stroke-linecap: square"/>
   </g>
   <g id="patch_11">
    <path d="M 43.36 213.84 
L 411.615 213.84 
" style="fill: none; stroke: #000000; stroke-width: 0.8; stroke-linejoin: miter; stroke-linecap: square"/>
   </g>
   <g id="text_28">
    <!-- S histogram (bbox) -->
    <g transform="translate(170.114375 207.84) scale(0.12 -0.12)">
     <defs>
      <path id="DejaVuSans-53" d="M 3425 4513 
L 3425 3897 
Q 3066 4069 2747 4153 
Q 2428 4238 2131 4238 
Q 1616 4238 1336 4038 
Q 1056 3838 1056 3469 
Q 1056 3159 1242 3001 
Q 1428 2844 1947 2747 
L 2328 2669 
Q 3034 2534 3370 2195 
Q 3706 1856 3706 1288 
Q 3706 609 3251 259 
Q 2797 -91 1919 -91 
Q 1588 -91 1214 -16 
Q 841 59 441 206 
L 441 856 
Q 825 641 1194 531 
Q 1563 422 1919 422 
Q 2459 422 2753 634 
Q 3047 847 3047 1241 
Q 3047 1584 2836 1778 
Q 2625 1972 2144 2069 
L 1759 2144 
Q 1053 2284 737 2584 
Q 422 2884 422 3419 
Q 422 4038 858 4394 
Q 1294 4750 2059 4750 
Q 2388 4750 2728 4690 
Q 3069 4631 3425 4513 
z
" transform="scale(0.015625)"/>
     </defs>
     <use xlink:href="#DejaVuSans-53"/>
     <use xlink:href="#DejaVuSans-20" transform="translate(63.476562 0)"/>
     <use xlink:href="#DejaVuSans-68" transform="translate(95.263672 0)"/>
     <use xlink:href="#DejaVuSans-69" transform="translate(158.642578 0)"/>
     <use xlink:href="#DejaVuSans-73" transform="translate(186.425781 0)"/>
     <use xlink:href="#DejaVuSans-74" transform="translate(238.525391 0)"/>
     <use xlink:href="#DejaVuSans-6f" transform="translate(277.734375 0)"/>
     <use xlink:href="#DejaVuSans-67" transform="translate(338.916016 0)"/>
     <use xlink:href="#DejaVuSans-72" transform="translate(402.392578 0)"/>
     <use xlink:href="#DejaVuSans-61" transform="translate(443.505859 0)"/>
     <use xlink:href="#DejaVuSans-6d" transform="translate(504.785156 0)"/>
     <use xlink:href="#DejaVuSans-20" transform="translate(602.197266 0)"/>
     <use xlink:href="#DejaVuSans-28" transform="translate(633.984375 0)"/>
     <use xlink:href="#DejaVuSans-62" transform="translate(672.998047 0)"/>
     <use xlink:href="#DejaVuSans-62" transform="translate(736.474609 0)"/>
     <use xlink:href="#DejaVuSans-6f" transform="translate(799.951172 0)"/>
     <use xlink:href="#DejaVuSans-78" transform="translate(858.007812 0)"/>
     <use xlink:href="#DejaVuSans-29" transform="translate(917.1875 0)"/>
    </g>
   </g>
  </g>
  <g id="axes_3">
   <g id="patch_12">
    <path d="M 43.36 548.12 
L 411.615 548.12 
L 411.615 402.24 
L 43.36 402.24 
z
" style="fill: #ffffff"/>
   </g>
   <g id="matplotlib.axis_5">
    <g id="xtick_17">
     <g id="line2d_29">
      <g>
       <use xlink:href="#m2671d96e4e" x="43.36" y="548.12" style="stroke: #000000; stroke-width: 0.8"/>
      </g>
     </g>
     <g id="text_29">
      <!-- 0 -->
      <g transform="translate(40.17875 562.718438) scale(0.1 -0.1)">
       <use xlink:href="#DejaVuSans-30"/>
      </g>
     </g>
    </g>
    <g id="xtick_18">
     <g id="line2d_30">
      <g>
       <use xlink:href="#m2671d96e4e" x="115.566863" y="548.12" style="stroke: #000000; stroke-width: 0.8"/>
      </g>
     </g>
     <g id="text_30">
      <!-- 50 -->
      <g transform="translate(109.204363 562.718438) scale(0.1 -0.1)">
       <use xlink:href="#DejaVuSans-35"/>
       <use xlink:href="#DejaVuSans-30" transform="translate(63.623047 0)"/>
      </g>
     </g>
    </g>
    <g id="xtick_19">
     <g id="line2d_31">
      <g>
       <use xlink:href="#m2671d96e4e" x="187.773725" y="548.12" style="stroke: #000000; stroke-width: 0.8"/>
      </g>
     </g>
     <g id="text_31">
      <!-- 100 -->
      <g transform="translate(178.229975 562.718438) scale(0.1 -0.1)">
       <use xlink:href="#DejaVuSans-31"/>
       <use xlink:href="#DejaVuSans-30" transform="translate(63.623047 0)"/>
       <use xlink:href="#DejaVuSans-30" transform="translate(127.246094 0)"/>
      </g>
     </g>
    </g>
    <g id="xtick_20">
     <g id="line2d_32">
      <g>
       <use xlink:href="#m2671d96e4e" x="259.980588" y="548.12" style="stroke: #000000; stroke-width: 0.8"/>
      </g>
     </g>
     <g id="text_32">
      <!-- 150 -->
      <g transform="translate(250.436838 562.718438) scale(0.1 -0.1)">
       <use xlink:href="#DejaVuSans-31"/>
       <use xlink:href="#DejaVuSans-35" transform="translate(63.623047 0)"/>
       <use xlink:href="#DejaVuSans-30" transform="translate(127.246094 0)"/>
      </g>
     </g>
    </g>
    <g id="xtick_21">
     <g id="line2d_33">
      <g>
       <use xlink:href="#m2671d96e4e" x="332.187451" y="548.12" style="stroke: #000000; stroke-width: 0.8"/>
      </g>
     </g>
     <g id="text_33">
      <!-- 200 -->
      <g transform="translate(322.643701 562.718438) scale(0.1 -0.1)">
       <use xlink:href="#DejaVuSans-32"/>
       <use xlink:href="#DejaVuSans-30" transform="translate(63.623047 0)"/>
       <use xlink:href="#DejaVuSans-30" transform="translate(127.246094 0)"/>
      </g>
     </g>
    </g>
    <g id="xtick_22">
     <g id="line2d_34">
      <g>
       <use xlink:href="#m2671d96e4e" x="404.394314" y="548.12" style="stroke: #000000; stroke-width: 0.8"/>
      </g>
     </g>
     <g id="text_34">
      <!-- 250 -->
      <g transform="translate(394.850564 562.718438) scale(0.1 -0.1)">
       <use xlink:href="#DejaVuSans-32"/>
       <use xlink:href="#DejaVuSans-35" transform="translate(63.623047 0)"/>
       <use xlink:href="#DejaVuSans-30" transform="translate(127.246094 0)"/>
      </g>
     </g>
    </g>
   </g>
   <g id="matplotlib.axis_6">
    <g id="ytick_11">
     <g id="line2d_35">
      <g>
       <use xlink:href="#m1faf1f7bcf" x="43.36" y="541.489091" style="stroke: #000000; stroke-width: 0.8"/>
      </g>
     </g>
     <g id="text_35">
      <!-- 0 -->
      <g transform="translate(29.9975 545.28831) scale(0.1 -0.1)">
       <use xlink:href="#DejaVuSans-30"/>
      </g>
     </g>
    </g>
    <g id="ytick_12">
     <g id="line2d_36">
      <g>
       <use xlink:href="#m1faf1f7bcf" x="43.36" y="516.180278" style="stroke: #000000; stroke-width: 0.8"/>
      </g>
     </g>
     <g id="text_36">
      <!-- 50 -->
      <g transform="translate(23.635 519.979496) scale(0.1 -0.1)">
       <use xlink:href="#DejaVuSans-35"/>
       <use xlink:href="#DejaVuSans-30" transform="translate(63.623047 0)"/>
      </g>
     </g>
    </g>
    <g id="ytick_13">
     <g id="line2d_37">
      <g>
       <use xlink:href="#m1faf1f7bcf" x="43.36" y="490.871464" style="stroke: #000000; stroke-width: 0.8"/>
      </g>
     </g>
     <g id="text_37">
      <!-- 100 -->
      <g transform="translate(17.2725 494.670683) scale(0.1 -0.1)">
       <use xlink:href="#DejaVuSans-31"/>
       <use xlink:href="#DejaVuSans-30" transform="translate(63.623047 0)"/>
       <use xlink:href="#DejaVuSans-30" transform="translate(127.246094 0)"/>
      </g>
     </g>
    </g>
    <g id="ytick_14">
     <g id="line2d_38">
      <g>
       <use xlink:href="#m1faf1f7bcf" x="43.36" y="465.562651" style="stroke: #000000; stroke-width: 0.8"/>
      </g>
     </g>
     <g id="text_38">
      <!-- 150 -->
      <g transform="translate(17.2725 469.36187) scale(0.1 -0.1)">
       <use xlink:href="#DejaVuSans-31"/>
       <use xlink:href="#DejaVuSans-35" transform="translate(63.623047 0)"/>
       <use xlink:href="#DejaVuSans-30" transform="translate(127.246094 0)"/>
      </g>
     </g>
    </g>
    <g id="ytick_15">
     <g id="line2d_39">
      <g>
       <use xlink:href="#m1faf1f7bcf" x="43.36" y="440.253838" style="stroke: #000000; stroke-width: 0.8"/>
      </g>
     </g>
     <g id="text_39">
      <!-- 200 -->
      <g transform="translate(17.2725 444.053056) scale(0.1 -0.1)">
       <use xlink:href="#DejaVuSans-32"/>
       <use xlink:href="#DejaVuSans-30" transform="translate(63.623047 0)"/>
       <use xlink:href="#DejaVuSans-30" transform="translate(127.246094 0)"/>
      </g>
     </g>
    </g>
    <g id="ytick_16">
     <g id="line2d_40">
      <g>
       <use xlink:href="#m1faf1f7bcf" x="43.36" y="414.945024" style="stroke: #000000; stroke-width: 0.8"/>
      </g>
     </g>
     <g id="text_40">
      <!-- 250 -->
      <g transform="translate(17.2725 418.744243) scale(0.1 -0.1)">
       <use xlink:href="#DejaVuSans-32"/>
       <use xlink:href="#DejaVuSans-35" transform="translate(63.623047 0)"/>
       <use xlink:href="#DejaVuSans-30" transform="translate(127.246094 0)"/>
      </g>
     </g>
    </g>
   </g>
   <g id="line2d_41">
    <path d="M 43.36 539.970562 
L 44.804137 538.95821 
L 47.692412 537.945857 
L 49.136549 529.847037 
L 50.580686 536.427328 
L 52.024824 532.884094 
L 53.468961 529.847037 
L 54.913098 530.353213 
L 56.357235 530.353213 
L 57.801373 528.328508 
L 59.24551 532.377918 
L 60.689647 522.760569 
L 62.133784 519.723511 
L 63.577922 524.279098 
L 65.022059 520.229688 
L 66.466196 516.686454 
L 67.910333 515.674101 
L 69.354471 518.711159 
L 70.798608 518.204983 
L 72.242745 516.686454 
L 73.686882 519.723511 
L 75.13102 519.217335 
L 76.575157 509.09381 
L 78.019294 511.118515 
L 79.463431 517.19263 
L 80.907569 511.118515 
L 82.351706 513.14322 
L 83.795843 502.007342 
L 85.23998 511.624691 
L 86.684118 502.513518 
L 88.128255 512.637044 
L 89.572392 506.056752 
L 91.016529 497.957932 
L 92.460667 496.439403 
L 93.904804 496.945579 
L 95.348941 502.007342 
L 96.793078 493.402346 
L 98.237216 493.908522 
L 99.681353 492.389993 
L 101.12549 506.056752 
L 102.569627 498.970285 
L 104.013765 496.945579 
L 105.457902 502.007342 
L 106.902039 495.427051 
L 108.346176 499.476461 
L 109.790314 490.871464 
L 111.234451 495.427051 
L 112.678588 492.896169 
L 114.122725 498.970285 
L 115.566863 489.859112 
L 117.011 500.99499 
L 118.455137 494.920874 
L 119.899275 487.32823 
L 121.343412 503.019695 
L 122.787549 490.365288 
L 124.231686 496.439403 
L 125.675824 495.933227 
L 127.119961 498.970285 
L 128.564098 499.982637 
L 130.008235 497.957932 
L 131.452373 490.871464 
L 132.89651 494.414698 
L 134.340647 485.809702 
L 135.784784 485.809702 
L 137.228922 506.056752 
L 138.673059 490.871464 
L 140.117196 488.340583 
L 141.561333 488.846759 
L 143.005471 484.797349 
L 144.449608 476.192353 
L 145.893745 487.32823 
L 147.337882 474.673824 
L 148.78202 471.636766 
L 150.226157 464.044122 
L 151.670294 453.920597 
L 153.114431 458.476183 
L 154.558569 448.352658 
L 156.002706 455.439126 
L 157.446843 438.229133 
L 158.89098 441.26619 
L 160.335118 443.290895 
L 161.779255 451.389715 
L 163.223392 441.772366 
L 164.667529 434.685899 
L 166.111667 429.11796 
L 167.555804 426.587078 
L 168.999941 419.500611 
L 170.444078 408.870909 
L 171.888216 431.142665 
L 173.332353 430.130312 
L 174.77649 423.043845 
L 176.220627 422.537668 
L 177.664765 432.155017 
L 179.108902 432.155017 
L 180.553039 421.525316 
L 181.997176 432.661194 
L 183.441314 437.21678 
L 184.885451 414.438848 
L 186.329588 432.155017 
L 187.773725 429.624136 
L 189.217863 429.11796 
L 190.662 411.40179 
L 192.106137 417.475906 
L 193.550275 426.587078 
L 194.994412 423.550021 
L 196.438549 413.426495 
L 197.882686 426.080902 
L 199.326824 432.155017 
L 200.770961 425.06855 
L 202.215098 453.920597 
L 203.659235 438.229133 
L 205.103373 444.303248 
L 206.54751 449.36501 
L 207.991647 449.871187 
L 209.435784 454.932949 
L 210.879922 443.797071 
L 212.324059 442.784719 
L 213.768196 467.08118 
L 215.212333 448.352658 
L 216.656471 452.402068 
L 218.100608 464.044122 
L 220.988882 455.945302 
L 222.43302 475.686176 
L 223.877157 468.093532 
L 225.321294 473.155295 
L 226.765431 485.303525 
L 228.209569 481.760291 
L 229.653706 490.365288 
L 231.097843 482.266468 
L 232.54198 487.834407 
L 233.986118 492.389993 
L 235.430255 498.464108 
L 236.874392 485.303525 
L 238.318529 493.908522 
L 239.762667 485.303525 
L 241.206804 494.414698 
L 242.650941 490.871464 
L 244.095078 496.945579 
L 245.539216 496.439403 
L 246.983353 501.501166 
L 248.42749 497.451756 
L 249.871627 505.550576 
L 251.315765 505.550576 
L 252.759902 509.09381 
L 254.204039 506.056752 
L 255.648176 500.99499 
L 257.092314 510.612339 
L 258.536451 501.501166 
L 259.980588 512.130867 
L 261.424725 515.674101 
L 262.868863 514.661749 
L 264.313 511.624691 
L 265.757137 514.661749 
L 267.201275 518.204983 
L 268.645412 513.14322 
L 270.089549 515.167925 
L 271.533686 516.686454 
L 272.977824 518.711159 
L 274.421961 522.760569 
L 275.866098 521.24204 
L 277.310235 525.797627 
L 278.754373 518.711159 
L 280.19851 523.772922 
L 281.642647 526.303803 
L 283.086784 524.279098 
L 284.530922 526.303803 
L 285.975059 526.303803 
L 287.419196 525.29145 
L 288.863333 532.377918 
L 290.307471 529.340861 
L 291.751608 535.414976 
L 293.195745 534.402623 
L 294.639882 532.884094 
L 296.08402 533.390271 
L 297.528157 537.945857 
L 298.972294 535.921152 
L 300.416431 537.945857 
L 301.860569 534.908799 
L 303.304706 535.921152 
L 304.748843 535.414976 
L 306.19298 535.921152 
L 307.637118 536.933505 
L 309.081255 539.464386 
L 310.525392 536.933505 
L 311.969529 540.476738 
L 313.413667 538.452033 
L 314.857804 538.452033 
L 316.301941 538.95821 
L 317.746078 537.945857 
L 319.190216 537.439681 
L 320.634353 539.970562 
L 322.07849 540.476738 
L 323.522627 539.464386 
L 327.855039 540.982915 
L 329.299176 538.452033 
L 330.743314 538.95821 
L 332.187451 540.476738 
L 333.631588 539.464386 
L 335.075725 539.464386 
L 336.519863 539.970562 
L 337.964 539.464386 
L 339.408137 540.476738 
L 340.852275 539.464386 
L 342.296412 539.970562 
L 348.072961 539.970562 
L 349.517098 540.982915 
L 350.961235 540.476738 
L 352.405373 538.95821 
L 353.84951 541.489091 
L 355.293647 539.464386 
L 356.737784 540.476738 
L 358.181922 540.476738 
L 361.070196 541.489091 
L 363.958471 539.464386 
L 365.402608 540.982915 
L 366.846745 540.982915 
L 368.290882 540.476738 
L 369.73502 540.982915 
L 371.179157 539.464386 
L 372.623294 539.970562 
L 374.067431 539.970562 
L 375.511569 539.464386 
L 376.955706 540.982915 
L 378.399843 540.982915 
L 379.84398 541.489091 
L 381.288118 540.982915 
L 382.732255 539.970562 
L 384.176392 541.489091 
L 385.620529 540.982915 
L 387.064667 540.982915 
L 388.508804 540.476738 
L 389.952941 540.476738 
L 391.397078 541.489091 
L 392.841216 541.489091 
L 394.285353 539.464386 
L 397.173627 540.476738 
L 398.617765 541.489091 
L 402.950176 541.489091 
L 404.394314 540.476738 
L 405.838451 541.489091 
L 407.282588 540.982915 
L 408.726725 540.982915 
L 410.170863 537.945857 
L 411.615 532.377918 
L 411.615 532.377918 
" clip-path="url(#p5388acbaec)" style="fill: none; stroke: #0000ff; stroke-width: 1.5; stroke-linecap: square"/>
   </g>
   <g id="patch_13">
    <path d="M 43.36 548.12 
L 43.36 402.24 
" style="fill: none; stroke: #000000; stroke-width: 0.8; stroke-linejoin: miter; stroke-linecap: square"/>
   </g>
   <g id="patch_14">
    <path d="M 411.615 548.12 
L 411.615 402.24 
" style="fill: none; stroke: #000000; stroke-width: 0.8; stroke-linejoin: miter; stroke-linecap: square"/>
   </g>
   <g id="patch_15">
    <path d="M 43.36 548.12 
L 411.615 548.12 
" style="fill: none; stroke: #000000; stroke-width: 0.8; stroke-linejoin: miter; stroke-linecap: square"/>
   </g>
   <g id="patch_16">
    <path d="M 43.36 402.24 
L 411.615 402.24 
" style="fill: none; stroke: #000000; stroke-width: 0.8; stroke-linejoin: miter; stroke-linecap: square"/>
   </g>
   <g id="text_41">
    <!-- V histogram (bbox) -->
    <g transform="translate(169.819063 396.24) scale(0.12 -0.12)">
     <defs>
      <path id="DejaVuSans-56" d="M 1831 0 
L 50 4666 
L 709 4666 
L 2188 738 
L 3669 4666 
L 4325 4666 
L 2547 0 
L 1831 0 
z
" transform="scale(0.015625)"/>
     </defs>
     <use xlink:href="#DejaVuSans-56"/>
     <use xlink:href="#DejaVuSans-20" transform="translate(68.408203 0)"/>
     <use xlink:href="#DejaVuSans-68" transform="translate(100.195312 0)"/>
     <use xlink:href="#DejaVuSans-69" transform="translate(163.574219 0)"/>
     <use xlink:href="#DejaVuSans-73" transform="translate(191.357422 0)"/>
     <use xlink:href="#DejaVuSans-74" transform="translate(243.457031 0)"/>
     <use xlink:href="#DejaVuSans-6f" transform="translate(282.666016 0)"/>
     <use xlink:href="#DejaVuSans-67" transform="translate(343.847656 0)"/>
     <use xlink:href="#DejaVuSans-72" transform="translate(407.324219 0)"/>
     <use xlink:href="#DejaVuSans-61" transform="translate(448.4375 0)"/>
     <use xlink:href="#DejaVuSans-6d" transform="translate(509.716797 0)"/>
     <use xlink:href="#DejaVuSans-20" transform="translate(607.128906 0)"/>
     <use xlink:href="#DejaVuSans-28" transform="translate(638.916016 0)"/>
     <use xlink:href="#DejaVuSans-62" transform="translate(677.929688 0)"/>
     <use xlink:href="#DejaVuSans-62" transform="translate(741.40625 0)"/>
     <use xlink:href="#DejaVuSans-6f" transform="translate(804.882812 0)"/>
     <use xlink:href="#DejaVuSans-78" transform="translate(862.939453 0)"/>
     <use xlink:href="#DejaVuSans-29" transform="translate(922.119141 0)"/>
    </g>
   </g>
  </g>
 </g>
 <defs>
  <clipPath id="p5626bd3dd5">
   <rect x="43.36" y="25.44" width="368.255" height="145.88"/>
  </clipPath>
  <clipPath id="p08d21fe5d0">
   <rect x="43.36" y="213.84" width="368.255" height="145.88"/>
  </clipPath>
  <clipPath id="p5388acbaec">
   <rect x="43.36" y="402.24" width="368.255" height="145.88"/>
  </clipPath>
 </defs>
</svg>
