<?xml version="1.0" encoding="utf-8" standalone="no"?>
<!DOCTYPE svg PUBLIC "-//W3C//DTD SVG 1.1//EN"
  "http://www.w3.org/Graphics/SVG/1.1/DTD/svg11.dtd">
<svg xmlns:xlink="http://www.w3.org/1999/xlink" width="432pt" height="576pt" viewBox="0 0 432 576" xmlns="http://www.w3.org/2000/svg" version="1.1">
 <metadata>
  <rdf:RDF xmlns:dc="http://purl.org/dc/elements/1.1/" xmlns:cc="http://creativecommons.org/ns#" xmlns:rdf="http://www.w3.org/1999/02/22-rdf-syntax-ns#">
   <cc:Work>
    <dc:type rdf:resource="http://purl.org/dc/dcmitype/StillImage"/>
    <dc:date>2026-01-22T15:02:17.235105</dc:date>
    <dc:format>image/svg+xml</dc:format>
    <dc:creator>
     <cc:Agent>
      <dc:title>Matplotlib v3.10.8, https://matplotlib.org/</dc:title>
     </cc:Agent>
    </dc:creator>
   </cc:Work>
  </rdf:RDF>
 </metadata>
 <defs>
  <style type="text/css">*{stroke-linejoin: round; stroke-linecap: butt}</style>
 </defs>
 <g id="figure_1">
  <g id="patch_1">
   <path d="M 0 576 
L 432 576 
L 432 0 
L 0 0 
z
" style="fill: #ffffff"/>
  </g>
  <g id="axes_1">
   <g id="patch_2">
    <path d="M 36.97 171.32 
L 411.615 171.32 
L 411.615 25.44 
L 36.97 25.44 
z
" style="fill: #ffffff"/>
   </g>
   <g id="matplotlib.axis_1">
    <g id="xtick_1">
     <g id="line2d_1">
      <defs>
       <path id="m02e2e2f93c" d="M 0 0 
L 0 3.5 
" style="stroke: #000000; stroke-width: 0.8"/>
      </defs>
      <g>
       <use xlink:href="#m02e2e2f93c" x="36.97" y="171.32" style="stroke: #000000; stroke-width: 0.8"/>
      </g>
     </g>
     <g id="text_1">
      <!-- 0 -->
      <g transform="translate(33.78875 185.918438) scale(0.1 -0.1)">
       <defs>
        <path id="DejaVuSans-30" d="M 2034 4250 
Q 1547 4250 1301 3770 
Q 1056 3291 1056 2328 
Q 1056 1369 1301 889 
Q 1547 409 2034 409 
Q 2525 409 2770 889 
Q 3016 1369 3016 2328 
Q 3016 3291 2770 3770 
Q 2525 4250 2034 4250 
z
M 2034 4750 
Q 2819 4750 3233 4129 
Q 3647 3509 3647 2328 
Q 3647 1150 3233 529 
Q 2819 -91 2034 -91 
Q 1250 -91 836 529 
Q 422 1150 422 2328 
Q 422 3509 836 4129 
Q 1250 4750 2034 4750 
z
" transform="scale(0.015625)"/>
       </defs>
       <use xlink:href="#DejaVuSans-30"/>
      </g>
     </g>
    </g>
    <g id="xtick_2">
     <g id="line2d_2">
      <g>
       <use xlink:href="#m02e2e2f93c" x="78.597222" y="171.32" style="stroke: #000000; stroke-width: 0.8"/>
      </g>
     </g>
     <g id="text_2">
      <!-- 20 -->
      <g transform="translate(72.234722 185.918438) scale(0.1 -0.1)">
       <defs>
        <path id="DejaVuSans-32" d="M 1228 531 
L 3431 531 
L 3431 0 
L 469 0 
L 469 531 
Q 828 903 1448 1529 
Q 2069 2156 2228 2338 
Q 2531 2678 2651 2914 
Q 2772 3150 2772 3378 
Q 2772 3750 2511 3984 
Q 2250 4219 1831 4219 
Q 1534 4219 1204 4116 
Q 875 4013 500 3803 
L 500 4441 
Q 881 4594 1212 4672 
Q 1544 4750 1819 4750 
Q 2544 4750 2975 4387 
Q 3406 4025 3406 3419 
Q 3406 3131 3298 2873 
Q 3191 2616 2906 2266 
Q 2828 2175 2409 1742 
Q 1991 1309 1228 531 
z
" transform="scale(0.015625)"/>
       </defs>
       <use xlink:href="#DejaVuSans-32"/>
       <use xlink:href="#DejaVuSans-30" transform="translate(63.623047 0)"/>
      </g>
     </g>
    </g>
    <g id="xtick_3">
     <g id="line2d_3">
      <g>
       <use xlink:href="#m02e2e2f93c" x="120.224444" y="171.32" style="stroke: #000000; stroke-width: 0.8"/>
      </g>
     </g>
     <g id="text_3">
      <!-- 40 -->
      <g transform="translate(113.861944 185.918438) scale(0.1 -0.1)">
       <defs>
        <path id="DejaVuSans-34" d="M 2419 4116 
L 825 1625 
L 2419 1625 
L 2419 4116 
z
M 2253 4666 
L 3047 4666 
L 3047 1625 
L 3713 1625 
L 3713 1100 
L 3047 1100 
L 3047 0 
L 2419 0 
L 2419 1100 
L 313 1100 
L 313 1709 
L 2253 4666 
z
" transform="scale(0.015625)"/>
       </defs>
       <use xlink:href="#DejaVuSans-34"/>
       <use xlink:href="#DejaVuSans-30" transform="translate(63.623047 0)"/>
      </g>
     </g>
    </g>
    <g id="xtick_4">
     <g id="line2d_4">
      <g>
       <use xlink:href="#m02e2e2f93c" x="161.851667" y="171.32" style="stroke: #000000; stroke-width: 0.8"/>
      </g>
     </g>
     <g id="text_4">
      <!-- 60 -->
      <g transform="translate(155.489167 185.918438) scale(0.1 -0.1)">
       <defs>
        <path id="DejaVuSans-36" d="M 2113 2584 
Q 1688 2584 1439 2293 
Q 1191 2003 1191 1497 
Q 1191 994 1439 701 
Q 1688 409 2113 409 
Q 2538 409 2786 701 
Q 3034 994 3034 1497 
Q 3034 2003 2786 2293 
Q 2538 2584 2113 2584 
z
M 3366 4563 
L 3366 3988 
Q 3128 4100 2886 4159 
Q 2644 4219 2406 4219 
Q 1781 4219 1451 3797 
Q 1122 3375 1075 2522 
Q 1259 2794 1537 2939 
Q 1816 3084 2150 3084 
Q 2853 3084 3261 2657 
Q 3669 2231 3669 1497 
Q 3669 778 3244 343 
Q 2819 -91 2113 -91 
Q 1303 -91 875 529 
Q 447 1150 447 2328 
Q 447 3434 972 4092 
Q 1497 4750 2381 4750 
Q 2619 4750 2861 4703 
Q 3103 4656 3366 4563 
z
" transform="scale(0.015625)"/>
       </defs>
       <use xlink:href="#DejaVuSans-36"/>
       <use xlink:href="#DejaVuSans-30" transform="translate(63.623047 0)"/>
      </g>
     </g>
    </g>
    <g id="xtick_5">
     <g id="line2d_5">
      <g>
       <use xlink:href="#m02e2e2f93c" x="203.478889" y="171.32" style="stroke: #000000; stroke-width: 0.8"/>
      </g>
     </g>
     <g id="text_5">
      <!-- 80 -->
      <g transform="translate(197.116389 185.918438) scale(0.1 -0.1)">
       <defs>
        <path id="DejaVuSans-38" d="M 2034 2216 
Q 1584 2216 1326 1975 
Q 1069 1734 1069 1313 
Q 1069 891 1326 650 
Q 1584 409 2034 409 
Q 2484 409 2743 651 
Q 3003 894 3003 1313 
Q 3003 1734 2745 1975 
Q 2488 2216 2034 2216 
z
M 1403 2484 
Q 997 2584 770 2862 
Q 544 3141 544 3541 
Q 544 4100 942 4425 
Q 1341 4750 2034 4750 
Q 2731 4750 3128 4425 
Q 3525 4100 3525 3541 
Q 3525 3141 3298 2862 
Q 3072 2584 2669 2484 
Q 3125 2378 3379 2068 
Q 3634 1759 3634 1313 
Q 3634 634 3220 271 
Q 2806 -91 2034 -91 
Q 1263 -91 848 271 
Q 434 634 434 1313 
Q 434 1759 690 2068 
Q 947 2378 1403 2484 
z
M 1172 3481 
Q 1172 3119 1398 2916 
Q 1625 2713 2034 2713 
Q 2441 2713 2670 2916 
Q 2900 3119 2900 3481 
Q 2900 3844 2670 4047 
Q 2441 4250 2034 4250 
Q 1625 4250 1398 4047 
Q 1172 3844 1172 3481 
z
" transform="scale(0.015625)"/>
       </defs>
       <use xlink:href="#DejaVuSans-38"/>
       <use xlink:href="#DejaVuSans-30" transform="translate(63.623047 0)"/>
      </g>
     </g>
    </g>
    <g id="xtick_6">
     <g id="line2d_6">
      <g>
       <use xlink:href="#m02e2e2f93c" x="245.106111" y="171.32" style="stroke: #000000; stroke-width: 0.8"/>
      </g>
     </g>
     <g id="text_6">
      <!-- 100 -->
      <g transform="translate(235.562361 185.918438) scale(0.1 -0.1)">
       <defs>
        <path id="DejaVuSans-31" d="M 794 531 
L 1825 531 
L 1825 4091 
L 703 3866 
L 703 4441 
L 1819 4666 
L 2450 4666 
L 2450 531 
L 3481 531 
L 3481 0 
L 794 0 
L 794 531 
z
" transform="scale(0.015625)"/>
       </defs>
       <use xlink:href="#DejaVuSans-31"/>
       <use xlink:href="#DejaVuSans-30" transform="translate(63.623047 0)"/>
       <use xlink:href="#DejaVuSans-30" transform="translate(127.246094 0)"/>
      </g>
     </g>
    </g>
    <g id="xtick_7">
     <g id="line2d_7">
      <g>
       <use xlink:href="#m02e2e2f93c" x="286.733333" y="171.32" style="stroke: #000000; stroke-width: 0.8"/>
      </g>
     </g>
     <g id="text_7">
      <!-- 120 -->
      <g transform="translate(277.189583 185.918438) scale(0.1 -0.1)">
       <use xlink:href="#DejaVuSans-31"/>
       <use xlink:href="#DejaVuSans-32" transform="translate(63.623047 0)"/>
       <use xlink:href="#DejaVuSans-30" transform="translate(127.246094 0)"/>
      </g>
     </g>
    </g>
    <g id="xtick_8">
     <g id="line2d_8">
      <g>
       <use xlink:href="#m02e2e2f93c" x="328.360556" y="171.32" style="stroke: #000000; stroke-width: 0.8"/>
      </g>
     </g>
     <g id="text_8">
      <!-- 140 -->
      <g transform="translate(318.816806 185.918438) scale(0.1 -0.1)">
       <use xlink:href="#DejaVuSans-31"/>
       <use xlink:href="#DejaVuSans-34" transform="translate(63.623047 0)"/>
       <use xlink:href="#DejaVuSans-30" transform="translate(127.246094 0)"/>
      </g>
     </g>
    </g>
    <g id="xtick_9">
     <g id="line2d_9">
      <g>
       <use xlink:href="#m02e2e2f93c" x="369.987778" y="171.32" style="stroke: #000000; stroke-width: 0.8"/>
      </g>
     </g>
     <g id="text_9">
      <!-- 160 -->
      <g transform="translate(360.444028 185.918438) scale(0.1 -0.1)">
       <use xlink:href="#DejaVuSans-31"/>
       <use xlink:href="#DejaVuSans-36" transform="translate(63.623047 0)"/>
       <use xlink:href="#DejaVuSans-30" transform="translate(127.246094 0)"/>
      </g>
     </g>
    </g>
    <g id="xtick_10">
     <g id="line2d_10">
      <g>
       <use xlink:href="#m02e2e2f93c" x="411.615" y="171.32" style="stroke: #000000; stroke-width: 0.8"/>
      </g>
     </g>
     <g id="text_10">
      <!-- 180 -->
      <g transform="translate(402.07125 185.918438) scale(0.1 -0.1)">
       <use xlink:href="#DejaVuSans-31"/>
       <use xlink:href="#DejaVuSans-38" transform="translate(63.623047 0)"/>
       <use xlink:href="#DejaVuSans-30" transform="translate(127.246094 0)"/>
      </g>
     </g>
    </g>
   </g>
   <g id="matplotlib.axis_2">
    <g id="ytick_1">
     <g id="line2d_11">
      <defs>
       <path id="m8c2a1822a3" d="M 0 0 
L -3.5 0 
" style="stroke: #000000; stroke-width: 0.8"/>
      </defs>
      <g>
       <use xlink:href="#m8c2a1822a3" x="36.97" y="164.689091" style="stroke: #000000; stroke-width: 0.8"/>
      </g>
     </g>
     <g id="text_11">
      <!-- 0 -->
      <g transform="translate(23.6075 168.48831) scale(0.1 -0.1)">
       <use xlink:href="#DejaVuSans-30"/>
      </g>
     </g>
    </g>
    <g id="ytick_2">
     <g id="line2d_12">
      <g>
       <use xlink:href="#m8c2a1822a3" x="36.97" y="139.185594" style="stroke: #000000; stroke-width: 0.8"/>
      </g>
     </g>
     <g id="text_12">
      <!-- 20 -->
      <g transform="translate(17.245 142.984813) scale(0.1 -0.1)">
       <use xlink:href="#DejaVuSans-32"/>
       <use xlink:href="#DejaVuSans-30" transform="translate(63.623047 0)"/>
      </g>
     </g>
    </g>
    <g id="ytick_3">
     <g id="line2d_13">
      <g>
       <use xlink:href="#m8c2a1822a3" x="36.97" y="113.682098" style="stroke: #000000; stroke-width: 0.8"/>
      </g>
     </g>
     <g id="text_13">
      <!-- 40 -->
      <g transform="translate(17.245 117.481317) scale(0.1 -0.1)">
       <use xlink:href="#DejaVuSans-34"/>
       <use xlink:href="#DejaVuSans-30" transform="translate(63.623047 0)"/>
      </g>
     </g>
    </g>
    <g id="ytick_4">
     <g id="line2d_14">
      <g>
       <use xlink:href="#m8c2a1822a3" x="36.97" y="88.178601" style="stroke: #000000; stroke-width: 0.8"/>
      </g>
     </g>
     <g id="text_14">
      <!-- 60 -->
      <g transform="translate(17.245 91.97782) scale(0.1 -0.1)">
       <use xlink:href="#DejaVuSans-36"/>
       <use xlink:href="#DejaVuSans-30" transform="translate(63.623047 0)"/>
      </g>
     </g>
    </g>
    <g id="ytick_5">
     <g id="line2d_15">
      <g>
       <use xlink:href="#m8c2a1822a3" x="36.97" y="62.675105" style="stroke: #000000; stroke-width: 0.8"/>
      </g>
     </g>
     <g id="text_15">
      <!-- 80 -->
      <g transform="translate(17.245 66.474324) scale(0.1 -0.1)">
       <use xlink:href="#DejaVuSans-38"/>
       <use xlink:href="#DejaVuSans-30" transform="translate(63.623047 0)"/>
      </g>
     </g>
    </g>
    <g id="ytick_6">
     <g id="line2d_16">
      <g>
       <use xlink:href="#m8c2a1822a3" x="36.97" y="37.171608" style="stroke: #000000; stroke-width: 0.8"/>
      </g>
     </g>
     <g id="text_16">
      <!-- 100 -->
      <g transform="translate(10.8825 40.970827) scale(0.1 -0.1)">
       <use xlink:href="#DejaVuSans-31"/>
       <use xlink:href="#DejaVuSans-30" transform="translate(63.623047 0)"/>
       <use xlink:href="#DejaVuSans-30" transform="translate(127.246094 0)"/>
      </g>
     </g>
    </g>
   </g>
   <g id="line2d_17">
    <path d="M 36.97 48.648182 
L 39.051361 128.984196 
L 41.132722 145.561469 
L 43.214083 146.836643 
L 45.295444 151.937343 
L 47.376806 120.057972 
L 49.458167 131.534545 
L 51.539528 163.413916 
L 53.620889 140.460769 
L 57.783611 163.413916 
L 59.864972 141.735944 
L 61.946333 164.689091 
L 64.027694 154.487692 
L 66.109056 153.212517 
L 68.190417 153.212517 
L 70.271778 146.836643 
L 72.353139 164.689091 
L 74.4345 154.487692 
L 76.515861 159.588392 
L 78.597222 154.487692 
L 80.678583 163.413916 
L 82.759944 155.762867 
L 84.841306 159.588392 
L 86.922667 162.138741 
L 89.004028 160.863566 
L 91.085389 163.413916 
L 93.16675 164.689091 
L 97.329472 164.689091 
L 99.410833 144.286294 
L 101.492194 164.689091 
L 105.654917 164.689091 
L 107.736278 158.313217 
L 109.817639 163.413916 
L 111.899 163.413916 
L 113.980361 164.689091 
L 118.143083 164.689091 
L 120.224444 162.138741 
L 122.305806 164.689091 
L 124.387167 163.413916 
L 126.468528 164.689091 
L 138.956694 164.689091 
L 141.038056 154.487692 
L 143.119417 164.689091 
L 149.3635 164.689091 
L 151.444861 162.138741 
L 153.526222 164.689091 
L 159.770306 164.689091 
L 161.851667 158.313217 
L 163.933028 164.689091 
L 172.258472 164.689091 
L 174.339833 163.413916 
L 176.421194 164.689091 
L 180.583917 164.689091 
L 182.665278 159.588392 
L 184.746639 164.689091 
L 186.828 164.689091 
L 188.909361 158.313217 
L 190.990722 162.138741 
L 193.072083 150.662168 
L 195.153444 164.689091 
L 201.397528 164.689091 
L 203.478889 162.138741 
L 205.56025 164.689091 
L 207.641611 164.689091 
L 209.722972 153.212517 
L 211.804333 164.689091 
L 215.967056 164.689091 
L 218.048417 162.138741 
L 220.129778 164.689091 
L 222.211139 164.689091 
L 224.2925 162.138741 
L 226.373861 164.689091 
L 234.699306 164.689091 
L 236.780667 155.762867 
L 238.862028 164.689091 
L 245.106111 164.689091 
L 247.187472 159.588392 
L 249.268833 164.689091 
L 251.350194 162.138741 
L 253.431556 164.689091 
L 263.838361 164.689091 
L 265.919722 146.836643 
L 268.001083 164.689091 
L 272.163806 164.689091 
L 274.245167 155.762867 
L 276.326528 164.689091 
L 284.651972 164.689091 
L 286.733333 141.735944 
L 288.814694 164.689091 
L 295.058778 164.689091 
L 297.140139 160.863566 
L 299.2215 155.762867 
L 301.302861 164.689091 
L 309.628306 164.689091 
L 311.709667 157.038042 
L 313.791028 158.313217 
L 315.872389 164.689091 
L 326.279194 164.689091 
L 328.360556 145.561469 
L 330.441917 157.038042 
L 332.523278 164.689091 
L 336.686 164.689091 
L 338.767361 158.313217 
L 340.848722 163.413916 
L 342.930083 164.689091 
L 347.092806 164.689091 
L 349.174167 153.212517 
L 351.255528 164.689091 
L 359.580972 164.689091 
L 361.662333 140.460769 
L 363.743694 164.689091 
L 365.825056 157.038042 
L 367.906417 164.689091 
L 369.987778 145.561469 
L 372.069139 162.138741 
L 374.1505 164.689091 
L 376.231861 153.212517 
L 378.313222 148.111818 
L 380.394583 137.91042 
L 382.475944 150.662168 
L 384.557306 162.138741 
L 386.638667 164.689091 
L 388.720028 146.836643 
L 390.801389 63.95028 
L 392.88275 153.212517 
L 394.964111 139.185594 
L 397.045472 102.205524 
L 399.126833 99.655175 
L 401.208194 72.876503 
L 403.289556 85.628252 
L 405.370917 32.070909 
L 407.452278 72.876503 
L 409.533639 98.38 
L 409.533639 98.38 
" clip-path="url(#pd076022476)" style="fill: none; stroke: #ff0000; stroke-width: 1.5; stroke-linecap: square"/>
   </g>
   <g id="patch_3">
    <path d="M 36.97 171.32 
L 36.97 25.44 
" style="fill: none; stroke: #000000; stroke-width: 0.8; stroke-linejoin: miter; stroke-linecap: square"/>
   </g>
   <g id="patch_4">
    <path d="M 411.615 171.32 
L 411.615 25.44 
" style="fill: none; stroke: #000000; stroke-width: 0.8; stroke-linejoin: miter; stroke-linecap: square"/>
   </g>
   <g id="patch_5">
    <path d="M 36.97 171.32 
L 411.615 171.32 
" style="fill: none; stroke: #000000; stroke-width: 0.8; stroke-linejoin: miter; stroke-linecap: square"/>
   </g>
   <g id="patch_6">
    <path d="M 36.97 25.44 
L 411.615 25.44 
" style="fill: none; stroke: #000000; stroke-width: 0.8; stroke-linejoin: miter; stroke-linecap: square"/>
   </g>
   <g id="text_17">
    <!-- H histogram (bbox) -->
    <g transform="translate(166.21625 19.44) scale(0.12 -0.12)">
     <defs>
      <path id="DejaVuSans-48" d="M 628 4666 
L 1259 4666 
L 1259 2753 
L 3553 2753 
L 3553 4666 
L 4184 4666 
L 4184 0 
L 3553 0 
L 3553 2222 
L 1259 2222 
L 1259 0 
L 628 0 
L 628 4666 
z
" transform="scale(0.015625)"/>
      <path id="DejaVuSans-20" transform="scale(0.015625)"/>
      <path id="DejaVuSans-68" d="M 3513 2113 
L 3513 0 
L 2938 0 
L 2938 2094 
Q 2938 2591 2744 2837 
Q 2550 3084 2163 3084 
Q 1697 3084 1428 2787 
Q 1159 2491 1159 1978 
L 1159 0 
L 581 0 
L 581 4863 
L 1159 4863 
L 1159 2956 
Q 1366 3272 1645 3428 
Q 1925 3584 2291 3584 
Q 2894 3584 3203 3211 
Q 3513 2838 3513 2113 
z
" transform="scale(0.015625)"/>
      <path id="DejaVuSans-69" d="M 603 3500 
L 1178 3500 
L 1178 0 
L 603 0 
L 603 3500 
z
M 603 4863 
L 1178 4863 
L 1178 4134 
L 603 4134 
L 603 4863 
z
" transform="scale(0.015625)"/>
      <path id="DejaVuSans-73" d="M 2834 3397 
L 2834 2853 
Q 2591 2978 2328 3040 
Q 2066 3103 1784 3103 
Q 1356 3103 1142 2972 
Q 928 2841 928 2578 
Q 928 2378 1081 2264 
Q 1234 2150 1697 2047 
L 1894 2003 
Q 2506 1872 2764 1633 
Q 3022 1394 3022 966 
Q 3022 478 2636 193 
Q 2250 -91 1575 -91 
Q 1294 -91 989 -36 
Q 684 19 347 128 
L 347 722 
Q 666 556 975 473 
Q 1284 391 1588 391 
Q 1994 391 2212 530 
Q 2431 669 2431 922 
Q 2431 1156 2273 1281 
Q 2116 1406 1581 1522 
L 1381 1569 
Q 847 1681 609 1914 
Q 372 2147 372 2553 
Q 372 3047 722 3315 
Q 1072 3584 1716 3584 
Q 2034 3584 2315 3537 
Q 2597 3491 2834 3397 
z
" transform="scale(0.015625)"/>
      <path id="DejaVuSans-74" d="M 1172 4494 
L 1172 3500 
L 2356 3500 
L 2356 3053 
L 1172 3053 
L 1172 1153 
Q 1172 725 1289 603 
Q 1406 481 1766 481 
L 2356 481 
L 2356 0 
L 1766 0 
Q 1100 0 847 248 
Q 594 497 594 1153 
L 594 3053 
L 172 3053 
L 172 3500 
L 594 3500 
L 594 4494 
L 1172 4494 
z
" transform="scale(0.015625)"/>
      <path id="DejaVuSans-6f" d="M 1959 3097 
Q 1497 3097 1228 2736 
Q 959 2375 959 1747 
Q 959 1119 1226 758 
Q 1494 397 1959 397 
Q 2419 397 2687 759 
Q 2956 1122 2956 1747 
Q 2956 2369 2687 2733 
Q 2419 3097 1959 3097 
z
M 1959 3584 
Q 2709 3584 3137 3096 
Q 3566 2609 3566 1747 
Q 3566 888 3137 398 
Q 2709 -91 1959 -91 
Q 1206 -91 779 398 
Q 353 888 353 1747 
Q 353 2609 779 3096 
Q 1206 3584 1959 3584 
z
" transform="scale(0.015625)"/>
      <path id="DejaVuSans-67" d="M 2906 1791 
Q 2906 2416 2648 2759 
Q 2391 3103 1925 3103 
Q 1463 3103 1205 2759 
Q 947 2416 947 1791 
Q 947 1169 1205 825 
Q 1463 481 1925 481 
Q 2391 481 2648 825 
Q 2906 1169 2906 1791 
z
M 3481 434 
Q 3481 -459 3084 -895 
Q 2688 -1331 1869 -1331 
Q 1566 -1331 1297 -1286 
Q 1028 -1241 775 -1147 
L 775 -588 
Q 1028 -725 1275 -790 
Q 1522 -856 1778 -856 
Q 2344 -856 2625 -561 
Q 2906 -266 2906 331 
L 2906 616 
Q 2728 306 2450 153 
Q 2172 0 1784 0 
Q 1141 0 747 490 
Q 353 981 353 1791 
Q 353 2603 747 3093 
Q 1141 3584 1784 3584 
Q 2172 3584 2450 3431 
Q 2728 3278 2906 2969 
L 2906 3500 
L 3481 3500 
L 3481 434 
z
" transform="scale(0.015625)"/>
      <path id="DejaVuSans-72" d="M 2631 2963 
Q 2534 3019 2420 3045 
Q 2306 3072 2169 3072 
Q 1681 3072 1420 2755 
Q 1159 2438 1159 1844 
L 1159 0 
L 581 0 
L 581 3500 
L 1159 3500 
L 1159 2956 
Q 1341 3275 1631 3429 
Q 1922 3584 2338 3584 
Q 2397 3584 2469 3576 
Q 2541 3569 2628 3553 
L 2631 2963 
z
" transform="scale(0.015625)"/>
      <path id="DejaVuSans-61" d="M 2194 1759 
Q 1497 1759 1228 1600 
Q 959 1441 959 1056 
Q 959 750 1161 570 
Q 1363 391 1709 391 
Q 2188 391 2477 730 
Q 2766 1069 2766 1631 
L 2766 1759 
L 2194 1759 
z
M 3341 1997 
L 3341 0 
L 2766 0 
L 2766 531 
Q 2569 213 2275 61 
Q 1981 -91 1556 -91 
Q 1019 -91 701 211 
Q 384 513 384 1019 
Q 384 1609 779 1909 
Q 1175 2209 1959 2209 
L 2766 2209 
L 2766 2266 
Q 2766 2663 2505 2880 
Q 2244 3097 1772 3097 
Q 1472 3097 1187 3025 
Q 903 2953 641 2809 
L 641 3341 
Q 956 3463 1253 3523 
Q 1550 3584 1831 3584 
Q 2591 3584 2966 3190 
Q 3341 2797 3341 1997 
z
" transform="scale(0.015625)"/>
      <path id="DejaVuSans-6d" d="M 3328 2828 
Q 3544 3216 3844 3400 
Q 4144 3584 4550 3584 
Q 5097 3584 5394 3201 
Q 5691 2819 5691 2113 
L 5691 0 
L 5113 0 
L 5113 2094 
Q 5113 2597 4934 2840 
Q 4756 3084 4391 3084 
Q 3944 3084 3684 2787 
Q 3425 2491 3425 1978 
L 3425 0 
L 2847 0 
L 2847 2094 
Q 2847 2600 2669 2842 
Q 2491 3084 2119 3084 
Q 1678 3084 1418 2786 
Q 1159 2488 1159 1978 
L 1159 0 
L 581 0 
L 581 3500 
L 1159 3500 
L 1159 2956 
Q 1356 3278 1631 3431 
Q 1906 3584 2284 3584 
Q 2666 3584 2933 3390 
Q 3200 3197 3328 2828 
z
" transform="scale(0.015625)"/>
      <path id="DejaVuSans-28" d="M 1984 4856 
Q 1566 4138 1362 3434 
Q 1159 2731 1159 2009 
Q 1159 1288 1364 580 
Q 1569 -128 1984 -844 
L 1484 -844 
Q 1016 -109 783 600 
Q 550 1309 550 2009 
Q 550 2706 781 3412 
Q 1013 4119 1484 4856 
L 1984 4856 
z
" transform="scale(0.015625)"/>
      <path id="DejaVuSans-62" d="M 3116 1747 
Q 3116 2381 2855 2742 
Q 2594 3103 2138 3103 
Q 1681 3103 1420 2742 
Q 1159 2381 1159 1747 
Q 1159 1113 1420 752 
Q 1681 391 2138 391 
Q 2594 391 2855 752 
Q 3116 1113 3116 1747 
z
M 1159 2969 
Q 1341 3281 1617 3432 
Q 1894 3584 2278 3584 
Q 2916 3584 3314 3078 
Q 3713 2572 3713 1747 
Q 3713 922 3314 415 
Q 2916 -91 2278 -91 
Q 1894 -91 1617 61 
Q 1341 213 1159 525 
L 1159 0 
L 581 0 
L 581 4863 
L 1159 4863 
L 1159 2969 
z
" transform="scale(0.015625)"/>
      <path id="DejaVuSans-78" d="M 3513 3500 
L 2247 1797 
L 3578 0 
L 2900 0 
L 1881 1375 
L 863 0 
L 184 0 
L 1544 1831 
L 300 3500 
L 978 3500 
L 1906 2253 
L 2834 3500 
L 3513 3500 
z
" transform="scale(0.015625)"/>
      <path id="DejaVuSans-29" d="M 513 4856 
L 1013 4856 
Q 1481 4119 1714 3412 
Q 1947 2706 1947 2009 
Q 1947 1309 1714 600 
Q 1481 -109 1013 -844 
L 513 -844 
Q 928 -128 1133 580 
Q 1338 1288 1338 2009 
Q 1338 2731 1133 3434 
Q 928 4138 513 4856 
z
" transform="scale(0.015625)"/>
     </defs>
     <use xlink:href="#DejaVuSans-48"/>
     <use xlink:href="#DejaVuSans-20" transform="translate(75.195312 0)"/>
     <use xlink:href="#DejaVuSans-68" transform="translate(106.982422 0)"/>
     <use xlink:href="#DejaVuSans-69" transform="translate(170.361328 0)"/>
     <use xlink:href="#DejaVuSans-73" transform="translate(198.144531 0)"/>
     <use xlink:href="#DejaVuSans-74" transform="translate(250.244141 0)"/>
     <use xlink:href="#DejaVuSans-6f" transform="translate(289.453125 0)"/>
     <use xlink:href="#DejaVuSans-67" transform="translate(350.634766 0)"/>
     <use xlink:href="#DejaVuSans-72" transform="translate(414.111328 0)"/>
     <use xlink:href="#DejaVuSans-61" transform="translate(455.224609 0)"/>
     <use xlink:href="#DejaVuSans-6d" transform="translate(516.503906 0)"/>
     <use xlink:href="#DejaVuSans-20" transform="translate(613.916016 0)"/>
     <use xlink:href="#DejaVuSans-28" transform="translate(645.703125 0)"/>
     <use xlink:href="#DejaVuSans-62" transform="translate(684.716797 0)"/>
     <use xlink:href="#DejaVuSans-62" transform="translate(748.193359 0)"/>
     <use xlink:href="#DejaVuSans-6f" transform="translate(811.669922 0)"/>
     <use xlink:href="#DejaVuSans-78" transform="translate(869.726562 0)"/>
     <use xlink:href="#DejaVuSans-29" transform="translate(928.90625 0)"/>
    </g>
   </g>
  </g>
  <g id="axes_2">
   <g id="patch_7">
    <path d="M 36.97 359.72 
L 411.615 359.72 
L 411.615 213.84 
L 36.97 213.84 
z
" style="fill: #ffffff"/>
   </g>
   <g id="matplotlib.axis_3">
    <g id="xtick_11">
     <g id="line2d_18">
      <g>
       <use xlink:href="#m02e2e2f93c" x="36.97" y="359.72" style="stroke: #000000; stroke-width: 0.8"/>
      </g>
     </g>
     <g id="text_18">
      <!-- 0 -->
      <g transform="translate(33.78875 374.318438) scale(0.1 -0.1)">
       <use xlink:href="#DejaVuSans-30"/>
      </g>
     </g>
    </g>
    <g id="xtick_12">
     <g id="line2d_19">
      <g>
       <use xlink:href="#m02e2e2f93c" x="110.429804" y="359.72" style="stroke: #000000; stroke-width: 0.8"/>
      </g>
     </g>
     <g id="text_19">
      <!-- 50 -->
      <g transform="translate(104.067304 374.318438) scale(0.1 -0.1)">
       <defs>
        <path id="DejaVuSans-35" d="M 691 4666 
L 3169 4666 
L 3169 4134 
L 1269 4134 
L 1269 2991 
Q 1406 3038 1543 3061 
Q 1681 3084 1819 3084 
Q 2600 3084 3056 2656 
Q 3513 2228 3513 1497 
Q 3513 744 3044 326 
Q 2575 -91 1722 -91 
Q 1428 -91 1123 -41 
Q 819 9 494 109 
L 494 744 
Q 775 591 1075 516 
Q 1375 441 1709 441 
Q 2250 441 2565 725 
Q 2881 1009 2881 1497 
Q 2881 1984 2565 2268 
Q 2250 2553 1709 2553 
Q 1456 2553 1204 2497 
Q 953 2441 691 2322 
L 691 4666 
z
" transform="scale(0.015625)"/>
       </defs>
       <use xlink:href="#DejaVuSans-35"/>
       <use xlink:href="#DejaVuSans-30" transform="translate(63.623047 0)"/>
      </g>
     </g>
    </g>
    <g id="xtick_13">
     <g id="line2d_20">
      <g>
       <use xlink:href="#m02e2e2f93c" x="183.889608" y="359.72" style="stroke: #000000; stroke-width: 0.8"/>
      </g>
     </g>
     <g id="text_20">
      <!-- 100 -->
      <g transform="translate(174.345858 374.318438) scale(0.1 -0.1)">
       <use xlink:href="#DejaVuSans-31"/>
       <use xlink:href="#DejaVuSans-30" transform="translate(63.623047 0)"/>
       <use xlink:href="#DejaVuSans-30" transform="translate(127.246094 0)"/>
      </g>
     </g>
    </g>
    <g id="xtick_14">
     <g id="line2d_21">
      <g>
       <use xlink:href="#m02e2e2f93c" x="257.349412" y="359.72" style="stroke: #000000; stroke-width: 0.8"/>
      </g>
     </g>
     <g id="text_21">
      <!-- 150 -->
      <g transform="translate(247.805662 374.318438) scale(0.1 -0.1)">
       <use xlink:href="#DejaVuSans-31"/>
       <use xlink:href="#DejaVuSans-35" transform="translate(63.623047 0)"/>
       <use xlink:href="#DejaVuSans-30" transform="translate(127.246094 0)"/>
      </g>
     </g>
    </g>
    <g id="xtick_15">
     <g id="line2d_22">
      <g>
       <use xlink:href="#m02e2e2f93c" x="330.809216" y="359.72" style="stroke: #000000; stroke-width: 0.8"/>
      </g>
     </g>
     <g id="text_22">
      <!-- 200 -->
      <g transform="translate(321.265466 374.318438) scale(0.1 -0.1)">
       <use xlink:href="#DejaVuSans-32"/>
       <use xlink:href="#DejaVuSans-30" transform="translate(63.623047 0)"/>
       <use xlink:href="#DejaVuSans-30" transform="translate(127.246094 0)"/>
      </g>
     </g>
    </g>
    <g id="xtick_16">
     <g id="line2d_23">
      <g>
       <use xlink:href="#m02e2e2f93c" x="404.26902" y="359.72" style="stroke: #000000; stroke-width: 0.8"/>
      </g>
     </g>
     <g id="text_23">
      <!-- 250 -->
      <g transform="translate(394.72527 374.318438) scale(0.1 -0.1)">
       <use xlink:href="#DejaVuSans-32"/>
       <use xlink:href="#DejaVuSans-35" transform="translate(63.623047 0)"/>
       <use xlink:href="#DejaVuSans-30" transform="translate(127.246094 0)"/>
      </g>
     </g>
    </g>
   </g>
   <g id="matplotlib.axis_4">
    <g id="ytick_7">
     <g id="line2d_24">
      <g>
       <use xlink:href="#m8c2a1822a3" x="36.97" y="353.089091" style="stroke: #000000; stroke-width: 0.8"/>
      </g>
     </g>
     <g id="text_24">
      <!-- 0 -->
      <g transform="translate(23.6075 356.88831) scale(0.1 -0.1)">
       <use xlink:href="#DejaVuSans-30"/>
      </g>
     </g>
    </g>
    <g id="ytick_8">
     <g id="line2d_25">
      <g>
       <use xlink:href="#m8c2a1822a3" x="36.97" y="327.585594" style="stroke: #000000; stroke-width: 0.8"/>
      </g>
     </g>
     <g id="text_25">
      <!-- 5 -->
      <g transform="translate(23.6075 331.384813) scale(0.1 -0.1)">
       <use xlink:href="#DejaVuSans-35"/>
      </g>
     </g>
    </g>
    <g id="ytick_9">
     <g id="line2d_26">
      <g>
       <use xlink:href="#m8c2a1822a3" x="36.97" y="302.082098" style="stroke: #000000; stroke-width: 0.8"/>
      </g>
     </g>
     <g id="text_26">
      <!-- 10 -->
      <g transform="translate(17.245 305.881317) scale(0.1 -0.1)">
       <use xlink:href="#DejaVuSans-31"/>
       <use xlink:href="#DejaVuSans-30" transform="translate(63.623047 0)"/>
      </g>
     </g>
    </g>
    <g id="ytick_10">
     <g id="line2d_27">
      <g>
       <use xlink:href="#m8c2a1822a3" x="36.97" y="276.578601" style="stroke: #000000; stroke-width: 0.8"/>
      </g>
     </g>
     <g id="text_27">
      <!-- 15 -->
      <g transform="translate(17.245 280.37782) scale(0.1 -0.1)">
       <use xlink:href="#DejaVuSans-31"/>
       <use xlink:href="#DejaVuSans-35" transform="translate(63.623047 0)"/>
      </g>
     </g>
    </g>
    <g id="ytick_11">
     <g id="line2d_28">
      <g>
       <use xlink:href="#m8c2a1822a3" x="36.97" y="251.075105" style="stroke: #000000; stroke-width: 0.8"/>
      </g>
     </g>
     <g id="text_28">
      <!-- 20 -->
      <g transform="translate(17.245 254.874324) scale(0.1 -0.1)">
       <use xlink:href="#DejaVuSans-32"/>
       <use xlink:href="#DejaVuSans-30" transform="translate(63.623047 0)"/>
      </g>
     </g>
    </g>
    <g id="ytick_12">
     <g id="line2d_29">
      <g>
       <use xlink:href="#m8c2a1822a3" x="36.97" y="225.571608" style="stroke: #000000; stroke-width: 0.8"/>
      </g>
     </g>
     <g id="text_29">
      <!-- 25 -->
      <g transform="translate(17.245 229.370827) scale(0.1 -0.1)">
       <use xlink:href="#DejaVuSans-32"/>
       <use xlink:href="#DejaVuSans-35" transform="translate(63.623047 0)"/>
      </g>
     </g>
    </g>
   </g>
   <g id="line2d_30">
    <path d="M 36.97 281.679301 
L 38.439196 353.089091 
L 45.785176 353.089091 
L 47.254373 337.786993 
L 48.723569 337.786993 
L 50.192765 347.988392 
L 51.661961 322.484895 
L 53.131157 312.283497 
L 54.600353 261.276503 
L 56.069549 312.283497 
L 57.538745 327.585594 
L 59.007941 312.283497 
L 60.477137 317.384196 
L 61.946333 327.585594 
L 63.415529 322.484895 
L 64.884725 296.981399 
L 66.353922 296.981399 
L 67.823118 312.283497 
L 69.292314 337.786993 
L 70.76151 312.283497 
L 72.230706 307.182797 
L 73.699902 307.182797 
L 75.169098 281.679301 
L 76.638294 317.384196 
L 78.10749 276.578601 
L 79.576686 337.786993 
L 81.045882 317.384196 
L 82.515078 271.477902 
L 83.984275 271.477902 
L 85.453471 296.981399 
L 86.922667 302.082098 
L 88.391863 317.384196 
L 89.861059 307.182797 
L 91.330255 322.484895 
L 92.799451 286.78 
L 94.268647 307.182797 
L 95.737843 302.082098 
L 97.207039 322.484895 
L 98.676235 302.082098 
L 100.145431 317.384196 
L 101.614627 327.585594 
L 103.083824 312.283497 
L 104.55302 312.283497 
L 106.022216 327.585594 
L 107.491412 302.082098 
L 108.960608 302.082098 
L 110.429804 337.786993 
L 111.899 302.082098 
L 113.368196 317.384196 
L 116.306588 327.585594 
L 117.775784 291.880699 
L 119.24498 312.283497 
L 120.714176 302.082098 
L 122.183373 332.686294 
L 123.652569 332.686294 
L 125.121765 322.484895 
L 126.590961 291.880699 
L 128.060157 271.477902 
L 129.529353 342.887692 
L 130.998549 312.283497 
L 132.467745 332.686294 
L 133.936941 327.585594 
L 135.406137 312.283497 
L 136.875333 307.182797 
L 138.344529 317.384196 
L 139.813725 281.679301 
L 141.282922 312.283497 
L 142.752118 332.686294 
L 144.221314 327.585594 
L 145.69051 332.686294 
L 147.159706 307.182797 
L 148.628902 337.786993 
L 150.098098 291.880699 
L 151.567294 317.384196 
L 153.03649 317.384196 
L 154.505686 327.585594 
L 155.974882 302.082098 
L 157.444078 342.887692 
L 158.913275 317.384196 
L 160.382471 347.988392 
L 161.851667 281.679301 
L 163.320863 332.686294 
L 164.790059 281.679301 
L 166.259255 307.182797 
L 167.728451 327.585594 
L 169.197647 312.283497 
L 170.666843 307.182797 
L 172.136039 317.384196 
L 173.605235 317.384196 
L 175.074431 332.686294 
L 176.543627 337.786993 
L 178.012824 337.786993 
L 179.48202 322.484895 
L 180.951216 322.484895 
L 182.420412 327.585594 
L 183.889608 302.082098 
L 185.358804 307.182797 
L 186.828 317.384196 
L 188.297196 307.182797 
L 189.766392 322.484895 
L 191.235588 332.686294 
L 192.704784 307.182797 
L 194.17398 332.686294 
L 197.112373 302.082098 
L 198.581569 307.182797 
L 200.050765 332.686294 
L 201.519961 307.182797 
L 202.989157 327.585594 
L 204.458353 291.880699 
L 205.927549 327.585594 
L 207.396745 317.384196 
L 208.865941 317.384196 
L 210.335137 322.484895 
L 211.804333 337.786993 
L 213.273529 317.384196 
L 214.742725 317.384196 
L 216.211922 322.484895 
L 217.681118 337.786993 
L 220.61951 327.585594 
L 222.088706 342.887692 
L 223.557902 327.585594 
L 225.027098 296.981399 
L 226.496294 342.887692 
L 227.96549 302.082098 
L 229.434686 307.182797 
L 230.903882 307.182797 
L 232.373078 312.283497 
L 233.842275 327.585594 
L 235.311471 327.585594 
L 236.780667 332.686294 
L 238.249863 312.283497 
L 239.719059 322.484895 
L 241.188255 337.786993 
L 242.657451 327.585594 
L 244.126647 342.887692 
L 245.595843 317.384196 
L 247.065039 347.988392 
L 248.534235 342.887692 
L 250.003431 353.089091 
L 251.472627 332.686294 
L 254.41102 322.484895 
L 255.880216 353.089091 
L 257.349412 332.686294 
L 258.818608 347.988392 
L 260.287804 342.887692 
L 263.226196 342.887692 
L 264.695392 322.484895 
L 266.164588 327.585594 
L 267.633784 337.786993 
L 269.10298 322.484895 
L 270.572176 342.887692 
L 272.041373 342.887692 
L 273.510569 337.786993 
L 274.979765 342.887692 
L 276.448961 312.283497 
L 277.918157 342.887692 
L 279.387353 327.585594 
L 280.856549 342.887692 
L 282.325745 332.686294 
L 283.794941 347.988392 
L 286.733333 327.585594 
L 288.202529 347.988392 
L 291.140922 347.988392 
L 292.610118 322.484895 
L 294.079314 342.887692 
L 295.54851 337.786993 
L 297.017706 317.384196 
L 298.486902 353.089091 
L 299.956098 337.786993 
L 301.425294 337.786993 
L 302.89449 353.089091 
L 304.363686 332.686294 
L 305.832882 353.089091 
L 307.302078 342.887692 
L 308.771275 347.988392 
L 310.240471 342.887692 
L 311.709667 347.988392 
L 313.178863 342.887692 
L 314.648059 347.988392 
L 316.117255 337.786993 
L 317.586451 342.887692 
L 319.055647 353.089091 
L 320.524843 342.887692 
L 321.994039 347.988392 
L 323.463235 347.988392 
L 324.932431 327.585594 
L 326.401627 342.887692 
L 327.870824 347.988392 
L 329.34002 342.887692 
L 332.278412 353.089091 
L 333.747608 347.988392 
L 336.686 347.988392 
L 338.155196 337.786993 
L 339.624392 347.988392 
L 341.093588 353.089091 
L 342.562784 347.988392 
L 345.501176 347.988392 
L 346.970373 353.089091 
L 348.439569 347.988392 
L 349.908765 347.988392 
L 352.847157 337.786993 
L 354.316353 337.786993 
L 355.785549 347.988392 
L 357.254745 353.089091 
L 358.723941 347.988392 
L 363.131529 347.988392 
L 364.600725 353.089091 
L 367.539118 353.089091 
L 370.47751 342.887692 
L 371.946706 353.089091 
L 373.415902 353.089091 
L 374.885098 337.786993 
L 376.354294 347.988392 
L 377.82349 347.988392 
L 379.292686 353.089091 
L 380.761882 353.089091 
L 382.231078 347.988392 
L 383.700275 353.089091 
L 385.169471 353.089091 
L 386.638667 347.988392 
L 388.107863 353.089091 
L 389.577059 353.089091 
L 391.046255 347.988392 
L 392.515451 347.988392 
L 393.984647 353.089091 
L 395.453843 353.089091 
L 396.923039 347.988392 
L 398.392235 347.988392 
L 401.330627 337.786993 
L 402.799824 347.988392 
L 404.26902 353.089091 
L 405.738216 353.089091 
L 407.207412 347.988392 
L 408.676608 353.089091 
L 410.145804 353.089091 
L 411.615 220.470909 
L 411.615 220.470909 
" clip-path="url(#p952ad643ea)" style="fill: none; stroke: #008000; stroke-width: 1.5; stroke-linecap: square"/>
   </g>
   <g id="patch_8">
    <path d="M 36.97 359.72 
L 36.97 213.84 
" style="fill: none; stroke: #000000; stroke-width: 0.8; stroke-linejoin: miter; stroke-linecap: square"/>
   </g>
   <g id="patch_9">
    <path d="M 411.615 359.72 
L 411.615 213.84 
" style="fill: none; stroke: #000000; stroke-width: 0.8; stroke-linejoin: miter; stroke-linecap: square"/>
   </g>
   <g id="patch_10">
    <path d="M 36.97 359.72 
L 411.615 359.72 
" style="fill: none; stroke: #000000; stroke-width: 0.8; stroke-linejoin: miter; stroke-linecap: square"/>
   </g>
   <g id="patch_11">
    <path d="M 36.97 213.84 
L 411.615 213.84 
" style="fill: none; stroke: #000000; stroke-width: 0.8; stroke-linejoin: miter; stroke-linecap: square"/>
   </g>
   <g id="text_30">
    <!-- S histogram (bbox) -->
    <g transform="translate(166.919375 207.84) scale(0.12 -0.12)">
     <defs>
      <path id="DejaVuSans-53" d="M 3425 4513 
L 3425 3897 
Q 3066 4069 2747 4153 
Q 2428 4238 2131 4238 
Q 1616 4238 1336 4038 
Q 1056 3838 1056 3469 
Q 1056 3159 1242 3001 
Q 1428 2844 1947 2747 
L 2328 2669 
Q 3034 2534 3370 2195 
Q 3706 1856 3706 1288 
Q 3706 609 3251 259 
Q 2797 -91 1919 -91 
Q 1588 -91 1214 -16 
Q 841 59 441 206 
L 441 856 
Q 825 641 1194 531 
Q 1563 422 1919 422 
Q 2459 422 2753 634 
Q 3047 847 3047 1241 
Q 3047 1584 2836 1778 
Q 2625 1972 2144 2069 
L 1759 2144 
Q 1053 2284 737 2584 
Q 422 2884 422 3419 
Q 422 4038 858 4394 
Q 1294 4750 2059 4750 
Q 2388 4750 2728 4690 
Q 3069 4631 3425 4513 
z
" transform="scale(0.015625)"/>
     </defs>
     <use xlink:href="#DejaVuSans-53"/>
     <use xlink:href="#DejaVuSans-20" transform="translate(63.476562 0)"/>
     <use xlink:href="#DejaVuSans-68" transform="translate(95.263672 0)"/>
     <use xlink:href="#DejaVuSans-69" transform="translate(158.642578 0)"/>
     <use xlink:href="#DejaVuSans-73" transform="translate(186.425781 0)"/>
     <use xlink:href="#DejaVuSans-74" transform="translate(238.525391 0)"/>
     <use xlink:href="#DejaVuSans-6f" transform="translate(277.734375 0)"/>
     <use xlink:href="#DejaVuSans-67" transform="translate(338.916016 0)"/>
     <use xlink:href="#DejaVuSans-72" transform="translate(402.392578 0)"/>
     <use xlink:href="#DejaVuSans-61" transform="translate(443.505859 0)"/>
     <use xlink:href="#DejaVuSans-6d" transform="translate(504.785156 0)"/>
     <use xlink:href="#DejaVuSans-20" transform="translate(602.197266 0)"/>
     <use xlink:href="#DejaVuSans-28" transform="translate(633.984375 0)"/>
     <use xlink:href="#DejaVuSans-62" transform="translate(672.998047 0)"/>
     <use xlink:href="#DejaVuSans-62" transform="translate(736.474609 0)"/>
     <use xlink:href="#DejaVuSans-6f" transform="translate(799.951172 0)"/>
     <use xlink:href="#DejaVuSans-78" transform="translate(858.007812 0)"/>
     <use xlink:href="#DejaVuSans-29" transform="translate(917.1875 0)"/>
    </g>
   </g>
  </g>
  <g id="axes_3">
   <g id="patch_12">
    <path d="M 36.97 548.12 
L 411.615 548.12 
L 411.615 402.24 
L 36.97 402.24 
z
" style="fill: #ffffff"/>
   </g>
   <g id="matplotlib.axis_5">
    <g id="xtick_17">
     <g id="line2d_31">
      <g>
       <use xlink:href="#m02e2e2f93c" x="36.97" y="548.12" style="stroke: #000000; stroke-width: 0.8"/>
      </g>
     </g>
     <g id="text_31">
      <!-- 0 -->
      <g transform="translate(33.78875 562.718438) scale(0.1 -0.1)">
       <use xlink:href="#DejaVuSans-30"/>
      </g>
     </g>
    </g>
    <g id="xtick_18">
     <g id="line2d_32">
      <g>
       <use xlink:href="#m02e2e2f93c" x="110.429804" y="548.12" style="stroke: #000000; stroke-width: 0.8"/>
      </g>
     </g>
     <g id="text_32">
      <!-- 50 -->
      <g transform="translate(104.067304 562.718438) scale(0.1 -0.1)">
       <use xlink:href="#DejaVuSans-35"/>
       <use xlink:href="#DejaVuSans-30" transform="translate(63.623047 0)"/>
      </g>
     </g>
    </g>
    <g id="xtick_19">
     <g id="line2d_33">
      <g>
       <use xlink:href="#m02e2e2f93c" x="183.889608" y="548.12" style="stroke: #000000; stroke-width: 0.8"/>
      </g>
     </g>
     <g id="text_33">
      <!-- 100 -->
      <g transform="translate(174.345858 562.718438) scale(0.1 -0.1)">
       <use xlink:href="#DejaVuSans-31"/>
       <use xlink:href="#DejaVuSans-30" transform="translate(63.623047 0)"/>
       <use xlink:href="#DejaVuSans-30" transform="translate(127.246094 0)"/>
      </g>
     </g>
    </g>
    <g id="xtick_20">
     <g id="line2d_34">
      <g>
       <use xlink:href="#m02e2e2f93c" x="257.349412" y="548.12" style="stroke: #000000; stroke-width: 0.8"/>
      </g>
     </g>
     <g id="text_34">
      <!-- 150 -->
      <g transform="translate(247.805662 562.718438) scale(0.1 -0.1)">
       <use xlink:href="#DejaVuSans-31"/>
       <use xlink:href="#DejaVuSans-35" transform="translate(63.623047 0)"/>
       <use xlink:href="#DejaVuSans-30" transform="translate(127.246094 0)"/>
      </g>
     </g>
    </g>
    <g id="xtick_21">
     <g id="line2d_35">
      <g>
       <use xlink:href="#m02e2e2f93c" x="330.809216" y="548.12" style="stroke: #000000; stroke-width: 0.8"/>
      </g>
     </g>
     <g id="text_35">
      <!-- 200 -->
      <g transform="translate(321.265466 562.718438) scale(0.1 -0.1)">
       <use xlink:href="#DejaVuSans-32"/>
       <use xlink:href="#DejaVuSans-30" transform="translate(63.623047 0)"/>
       <use xlink:href="#DejaVuSans-30" transform="translate(127.246094 0)"/>
      </g>
     </g>
    </g>
    <g id="xtick_22">
     <g id="line2d_36">
      <g>
       <use xlink:href="#m02e2e2f93c" x="404.26902" y="548.12" style="stroke: #000000; stroke-width: 0.8"/>
      </g>
     </g>
     <g id="text_36">
      <!-- 250 -->
      <g transform="translate(394.72527 562.718438) scale(0.1 -0.1)">
       <use xlink:href="#DejaVuSans-32"/>
       <use xlink:href="#DejaVuSans-35" transform="translate(63.623047 0)"/>
       <use xlink:href="#DejaVuSans-30" transform="translate(127.246094 0)"/>
      </g>
     </g>
    </g>
   </g>
   <g id="matplotlib.axis_6">
    <g id="ytick_13">
     <g id="line2d_37">
      <g>
       <use xlink:href="#m8c2a1822a3" x="36.97" y="541.489091" style="stroke: #000000; stroke-width: 0.8"/>
      </g>
     </g>
     <g id="text_37">
      <!-- 0 -->
      <g transform="translate(23.6075 545.28831) scale(0.1 -0.1)">
       <use xlink:href="#DejaVuSans-30"/>
      </g>
     </g>
    </g>
    <g id="ytick_14">
     <g id="line2d_38">
      <g>
       <use xlink:href="#m8c2a1822a3" x="36.97" y="512.659051" style="stroke: #000000; stroke-width: 0.8"/>
      </g>
     </g>
     <g id="text_38">
      <!-- 10 -->
      <g transform="translate(17.245 516.45827) scale(0.1 -0.1)">
       <use xlink:href="#DejaVuSans-31"/>
       <use xlink:href="#DejaVuSans-30" transform="translate(63.623047 0)"/>
      </g>
     </g>
    </g>
    <g id="ytick_15">
     <g id="line2d_39">
      <g>
       <use xlink:href="#m8c2a1822a3" x="36.97" y="483.829012" style="stroke: #000000; stroke-width: 0.8"/>
      </g>
     </g>
     <g id="text_39">
      <!-- 20 -->
      <g transform="translate(17.245 487.628231) scale(0.1 -0.1)">
       <use xlink:href="#DejaVuSans-32"/>
       <use xlink:href="#DejaVuSans-30" transform="translate(63.623047 0)"/>
      </g>
     </g>
    </g>
    <g id="ytick_16">
     <g id="line2d_40">
      <g>
       <use xlink:href="#m8c2a1822a3" x="36.97" y="454.998972" style="stroke: #000000; stroke-width: 0.8"/>
      </g>
     </g>
     <g id="text_40">
      <!-- 30 -->
      <g transform="translate(17.245 458.798191) scale(0.1 -0.1)">
       <defs>
        <path id="DejaVuSans-33" d="M 2597 2516 
Q 3050 2419 3304 2112 
Q 3559 1806 3559 1356 
Q 3559 666 3084 287 
Q 2609 -91 1734 -91 
Q 1441 -91 1130 -33 
Q 819 25 488 141 
L 488 750 
Q 750 597 1062 519 
Q 1375 441 1716 441 
Q 2309 441 2620 675 
Q 2931 909 2931 1356 
Q 2931 1769 2642 2001 
Q 2353 2234 1838 2234 
L 1294 2234 
L 1294 2753 
L 1863 2753 
Q 2328 2753 2575 2939 
Q 2822 3125 2822 3475 
Q 2822 3834 2567 4026 
Q 2313 4219 1838 4219 
Q 1578 4219 1281 4162 
Q 984 4106 628 3988 
L 628 4550 
Q 988 4650 1302 4700 
Q 1616 4750 1894 4750 
Q 2613 4750 3031 4423 
Q 3450 4097 3450 3541 
Q 3450 3153 3228 2886 
Q 3006 2619 2597 2516 
z
" transform="scale(0.015625)"/>
       </defs>
       <use xlink:href="#DejaVuSans-33"/>
       <use xlink:href="#DejaVuSans-30" transform="translate(63.623047 0)"/>
      </g>
     </g>
    </g>
    <g id="ytick_17">
     <g id="line2d_41">
      <g>
       <use xlink:href="#m8c2a1822a3" x="36.97" y="426.168933" style="stroke: #000000; stroke-width: 0.8"/>
      </g>
     </g>
     <g id="text_41">
      <!-- 40 -->
      <g transform="translate(17.245 429.968152) scale(0.1 -0.1)">
       <use xlink:href="#DejaVuSans-34"/>
       <use xlink:href="#DejaVuSans-30" transform="translate(63.623047 0)"/>
      </g>
     </g>
    </g>
   </g>
   <g id="line2d_42">
    <path d="M 36.97 541.489091 
L 38.439196 538.606087 
L 39.908392 541.489091 
L 47.254373 541.489091 
L 48.723569 538.606087 
L 50.192765 541.489091 
L 57.538745 541.489091 
L 59.007941 532.840079 
L 60.477137 541.489091 
L 61.946333 535.723083 
L 63.415529 541.489091 
L 64.884725 535.723083 
L 66.353922 521.308063 
L 67.823118 529.957075 
L 69.292314 535.723083 
L 70.76151 529.957075 
L 72.230706 532.840079 
L 73.699902 532.840079 
L 75.169098 518.425059 
L 76.638294 527.074071 
L 78.10749 515.542055 
L 79.576686 521.308063 
L 81.045882 512.659051 
L 82.515078 495.361028 
L 83.984275 486.712016 
L 86.922667 486.712016 
L 88.391863 483.829012 
L 89.861059 472.296996 
L 91.330255 443.466957 
L 92.799451 452.115968 
L 94.268647 431.934941 
L 95.737843 443.466957 
L 97.207039 408.870909 
L 98.676235 431.934941 
L 100.145431 443.466957 
L 101.614627 440.583953 
L 103.083824 466.530988 
L 104.55302 443.466957 
L 106.022216 443.466957 
L 107.491412 469.413992 
L 108.960608 469.413992 
L 111.899 480.946008 
L 113.368196 509.776047 
L 114.837392 512.659051 
L 116.306588 486.712016 
L 117.775784 489.59502 
L 119.24498 504.01004 
L 120.714176 463.647984 
L 122.183373 478.063004 
L 123.652569 506.893043 
L 125.121765 504.01004 
L 126.590961 504.01004 
L 128.060157 509.776047 
L 129.529353 504.01004 
L 130.998549 501.127036 
L 132.467745 506.893043 
L 133.936941 521.308063 
L 135.406137 504.01004 
L 136.875333 480.946008 
L 138.344529 506.893043 
L 139.813725 512.659051 
L 142.752118 518.425059 
L 144.221314 515.542055 
L 145.69051 504.01004 
L 147.159706 515.542055 
L 148.628902 521.308063 
L 150.098098 521.308063 
L 151.567294 506.893043 
L 153.03649 521.308063 
L 154.505686 521.308063 
L 155.974882 524.191067 
L 157.444078 515.542055 
L 158.913275 527.074071 
L 160.382471 535.723083 
L 161.851667 527.074071 
L 163.320863 527.074071 
L 164.790059 512.659051 
L 166.259255 518.425059 
L 170.666843 527.074071 
L 172.136039 524.191067 
L 173.605235 518.425059 
L 175.074431 527.074071 
L 176.543627 524.191067 
L 179.48202 541.489091 
L 180.951216 527.074071 
L 182.420412 532.840079 
L 183.889608 521.308063 
L 185.358804 524.191067 
L 186.828 524.191067 
L 188.297196 532.840079 
L 191.235588 527.074071 
L 192.704784 529.957075 
L 194.17398 521.308063 
L 197.112373 538.606087 
L 198.581569 527.074071 
L 200.050765 535.723083 
L 202.989157 541.489091 
L 204.458353 532.840079 
L 205.927549 535.723083 
L 207.396745 541.489091 
L 208.865941 535.723083 
L 210.335137 532.840079 
L 211.804333 535.723083 
L 214.742725 535.723083 
L 216.211922 541.489091 
L 219.150314 535.723083 
L 220.61951 538.606087 
L 223.557902 532.840079 
L 225.027098 541.489091 
L 226.496294 541.489091 
L 227.96549 538.606087 
L 229.434686 541.489091 
L 244.126647 541.489091 
L 245.595843 535.723083 
L 247.065039 535.723083 
L 248.534235 541.489091 
L 250.003431 541.489091 
L 251.472627 538.606087 
L 252.941824 541.489091 
L 257.349412 541.489091 
L 258.818608 538.606087 
L 260.287804 541.489091 
L 411.615 541.489091 
L 411.615 541.489091 
" clip-path="url(#p9712cf3e85)" style="fill: none; stroke: #0000ff; stroke-width: 1.5; stroke-linecap: square"/>
   </g>
   <g id="patch_13">
    <path d="M 36.97 548.12 
L 36.97 402.24 
" style="fill: none; stroke: #000000; stroke-width: 0.8; stroke-linejoin: miter; stroke-linecap: square"/>
   </g>
   <g id="patch_14">
    <path d="M 411.615 548.12 
L 411.615 402.24 
" style="fill: none; stroke: #000000; stroke-width: 0.8; stroke-linejoin: miter; stroke-linecap: square"/>
   </g>
   <g id="patch_15">
    <path d="M 36.97 548.12 
L 411.615 548.12 
" style="fill: none; stroke: #000000; stroke-width: 0.8; stroke-linejoin: miter; stroke-linecap: square"/>
   </g>
   <g id="patch_16">
    <path d="M 36.97 402.24 
L 411.615 402.24 
" style="fill: none; stroke: #000000; stroke-width: 0.8; stroke-linejoin: miter; stroke-linecap: square"/>
   </g>
   <g id="text_42">
    <!-- V histogram (bbox) -->
    <g transform="translate(166.624062 396.24) scale(0.12 -0.12)">
     <defs>
      <path id="DejaVuSans-56" d="M 1831 0 
L 50 4666 
L 709 4666 
L 2188 738 
L 3669 4666 
L 4325 4666 
L 2547 0 
L 1831 0 
z
" transform="scale(0.015625)"/>
     </defs>
     <use xlink:href="#DejaVuSans-56"/>
     <use xlink:href="#DejaVuSans-20" transform="translate(68.408203 0)"/>
     <use xlink:href="#DejaVuSans-68" transform="translate(100.195312 0)"/>
     <use xlink:href="#DejaVuSans-69" transform="translate(163.574219 0)"/>
     <use xlink:href="#DejaVuSans-73" transform="translate(191.357422 0)"/>
     <use xlink:href="#DejaVuSans-74" transform="translate(243.457031 0)"/>
     <use xlink:href="#DejaVuSans-6f" transform="translate(282.666016 0)"/>
     <use xlink:href="#DejaVuSans-67" transform="translate(343.847656 0)"/>
     <use xlink:href="#DejaVuSans-72" transform="translate(407.324219 0)"/>
     <use xlink:href="#DejaVuSans-61" transform="translate(448.4375 0)"/>
     <use xlink:href="#DejaVuSans-6d" transform="translate(509.716797 0)"/>
     <use xlink:href="#DejaVuSans-20" transform="translate(607.128906 0)"/>
     <use xlink:href="#DejaVuSans-28" transform="translate(638.916016 0)"/>
     <use xlink:href="#DejaVuSans-62" transform="translate(677.929688 0)"/>
     <use xlink:href="#DejaVuSans-62" transform="translate(741.40625 0)"/>
     <use xlink:href="#DejaVuSans-6f" transform="translate(804.882812 0)"/>
     <use xlink:href="#DejaVuSans-78" transform="translate(862.939453 0)"/>
     <use xlink:href="#DejaVuSans-29" transform="translate(922.119141 0)"/>
    </g>
   </g>
  </g>
 </g>
 <defs>
  <clipPath id="pd076022476">
   <rect x="36.97" y="25.44" width="374.645" height="145.88"/>
  </clipPath>
  <clipPath id="p952ad643ea">
   <rect x="36.97" y="213.84" width="374.645" height="145.88"/>
  </clipPath>
  <clipPath id="p9712cf3e85">
   <rect x="36.97" y="402.24" width="374.645" height="145.88"/>
  </clipPath>
 </defs>
</svg>
