<?xml version="1.0" encoding="utf-8" standalone="no"?>
<!DOCTYPE svg PUBLIC "-//W3C//DTD SVG 1.1//EN"
  "http://www.w3.org/Graphics/SVG/1.1/DTD/svg11.dtd">
<svg xmlns:xlink="http://www.w3.org/1999/xlink" width="432pt" height="576pt" viewBox="0 0 432 576" xmlns="http://www.w3.org/2000/svg" version="1.1">
 <metadata>
  <rdf:RDF xmlns:dc="http://purl.org/dc/elements/1.1/" xmlns:cc="http://creativecommons.org/ns#" xmlns:rdf="http://www.w3.org/1999/02/22-rdf-syntax-ns#">
   <cc:Work>
    <dc:type rdf:resource="http://purl.org/dc/dcmitype/StillImage"/>
    <dc:date>2026-01-22T15:02:17.530110</dc:date>
    <dc:format>image/svg+xml</dc:format>
    <dc:creator>
     <cc:Agent>
      <dc:title>Matplotlib v3.10.8, https://matplotlib.org/</dc:title>
     </cc:Agent>
    </dc:creator>
   </cc:Work>
  </rdf:RDF>
 </metadata>
 <defs>
  <style type="text/css">*{stroke-linejoin: round; stroke-linecap: butt}</style>
 </defs>
 <g id="figure_1">
  <g id="patch_1">
   <path d="M 0 576 
L 432 576 
L 432 0 
L 0 0 
z
" style="fill: #ffffff"/>
  </g>
  <g id="axes_1">
   <g id="patch_2">
    <path d="M 49.75 171.32 
L 411.615 171.32 
L 411.615 25.44 
L 49.75 25.44 
z
" style="fill: #ffffff"/>
   </g>
   <g id="matplotlib.axis_1">
    <g id="xtick_1">
     <g id="line2d_1">
      <defs>
       <path id="m8c56538f74" d="M 0 0 
L 0 3.5 
" style="stroke: #000000; stroke-width: 0.8"/>
      </defs>
      <g>
       <use xlink:href="#m8c56538f74" x="49.75" y="171.32" style="stroke: #000000; stroke-width: 0.8"/>
      </g>
     </g>
     <g id="text_1">
      <!-- 0 -->
      <g transform="translate(46.56875 185.918438) scale(0.1 -0.1)">
       <defs>
        <path id="DejaVuSans-30" d="M 2034 4250 
Q 1547 4250 1301 3770 
Q 1056 3291 1056 2328 
Q 1056 1369 1301 889 
Q 1547 409 2034 409 
Q 2525 409 2770 889 
Q 3016 1369 3016 2328 
Q 3016 3291 2770 3770 
Q 2525 4250 2034 4250 
z
M 2034 4750 
Q 2819 4750 3233 4129 
Q 3647 3509 3647 2328 
Q 3647 1150 3233 529 
Q 2819 -91 2034 -91 
Q 1250 -91 836 529 
Q 422 1150 422 2328 
Q 422 3509 836 4129 
Q 1250 4750 2034 4750 
z
" transform="scale(0.015625)"/>
       </defs>
       <use xlink:href="#DejaVuSans-30"/>
      </g>
     </g>
    </g>
    <g id="xtick_2">
     <g id="line2d_2">
      <g>
       <use xlink:href="#m8c56538f74" x="89.957222" y="171.32" style="stroke: #000000; stroke-width: 0.8"/>
      </g>
     </g>
     <g id="text_2">
      <!-- 20 -->
      <g transform="translate(83.594722 185.918438) scale(0.1 -0.1)">
       <defs>
        <path id="DejaVuSans-32" d="M 1228 531 
L 3431 531 
L 3431 0 
L 469 0 
L 469 531 
Q 828 903 1448 1529 
Q 2069 2156 2228 2338 
Q 2531 2678 2651 2914 
Q 2772 3150 2772 3378 
Q 2772 3750 2511 3984 
Q 2250 4219 1831 4219 
Q 1534 4219 1204 4116 
Q 875 4013 500 3803 
L 500 4441 
Q 881 4594 1212 4672 
Q 1544 4750 1819 4750 
Q 2544 4750 2975 4387 
Q 3406 4025 3406 3419 
Q 3406 3131 3298 2873 
Q 3191 2616 2906 2266 
Q 2828 2175 2409 1742 
Q 1991 1309 1228 531 
z
" transform="scale(0.015625)"/>
       </defs>
       <use xlink:href="#DejaVuSans-32"/>
       <use xlink:href="#DejaVuSans-30" transform="translate(63.623047 0)"/>
      </g>
     </g>
    </g>
    <g id="xtick_3">
     <g id="line2d_3">
      <g>
       <use xlink:href="#m8c56538f74" x="130.164444" y="171.32" style="stroke: #000000; stroke-width: 0.8"/>
      </g>
     </g>
     <g id="text_3">
      <!-- 40 -->
      <g transform="translate(123.801944 185.918438) scale(0.1 -0.1)">
       <defs>
        <path id="DejaVuSans-34" d="M 2419 4116 
L 825 1625 
L 2419 1625 
L 2419 4116 
z
M 2253 4666 
L 3047 4666 
L 3047 1625 
L 3713 1625 
L 3713 1100 
L 3047 1100 
L 3047 0 
L 2419 0 
L 2419 1100 
L 313 1100 
L 313 1709 
L 2253 4666 
z
" transform="scale(0.015625)"/>
       </defs>
       <use xlink:href="#DejaVuSans-34"/>
       <use xlink:href="#DejaVuSans-30" transform="translate(63.623047 0)"/>
      </g>
     </g>
    </g>
    <g id="xtick_4">
     <g id="line2d_4">
      <g>
       <use xlink:href="#m8c56538f74" x="170.371667" y="171.32" style="stroke: #000000; stroke-width: 0.8"/>
      </g>
     </g>
     <g id="text_4">
      <!-- 60 -->
      <g transform="translate(164.009167 185.918438) scale(0.1 -0.1)">
       <defs>
        <path id="DejaVuSans-36" d="M 2113 2584 
Q 1688 2584 1439 2293 
Q 1191 2003 1191 1497 
Q 1191 994 1439 701 
Q 1688 409 2113 409 
Q 2538 409 2786 701 
Q 3034 994 3034 1497 
Q 3034 2003 2786 2293 
Q 2538 2584 2113 2584 
z
M 3366 4563 
L 3366 3988 
Q 3128 4100 2886 4159 
Q 2644 4219 2406 4219 
Q 1781 4219 1451 3797 
Q 1122 3375 1075 2522 
Q 1259 2794 1537 2939 
Q 1816 3084 2150 3084 
Q 2853 3084 3261 2657 
Q 3669 2231 3669 1497 
Q 3669 778 3244 343 
Q 2819 -91 2113 -91 
Q 1303 -91 875 529 
Q 447 1150 447 2328 
Q 447 3434 972 4092 
Q 1497 4750 2381 4750 
Q 2619 4750 2861 4703 
Q 3103 4656 3366 4563 
z
" transform="scale(0.015625)"/>
       </defs>
       <use xlink:href="#DejaVuSans-36"/>
       <use xlink:href="#DejaVuSans-30" transform="translate(63.623047 0)"/>
      </g>
     </g>
    </g>
    <g id="xtick_5">
     <g id="line2d_5">
      <g>
       <use xlink:href="#m8c56538f74" x="210.578889" y="171.32" style="stroke: #000000; stroke-width: 0.8"/>
      </g>
     </g>
     <g id="text_5">
      <!-- 80 -->
      <g transform="translate(204.216389 185.918438) scale(0.1 -0.1)">
       <defs>
        <path id="DejaVuSans-38" d="M 2034 2216 
Q 1584 2216 1326 1975 
Q 1069 1734 1069 1313 
Q 1069 891 1326 650 
Q 1584 409 2034 409 
Q 2484 409 2743 651 
Q 3003 894 3003 1313 
Q 3003 1734 2745 1975 
Q 2488 2216 2034 2216 
z
M 1403 2484 
Q 997 2584 770 2862 
Q 544 3141 544 3541 
Q 544 4100 942 4425 
Q 1341 4750 2034 4750 
Q 2731 4750 3128 4425 
Q 3525 4100 3525 3541 
Q 3525 3141 3298 2862 
Q 3072 2584 2669 2484 
Q 3125 2378 3379 2068 
Q 3634 1759 3634 1313 
Q 3634 634 3220 271 
Q 2806 -91 2034 -91 
Q 1263 -91 848 271 
Q 434 634 434 1313 
Q 434 1759 690 2068 
Q 947 2378 1403 2484 
z
M 1172 3481 
Q 1172 3119 1398 2916 
Q 1625 2713 2034 2713 
Q 2441 2713 2670 2916 
Q 2900 3119 2900 3481 
Q 2900 3844 2670 4047 
Q 2441 4250 2034 4250 
Q 1625 4250 1398 4047 
Q 1172 3844 1172 3481 
z
" transform="scale(0.015625)"/>
       </defs>
       <use xlink:href="#DejaVuSans-38"/>
       <use xlink:href="#DejaVuSans-30" transform="translate(63.623047 0)"/>
      </g>
     </g>
    </g>
    <g id="xtick_6">
     <g id="line2d_6">
      <g>
       <use xlink:href="#m8c56538f74" x="250.786111" y="171.32" style="stroke: #000000; stroke-width: 0.8"/>
      </g>
     </g>
     <g id="text_6">
      <!-- 100 -->
      <g transform="translate(241.242361 185.918438) scale(0.1 -0.1)">
       <defs>
        <path id="DejaVuSans-31" d="M 794 531 
L 1825 531 
L 1825 4091 
L 703 3866 
L 703 4441 
L 1819 4666 
L 2450 4666 
L 2450 531 
L 3481 531 
L 3481 0 
L 794 0 
L 794 531 
z
" transform="scale(0.015625)"/>
       </defs>
       <use xlink:href="#DejaVuSans-31"/>
       <use xlink:href="#DejaVuSans-30" transform="translate(63.623047 0)"/>
       <use xlink:href="#DejaVuSans-30" transform="translate(127.246094 0)"/>
      </g>
     </g>
    </g>
    <g id="xtick_7">
     <g id="line2d_7">
      <g>
       <use xlink:href="#m8c56538f74" x="290.993333" y="171.32" style="stroke: #000000; stroke-width: 0.8"/>
      </g>
     </g>
     <g id="text_7">
      <!-- 120 -->
      <g transform="translate(281.449583 185.918438) scale(0.1 -0.1)">
       <use xlink:href="#DejaVuSans-31"/>
       <use xlink:href="#DejaVuSans-32" transform="translate(63.623047 0)"/>
       <use xlink:href="#DejaVuSans-30" transform="translate(127.246094 0)"/>
      </g>
     </g>
    </g>
    <g id="xtick_8">
     <g id="line2d_8">
      <g>
       <use xlink:href="#m8c56538f74" x="331.200556" y="171.32" style="stroke: #000000; stroke-width: 0.8"/>
      </g>
     </g>
     <g id="text_8">
      <!-- 140 -->
      <g transform="translate(321.656806 185.918438) scale(0.1 -0.1)">
       <use xlink:href="#DejaVuSans-31"/>
       <use xlink:href="#DejaVuSans-34" transform="translate(63.623047 0)"/>
       <use xlink:href="#DejaVuSans-30" transform="translate(127.246094 0)"/>
      </g>
     </g>
    </g>
    <g id="xtick_9">
     <g id="line2d_9">
      <g>
       <use xlink:href="#m8c56538f74" x="371.407778" y="171.32" style="stroke: #000000; stroke-width: 0.8"/>
      </g>
     </g>
     <g id="text_9">
      <!-- 160 -->
      <g transform="translate(361.864028 185.918438) scale(0.1 -0.1)">
       <use xlink:href="#DejaVuSans-31"/>
       <use xlink:href="#DejaVuSans-36" transform="translate(63.623047 0)"/>
       <use xlink:href="#DejaVuSans-30" transform="translate(127.246094 0)"/>
      </g>
     </g>
    </g>
    <g id="xtick_10">
     <g id="line2d_10">
      <g>
       <use xlink:href="#m8c56538f74" x="411.615" y="171.32" style="stroke: #000000; stroke-width: 0.8"/>
      </g>
     </g>
     <g id="text_10">
      <!-- 180 -->
      <g transform="translate(402.07125 185.918438) scale(0.1 -0.1)">
       <use xlink:href="#DejaVuSans-31"/>
       <use xlink:href="#DejaVuSans-38" transform="translate(63.623047 0)"/>
       <use xlink:href="#DejaVuSans-30" transform="translate(127.246094 0)"/>
      </g>
     </g>
    </g>
   </g>
   <g id="matplotlib.axis_2">
    <g id="ytick_1">
     <g id="line2d_11">
      <defs>
       <path id="ma4c357b723" d="M 0 0 
L -3.5 0 
" style="stroke: #000000; stroke-width: 0.8"/>
      </defs>
      <g>
       <use xlink:href="#ma4c357b723" x="49.75" y="164.719724" style="stroke: #000000; stroke-width: 0.8"/>
      </g>
     </g>
     <g id="text_11">
      <!-- 0 -->
      <g transform="translate(36.3875 168.518943) scale(0.1 -0.1)">
       <use xlink:href="#DejaVuSans-30"/>
      </g>
     </g>
    </g>
    <g id="ytick_2">
     <g id="line2d_12">
      <g>
       <use xlink:href="#ma4c357b723" x="49.75" y="139.192173" style="stroke: #000000; stroke-width: 0.8"/>
      </g>
     </g>
     <g id="text_12">
      <!-- 10000 -->
      <g transform="translate(10.9375 142.991391) scale(0.1 -0.1)">
       <use xlink:href="#DejaVuSans-31"/>
       <use xlink:href="#DejaVuSans-30" transform="translate(63.623047 0)"/>
       <use xlink:href="#DejaVuSans-30" transform="translate(127.246094 0)"/>
       <use xlink:href="#DejaVuSans-30" transform="translate(190.869141 0)"/>
       <use xlink:href="#DejaVuSans-30" transform="translate(254.492188 0)"/>
      </g>
     </g>
    </g>
    <g id="ytick_3">
     <g id="line2d_13">
      <g>
       <use xlink:href="#ma4c357b723" x="49.75" y="113.664621" style="stroke: #000000; stroke-width: 0.8"/>
      </g>
     </g>
     <g id="text_13">
      <!-- 20000 -->
      <g transform="translate(10.9375 117.46384) scale(0.1 -0.1)">
       <use xlink:href="#DejaVuSans-32"/>
       <use xlink:href="#DejaVuSans-30" transform="translate(63.623047 0)"/>
       <use xlink:href="#DejaVuSans-30" transform="translate(127.246094 0)"/>
       <use xlink:href="#DejaVuSans-30" transform="translate(190.869141 0)"/>
       <use xlink:href="#DejaVuSans-30" transform="translate(254.492188 0)"/>
      </g>
     </g>
    </g>
    <g id="ytick_4">
     <g id="line2d_14">
      <g>
       <use xlink:href="#ma4c357b723" x="49.75" y="88.13707" style="stroke: #000000; stroke-width: 0.8"/>
      </g>
     </g>
     <g id="text_14">
      <!-- 30000 -->
      <g transform="translate(10.9375 91.936289) scale(0.1 -0.1)">
       <defs>
        <path id="DejaVuSans-33" d="M 2597 2516 
Q 3050 2419 3304 2112 
Q 3559 1806 3559 1356 
Q 3559 666 3084 287 
Q 2609 -91 1734 -91 
Q 1441 -91 1130 -33 
Q 819 25 488 141 
L 488 750 
Q 750 597 1062 519 
Q 1375 441 1716 441 
Q 2309 441 2620 675 
Q 2931 909 2931 1356 
Q 2931 1769 2642 2001 
Q 2353 2234 1838 2234 
L 1294 2234 
L 1294 2753 
L 1863 2753 
Q 2328 2753 2575 2939 
Q 2822 3125 2822 3475 
Q 2822 3834 2567 4026 
Q 2313 4219 1838 4219 
Q 1578 4219 1281 4162 
Q 984 4106 628 3988 
L 628 4550 
Q 988 4650 1302 4700 
Q 1616 4750 1894 4750 
Q 2613 4750 3031 4423 
Q 3450 4097 3450 3541 
Q 3450 3153 3228 2886 
Q 3006 2619 2597 2516 
z
" transform="scale(0.015625)"/>
       </defs>
       <use xlink:href="#DejaVuSans-33"/>
       <use xlink:href="#DejaVuSans-30" transform="translate(63.623047 0)"/>
       <use xlink:href="#DejaVuSans-30" transform="translate(127.246094 0)"/>
       <use xlink:href="#DejaVuSans-30" transform="translate(190.869141 0)"/>
       <use xlink:href="#DejaVuSans-30" transform="translate(254.492188 0)"/>
      </g>
     </g>
    </g>
    <g id="ytick_5">
     <g id="line2d_15">
      <g>
       <use xlink:href="#ma4c357b723" x="49.75" y="62.609519" style="stroke: #000000; stroke-width: 0.8"/>
      </g>
     </g>
     <g id="text_15">
      <!-- 40000 -->
      <g transform="translate(10.9375 66.408737) scale(0.1 -0.1)">
       <use xlink:href="#DejaVuSans-34"/>
       <use xlink:href="#DejaVuSans-30" transform="translate(63.623047 0)"/>
       <use xlink:href="#DejaVuSans-30" transform="translate(127.246094 0)"/>
       <use xlink:href="#DejaVuSans-30" transform="translate(190.869141 0)"/>
       <use xlink:href="#DejaVuSans-30" transform="translate(254.492188 0)"/>
      </g>
     </g>
    </g>
    <g id="ytick_6">
     <g id="line2d_16">
      <g>
       <use xlink:href="#ma4c357b723" x="49.75" y="37.081967" style="stroke: #000000; stroke-width: 0.8"/>
      </g>
     </g>
     <g id="text_16">
      <!-- 50000 -->
      <g transform="translate(10.9375 40.881186) scale(0.1 -0.1)">
       <defs>
        <path id="DejaVuSans-35" d="M 691 4666 
L 3169 4666 
L 3169 4134 
L 1269 4134 
L 1269 2991 
Q 1406 3038 1543 3061 
Q 1681 3084 1819 3084 
Q 2600 3084 3056 2656 
Q 3513 2228 3513 1497 
Q 3513 744 3044 326 
Q 2575 -91 1722 -91 
Q 1428 -91 1123 -41 
Q 819 9 494 109 
L 494 744 
Q 775 591 1075 516 
Q 1375 441 1709 441 
Q 2250 441 2565 725 
Q 2881 1009 2881 1497 
Q 2881 1984 2565 2268 
Q 2250 2553 1709 2553 
Q 1456 2553 1204 2497 
Q 953 2441 691 2322 
L 691 4666 
z
" transform="scale(0.015625)"/>
       </defs>
       <use xlink:href="#DejaVuSans-35"/>
       <use xlink:href="#DejaVuSans-30" transform="translate(63.623047 0)"/>
       <use xlink:href="#DejaVuSans-30" transform="translate(127.246094 0)"/>
       <use xlink:href="#DejaVuSans-30" transform="translate(190.869141 0)"/>
       <use xlink:href="#DejaVuSans-30" transform="translate(254.492188 0)"/>
      </g>
     </g>
    </g>
   </g>
   <g id="line2d_17">
    <path d="M 49.75 143.363375 
L 51.760361 162.261421 
L 53.770722 163.305498 
L 55.781083 163.486743 
L 57.791444 163.905395 
L 59.801806 162.848554 
L 61.812167 162.197602 
L 63.822528 164.084088 
L 65.832889 162.537118 
L 67.84325 163.75223 
L 69.853611 163.762441 
L 71.863972 160.614894 
L 73.874333 162.943006 
L 75.884694 158.281676 
L 77.895056 161.043757 
L 79.905417 157.431608 
L 81.915778 154.830351 
L 83.926139 150.340054 
L 85.9365 149.934166 
L 87.946861 141.69132 
L 89.957222 143.386349 
L 91.967583 147.177191 
L 93.977944 146.600268 
L 95.988306 155.481303 
L 97.998667 152.77283 
L 100.009028 157.444372 
L 102.019389 155.118812 
L 104.02975 160.933988 
L 106.040111 160.627657 
L 108.050472 162.016356 
L 110.060833 153.525893 
L 112.071194 164.181093 
L 114.081556 162.797499 
L 116.091917 163.461216 
L 118.102278 161.390931 
L 120.112639 157.490321 
L 122.123 161.015676 
L 124.133361 163.994742 
L 126.143722 162.894504 
L 128.154083 164.17854 
L 130.164444 163.341236 
L 132.174806 164.528267 
L 134.185167 163.182965 
L 136.195528 162.930243 
L 138.205889 164.500187 
L 140.21625 164.137696 
L 142.226611 163.920712 
L 144.236972 164.689091 
L 146.247333 162.774525 
L 148.257694 164.6508 
L 150.268056 162.680073 
L 152.278417 163.297839 
L 154.288778 164.109615 
L 156.299139 164.535926 
L 158.3095 164.25257 
L 160.319861 162.894504 
L 162.330222 163.499507 
L 164.340583 164.285756 
L 166.350944 164.410841 
L 168.361306 164.6508 
L 170.371667 162.968534 
L 172.382028 164.681433 
L 176.40275 164.114721 
L 178.413111 164.67888 
L 180.423472 164.35468 
L 182.433833 161.70492 
L 184.444194 164.426157 
L 186.454556 163.496954 
L 188.464917 164.107063 
L 190.475278 164.050902 
L 192.485639 164.500187 
L 194.496 164.615061 
L 196.506361 164.043244 
L 198.516722 164.390419 
L 200.527083 161.674287 
L 202.537444 164.541031 
L 206.558167 164.681433 
L 208.568528 164.487423 
L 210.578889 163.573537 
L 212.58925 164.683985 
L 214.599611 164.630378 
L 216.609972 163.374422 
L 218.620333 164.372549 
L 222.641056 164.612508 
L 224.651417 163.905395 
L 226.661778 164.579322 
L 228.672139 164.615061 
L 230.6825 162.054648 
L 232.692861 164.479765 
L 236.713583 163.890079 
L 238.723944 164.140249 
L 240.734306 161.92701 
L 242.744667 160.964621 
L 244.755028 163.864551 
L 246.765389 159.667822 
L 248.77575 160.979938 
L 250.786111 160.099237 
L 252.796472 135.952726 
L 254.806833 101.066775 
L 256.817194 32.070909 
L 258.827556 104.334301 
L 260.837917 49.021203 
L 262.848278 90.452419 
L 264.858639 79.518969 
L 266.869 139.373418 
L 268.879361 71.630955 
L 270.889722 126.267573 
L 272.900083 128.559948 
L 274.910444 154.506151 
L 276.920806 146.952548 
L 278.931167 159.619319 
L 280.941528 159.193009 
L 282.951889 155.57065 
L 284.96225 163.747124 
L 286.972611 163.680753 
L 288.982972 164.048349 
L 290.993333 150.304316 
L 293.003694 164.367444 
L 295.014056 163.920712 
L 297.024417 164.347022 
L 299.034778 162.049542 
L 301.045139 158.886678 
L 303.0555 161.421564 
L 305.065861 164.426157 
L 307.076222 163.992189 
L 309.086583 164.275545 
L 311.096944 164.012611 
L 313.107306 164.459343 
L 315.117667 163.083408 
L 319.138389 164.380208 
L 321.14875 164.112168 
L 325.169472 164.472107 
L 327.179833 164.275545 
L 329.190194 164.467001 
L 331.200556 162.695389 
L 333.210917 164.175987 
L 335.221278 164.359785 
L 339.242 164.423604 
L 341.252361 163.999847 
L 345.273083 164.313836 
L 349.293806 164.405735 
L 351.304167 163.785416 
L 353.314528 164.436368 
L 357.33525 164.283203 
L 359.345611 164.329152 
L 361.355972 164.196409 
L 363.366333 163.448452 
L 365.376694 164.175987 
L 369.397417 163.953897 
L 371.407778 163.660331 
L 373.418139 164.033033 
L 379.449222 163.471427 
L 381.459583 161.937221 
L 383.469944 163.614381 
L 387.490667 162.802605 
L 389.501028 162.315029 
L 391.511389 161.041204 
L 393.52175 161.748317 
L 395.532111 161.804478 
L 397.542472 161.332218 
L 399.552833 161.707473 
L 403.573556 160.683818 
L 405.583917 159.535078 
L 407.594278 159.808223 
L 409.604639 159.5555 
L 409.604639 159.5555 
" clip-path="url(#p1b1ac3364b)" style="fill: none; stroke: #ff0000; stroke-width: 1.5; stroke-linecap: square"/>
   </g>
   <g id="patch_3">
    <path d="M 49.75 171.32 
L 49.75 25.44 
" style="fill: none; stroke: #000000; stroke-width: 0.8; stroke-linejoin: miter; stroke-linecap: square"/>
   </g>
   <g id="patch_4">
    <path d="M 411.615 171.32 
L 411.615 25.44 
" style="fill: none; stroke: #000000; stroke-width: 0.8; stroke-linejoin: miter; stroke-linecap: square"/>
   </g>
   <g id="patch_5">
    <path d="M 49.75 171.32 
L 411.615 171.32 
" style="fill: none; stroke: #000000; stroke-width: 0.8; stroke-linejoin: miter; stroke-linecap: square"/>
   </g>
   <g id="patch_6">
    <path d="M 49.75 25.44 
L 411.615 25.44 
" style="fill: none; stroke: #000000; stroke-width: 0.8; stroke-linejoin: miter; stroke-linecap: square"/>
   </g>
   <g id="text_17">
    <!-- H histogram -->
    <g transform="translate(193.848125 19.44) scale(0.12 -0.12)">
     <defs>
      <path id="DejaVuSans-48" d="M 628 4666 
L 1259 4666 
L 1259 2753 
L 3553 2753 
L 3553 4666 
L 4184 4666 
L 4184 0 
L 3553 0 
L 3553 2222 
L 1259 2222 
L 1259 0 
L 628 0 
L 628 4666 
z
" transform="scale(0.015625)"/>
      <path id="DejaVuSans-20" transform="scale(0.015625)"/>
      <path id="DejaVuSans-68" d="M 3513 2113 
L 3513 0 
L 2938 0 
L 2938 2094 
Q 2938 2591 2744 2837 
Q 2550 3084 2163 3084 
Q 1697 3084 1428 2787 
Q 1159 2491 1159 1978 
L 1159 0 
L 581 0 
L 581 4863 
L 1159 4863 
L 1159 2956 
Q 1366 3272 1645 3428 
Q 1925 3584 2291 3584 
Q 2894 3584 3203 3211 
Q 3513 2838 3513 2113 
z
" transform="scale(0.015625)"/>
      <path id="DejaVuSans-69" d="M 603 3500 
L 1178 3500 
L 1178 0 
L 603 0 
L 603 3500 
z
M 603 4863 
L 1178 4863 
L 1178 4134 
L 603 4134 
L 603 4863 
z
" transform="scale(0.015625)"/>
      <path id="DejaVuSans-73" d="M 2834 3397 
L 2834 2853 
Q 2591 2978 2328 3040 
Q 2066 3103 1784 3103 
Q 1356 3103 1142 2972 
Q 928 2841 928 2578 
Q 928 2378 1081 2264 
Q 1234 2150 1697 2047 
L 1894 2003 
Q 2506 1872 2764 1633 
Q 3022 1394 3022 966 
Q 3022 478 2636 193 
Q 2250 -91 1575 -91 
Q 1294 -91 989 -36 
Q 684 19 347 128 
L 347 722 
Q 666 556 975 473 
Q 1284 391 1588 391 
Q 1994 391 2212 530 
Q 2431 669 2431 922 
Q 2431 1156 2273 1281 
Q 2116 1406 1581 1522 
L 1381 1569 
Q 847 1681 609 1914 
Q 372 2147 372 2553 
Q 372 3047 722 3315 
Q 1072 3584 1716 3584 
Q 2034 3584 2315 3537 
Q 2597 3491 2834 3397 
z
" transform="scale(0.015625)"/>
      <path id="DejaVuSans-74" d="M 1172 4494 
L 1172 3500 
L 2356 3500 
L 2356 3053 
L 1172 3053 
L 1172 1153 
Q 1172 725 1289 603 
Q 1406 481 1766 481 
L 2356 481 
L 2356 0 
L 1766 0 
Q 1100 0 847 248 
Q 594 497 594 1153 
L 594 3053 
L 172 3053 
L 172 3500 
L 594 3500 
L 594 4494 
L 1172 4494 
z
" transform="scale(0.015625)"/>
      <path id="DejaVuSans-6f" d="M 1959 3097 
Q 1497 3097 1228 2736 
Q 959 2375 959 1747 
Q 959 1119 1226 758 
Q 1494 397 1959 397 
Q 2419 397 2687 759 
Q 2956 1122 2956 1747 
Q 2956 2369 2687 2733 
Q 2419 3097 1959 3097 
z
M 1959 3584 
Q 2709 3584 3137 3096 
Q 3566 2609 3566 1747 
Q 3566 888 3137 398 
Q 2709 -91 1959 -91 
Q 1206 -91 779 398 
Q 353 888 353 1747 
Q 353 2609 779 3096 
Q 1206 3584 1959 3584 
z
" transform="scale(0.015625)"/>
      <path id="DejaVuSans-67" d="M 2906 1791 
Q 2906 2416 2648 2759 
Q 2391 3103 1925 3103 
Q 1463 3103 1205 2759 
Q 947 2416 947 1791 
Q 947 1169 1205 825 
Q 1463 481 1925 481 
Q 2391 481 2648 825 
Q 2906 1169 2906 1791 
z
M 3481 434 
Q 3481 -459 3084 -895 
Q 2688 -1331 1869 -1331 
Q 1566 -1331 1297 -1286 
Q 1028 -1241 775 -1147 
L 775 -588 
Q 1028 -725 1275 -790 
Q 1522 -856 1778 -856 
Q 2344 -856 2625 -561 
Q 2906 -266 2906 331 
L 2906 616 
Q 2728 306 2450 153 
Q 2172 0 1784 0 
Q 1141 0 747 490 
Q 353 981 353 1791 
Q 353 2603 747 3093 
Q 1141 3584 1784 3584 
Q 2172 3584 2450 3431 
Q 2728 3278 2906 2969 
L 2906 3500 
L 3481 3500 
L 3481 434 
z
" transform="scale(0.015625)"/>
      <path id="DejaVuSans-72" d="M 2631 2963 
Q 2534 3019 2420 3045 
Q 2306 3072 2169 3072 
Q 1681 3072 1420 2755 
Q 1159 2438 1159 1844 
L 1159 0 
L 581 0 
L 581 3500 
L 1159 3500 
L 1159 2956 
Q 1341 3275 1631 3429 
Q 1922 3584 2338 3584 
Q 2397 3584 2469 3576 
Q 2541 3569 2628 3553 
L 2631 2963 
z
" transform="scale(0.015625)"/>
      <path id="DejaVuSans-61" d="M 2194 1759 
Q 1497 1759 1228 1600 
Q 959 1441 959 1056 
Q 959 750 1161 570 
Q 1363 391 1709 391 
Q 2188 391 2477 730 
Q 2766 1069 2766 1631 
L 2766 1759 
L 2194 1759 
z
M 3341 1997 
L 3341 0 
L 2766 0 
L 2766 531 
Q 2569 213 2275 61 
Q 1981 -91 1556 -91 
Q 1019 -91 701 211 
Q 384 513 384 1019 
Q 384 1609 779 1909 
Q 1175 2209 1959 2209 
L 2766 2209 
L 2766 2266 
Q 2766 2663 2505 2880 
Q 2244 3097 1772 3097 
Q 1472 3097 1187 3025 
Q 903 2953 641 2809 
L 641 3341 
Q 956 3463 1253 3523 
Q 1550 3584 1831 3584 
Q 2591 3584 2966 3190 
Q 3341 2797 3341 1997 
z
" transform="scale(0.015625)"/>
      <path id="DejaVuSans-6d" d="M 3328 2828 
Q 3544 3216 3844 3400 
Q 4144 3584 4550 3584 
Q 5097 3584 5394 3201 
Q 5691 2819 5691 2113 
L 5691 0 
L 5113 0 
L 5113 2094 
Q 5113 2597 4934 2840 
Q 4756 3084 4391 3084 
Q 3944 3084 3684 2787 
Q 3425 2491 3425 1978 
L 3425 0 
L 2847 0 
L 2847 2094 
Q 2847 2600 2669 2842 
Q 2491 3084 2119 3084 
Q 1678 3084 1418 2786 
Q 1159 2488 1159 1978 
L 1159 0 
L 581 0 
L 581 3500 
L 1159 3500 
L 1159 2956 
Q 1356 3278 1631 3431 
Q 1906 3584 2284 3584 
Q 2666 3584 2933 3390 
Q 3200 3197 3328 2828 
z
" transform="scale(0.015625)"/>
     </defs>
     <use xlink:href="#DejaVuSans-48"/>
     <use xlink:href="#DejaVuSans-20" transform="translate(75.195312 0)"/>
     <use xlink:href="#DejaVuSans-68" transform="translate(106.982422 0)"/>
     <use xlink:href="#DejaVuSans-69" transform="translate(170.361328 0)"/>
     <use xlink:href="#DejaVuSans-73" transform="translate(198.144531 0)"/>
     <use xlink:href="#DejaVuSans-74" transform="translate(250.244141 0)"/>
     <use xlink:href="#DejaVuSans-6f" transform="translate(289.453125 0)"/>
     <use xlink:href="#DejaVuSans-67" transform="translate(350.634766 0)"/>
     <use xlink:href="#DejaVuSans-72" transform="translate(414.111328 0)"/>
     <use xlink:href="#DejaVuSans-61" transform="translate(455.224609 0)"/>
     <use xlink:href="#DejaVuSans-6d" transform="translate(516.503906 0)"/>
    </g>
   </g>
  </g>
  <g id="axes_2">
   <g id="patch_7">
    <path d="M 49.75 359.72 
L 411.615 359.72 
L 411.615 213.84 
L 49.75 213.84 
z
" style="fill: #ffffff"/>
   </g>
   <g id="matplotlib.axis_3">
    <g id="xtick_11">
     <g id="line2d_18">
      <g>
       <use xlink:href="#m8c56538f74" x="49.75" y="359.72" style="stroke: #000000; stroke-width: 0.8"/>
      </g>
     </g>
     <g id="text_18">
      <!-- 0 -->
      <g transform="translate(46.56875 374.318438) scale(0.1 -0.1)">
       <use xlink:href="#DejaVuSans-30"/>
      </g>
     </g>
    </g>
    <g id="xtick_12">
     <g id="line2d_19">
      <g>
       <use xlink:href="#m8c56538f74" x="120.703922" y="359.72" style="stroke: #000000; stroke-width: 0.8"/>
      </g>
     </g>
     <g id="text_19">
      <!-- 50 -->
      <g transform="translate(114.341422 374.318438) scale(0.1 -0.1)">
       <use xlink:href="#DejaVuSans-35"/>
       <use xlink:href="#DejaVuSans-30" transform="translate(63.623047 0)"/>
      </g>
     </g>
    </g>
    <g id="xtick_13">
     <g id="line2d_20">
      <g>
       <use xlink:href="#m8c56538f74" x="191.657843" y="359.72" style="stroke: #000000; stroke-width: 0.8"/>
      </g>
     </g>
     <g id="text_20">
      <!-- 100 -->
      <g transform="translate(182.114093 374.318438) scale(0.1 -0.1)">
       <use xlink:href="#DejaVuSans-31"/>
       <use xlink:href="#DejaVuSans-30" transform="translate(63.623047 0)"/>
       <use xlink:href="#DejaVuSans-30" transform="translate(127.246094 0)"/>
      </g>
     </g>
    </g>
    <g id="xtick_14">
     <g id="line2d_21">
      <g>
       <use xlink:href="#m8c56538f74" x="262.611765" y="359.72" style="stroke: #000000; stroke-width: 0.8"/>
      </g>
     </g>
     <g id="text_21">
      <!-- 150 -->
      <g transform="translate(253.068015 374.318438) scale(0.1 -0.1)">
       <use xlink:href="#DejaVuSans-31"/>
       <use xlink:href="#DejaVuSans-35" transform="translate(63.623047 0)"/>
       <use xlink:href="#DejaVuSans-30" transform="translate(127.246094 0)"/>
      </g>
     </g>
    </g>
    <g id="xtick_15">
     <g id="line2d_22">
      <g>
       <use xlink:href="#m8c56538f74" x="333.565686" y="359.72" style="stroke: #000000; stroke-width: 0.8"/>
      </g>
     </g>
     <g id="text_22">
      <!-- 200 -->
      <g transform="translate(324.021936 374.318438) scale(0.1 -0.1)">
       <use xlink:href="#DejaVuSans-32"/>
       <use xlink:href="#DejaVuSans-30" transform="translate(63.623047 0)"/>
       <use xlink:href="#DejaVuSans-30" transform="translate(127.246094 0)"/>
      </g>
     </g>
    </g>
    <g id="xtick_16">
     <g id="line2d_23">
      <g>
       <use xlink:href="#m8c56538f74" x="404.519608" y="359.72" style="stroke: #000000; stroke-width: 0.8"/>
      </g>
     </g>
     <g id="text_23">
      <!-- 250 -->
      <g transform="translate(394.975858 374.318438) scale(0.1 -0.1)">
       <use xlink:href="#DejaVuSans-32"/>
       <use xlink:href="#DejaVuSans-35" transform="translate(63.623047 0)"/>
       <use xlink:href="#DejaVuSans-30" transform="translate(127.246094 0)"/>
      </g>
     </g>
    </g>
   </g>
   <g id="matplotlib.axis_4">
    <g id="ytick_7">
     <g id="line2d_24">
      <g>
       <use xlink:href="#ma4c357b723" x="49.75" y="354.654187" style="stroke: #000000; stroke-width: 0.8"/>
      </g>
     </g>
     <g id="text_24">
      <!-- 0 -->
      <g transform="translate(36.3875 358.453406) scale(0.1 -0.1)">
       <use xlink:href="#DejaVuSans-30"/>
      </g>
     </g>
    </g>
    <g id="ytick_8">
     <g id="line2d_25">
      <g>
       <use xlink:href="#ma4c357b723" x="49.75" y="330.94061" style="stroke: #000000; stroke-width: 0.8"/>
      </g>
     </g>
     <g id="text_25">
      <!-- 2000 -->
      <g transform="translate(17.3 334.739828) scale(0.1 -0.1)">
       <use xlink:href="#DejaVuSans-32"/>
       <use xlink:href="#DejaVuSans-30" transform="translate(63.623047 0)"/>
       <use xlink:href="#DejaVuSans-30" transform="translate(127.246094 0)"/>
       <use xlink:href="#DejaVuSans-30" transform="translate(190.869141 0)"/>
      </g>
     </g>
    </g>
    <g id="ytick_9">
     <g id="line2d_26">
      <g>
       <use xlink:href="#ma4c357b723" x="49.75" y="307.227032" style="stroke: #000000; stroke-width: 0.8"/>
      </g>
     </g>
     <g id="text_26">
      <!-- 4000 -->
      <g transform="translate(17.3 311.026251) scale(0.1 -0.1)">
       <use xlink:href="#DejaVuSans-34"/>
       <use xlink:href="#DejaVuSans-30" transform="translate(63.623047 0)"/>
       <use xlink:href="#DejaVuSans-30" transform="translate(127.246094 0)"/>
       <use xlink:href="#DejaVuSans-30" transform="translate(190.869141 0)"/>
      </g>
     </g>
    </g>
    <g id="ytick_10">
     <g id="line2d_27">
      <g>
       <use xlink:href="#ma4c357b723" x="49.75" y="283.513455" style="stroke: #000000; stroke-width: 0.8"/>
      </g>
     </g>
     <g id="text_27">
      <!-- 6000 -->
      <g transform="translate(17.3 287.312673) scale(0.1 -0.1)">
       <use xlink:href="#DejaVuSans-36"/>
       <use xlink:href="#DejaVuSans-30" transform="translate(63.623047 0)"/>
       <use xlink:href="#DejaVuSans-30" transform="translate(127.246094 0)"/>
       <use xlink:href="#DejaVuSans-30" transform="translate(190.869141 0)"/>
      </g>
     </g>
    </g>
    <g id="ytick_11">
     <g id="line2d_28">
      <g>
       <use xlink:href="#ma4c357b723" x="49.75" y="259.799877" style="stroke: #000000; stroke-width: 0.8"/>
      </g>
     </g>
     <g id="text_28">
      <!-- 8000 -->
      <g transform="translate(17.3 263.599096) scale(0.1 -0.1)">
       <use xlink:href="#DejaVuSans-38"/>
       <use xlink:href="#DejaVuSans-30" transform="translate(63.623047 0)"/>
       <use xlink:href="#DejaVuSans-30" transform="translate(127.246094 0)"/>
       <use xlink:href="#DejaVuSans-30" transform="translate(190.869141 0)"/>
      </g>
     </g>
    </g>
    <g id="ytick_12">
     <g id="line2d_29">
      <g>
       <use xlink:href="#ma4c357b723" x="49.75" y="236.0863" style="stroke: #000000; stroke-width: 0.8"/>
      </g>
     </g>
     <g id="text_29">
      <!-- 10000 -->
      <g transform="translate(10.9375 239.885519) scale(0.1 -0.1)">
       <use xlink:href="#DejaVuSans-31"/>
       <use xlink:href="#DejaVuSans-30" transform="translate(63.623047 0)"/>
       <use xlink:href="#DejaVuSans-30" transform="translate(127.246094 0)"/>
       <use xlink:href="#DejaVuSans-30" transform="translate(190.869141 0)"/>
       <use xlink:href="#DejaVuSans-30" transform="translate(254.492188 0)"/>
      </g>
     </g>
    </g>
   </g>
   <g id="line2d_30">
    <path d="M 49.75 312.942004 
L 51.169078 352.330256 
L 52.588157 341.588006 
L 54.007235 329.339943 
L 55.426314 338.232535 
L 56.845392 332.446422 
L 58.264471 339.169221 
L 59.683549 328.071267 
L 61.102627 321.241756 
L 62.521706 333.145972 
L 63.940784 337.615982 
L 65.359863 329.399227 
L 66.778941 332.588703 
L 68.19802 328.332116 
L 69.617098 330.134348 
L 71.036176 334.177513 
L 72.455255 327.549568 
L 73.874333 332.647987 
L 75.293412 333.964091 
L 76.71249 327.087153 
L 78.131569 330.34777 
L 80.969725 322.85428 
L 82.388804 329.671933 
L 83.807882 325.047786 
L 85.226961 326.956729 
L 86.646039 329.067237 
L 88.065118 327.881558 
L 89.484196 328.249119 
L 90.903275 322.131016 
L 92.322353 327.359859 
L 93.741431 321.502606 
L 95.16051 319.332813 
L 96.579588 316.807317 
L 97.998667 318.265702 
L 99.417745 317.708433 
L 100.836824 319.285386 
L 102.255902 324.869934 
L 105.094059 317.459441 
L 106.513137 327.715563 
L 107.932216 322.581574 
L 109.351294 321.277327 
L 110.770373 327.561425 
L 112.189451 326.257178 
L 113.608529 328.332116 
L 115.027608 320.672631 
L 116.446686 326.482457 
L 117.865765 327.170151 
L 119.284843 320.233929 
L 120.703922 321.668601 
L 122.123 321.799025 
L 123.542078 324.727652 
L 124.961157 326.067469 
L 126.380235 327.928985 
L 127.799314 325.17821 
L 129.218392 324.371949 
L 130.637471 323.719825 
L 132.056549 323.411549 
L 133.475627 326.411316 
L 134.894706 320.909766 
L 136.313784 324.881791 
L 137.732863 322.55786 
L 139.151941 324.312665 
L 140.57102 319.036394 
L 141.990098 322.569717 
L 143.409176 319.866369 
L 144.828255 319.652947 
L 146.247333 320.079791 
L 147.666412 321.443322 
L 149.08549 320.542206 
L 150.504569 318.787401 
L 151.923647 325.84219 
L 153.342725 317.246019 
L 154.761804 322.368151 
L 156.180882 320.399924 
L 157.599961 322.237727 
L 159.019039 320.518492 
L 160.438118 320.826769 
L 161.857196 325.545771 
L 163.276275 319.747801 
L 166.114431 323.387835 
L 167.53351 322.55786 
L 168.952588 326.980442 
L 170.371667 315.562355 
L 171.790745 325.5102 
L 173.209824 323.020275 
L 174.628902 323.779109 
L 176.04798 322.629001 
L 177.467059 320.731914 
L 178.886137 323.731682 
L 180.305216 321.763455 
L 181.724294 325.379776 
L 183.143373 323.826536 
L 184.562451 325.273065 
L 185.981529 322.830566 
L 187.400608 326.76702 
L 188.819686 326.482457 
L 190.238765 325.628768 
L 191.657843 324.419376 
L 193.076922 325.948902 
L 194.496 325.818477 
L 195.915078 328.071267 
L 197.334157 327.810417 
L 198.753235 327.217578 
L 200.172314 329.256946 
L 201.591392 323.55383 
L 203.010471 329.826071 
L 204.429549 322.356295 
L 205.848627 327.13458 
L 207.267706 328.272832 
L 208.686784 323.008418 
L 210.105863 326.482457 
L 211.524941 331.248886 
L 212.94402 326.458743 
L 214.363098 327.454714 
L 215.782176 325.035929 
L 217.201255 326.897445 
L 218.620333 326.43503 
L 220.039412 327.217578 
L 221.45849 323.103272 
L 222.877569 325.225637 
L 224.296647 318.028567 
L 225.715725 326.992299 
L 227.134804 313.937975 
L 228.553882 333.062975 
L 229.972961 316.463471 
L 231.392039 315.526784 
L 232.811118 336.77415 
L 234.230196 304.073126 
L 235.649275 327.312432 
L 237.068353 319.652947 
L 238.487431 310.084518 
L 239.90651 319.297243 
L 241.325588 310.938207 
L 242.744667 313.451846 
L 244.163745 319.071964 
L 245.582824 315.242221 
L 247.001902 317.601722 
L 248.42098 312.645585 
L 249.840059 310.475792 
L 251.259137 319.392097 
L 252.678216 313.914261 
L 254.097294 322.083588 
L 255.516373 315.811347 
L 256.935451 301.156356 
L 258.354529 318.905969 
L 259.773608 332.612417 
L 261.192686 295.097537 
L 262.611765 329.185805 
L 264.030843 319.522522 
L 265.449922 334.047088 
L 266.869 305.673793 
L 268.288078 329.150234 
L 269.707157 324.597228 
L 271.126235 341.208589 
L 273.964392 314.459673 
L 275.383471 327.431 
L 276.802549 343.556233 
L 278.221627 331.533449 
L 279.640706 326.553598 
L 281.059784 337.43813 
L 282.478863 338.528954 
L 283.897941 342.251986 
L 285.31702 332.790269 
L 286.736098 338.754233 
L 288.155176 342.93968 
L 289.574255 346.721995 
L 290.993333 310.475792 
L 292.412412 350.516168 
L 293.83149 347.634968 
L 295.250569 345.571887 
L 296.669647 340.935882 
L 298.088725 349.757333 
L 299.507804 349.816617 
L 300.926882 340.544608 
L 302.345961 350.634736 
L 303.765039 345.512603 
L 305.184118 344.706341 
L 306.603196 348.820647 
L 308.022275 339.773917 
L 309.441353 349.80476 
L 310.860431 347.504543 
L 312.27951 342.67883 
L 313.698588 347.611255 
L 315.117667 348.583511 
L 316.536745 345.951304 
L 317.955824 351.049723 
L 319.374902 350.575452 
L 320.79398 337.331419 
L 322.213059 352.448824 
L 323.632137 351.938982 
L 325.051216 349.413486 
L 326.470294 352.342113 
L 327.889373 349.947042 
L 329.308451 351.523995 
L 330.727529 351.369857 
L 332.146608 353.029807 
L 333.565686 350.326459 
L 334.984765 351.654419 
L 336.403843 352.401397 
L 337.822922 352.745244 
L 339.242 341.860712 
L 340.661078 352.828242 
L 342.080157 351.42914 
L 343.499235 352.259116 
L 344.918314 352.840098 
L 346.337392 351.369857 
L 347.756471 352.804528 
L 349.175549 352.733387 
L 350.594627 353.089091 
L 352.013706 346.081729 
L 353.432784 353.065377 
L 354.851863 351.512138 
L 356.270941 352.294686 
L 357.69002 351.523995 
L 359.109098 352.792671 
L 360.528176 337.058713 
L 361.947255 352.662247 
L 363.366333 351.903412 
L 364.785412 352.614819 
L 366.20449 352.069407 
L 367.623569 352.602963 
L 369.042647 352.104977 
L 370.461725 352.519965 
L 371.880804 343.30724 
L 373.299882 350.860015 
L 374.718961 352.306543 
L 376.138039 351.109007 
L 377.557118 352.187975 
L 378.976196 350.041896 
L 380.395275 352.247259 
L 381.814353 351.606992 
L 383.233431 344.741912 
L 384.65251 352.081264 
L 386.071588 351.02601 
L 387.490667 351.68999 
L 388.909745 351.215718 
L 391.747902 351.109007 
L 393.16698 350.634736 
L 396.005137 351.109007 
L 398.843294 350.860015 
L 400.262373 350.172321 
L 403.100529 349.40163 
L 404.519608 348.322662 
L 405.938686 347.883961 
L 407.357765 345.299181 
L 408.776843 347.196267 
L 410.195922 346.034302 
L 411.615 220.470909 
L 411.615 220.470909 
" clip-path="url(#pee0887bcf7)" style="fill: none; stroke: #008000; stroke-width: 1.5; stroke-linecap: square"/>
   </g>
   <g id="patch_8">
    <path d="M 49.75 359.72 
L 49.75 213.84 
" style="fill: none; stroke: #000000; stroke-width: 0.8; stroke-linejoin: miter; stroke-linecap: square"/>
   </g>
   <g id="patch_9">
    <path d="M 411.615 359.72 
L 411.615 213.84 
" style="fill: none; stroke: #000000; stroke-width: 0.8; stroke-linejoin: miter; stroke-linecap: square"/>
   </g>
   <g id="patch_10">
    <path d="M 49.75 359.72 
L 411.615 359.72 
" style="fill: none; stroke: #000000; stroke-width: 0.8; stroke-linejoin: miter; stroke-linecap: square"/>
   </g>
   <g id="patch_11">
    <path d="M 49.75 213.84 
L 411.615 213.84 
" style="fill: none; stroke: #000000; stroke-width: 0.8; stroke-linejoin: miter; stroke-linecap: square"/>
   </g>
   <g id="text_30">
    <!-- S histogram -->
    <g transform="translate(194.55125 207.84) scale(0.12 -0.12)">
     <defs>
      <path id="DejaVuSans-53" d="M 3425 4513 
L 3425 3897 
Q 3066 4069 2747 4153 
Q 2428 4238 2131 4238 
Q 1616 4238 1336 4038 
Q 1056 3838 1056 3469 
Q 1056 3159 1242 3001 
Q 1428 2844 1947 2747 
L 2328 2669 
Q 3034 2534 3370 2195 
Q 3706 1856 3706 1288 
Q 3706 609 3251 259 
Q 2797 -91 1919 -91 
Q 1588 -91 1214 -16 
Q 841 59 441 206 
L 441 856 
Q 825 641 1194 531 
Q 1563 422 1919 422 
Q 2459 422 2753 634 
Q 3047 847 3047 1241 
Q 3047 1584 2836 1778 
Q 2625 1972 2144 2069 
L 1759 2144 
Q 1053 2284 737 2584 
Q 422 2884 422 3419 
Q 422 4038 858 4394 
Q 1294 4750 2059 4750 
Q 2388 4750 2728 4690 
Q 3069 4631 3425 4513 
z
" transform="scale(0.015625)"/>
     </defs>
     <use xlink:href="#DejaVuSans-53"/>
     <use xlink:href="#DejaVuSans-20" transform="translate(63.476562 0)"/>
     <use xlink:href="#DejaVuSans-68" transform="translate(95.263672 0)"/>
     <use xlink:href="#DejaVuSans-69" transform="translate(158.642578 0)"/>
     <use xlink:href="#DejaVuSans-73" transform="translate(186.425781 0)"/>
     <use xlink:href="#DejaVuSans-74" transform="translate(238.525391 0)"/>
     <use xlink:href="#DejaVuSans-6f" transform="translate(277.734375 0)"/>
     <use xlink:href="#DejaVuSans-67" transform="translate(338.916016 0)"/>
     <use xlink:href="#DejaVuSans-72" transform="translate(402.392578 0)"/>
     <use xlink:href="#DejaVuSans-61" transform="translate(443.505859 0)"/>
     <use xlink:href="#DejaVuSans-6d" transform="translate(504.785156 0)"/>
    </g>
   </g>
  </g>
  <g id="axes_3">
   <g id="patch_12">
    <path d="M 49.75 548.12 
L 411.615 548.12 
L 411.615 402.24 
L 49.75 402.24 
z
" style="fill: #ffffff"/>
   </g>
   <g id="matplotlib.axis_5">
    <g id="xtick_17">
     <g id="line2d_31">
      <g>
       <use xlink:href="#m8c56538f74" x="49.75" y="548.12" style="stroke: #000000; stroke-width: 0.8"/>
      </g>
     </g>
     <g id="text_31">
      <!-- 0 -->
      <g transform="translate(46.56875 562.718438) scale(0.1 -0.1)">
       <use xlink:href="#DejaVuSans-30"/>
      </g>
     </g>
    </g>
    <g id="xtick_18">
     <g id="line2d_32">
      <g>
       <use xlink:href="#m8c56538f74" x="120.703922" y="548.12" style="stroke: #000000; stroke-width: 0.8"/>
      </g>
     </g>
     <g id="text_32">
      <!-- 50 -->
      <g transform="translate(114.341422 562.718438) scale(0.1 -0.1)">
       <use xlink:href="#DejaVuSans-35"/>
       <use xlink:href="#DejaVuSans-30" transform="translate(63.623047 0)"/>
      </g>
     </g>
    </g>
    <g id="xtick_19">
     <g id="line2d_33">
      <g>
       <use xlink:href="#m8c56538f74" x="191.657843" y="548.12" style="stroke: #000000; stroke-width: 0.8"/>
      </g>
     </g>
     <g id="text_33">
      <!-- 100 -->
      <g transform="translate(182.114093 562.718438) scale(0.1 -0.1)">
       <use xlink:href="#DejaVuSans-31"/>
       <use xlink:href="#DejaVuSans-30" transform="translate(63.623047 0)"/>
       <use xlink:href="#DejaVuSans-30" transform="translate(127.246094 0)"/>
      </g>
     </g>
    </g>
    <g id="xtick_20">
     <g id="line2d_34">
      <g>
       <use xlink:href="#m8c56538f74" x="262.611765" y="548.12" style="stroke: #000000; stroke-width: 0.8"/>
      </g>
     </g>
     <g id="text_34">
      <!-- 150 -->
      <g transform="translate(253.068015 562.718438) scale(0.1 -0.1)">
       <use xlink:href="#DejaVuSans-31"/>
       <use xlink:href="#DejaVuSans-35" transform="translate(63.623047 0)"/>
       <use xlink:href="#DejaVuSans-30" transform="translate(127.246094 0)"/>
      </g>
     </g>
    </g>
    <g id="xtick_21">
     <g id="line2d_35">
      <g>
       <use xlink:href="#m8c56538f74" x="333.565686" y="548.12" style="stroke: #000000; stroke-width: 0.8"/>
      </g>
     </g>
     <g id="text_35">
      <!-- 200 -->
      <g transform="translate(324.021936 562.718438) scale(0.1 -0.1)">
       <use xlink:href="#DejaVuSans-32"/>
       <use xlink:href="#DejaVuSans-30" transform="translate(63.623047 0)"/>
       <use xlink:href="#DejaVuSans-30" transform="translate(127.246094 0)"/>
      </g>
     </g>
    </g>
    <g id="xtick_22">
     <g id="line2d_36">
      <g>
       <use xlink:href="#m8c56538f74" x="404.519608" y="548.12" style="stroke: #000000; stroke-width: 0.8"/>
      </g>
     </g>
     <g id="text_36">
      <!-- 250 -->
      <g transform="translate(394.975858 562.718438) scale(0.1 -0.1)">
       <use xlink:href="#DejaVuSans-32"/>
       <use xlink:href="#DejaVuSans-35" transform="translate(63.623047 0)"/>
       <use xlink:href="#DejaVuSans-30" transform="translate(127.246094 0)"/>
      </g>
     </g>
    </g>
   </g>
   <g id="matplotlib.axis_6">
    <g id="ytick_13">
     <g id="line2d_37">
      <g>
       <use xlink:href="#ma4c357b723" x="49.75" y="544.848972" style="stroke: #000000; stroke-width: 0.8"/>
      </g>
     </g>
     <g id="text_37">
      <!-- 0 -->
      <g transform="translate(36.3875 548.64819) scale(0.1 -0.1)">
       <use xlink:href="#DejaVuSans-30"/>
      </g>
     </g>
    </g>
    <g id="ytick_14">
     <g id="line2d_38">
      <g>
       <use xlink:href="#ma4c357b723" x="49.75" y="520.572377" style="stroke: #000000; stroke-width: 0.8"/>
      </g>
     </g>
     <g id="text_38">
      <!-- 2500 -->
      <g transform="translate(17.3 524.371596) scale(0.1 -0.1)">
       <use xlink:href="#DejaVuSans-32"/>
       <use xlink:href="#DejaVuSans-35" transform="translate(63.623047 0)"/>
       <use xlink:href="#DejaVuSans-30" transform="translate(127.246094 0)"/>
       <use xlink:href="#DejaVuSans-30" transform="translate(190.869141 0)"/>
      </g>
     </g>
    </g>
    <g id="ytick_15">
     <g id="line2d_39">
      <g>
       <use xlink:href="#ma4c357b723" x="49.75" y="496.295782" style="stroke: #000000; stroke-width: 0.8"/>
      </g>
     </g>
     <g id="text_39">
      <!-- 5000 -->
      <g transform="translate(17.3 500.095001) scale(0.1 -0.1)">
       <use xlink:href="#DejaVuSans-35"/>
       <use xlink:href="#DejaVuSans-30" transform="translate(63.623047 0)"/>
       <use xlink:href="#DejaVuSans-30" transform="translate(127.246094 0)"/>
       <use xlink:href="#DejaVuSans-30" transform="translate(190.869141 0)"/>
      </g>
     </g>
    </g>
    <g id="ytick_16">
     <g id="line2d_40">
      <g>
       <use xlink:href="#ma4c357b723" x="49.75" y="472.019187" style="stroke: #000000; stroke-width: 0.8"/>
      </g>
     </g>
     <g id="text_40">
      <!-- 7500 -->
      <g transform="translate(17.3 475.818406) scale(0.1 -0.1)">
       <defs>
        <path id="DejaVuSans-37" d="M 525 4666 
L 3525 4666 
L 3525 4397 
L 1831 0 
L 1172 0 
L 2766 4134 
L 525 4134 
L 525 4666 
z
" transform="scale(0.015625)"/>
       </defs>
       <use xlink:href="#DejaVuSans-37"/>
       <use xlink:href="#DejaVuSans-35" transform="translate(63.623047 0)"/>
       <use xlink:href="#DejaVuSans-30" transform="translate(127.246094 0)"/>
       <use xlink:href="#DejaVuSans-30" transform="translate(190.869141 0)"/>
      </g>
     </g>
    </g>
    <g id="ytick_17">
     <g id="line2d_41">
      <g>
       <use xlink:href="#ma4c357b723" x="49.75" y="447.742593" style="stroke: #000000; stroke-width: 0.8"/>
      </g>
     </g>
     <g id="text_41">
      <!-- 10000 -->
      <g transform="translate(10.9375 451.541811) scale(0.1 -0.1)">
       <use xlink:href="#DejaVuSans-31"/>
       <use xlink:href="#DejaVuSans-30" transform="translate(63.623047 0)"/>
       <use xlink:href="#DejaVuSans-30" transform="translate(127.246094 0)"/>
       <use xlink:href="#DejaVuSans-30" transform="translate(190.869141 0)"/>
       <use xlink:href="#DejaVuSans-30" transform="translate(254.492188 0)"/>
      </g>
     </g>
    </g>
    <g id="ytick_18">
     <g id="line2d_42">
      <g>
       <use xlink:href="#ma4c357b723" x="49.75" y="423.465998" style="stroke: #000000; stroke-width: 0.8"/>
      </g>
     </g>
     <g id="text_42">
      <!-- 12500 -->
      <g transform="translate(10.9375 427.265217) scale(0.1 -0.1)">
       <use xlink:href="#DejaVuSans-31"/>
       <use xlink:href="#DejaVuSans-32" transform="translate(63.623047 0)"/>
       <use xlink:href="#DejaVuSans-35" transform="translate(127.246094 0)"/>
       <use xlink:href="#DejaVuSans-30" transform="translate(190.869141 0)"/>
       <use xlink:href="#DejaVuSans-30" transform="translate(254.492188 0)"/>
      </g>
     </g>
    </g>
   </g>
   <g id="line2d_43">
    <path d="M 49.75 531.205525 
L 51.169078 541.489091 
L 52.588157 537.789338 
L 54.007235 539.79944 
L 55.426314 539.061431 
L 56.845392 537.799049 
L 58.264471 533.468104 
L 59.683549 536.497823 
L 61.102627 534.264376 
L 62.521706 532.992283 
L 63.940784 536.60464 
L 65.359863 535.84721 
L 66.778941 532.982572 
L 68.19802 531.613372 
L 69.617098 527.680564 
L 71.036176 531.943534 
L 72.455255 529.778062 
L 73.874333 533.574921 
L 75.293412 534.390615 
L 76.71249 530.584045 
L 78.131569 529.214845 
L 79.550647 525.738436 
L 80.969725 523.640938 
L 82.388804 520.970513 
L 83.807882 521.951287 
L 85.226961 523.679781 
L 86.646039 521.242411 
L 88.065118 517.494105 
L 89.484196 524.145892 
L 90.903275 517.329024 
L 92.322353 514.561492 
L 93.741431 515.649083 
L 95.16051 521.465756 
L 96.579588 521.07733 
L 97.998667 518.921568 
L 99.417745 514.512939 
L 100.836824 514.454675 
L 102.255902 518.086454 
L 103.67498 519.562471 
L 105.094059 513.386505 
L 106.513137 516.493909 
L 107.932216 510.492735 
L 109.351294 512.425152 
L 110.770373 509.647909 
L 112.189451 510.327654 
L 113.608529 508.773952 
L 115.027608 508.181603 
L 116.446686 508.676845 
L 117.865765 513.376794 
L 119.284843 513.745798 
L 120.703922 514.872232 
L 122.123 518.834173 
L 123.542078 519.222598 
L 124.961157 521.980419 
L 126.380235 522.213475 
L 127.799314 520.970513 
L 130.637471 520.407296 
L 132.056549 519.106071 
L 133.475627 519.737262 
L 134.894706 520.154819 
L 136.313784 521.38807 
L 137.732863 521.883313 
L 139.151941 522.679585 
L 140.57102 524.019653 
L 141.990098 525.194641 
L 143.409176 526.699789 
L 144.828255 526.321075 
L 146.247333 528.030147 
L 147.666412 528.331177 
L 149.08549 528.321466 
L 150.504569 528.865262 
L 151.923647 528.865262 
L 153.342725 528.671049 
L 154.761804 529.593559 
L 156.180882 529.564428 
L 159.019039 529.981985 
L 160.438118 529.243977 
L 161.857196 530.088802 
L 163.276275 530.030538 
L 164.695353 530.525781 
L 166.114431 530.253883 
L 167.53351 529.632402 
L 168.952588 529.729508 
L 171.790745 528.272913 
L 173.209824 528.059279 
L 174.628902 526.505577 
L 176.04798 525.505381 
L 177.467059 526.09773 
L 178.886137 525.971492 
L 180.305216 526.40847 
L 181.724294 526.058887 
L 183.143373 526.486155 
L 184.562451 527.632011 
L 185.981529 526.932845 
L 187.400608 527.000819 
L 188.819686 527.913619 
L 190.238765 528.476836 
L 191.657843 526.85516 
L 193.076922 527.059083 
L 194.496 527.884487 
L 195.915078 527.369823 
L 197.334157 527.544615 
L 198.753235 527.46693 
L 200.172314 529.098317 
L 201.591392 528.573943 
L 203.010471 528.952657 
L 204.429549 528.972079 
L 205.848627 530.069381 
L 207.267706 530.778257 
L 210.105863 530.8171 
L 211.524941 531.11813 
L 212.94402 531.555108 
L 215.782176 531.360896 
L 217.201255 531.438581 
L 218.620333 531.943534 
L 220.039412 531.312342 
L 221.45849 531.681347 
L 222.877569 531.933823 
L 224.296647 531.768742 
L 225.715725 533.361287 
L 227.134804 532.458198 
L 228.553882 532.885466 
L 229.972961 533.497236 
L 231.392039 533.672027 
L 232.811118 533.526368 
L 234.230196 533.25447 
L 235.649275 533.604053 
L 237.068353 533.235049 
L 238.487431 533.506947 
L 239.90651 533.167074 
L 241.325588 533.749713 
L 242.744667 533.147653 
L 244.163745 532.817491 
L 245.582824 533.448683 
L 247.001902 531.720189 
L 248.42098 533.001993 
L 249.840059 532.895176 
L 251.259137 532.361091 
L 252.678216 532.429066 
L 254.097294 532.283406 
L 255.516373 532.875755 
L 259.773608 531.448291 
L 261.192686 531.759032 
L 262.611765 532.322249 
L 264.030843 532.108615 
L 265.449922 530.943338 
L 266.869 531.749321 
L 268.288078 531.846427 
L 269.707157 531.360896 
L 271.126235 531.467713 
L 272.545314 531.778453 
L 273.964392 531.331764 
L 275.383471 531.652215 
L 276.802549 530.97247 
L 278.221627 532.157168 
L 279.640706 531.749321 
L 281.059784 532.118325 
L 282.478863 532.215432 
L 283.897941 531.807585 
L 285.31702 531.613372 
L 286.736098 531.817296 
L 288.155176 531.011313 
L 289.574255 530.428674 
L 290.993333 530.535491 
L 292.412412 530.263593 
L 295.250569 531.7299 
L 296.669647 530.807389 
L 300.926882 530.069381 
L 302.345961 530.409253 
L 303.765039 530.486938 
L 306.603196 528.583653 
L 308.022275 529.60327 
L 309.441353 529.4479 
L 310.860431 528.962368 
L 312.27951 529.972274 
L 313.698588 529.331372 
L 315.117667 529.438189 
L 317.955824 529.331372 
L 319.374902 528.370019 
L 320.79398 529.185713 
L 322.213059 528.748734 
L 323.632137 528.457415 
L 326.470294 528.826419 
L 327.889373 528.399151 
L 329.308451 527.729117 
L 330.727529 528.370019 
L 332.146608 527.544615 
L 333.565686 527.874777 
L 334.984765 528.583653 
L 336.403843 529.030342 
L 337.822922 528.952657 
L 339.242 526.903713 
L 340.661078 527.292138 
L 342.080157 525.981202 
L 343.499235 526.243389 
L 344.918314 525.3403 
L 346.337392 525.738436 
L 347.756471 525.515092 
L 349.175549 526.389049 
L 350.594627 526.09773 
L 352.013706 526.155994 
L 353.432784 526.748343 
L 354.851863 526.845449 
L 356.270941 528.039857 
L 357.69002 527.865066 
L 360.528176 529.214845 
L 363.366333 528.0787 
L 364.785412 527.107636 
L 366.20449 526.932845 
L 367.623569 525.854964 
L 369.042647 526.767764 
L 370.461725 526.932845 
L 371.880804 526.894002 
L 373.299882 527.894198 
L 374.718961 527.457219 
L 376.138039 528.904104 
L 377.557118 529.108028 
L 380.395275 527.865066 
L 381.814353 527.428087 
L 383.233431 526.457023 
L 384.65251 525.078113 
L 386.071588 524.213866 
L 387.490667 525.155798 
L 388.909745 524.27213 
L 390.328824 526.350206 
L 391.747902 526.165704 
L 393.16698 523.738045 
L 394.586059 524.854768 
L 396.005137 524.8839 
L 397.424216 525.233483 
L 398.843294 521.611415 
L 400.262373 520.747168 
L 401.681451 516.872624 
L 403.100529 515.513135 
L 404.519608 511.687143 
L 405.938686 505.414071 
L 407.357765 504.598378 
L 408.776843 500.636437 
L 410.195922 500.665569 
L 411.615 408.870909 
L 411.615 408.870909 
" clip-path="url(#pdad406fdd6)" style="fill: none; stroke: #0000ff; stroke-width: 1.5; stroke-linecap: square"/>
   </g>
   <g id="patch_13">
    <path d="M 49.75 548.12 
L 49.75 402.24 
" style="fill: none; stroke: #000000; stroke-width: 0.8; stroke-linejoin: miter; stroke-linecap: square"/>
   </g>
   <g id="patch_14">
    <path d="M 411.615 548.12 
L 411.615 402.24 
" style="fill: none; stroke: #000000; stroke-width: 0.8; stroke-linejoin: miter; stroke-linecap: square"/>
   </g>
   <g id="patch_15">
    <path d="M 49.75 548.12 
L 411.615 548.12 
" style="fill: none; stroke: #000000; stroke-width: 0.8; stroke-linejoin: miter; stroke-linecap: square"/>
   </g>
   <g id="patch_16">
    <path d="M 49.75 402.24 
L 411.615 402.24 
" style="fill: none; stroke: #000000; stroke-width: 0.8; stroke-linejoin: miter; stroke-linecap: square"/>
   </g>
   <g id="text_43">
    <!-- V histogram -->
    <g transform="translate(194.255937 396.24) scale(0.12 -0.12)">
     <defs>
      <path id="DejaVuSans-56" d="M 1831 0 
L 50 4666 
L 709 4666 
L 2188 738 
L 3669 4666 
L 4325 4666 
L 2547 0 
L 1831 0 
z
" transform="scale(0.015625)"/>
     </defs>
     <use xlink:href="#DejaVuSans-56"/>
     <use xlink:href="#DejaVuSans-20" transform="translate(68.408203 0)"/>
     <use xlink:href="#DejaVuSans-68" transform="translate(100.195312 0)"/>
     <use xlink:href="#DejaVuSans-69" transform="translate(163.574219 0)"/>
     <use xlink:href="#DejaVuSans-73" transform="translate(191.357422 0)"/>
     <use xlink:href="#DejaVuSans-74" transform="translate(243.457031 0)"/>
     <use xlink:href="#DejaVuSans-6f" transform="translate(282.666016 0)"/>
     <use xlink:href="#DejaVuSans-67" transform="translate(343.847656 0)"/>
     <use xlink:href="#DejaVuSans-72" transform="translate(407.324219 0)"/>
     <use xlink:href="#DejaVuSans-61" transform="translate(448.4375 0)"/>
     <use xlink:href="#DejaVuSans-6d" transform="translate(509.716797 0)"/>
    </g>
   </g>
  </g>
 </g>
 <defs>
  <clipPath id="p1b1ac3364b">
   <rect x="49.75" y="25.44" width="361.865" height="145.88"/>
  </clipPath>
  <clipPath id="pee0887bcf7">
   <rect x="49.75" y="213.84" width="361.865" height="145.88"/>
  </clipPath>
  <clipPath id="pdad406fdd6">
   <rect x="49.75" y="402.24" width="361.865" height="145.88"/>
  </clipPath>
 </defs>
</svg>
