<?xml version="1.0" encoding="utf-8" standalone="no"?>
<!DOCTYPE svg PUBLIC "-//W3C//DTD SVG 1.1//EN"
  "http://www.w3.org/Graphics/SVG/1.1/DTD/svg11.dtd">
<svg xmlns:xlink="http://www.w3.org/1999/xlink" width="432pt" height="576pt" viewBox="0 0 432 576" xmlns="http://www.w3.org/2000/svg" version="1.1">
 <metadata>
  <rdf:RDF xmlns:dc="http://purl.org/dc/elements/1.1/" xmlns:cc="http://creativecommons.org/ns#" xmlns:rdf="http://www.w3.org/1999/02/22-rdf-syntax-ns#">
   <cc:Work>
    <dc:type rdf:resource="http://purl.org/dc/dcmitype/StillImage"/>
    <dc:date>2026-01-22T15:02:17.856108</dc:date>
    <dc:format>image/svg+xml</dc:format>
    <dc:creator>
     <cc:Agent>
      <dc:title>Matplotlib v3.10.8, https://matplotlib.org/</dc:title>
     </cc:Agent>
    </dc:creator>
   </cc:Work>
  </rdf:RDF>
 </metadata>
 <defs>
  <style type="text/css">*{stroke-linejoin: round; stroke-linecap: butt}</style>
 </defs>
 <g id="figure_1">
  <g id="patch_1">
   <path d="M 0 576 
L 432 576 
L 432 0 
L 0 0 
z
" style="fill: #ffffff"/>
  </g>
  <g id="axes_1">
   <g id="patch_2">
    <path d="M 43.36 171.32 
L 411.615 171.32 
L 411.615 25.44 
L 43.36 25.44 
z
" style="fill: #ffffff"/>
   </g>
   <g id="matplotlib.axis_1">
    <g id="xtick_1">
     <g id="line2d_1">
      <defs>
       <path id="mc6139bb9b5" d="M 0 0 
L 0 3.5 
" style="stroke: #000000; stroke-width: 0.8"/>
      </defs>
      <g>
       <use xlink:href="#mc6139bb9b5" x="43.36" y="171.32" style="stroke: #000000; stroke-width: 0.8"/>
      </g>
     </g>
     <g id="text_1">
      <!-- 0 -->
      <g transform="translate(40.17875 185.918438) scale(0.1 -0.1)">
       <defs>
        <path id="DejaVuSans-30" d="M 2034 4250 
Q 1547 4250 1301 3770 
Q 1056 3291 1056 2328 
Q 1056 1369 1301 889 
Q 1547 409 2034 409 
Q 2525 409 2770 889 
Q 3016 1369 3016 2328 
Q 3016 3291 2770 3770 
Q 2525 4250 2034 4250 
z
M 2034 4750 
Q 2819 4750 3233 4129 
Q 3647 3509 3647 2328 
Q 3647 1150 3233 529 
Q 2819 -91 2034 -91 
Q 1250 -91 836 529 
Q 422 1150 422 2328 
Q 422 3509 836 4129 
Q 1250 4750 2034 4750 
z
" transform="scale(0.015625)"/>
       </defs>
       <use xlink:href="#DejaVuSans-30"/>
      </g>
     </g>
    </g>
    <g id="xtick_2">
     <g id="line2d_2">
      <g>
       <use xlink:href="#mc6139bb9b5" x="84.277222" y="171.32" style="stroke: #000000; stroke-width: 0.8"/>
      </g>
     </g>
     <g id="text_2">
      <!-- 20 -->
      <g transform="translate(77.914722 185.918438) scale(0.1 -0.1)">
       <defs>
        <path id="DejaVuSans-32" d="M 1228 531 
L 3431 531 
L 3431 0 
L 469 0 
L 469 531 
Q 828 903 1448 1529 
Q 2069 2156 2228 2338 
Q 2531 2678 2651 2914 
Q 2772 3150 2772 3378 
Q 2772 3750 2511 3984 
Q 2250 4219 1831 4219 
Q 1534 4219 1204 4116 
Q 875 4013 500 3803 
L 500 4441 
Q 881 4594 1212 4672 
Q 1544 4750 1819 4750 
Q 2544 4750 2975 4387 
Q 3406 4025 3406 3419 
Q 3406 3131 3298 2873 
Q 3191 2616 2906 2266 
Q 2828 2175 2409 1742 
Q 1991 1309 1228 531 
z
" transform="scale(0.015625)"/>
       </defs>
       <use xlink:href="#DejaVuSans-32"/>
       <use xlink:href="#DejaVuSans-30" transform="translate(63.623047 0)"/>
      </g>
     </g>
    </g>
    <g id="xtick_3">
     <g id="line2d_3">
      <g>
       <use xlink:href="#mc6139bb9b5" x="125.194444" y="171.32" style="stroke: #000000; stroke-width: 0.8"/>
      </g>
     </g>
     <g id="text_3">
      <!-- 40 -->
      <g transform="translate(118.831944 185.918438) scale(0.1 -0.1)">
       <defs>
        <path id="DejaVuSans-34" d="M 2419 4116 
L 825 1625 
L 2419 1625 
L 2419 4116 
z
M 2253 4666 
L 3047 4666 
L 3047 1625 
L 3713 1625 
L 3713 1100 
L 3047 1100 
L 3047 0 
L 2419 0 
L 2419 1100 
L 313 1100 
L 313 1709 
L 2253 4666 
z
" transform="scale(0.015625)"/>
       </defs>
       <use xlink:href="#DejaVuSans-34"/>
       <use xlink:href="#DejaVuSans-30" transform="translate(63.623047 0)"/>
      </g>
     </g>
    </g>
    <g id="xtick_4">
     <g id="line2d_4">
      <g>
       <use xlink:href="#mc6139bb9b5" x="166.111667" y="171.32" style="stroke: #000000; stroke-width: 0.8"/>
      </g>
     </g>
     <g id="text_4">
      <!-- 60 -->
      <g transform="translate(159.749167 185.918438) scale(0.1 -0.1)">
       <defs>
        <path id="DejaVuSans-36" d="M 2113 2584 
Q 1688 2584 1439 2293 
Q 1191 2003 1191 1497 
Q 1191 994 1439 701 
Q 1688 409 2113 409 
Q 2538 409 2786 701 
Q 3034 994 3034 1497 
Q 3034 2003 2786 2293 
Q 2538 2584 2113 2584 
z
M 3366 4563 
L 3366 3988 
Q 3128 4100 2886 4159 
Q 2644 4219 2406 4219 
Q 1781 4219 1451 3797 
Q 1122 3375 1075 2522 
Q 1259 2794 1537 2939 
Q 1816 3084 2150 3084 
Q 2853 3084 3261 2657 
Q 3669 2231 3669 1497 
Q 3669 778 3244 343 
Q 2819 -91 2113 -91 
Q 1303 -91 875 529 
Q 447 1150 447 2328 
Q 447 3434 972 4092 
Q 1497 4750 2381 4750 
Q 2619 4750 2861 4703 
Q 3103 4656 3366 4563 
z
" transform="scale(0.015625)"/>
       </defs>
       <use xlink:href="#DejaVuSans-36"/>
       <use xlink:href="#DejaVuSans-30" transform="translate(63.623047 0)"/>
      </g>
     </g>
    </g>
    <g id="xtick_5">
     <g id="line2d_5">
      <g>
       <use xlink:href="#mc6139bb9b5" x="207.028889" y="171.32" style="stroke: #000000; stroke-width: 0.8"/>
      </g>
     </g>
     <g id="text_5">
      <!-- 80 -->
      <g transform="translate(200.666389 185.918438) scale(0.1 -0.1)">
       <defs>
        <path id="DejaVuSans-38" d="M 2034 2216 
Q 1584 2216 1326 1975 
Q 1069 1734 1069 1313 
Q 1069 891 1326 650 
Q 1584 409 2034 409 
Q 2484 409 2743 651 
Q 3003 894 3003 1313 
Q 3003 1734 2745 1975 
Q 2488 2216 2034 2216 
z
M 1403 2484 
Q 997 2584 770 2862 
Q 544 3141 544 3541 
Q 544 4100 942 4425 
Q 1341 4750 2034 4750 
Q 2731 4750 3128 4425 
Q 3525 4100 3525 3541 
Q 3525 3141 3298 2862 
Q 3072 2584 2669 2484 
Q 3125 2378 3379 2068 
Q 3634 1759 3634 1313 
Q 3634 634 3220 271 
Q 2806 -91 2034 -91 
Q 1263 -91 848 271 
Q 434 634 434 1313 
Q 434 1759 690 2068 
Q 947 2378 1403 2484 
z
M 1172 3481 
Q 1172 3119 1398 2916 
Q 1625 2713 2034 2713 
Q 2441 2713 2670 2916 
Q 2900 3119 2900 3481 
Q 2900 3844 2670 4047 
Q 2441 4250 2034 4250 
Q 1625 4250 1398 4047 
Q 1172 3844 1172 3481 
z
" transform="scale(0.015625)"/>
       </defs>
       <use xlink:href="#DejaVuSans-38"/>
       <use xlink:href="#DejaVuSans-30" transform="translate(63.623047 0)"/>
      </g>
     </g>
    </g>
    <g id="xtick_6">
     <g id="line2d_6">
      <g>
       <use xlink:href="#mc6139bb9b5" x="247.946111" y="171.32" style="stroke: #000000; stroke-width: 0.8"/>
      </g>
     </g>
     <g id="text_6">
      <!-- 100 -->
      <g transform="translate(238.402361 185.918438) scale(0.1 -0.1)">
       <defs>
        <path id="DejaVuSans-31" d="M 794 531 
L 1825 531 
L 1825 4091 
L 703 3866 
L 703 4441 
L 1819 4666 
L 2450 4666 
L 2450 531 
L 3481 531 
L 3481 0 
L 794 0 
L 794 531 
z
" transform="scale(0.015625)"/>
       </defs>
       <use xlink:href="#DejaVuSans-31"/>
       <use xlink:href="#DejaVuSans-30" transform="translate(63.623047 0)"/>
       <use xlink:href="#DejaVuSans-30" transform="translate(127.246094 0)"/>
      </g>
     </g>
    </g>
    <g id="xtick_7">
     <g id="line2d_7">
      <g>
       <use xlink:href="#mc6139bb9b5" x="288.863333" y="171.32" style="stroke: #000000; stroke-width: 0.8"/>
      </g>
     </g>
     <g id="text_7">
      <!-- 120 -->
      <g transform="translate(279.319583 185.918438) scale(0.1 -0.1)">
       <use xlink:href="#DejaVuSans-31"/>
       <use xlink:href="#DejaVuSans-32" transform="translate(63.623047 0)"/>
       <use xlink:href="#DejaVuSans-30" transform="translate(127.246094 0)"/>
      </g>
     </g>
    </g>
    <g id="xtick_8">
     <g id="line2d_8">
      <g>
       <use xlink:href="#mc6139bb9b5" x="329.780556" y="171.32" style="stroke: #000000; stroke-width: 0.8"/>
      </g>
     </g>
     <g id="text_8">
      <!-- 140 -->
      <g transform="translate(320.236806 185.918438) scale(0.1 -0.1)">
       <use xlink:href="#DejaVuSans-31"/>
       <use xlink:href="#DejaVuSans-34" transform="translate(63.623047 0)"/>
       <use xlink:href="#DejaVuSans-30" transform="translate(127.246094 0)"/>
      </g>
     </g>
    </g>
    <g id="xtick_9">
     <g id="line2d_9">
      <g>
       <use xlink:href="#mc6139bb9b5" x="370.697778" y="171.32" style="stroke: #000000; stroke-width: 0.8"/>
      </g>
     </g>
     <g id="text_9">
      <!-- 160 -->
      <g transform="translate(361.154028 185.918438) scale(0.1 -0.1)">
       <use xlink:href="#DejaVuSans-31"/>
       <use xlink:href="#DejaVuSans-36" transform="translate(63.623047 0)"/>
       <use xlink:href="#DejaVuSans-30" transform="translate(127.246094 0)"/>
      </g>
     </g>
    </g>
    <g id="xtick_10">
     <g id="line2d_10">
      <g>
       <use xlink:href="#mc6139bb9b5" x="411.615" y="171.32" style="stroke: #000000; stroke-width: 0.8"/>
      </g>
     </g>
     <g id="text_10">
      <!-- 180 -->
      <g transform="translate(402.07125 185.918438) scale(0.1 -0.1)">
       <use xlink:href="#DejaVuSans-31"/>
       <use xlink:href="#DejaVuSans-38" transform="translate(63.623047 0)"/>
       <use xlink:href="#DejaVuSans-30" transform="translate(127.246094 0)"/>
      </g>
     </g>
    </g>
   </g>
   <g id="matplotlib.axis_2">
    <g id="ytick_1">
     <g id="line2d_11">
      <defs>
       <path id="m7c797deed9" d="M 0 0 
L -3.5 0 
" style="stroke: #000000; stroke-width: 0.8"/>
      </defs>
      <g>
       <use xlink:href="#m7c797deed9" x="43.36" y="164.689091" style="stroke: #000000; stroke-width: 0.8"/>
      </g>
     </g>
     <g id="text_11">
      <!-- 0 -->
      <g transform="translate(29.9975 168.48831) scale(0.1 -0.1)">
       <use xlink:href="#DejaVuSans-30"/>
      </g>
     </g>
    </g>
    <g id="ytick_2">
     <g id="line2d_12">
      <g>
       <use xlink:href="#m7c797deed9" x="43.36" y="137.474196" style="stroke: #000000; stroke-width: 0.8"/>
      </g>
     </g>
     <g id="text_12">
      <!-- 1000 -->
      <g transform="translate(10.91 141.273415) scale(0.1 -0.1)">
       <use xlink:href="#DejaVuSans-31"/>
       <use xlink:href="#DejaVuSans-30" transform="translate(63.623047 0)"/>
       <use xlink:href="#DejaVuSans-30" transform="translate(127.246094 0)"/>
       <use xlink:href="#DejaVuSans-30" transform="translate(190.869141 0)"/>
      </g>
     </g>
    </g>
    <g id="ytick_3">
     <g id="line2d_13">
      <g>
       <use xlink:href="#m7c797deed9" x="43.36" y="110.259302" style="stroke: #000000; stroke-width: 0.8"/>
      </g>
     </g>
     <g id="text_13">
      <!-- 2000 -->
      <g transform="translate(10.91 114.05852) scale(0.1 -0.1)">
       <use xlink:href="#DejaVuSans-32"/>
       <use xlink:href="#DejaVuSans-30" transform="translate(63.623047 0)"/>
       <use xlink:href="#DejaVuSans-30" transform="translate(127.246094 0)"/>
       <use xlink:href="#DejaVuSans-30" transform="translate(190.869141 0)"/>
      </g>
     </g>
    </g>
    <g id="ytick_4">
     <g id="line2d_14">
      <g>
       <use xlink:href="#m7c797deed9" x="43.36" y="83.044407" style="stroke: #000000; stroke-width: 0.8"/>
      </g>
     </g>
     <g id="text_14">
      <!-- 3000 -->
      <g transform="translate(10.91 86.843626) scale(0.1 -0.1)">
       <defs>
        <path id="DejaVuSans-33" d="M 2597 2516 
Q 3050 2419 3304 2112 
Q 3559 1806 3559 1356 
Q 3559 666 3084 287 
Q 2609 -91 1734 -91 
Q 1441 -91 1130 -33 
Q 819 25 488 141 
L 488 750 
Q 750 597 1062 519 
Q 1375 441 1716 441 
Q 2309 441 2620 675 
Q 2931 909 2931 1356 
Q 2931 1769 2642 2001 
Q 2353 2234 1838 2234 
L 1294 2234 
L 1294 2753 
L 1863 2753 
Q 2328 2753 2575 2939 
Q 2822 3125 2822 3475 
Q 2822 3834 2567 4026 
Q 2313 4219 1838 4219 
Q 1578 4219 1281 4162 
Q 984 4106 628 3988 
L 628 4550 
Q 988 4650 1302 4700 
Q 1616 4750 1894 4750 
Q 2613 4750 3031 4423 
Q 3450 4097 3450 3541 
Q 3450 3153 3228 2886 
Q 3006 2619 2597 2516 
z
" transform="scale(0.015625)"/>
       </defs>
       <use xlink:href="#DejaVuSans-33"/>
       <use xlink:href="#DejaVuSans-30" transform="translate(63.623047 0)"/>
       <use xlink:href="#DejaVuSans-30" transform="translate(127.246094 0)"/>
       <use xlink:href="#DejaVuSans-30" transform="translate(190.869141 0)"/>
      </g>
     </g>
    </g>
    <g id="ytick_5">
     <g id="line2d_15">
      <g>
       <use xlink:href="#m7c797deed9" x="43.36" y="55.829512" style="stroke: #000000; stroke-width: 0.8"/>
      </g>
     </g>
     <g id="text_15">
      <!-- 4000 -->
      <g transform="translate(10.91 59.628731) scale(0.1 -0.1)">
       <use xlink:href="#DejaVuSans-34"/>
       <use xlink:href="#DejaVuSans-30" transform="translate(63.623047 0)"/>
       <use xlink:href="#DejaVuSans-30" transform="translate(127.246094 0)"/>
       <use xlink:href="#DejaVuSans-30" transform="translate(190.869141 0)"/>
      </g>
     </g>
    </g>
    <g id="ytick_6">
     <g id="line2d_16">
      <g>
       <use xlink:href="#m7c797deed9" x="43.36" y="28.614617" style="stroke: #000000; stroke-width: 0.8"/>
      </g>
     </g>
     <g id="text_16">
      <!-- 5000 -->
      <g transform="translate(10.91 32.413836) scale(0.1 -0.1)">
       <defs>
        <path id="DejaVuSans-35" d="M 691 4666 
L 3169 4666 
L 3169 4134 
L 1269 4134 
L 1269 2991 
Q 1406 3038 1543 3061 
Q 1681 3084 1819 3084 
Q 2600 3084 3056 2656 
Q 3513 2228 3513 1497 
Q 3513 744 3044 326 
Q 2575 -91 1722 -91 
Q 1428 -91 1123 -41 
Q 819 9 494 109 
L 494 744 
Q 775 591 1075 516 
Q 1375 441 1709 441 
Q 2250 441 2565 725 
Q 2881 1009 2881 1497 
Q 2881 1984 2565 2268 
Q 2250 2553 1709 2553 
Q 1456 2553 1204 2497 
Q 953 2441 691 2322 
L 691 4666 
z
" transform="scale(0.015625)"/>
       </defs>
       <use xlink:href="#DejaVuSans-35"/>
       <use xlink:href="#DejaVuSans-30" transform="translate(63.623047 0)"/>
       <use xlink:href="#DejaVuSans-30" transform="translate(127.246094 0)"/>
       <use xlink:href="#DejaVuSans-30" transform="translate(190.869141 0)"/>
      </g>
     </g>
    </g>
   </g>
   <g id="line2d_17">
    <path d="M 43.36 32.070909 
L 45.405861 138.535577 
L 47.451722 149.775329 
L 49.497583 152.986686 
L 51.543444 156.470193 
L 53.589306 149.285461 
L 55.635167 149.39432 
L 57.681028 158.674599 
L 59.726889 150.945569 
L 61.77275 157.259425 
L 63.818611 157.722078 
L 65.864472 143.543118 
L 67.910333 154.864514 
L 69.956194 141.039347 
L 72.002056 152.632893 
L 74.047917 145.747524 
L 76.093778 147.924716 
L 78.139639 147.325988 
L 80.1855 153.558199 
L 82.231361 151.762016 
L 84.277222 143.869696 
L 86.323083 147.843071 
L 88.368944 150.129122 
L 90.414806 157.23221 
L 92.460667 152.224669 
L 94.506528 159.62712 
L 96.552389 158.239161 
L 98.59825 163.818214 
L 100.644111 163.68214 
L 102.689972 163.872644 
L 104.735833 151.544297 
L 106.781694 164.689091 
L 108.827556 162.702404 
L 110.873417 163.491636 
L 112.919278 161.423304 
L 114.965139 156.524623 
L 117.011 161.396089 
L 119.056861 162.892908 
L 121.102722 160.851791 
L 123.148583 162.811263 
L 125.194444 163.273916 
L 127.240306 164.335297 
L 129.286167 160.470782 
L 131.332028 160.144203 
L 133.377889 164.580231 
L 135.42375 161.613808 
L 137.469611 160.933435 
L 139.515472 164.580231 
L 141.561333 160.198633 
L 143.607194 164.362512 
L 145.653056 160.688501 
L 147.698917 161.396089 
L 149.744778 162.23975 
L 151.790639 163.654925 
L 153.8365 162.511899 
L 155.882361 162.45747 
L 157.928222 159.980914 
L 159.974083 162.729618 
L 162.019944 164.117578 
L 164.065806 164.090363 
L 166.111667 157.613218 
L 168.157528 164.280867 
L 170.203389 164.090363 
L 172.24925 162.539114 
L 174.295111 164.280867 
L 176.340972 163.056197 
L 178.386833 161.178369 
L 180.432694 163.845429 
L 182.478556 162.375825 
L 184.524417 163.763784 
L 186.570278 162.484684 
L 188.616139 163.818214 
L 190.662 164.199223 
L 192.707861 162.647974 
L 194.753722 162.920123 
L 196.799583 159.218897 
L 198.845444 163.954289 
L 200.891306 163.845429 
L 202.937167 164.335297 
L 204.983028 163.818214 
L 207.028889 160.307493 
L 209.07475 164.525802 
L 211.120611 163.899859 
L 213.166472 162.838478 
L 215.212333 162.756833 
L 217.258194 163.709355 
L 219.304056 163.981504 
L 221.349917 162.511899 
L 223.395778 164.117578 
L 225.441639 164.199223 
L 227.4875 160.062559 
L 229.533361 163.927074 
L 231.579222 163.954289 
L 233.625083 163.491636 
L 235.670944 163.328346 
L 237.716806 161.232799 
L 239.762667 160.361923 
L 241.808528 163.51885 
L 243.854389 160.579642 
L 245.90025 161.613808 
L 247.946111 160.280278 
L 249.991972 154.56515 
L 252.037833 153.367695 
L 254.083694 135.433079 
L 256.129556 142.454522 
L 258.175417 139.460884 
L 260.221278 141.71972 
L 262.267139 141.447571 
L 264.313 146.210177 
L 266.358861 137.637486 
L 268.404722 142.617811 
L 270.450583 147.081054 
L 272.496444 148.142435 
L 274.542306 153.095546 
L 276.588167 151.299363 
L 278.634028 155.408812 
L 280.679889 148.332939 
L 282.72575 157.912582 
L 284.771611 156.796771 
L 286.817472 159.246112 
L 288.863333 147.053839 
L 290.909194 161.504948 
L 292.955056 159.110037 
L 295.000917 161.504948 
L 297.046778 159.84484 
L 299.092639 152.251884 
L 301.1385 157.939797 
L 303.184361 161.749882 
L 305.230222 159.953699 
L 307.276083 160.443567 
L 309.321944 159.73598 
L 311.367806 161.913172 
L 313.413667 159.110037 
L 315.459528 158.783459 
L 317.505389 161.314444 
L 319.55125 159.354972 
L 321.597111 160.552427 
L 323.642972 162.185321 
L 325.688833 160.634072 
L 327.734694 162.049246 
L 329.780556 156.660697 
L 331.826417 160.116989 
L 333.872278 161.368874 
L 335.918139 161.314444 
L 337.964 161.641023 
L 340.009861 158.783459 
L 342.055722 159.518261 
L 344.101583 160.525212 
L 346.147444 160.606857 
L 348.193306 161.368874 
L 350.239167 159.218897 
L 352.285028 161.668238 
L 354.330889 160.497997 
L 356.37675 160.361923 
L 358.422611 160.525212 
L 360.468472 159.218897 
L 362.514333 154.401861 
L 364.560194 159.028393 
L 366.606056 158.075871 
L 368.651917 156.660697 
L 370.697778 154.429076 
L 372.743639 157.368284 
L 376.835361 154.075282 
L 380.927083 149.094956 
L 382.972944 152.959471 
L 385.018806 149.203816 
L 389.110528 139.134305 
L 391.156389 128.955934 
L 393.20225 133.010953 
L 395.248111 133.664111 
L 397.293972 134.507773 
L 399.339833 132.71159 
L 401.385694 127.459115 
L 403.431556 121.798417 
L 405.477417 111.266253 
L 407.523278 112.382063 
L 409.569139 109.715004 
L 409.569139 109.715004 
" clip-path="url(#p922194b9af)" style="fill: none; stroke: #ff0000; stroke-width: 1.5; stroke-linecap: square"/>
   </g>
   <g id="patch_3">
    <path d="M 43.36 171.32 
L 43.36 25.44 
" style="fill: none; stroke: #000000; stroke-width: 0.8; stroke-linejoin: miter; stroke-linecap: square"/>
   </g>
   <g id="patch_4">
    <path d="M 411.615 171.32 
L 411.615 25.44 
" style="fill: none; stroke: #000000; stroke-width: 0.8; stroke-linejoin: miter; stroke-linecap: square"/>
   </g>
   <g id="patch_5">
    <path d="M 43.36 171.32 
L 411.615 171.32 
" style="fill: none; stroke: #000000; stroke-width: 0.8; stroke-linejoin: miter; stroke-linecap: square"/>
   </g>
   <g id="patch_6">
    <path d="M 43.36 25.44 
L 411.615 25.44 
" style="fill: none; stroke: #000000; stroke-width: 0.8; stroke-linejoin: miter; stroke-linecap: square"/>
   </g>
   <g id="text_17">
    <!-- H histogram (bbox) -->
    <g transform="translate(169.41125 19.44) scale(0.12 -0.12)">
     <defs>
      <path id="DejaVuSans-48" d="M 628 4666 
L 1259 4666 
L 1259 2753 
L 3553 2753 
L 3553 4666 
L 4184 4666 
L 4184 0 
L 3553 0 
L 3553 2222 
L 1259 2222 
L 1259 0 
L 628 0 
L 628 4666 
z
" transform="scale(0.015625)"/>
      <path id="DejaVuSans-20" transform="scale(0.015625)"/>
      <path id="DejaVuSans-68" d="M 3513 2113 
L 3513 0 
L 2938 0 
L 2938 2094 
Q 2938 2591 2744 2837 
Q 2550 3084 2163 3084 
Q 1697 3084 1428 2787 
Q 1159 2491 1159 1978 
L 1159 0 
L 581 0 
L 581 4863 
L 1159 4863 
L 1159 2956 
Q 1366 3272 1645 3428 
Q 1925 3584 2291 3584 
Q 2894 3584 3203 3211 
Q 3513 2838 3513 2113 
z
" transform="scale(0.015625)"/>
      <path id="DejaVuSans-69" d="M 603 3500 
L 1178 3500 
L 1178 0 
L 603 0 
L 603 3500 
z
M 603 4863 
L 1178 4863 
L 1178 4134 
L 603 4134 
L 603 4863 
z
" transform="scale(0.015625)"/>
      <path id="DejaVuSans-73" d="M 2834 3397 
L 2834 2853 
Q 2591 2978 2328 3040 
Q 2066 3103 1784 3103 
Q 1356 3103 1142 2972 
Q 928 2841 928 2578 
Q 928 2378 1081 2264 
Q 1234 2150 1697 2047 
L 1894 2003 
Q 2506 1872 2764 1633 
Q 3022 1394 3022 966 
Q 3022 478 2636 193 
Q 2250 -91 1575 -91 
Q 1294 -91 989 -36 
Q 684 19 347 128 
L 347 722 
Q 666 556 975 473 
Q 1284 391 1588 391 
Q 1994 391 2212 530 
Q 2431 669 2431 922 
Q 2431 1156 2273 1281 
Q 2116 1406 1581 1522 
L 1381 1569 
Q 847 1681 609 1914 
Q 372 2147 372 2553 
Q 372 3047 722 3315 
Q 1072 3584 1716 3584 
Q 2034 3584 2315 3537 
Q 2597 3491 2834 3397 
z
" transform="scale(0.015625)"/>
      <path id="DejaVuSans-74" d="M 1172 4494 
L 1172 3500 
L 2356 3500 
L 2356 3053 
L 1172 3053 
L 1172 1153 
Q 1172 725 1289 603 
Q 1406 481 1766 481 
L 2356 481 
L 2356 0 
L 1766 0 
Q 1100 0 847 248 
Q 594 497 594 1153 
L 594 3053 
L 172 3053 
L 172 3500 
L 594 3500 
L 594 4494 
L 1172 4494 
z
" transform="scale(0.015625)"/>
      <path id="DejaVuSans-6f" d="M 1959 3097 
Q 1497 3097 1228 2736 
Q 959 2375 959 1747 
Q 959 1119 1226 758 
Q 1494 397 1959 397 
Q 2419 397 2687 759 
Q 2956 1122 2956 1747 
Q 2956 2369 2687 2733 
Q 2419 3097 1959 3097 
z
M 1959 3584 
Q 2709 3584 3137 3096 
Q 3566 2609 3566 1747 
Q 3566 888 3137 398 
Q 2709 -91 1959 -91 
Q 1206 -91 779 398 
Q 353 888 353 1747 
Q 353 2609 779 3096 
Q 1206 3584 1959 3584 
z
" transform="scale(0.015625)"/>
      <path id="DejaVuSans-67" d="M 2906 1791 
Q 2906 2416 2648 2759 
Q 2391 3103 1925 3103 
Q 1463 3103 1205 2759 
Q 947 2416 947 1791 
Q 947 1169 1205 825 
Q 1463 481 1925 481 
Q 2391 481 2648 825 
Q 2906 1169 2906 1791 
z
M 3481 434 
Q 3481 -459 3084 -895 
Q 2688 -1331 1869 -1331 
Q 1566 -1331 1297 -1286 
Q 1028 -1241 775 -1147 
L 775 -588 
Q 1028 -725 1275 -790 
Q 1522 -856 1778 -856 
Q 2344 -856 2625 -561 
Q 2906 -266 2906 331 
L 2906 616 
Q 2728 306 2450 153 
Q 2172 0 1784 0 
Q 1141 0 747 490 
Q 353 981 353 1791 
Q 353 2603 747 3093 
Q 1141 3584 1784 3584 
Q 2172 3584 2450 3431 
Q 2728 3278 2906 2969 
L 2906 3500 
L 3481 3500 
L 3481 434 
z
" transform="scale(0.015625)"/>
      <path id="DejaVuSans-72" d="M 2631 2963 
Q 2534 3019 2420 3045 
Q 2306 3072 2169 3072 
Q 1681 3072 1420 2755 
Q 1159 2438 1159 1844 
L 1159 0 
L 581 0 
L 581 3500 
L 1159 3500 
L 1159 2956 
Q 1341 3275 1631 3429 
Q 1922 3584 2338 3584 
Q 2397 3584 2469 3576 
Q 2541 3569 2628 3553 
L 2631 2963 
z
" transform="scale(0.015625)"/>
      <path id="DejaVuSans-61" d="M 2194 1759 
Q 1497 1759 1228 1600 
Q 959 1441 959 1056 
Q 959 750 1161 570 
Q 1363 391 1709 391 
Q 2188 391 2477 730 
Q 2766 1069 2766 1631 
L 2766 1759 
L 2194 1759 
z
M 3341 1997 
L 3341 0 
L 2766 0 
L 2766 531 
Q 2569 213 2275 61 
Q 1981 -91 1556 -91 
Q 1019 -91 701 211 
Q 384 513 384 1019 
Q 384 1609 779 1909 
Q 1175 2209 1959 2209 
L 2766 2209 
L 2766 2266 
Q 2766 2663 2505 2880 
Q 2244 3097 1772 3097 
Q 1472 3097 1187 3025 
Q 903 2953 641 2809 
L 641 3341 
Q 956 3463 1253 3523 
Q 1550 3584 1831 3584 
Q 2591 3584 2966 3190 
Q 3341 2797 3341 1997 
z
" transform="scale(0.015625)"/>
      <path id="DejaVuSans-6d" d="M 3328 2828 
Q 3544 3216 3844 3400 
Q 4144 3584 4550 3584 
Q 5097 3584 5394 3201 
Q 5691 2819 5691 2113 
L 5691 0 
L 5113 0 
L 5113 2094 
Q 5113 2597 4934 2840 
Q 4756 3084 4391 3084 
Q 3944 3084 3684 2787 
Q 3425 2491 3425 1978 
L 3425 0 
L 2847 0 
L 2847 2094 
Q 2847 2600 2669 2842 
Q 2491 3084 2119 3084 
Q 1678 3084 1418 2786 
Q 1159 2488 1159 1978 
L 1159 0 
L 581 0 
L 581 3500 
L 1159 3500 
L 1159 2956 
Q 1356 3278 1631 3431 
Q 1906 3584 2284 3584 
Q 2666 3584 2933 3390 
Q 3200 3197 3328 2828 
z
" transform="scale(0.015625)"/>
      <path id="DejaVuSans-28" d="M 1984 4856 
Q 1566 4138 1362 3434 
Q 1159 2731 1159 2009 
Q 1159 1288 1364 580 
Q 1569 -128 1984 -844 
L 1484 -844 
Q 1016 -109 783 600 
Q 550 1309 550 2009 
Q 550 2706 781 3412 
Q 1013 4119 1484 4856 
L 1984 4856 
z
" transform="scale(0.015625)"/>
      <path id="DejaVuSans-62" d="M 3116 1747 
Q 3116 2381 2855 2742 
Q 2594 3103 2138 3103 
Q 1681 3103 1420 2742 
Q 1159 2381 1159 1747 
Q 1159 1113 1420 752 
Q 1681 391 2138 391 
Q 2594 391 2855 752 
Q 3116 1113 3116 1747 
z
M 1159 2969 
Q 1341 3281 1617 3432 
Q 1894 3584 2278 3584 
Q 2916 3584 3314 3078 
Q 3713 2572 3713 1747 
Q 3713 922 3314 415 
Q 2916 -91 2278 -91 
Q 1894 -91 1617 61 
Q 1341 213 1159 525 
L 1159 0 
L 581 0 
L 581 4863 
L 1159 4863 
L 1159 2969 
z
" transform="scale(0.015625)"/>
      <path id="DejaVuSans-78" d="M 3513 3500 
L 2247 1797 
L 3578 0 
L 2900 0 
L 1881 1375 
L 863 0 
L 184 0 
L 1544 1831 
L 300 3500 
L 978 3500 
L 1906 2253 
L 2834 3500 
L 3513 3500 
z
" transform="scale(0.015625)"/>
      <path id="DejaVuSans-29" d="M 513 4856 
L 1013 4856 
Q 1481 4119 1714 3412 
Q 1947 2706 1947 2009 
Q 1947 1309 1714 600 
Q 1481 -109 1013 -844 
L 513 -844 
Q 928 -128 1133 580 
Q 1338 1288 1338 2009 
Q 1338 2731 1133 3434 
Q 928 4138 513 4856 
z
" transform="scale(0.015625)"/>
     </defs>
     <use xlink:href="#DejaVuSans-48"/>
     <use xlink:href="#DejaVuSans-20" transform="translate(75.195312 0)"/>
     <use xlink:href="#DejaVuSans-68" transform="translate(106.982422 0)"/>
     <use xlink:href="#DejaVuSans-69" transform="translate(170.361328 0)"/>
     <use xlink:href="#DejaVuSans-73" transform="translate(198.144531 0)"/>
     <use xlink:href="#DejaVuSans-74" transform="translate(250.244141 0)"/>
     <use xlink:href="#DejaVuSans-6f" transform="translate(289.453125 0)"/>
     <use xlink:href="#DejaVuSans-67" transform="translate(350.634766 0)"/>
     <use xlink:href="#DejaVuSans-72" transform="translate(414.111328 0)"/>
     <use xlink:href="#DejaVuSans-61" transform="translate(455.224609 0)"/>
     <use xlink:href="#DejaVuSans-6d" transform="translate(516.503906 0)"/>
     <use xlink:href="#DejaVuSans-20" transform="translate(613.916016 0)"/>
     <use xlink:href="#DejaVuSans-28" transform="translate(645.703125 0)"/>
     <use xlink:href="#DejaVuSans-62" transform="translate(684.716797 0)"/>
     <use xlink:href="#DejaVuSans-62" transform="translate(748.193359 0)"/>
     <use xlink:href="#DejaVuSans-6f" transform="translate(811.669922 0)"/>
     <use xlink:href="#DejaVuSans-78" transform="translate(869.726562 0)"/>
     <use xlink:href="#DejaVuSans-29" transform="translate(928.90625 0)"/>
    </g>
   </g>
  </g>
  <g id="axes_2">
   <g id="patch_7">
    <path d="M 43.36 359.72 
L 411.615 359.72 
L 411.615 213.84 
L 43.36 213.84 
z
" style="fill: #ffffff"/>
   </g>
   <g id="matplotlib.axis_3">
    <g id="xtick_11">
     <g id="line2d_18">
      <g>
       <use xlink:href="#mc6139bb9b5" x="43.36" y="359.72" style="stroke: #000000; stroke-width: 0.8"/>
      </g>
     </g>
     <g id="text_18">
      <!-- 0 -->
      <g transform="translate(40.17875 374.318438) scale(0.1 -0.1)">
       <use xlink:href="#DejaVuSans-30"/>
      </g>
     </g>
    </g>
    <g id="xtick_12">
     <g id="line2d_19">
      <g>
       <use xlink:href="#mc6139bb9b5" x="115.566863" y="359.72" style="stroke: #000000; stroke-width: 0.8"/>
      </g>
     </g>
     <g id="text_19">
      <!-- 50 -->
      <g transform="translate(109.204363 374.318438) scale(0.1 -0.1)">
       <use xlink:href="#DejaVuSans-35"/>
       <use xlink:href="#DejaVuSans-30" transform="translate(63.623047 0)"/>
      </g>
     </g>
    </g>
    <g id="xtick_13">
     <g id="line2d_20">
      <g>
       <use xlink:href="#mc6139bb9b5" x="187.773725" y="359.72" style="stroke: #000000; stroke-width: 0.8"/>
      </g>
     </g>
     <g id="text_20">
      <!-- 100 -->
      <g transform="translate(178.229975 374.318438) scale(0.1 -0.1)">
       <use xlink:href="#DejaVuSans-31"/>
       <use xlink:href="#DejaVuSans-30" transform="translate(63.623047 0)"/>
       <use xlink:href="#DejaVuSans-30" transform="translate(127.246094 0)"/>
      </g>
     </g>
    </g>
    <g id="xtick_14">
     <g id="line2d_21">
      <g>
       <use xlink:href="#mc6139bb9b5" x="259.980588" y="359.72" style="stroke: #000000; stroke-width: 0.8"/>
      </g>
     </g>
     <g id="text_21">
      <!-- 150 -->
      <g transform="translate(250.436838 374.318438) scale(0.1 -0.1)">
       <use xlink:href="#DejaVuSans-31"/>
       <use xlink:href="#DejaVuSans-35" transform="translate(63.623047 0)"/>
       <use xlink:href="#DejaVuSans-30" transform="translate(127.246094 0)"/>
      </g>
     </g>
    </g>
    <g id="xtick_15">
     <g id="line2d_22">
      <g>
       <use xlink:href="#mc6139bb9b5" x="332.187451" y="359.72" style="stroke: #000000; stroke-width: 0.8"/>
      </g>
     </g>
     <g id="text_22">
      <!-- 200 -->
      <g transform="translate(322.643701 374.318438) scale(0.1 -0.1)">
       <use xlink:href="#DejaVuSans-32"/>
       <use xlink:href="#DejaVuSans-30" transform="translate(63.623047 0)"/>
       <use xlink:href="#DejaVuSans-30" transform="translate(127.246094 0)"/>
      </g>
     </g>
    </g>
    <g id="xtick_16">
     <g id="line2d_23">
      <g>
       <use xlink:href="#mc6139bb9b5" x="404.394314" y="359.72" style="stroke: #000000; stroke-width: 0.8"/>
      </g>
     </g>
     <g id="text_23">
      <!-- 250 -->
      <g transform="translate(394.850564 374.318438) scale(0.1 -0.1)">
       <use xlink:href="#DejaVuSans-32"/>
       <use xlink:href="#DejaVuSans-35" transform="translate(63.623047 0)"/>
       <use xlink:href="#DejaVuSans-30" transform="translate(127.246094 0)"/>
      </g>
     </g>
    </g>
   </g>
   <g id="matplotlib.axis_4">
    <g id="ytick_7">
     <g id="line2d_24">
      <g>
       <use xlink:href="#m7c797deed9" x="43.36" y="353.235066" style="stroke: #000000; stroke-width: 0.8"/>
      </g>
     </g>
     <g id="text_24">
      <!-- 0 -->
      <g transform="translate(29.9975 357.034285) scale(0.1 -0.1)">
       <use xlink:href="#DejaVuSans-30"/>
      </g>
     </g>
    </g>
    <g id="ytick_8">
     <g id="line2d_25">
      <g>
       <use xlink:href="#m7c797deed9" x="43.36" y="316.741345" style="stroke: #000000; stroke-width: 0.8"/>
      </g>
     </g>
     <g id="text_25">
      <!-- 2000 -->
      <g transform="translate(10.91 320.540564) scale(0.1 -0.1)">
       <use xlink:href="#DejaVuSans-32"/>
       <use xlink:href="#DejaVuSans-30" transform="translate(63.623047 0)"/>
       <use xlink:href="#DejaVuSans-30" transform="translate(127.246094 0)"/>
       <use xlink:href="#DejaVuSans-30" transform="translate(190.869141 0)"/>
      </g>
     </g>
    </g>
    <g id="ytick_9">
     <g id="line2d_26">
      <g>
       <use xlink:href="#m7c797deed9" x="43.36" y="280.247624" style="stroke: #000000; stroke-width: 0.8"/>
      </g>
     </g>
     <g id="text_26">
      <!-- 4000 -->
      <g transform="translate(10.91 284.046843) scale(0.1 -0.1)">
       <use xlink:href="#DejaVuSans-34"/>
       <use xlink:href="#DejaVuSans-30" transform="translate(63.623047 0)"/>
       <use xlink:href="#DejaVuSans-30" transform="translate(127.246094 0)"/>
       <use xlink:href="#DejaVuSans-30" transform="translate(190.869141 0)"/>
      </g>
     </g>
    </g>
    <g id="ytick_10">
     <g id="line2d_27">
      <g>
       <use xlink:href="#m7c797deed9" x="43.36" y="243.753903" style="stroke: #000000; stroke-width: 0.8"/>
      </g>
     </g>
     <g id="text_27">
      <!-- 6000 -->
      <g transform="translate(10.91 247.553122) scale(0.1 -0.1)">
       <use xlink:href="#DejaVuSans-36"/>
       <use xlink:href="#DejaVuSans-30" transform="translate(63.623047 0)"/>
       <use xlink:href="#DejaVuSans-30" transform="translate(127.246094 0)"/>
       <use xlink:href="#DejaVuSans-30" transform="translate(190.869141 0)"/>
      </g>
     </g>
    </g>
   </g>
   <g id="line2d_28">
    <path d="M 43.36 349.020041 
L 44.804137 353.089091 
L 47.692412 351.939539 
L 49.136549 351.75707 
L 50.580686 351.264405 
L 52.024824 350.260828 
L 53.468961 350.352062 
L 54.913098 350.078359 
L 56.357235 349.987125 
L 57.801373 350.041865 
L 59.24551 349.640434 
L 60.689647 349.366731 
L 62.133784 348.928807 
L 63.577922 349.476213 
L 66.466196 348.892313 
L 67.910333 349.20251 
L 69.354471 348.636857 
L 70.798608 348.253673 
L 73.686882 347.998217 
L 75.13102 348.235426 
L 76.575157 348.125945 
L 79.463431 348.928807 
L 80.907569 347.377824 
L 82.351706 347.943476 
L 85.23998 347.542045 
L 86.684118 347.998217 
L 89.572392 346.921652 
L 92.460667 347.067627 
L 93.904804 347.852242 
L 95.348941 346.283012 
L 96.793078 348.089451 
L 98.237216 346.75743 
L 99.681353 346.75743 
L 101.12549 346.337753 
L 102.569627 346.319506 
L 104.013765 346.447234 
L 105.457902 346.045803 
L 106.902039 346.739183 
L 108.346176 346.41074 
L 109.790314 345.297681 
L 111.234451 346.775677 
L 112.678588 346.848665 
L 114.122725 346.739183 
L 115.566863 347.596786 
L 117.011 346.593209 
L 118.455137 346.921652 
L 119.899275 346.574962 
L 121.343412 346.812171 
L 122.787549 346.41074 
L 124.231686 347.925229 
L 125.675824 346.173531 
L 128.564098 347.231849 
L 130.008235 347.140614 
L 131.452373 347.250096 
L 132.89651 346.866911 
L 134.340647 347.469058 
L 135.784784 346.246518 
L 137.228922 347.669773 
L 138.673059 347.158861 
L 140.117196 346.374246 
L 141.561333 347.669773 
L 143.005471 347.304836 
L 144.449608 347.104121 
L 145.893745 346.41074 
L 148.78202 347.268342 
L 151.670294 347.906983 
L 153.114431 348.655104 
L 154.558569 347.140614 
L 156.002706 348.436141 
L 157.446843 349.111275 
L 158.89098 348.399648 
L 163.223392 348.91056 
L 164.667529 349.822903 
L 166.111667 347.359577 
L 167.555804 349.987125 
L 168.999941 349.457966 
L 170.444078 349.877643 
L 171.888216 349.25725 
L 174.77649 349.293744 
L 176.220627 349.877643 
L 177.664765 349.932384 
L 179.108902 349.695175 
L 180.553039 349.585694 
L 181.997176 348.56387 
L 183.441314 348.9653 
L 184.885451 349.622187 
L 186.329588 349.804656 
L 187.773725 349.567447 
L 189.217863 349.932384 
L 190.662 349.056535 
L 192.106137 350.078359 
L 193.550275 349.695175 
L 194.994412 349.786409 
L 196.438549 349.074782 
L 197.882686 349.914137 
L 199.326824 350.224334 
L 200.770961 349.239003 
L 202.215098 350.333815 
L 203.659235 349.731669 
L 206.54751 350.206087 
L 209.435784 350.242581 
L 210.879922 349.877643 
L 212.324059 349.877643 
L 213.768196 350.096606 
L 215.212333 350.060112 
L 216.656471 349.877643 
L 218.100608 350.041865 
L 219.544745 350.005371 
L 220.988882 349.731669 
L 222.43302 349.950631 
L 223.877157 350.388556 
L 225.321294 351.045443 
L 226.765431 349.512706 
L 228.209569 347.085874 
L 229.653706 350.571024 
L 231.097843 349.877643 
L 232.54198 350.242581 
L 233.986118 350.425049 
L 235.430255 350.333815 
L 236.874392 350.041865 
L 238.318529 350.753493 
L 239.762667 350.279074 
L 241.206804 350.242581 
L 242.650941 350.607518 
L 244.095078 350.425049 
L 246.983353 350.808233 
L 248.42749 350.023618 
L 249.871627 350.224334 
L 251.315765 350.735246 
L 252.759902 350.77174 
L 254.204039 350.388556 
L 255.648176 351.11843 
L 257.092314 350.644012 
L 258.536451 350.443296 
L 259.980588 351.081936 
L 261.424725 350.881221 
L 262.868863 351.483367 
L 264.313 349.293744 
L 265.757137 351.446873 
L 270.089549 350.862974 
L 271.533686 351.355639 
L 272.977824 350.352062 
L 274.421961 350.899468 
L 275.866098 351.008949 
L 277.310235 350.82648 
L 278.754373 351.173171 
L 281.642647 350.954208 
L 283.086784 350.899468 
L 284.530922 351.209664 
L 285.975059 351.154924 
L 287.419196 351.46512 
L 288.863333 348.655104 
L 290.307471 351.446873 
L 293.195745 351.246158 
L 294.639882 350.844727 
L 296.08402 351.246158 
L 297.528157 351.392133 
L 298.972294 350.82648 
L 300.416431 351.319145 
L 301.860569 350.680505 
L 303.304706 350.808233 
L 304.748843 351.373886 
L 306.19298 350.169593 
L 307.637118 351.392133 
L 310.525392 350.698752 
L 311.969529 351.611095 
L 314.857804 350.53453 
L 316.301941 351.319145 
L 317.746078 350.808233 
L 319.190216 348.855819 
L 320.634353 351.154924 
L 322.07849 350.607518 
L 323.522627 350.589271 
L 324.966765 350.899468 
L 327.855039 350.917715 
L 329.299176 350.607518 
L 330.743314 351.045443 
L 332.187451 350.224334 
L 333.631588 350.972455 
L 335.075725 351.027196 
L 336.519863 350.680505 
L 337.964 350.023618 
L 339.408137 350.680505 
L 340.852275 350.552777 
L 342.296412 350.935961 
L 343.740549 350.77174 
L 345.184686 350.461543 
L 346.628824 351.154924 
L 348.072961 350.753493 
L 349.517098 351.154924 
L 350.961235 349.950631 
L 352.405373 351.100183 
L 353.84951 350.279074 
L 355.293647 350.370309 
L 356.737784 350.899468 
L 358.181922 350.662258 
L 359.626059 349.567447 
L 361.070196 350.808233 
L 362.514333 350.370309 
L 366.846745 350.206087 
L 368.290882 350.242581 
L 369.73502 350.023618 
L 371.179157 349.384978 
L 372.623294 349.366731 
L 374.067431 349.768162 
L 375.511569 349.530953 
L 376.955706 349.822903 
L 378.399843 349.25725 
L 379.84398 349.640434 
L 381.288118 349.166016 
L 382.732255 349.403225 
L 384.176392 349.457966 
L 385.620529 348.855819 
L 387.064667 349.001794 
L 388.508804 348.91056 
L 389.952941 348.454388 
L 391.397078 348.217179 
L 392.841216 348.290167 
L 394.285353 347.432564 
L 395.72949 347.961723 
L 398.617765 347.523798 
L 400.061902 346.520221 
L 402.950176 345.224694 
L 404.394314 343.56423 
L 405.838451 342.98033 
L 407.282588 338.91128 
L 408.726725 341.757791 
L 410.170863 339.969598 
L 411.615 220.470909 
L 411.615 220.470909 
" clip-path="url(#p62cd8daf6c)" style="fill: none; stroke: #008000; stroke-width: 1.5; stroke-linecap: square"/>
   </g>
   <g id="patch_8">
    <path d="M 43.36 359.72 
L 43.36 213.84 
" style="fill: none; stroke: #000000; stroke-width: 0.8; stroke-linejoin: miter; stroke-linecap: square"/>
   </g>
   <g id="patch_9">
    <path d="M 411.615 359.72 
L 411.615 213.84 
" style="fill: none; stroke: #000000; stroke-width: 0.8; stroke-linejoin: miter; stroke-linecap: square"/>
   </g>
   <g id="patch_10">
    <path d="M 43.36 359.72 
L 411.615 359.72 
" style="fill: none; stroke: #000000; stroke-width: 0.8; stroke-linejoin: miter; stroke-linecap: square"/>
   </g>
   <g id="patch_11">
    <path d="M 43.36 213.84 
L 411.615 213.84 
" style="fill: none; stroke: #000000; stroke-width: 0.8; stroke-linejoin: miter; stroke-linecap: square"/>
   </g>
   <g id="text_28">
    <!-- S histogram (bbox) -->
    <g transform="translate(170.114375 207.84) scale(0.12 -0.12)">
     <defs>
      <path id="DejaVuSans-53" d="M 3425 4513 
L 3425 3897 
Q 3066 4069 2747 4153 
Q 2428 4238 2131 4238 
Q 1616 4238 1336 4038 
Q 1056 3838 1056 3469 
Q 1056 3159 1242 3001 
Q 1428 2844 1947 2747 
L 2328 2669 
Q 3034 2534 3370 2195 
Q 3706 1856 3706 1288 
Q 3706 609 3251 259 
Q 2797 -91 1919 -91 
Q 1588 -91 1214 -16 
Q 841 59 441 206 
L 441 856 
Q 825 641 1194 531 
Q 1563 422 1919 422 
Q 2459 422 2753 634 
Q 3047 847 3047 1241 
Q 3047 1584 2836 1778 
Q 2625 1972 2144 2069 
L 1759 2144 
Q 1053 2284 737 2584 
Q 422 2884 422 3419 
Q 422 4038 858 4394 
Q 1294 4750 2059 4750 
Q 2388 4750 2728 4690 
Q 3069 4631 3425 4513 
z
" transform="scale(0.015625)"/>
     </defs>
     <use xlink:href="#DejaVuSans-53"/>
     <use xlink:href="#DejaVuSans-20" transform="translate(63.476562 0)"/>
     <use xlink:href="#DejaVuSans-68" transform="translate(95.263672 0)"/>
     <use xlink:href="#DejaVuSans-69" transform="translate(158.642578 0)"/>
     <use xlink:href="#DejaVuSans-73" transform="translate(186.425781 0)"/>
     <use xlink:href="#DejaVuSans-74" transform="translate(238.525391 0)"/>
     <use xlink:href="#DejaVuSans-6f" transform="translate(277.734375 0)"/>
     <use xlink:href="#DejaVuSans-67" transform="translate(338.916016 0)"/>
     <use xlink:href="#DejaVuSans-72" transform="translate(402.392578 0)"/>
     <use xlink:href="#DejaVuSans-61" transform="translate(443.505859 0)"/>
     <use xlink:href="#DejaVuSans-6d" transform="translate(504.785156 0)"/>
     <use xlink:href="#DejaVuSans-20" transform="translate(602.197266 0)"/>
     <use xlink:href="#DejaVuSans-28" transform="translate(633.984375 0)"/>
     <use xlink:href="#DejaVuSans-62" transform="translate(672.998047 0)"/>
     <use xlink:href="#DejaVuSans-62" transform="translate(736.474609 0)"/>
     <use xlink:href="#DejaVuSans-6f" transform="translate(799.951172 0)"/>
     <use xlink:href="#DejaVuSans-78" transform="translate(858.007812 0)"/>
     <use xlink:href="#DejaVuSans-29" transform="translate(917.1875 0)"/>
    </g>
   </g>
  </g>
  <g id="axes_3">
   <g id="patch_12">
    <path d="M 43.36 548.12 
L 411.615 548.12 
L 411.615 402.24 
L 43.36 402.24 
z
" style="fill: #ffffff"/>
   </g>
   <g id="matplotlib.axis_5">
    <g id="xtick_17">
     <g id="line2d_29">
      <g>
       <use xlink:href="#mc6139bb9b5" x="43.36" y="548.12" style="stroke: #000000; stroke-width: 0.8"/>
      </g>
     </g>
     <g id="text_29">
      <!-- 0 -->
      <g transform="translate(40.17875 562.718438) scale(0.1 -0.1)">
       <use xlink:href="#DejaVuSans-30"/>
      </g>
     </g>
    </g>
    <g id="xtick_18">
     <g id="line2d_30">
      <g>
       <use xlink:href="#mc6139bb9b5" x="115.566863" y="548.12" style="stroke: #000000; stroke-width: 0.8"/>
      </g>
     </g>
     <g id="text_30">
      <!-- 50 -->
      <g transform="translate(109.204363 562.718438) scale(0.1 -0.1)">
       <use xlink:href="#DejaVuSans-35"/>
       <use xlink:href="#DejaVuSans-30" transform="translate(63.623047 0)"/>
      </g>
     </g>
    </g>
    <g id="xtick_19">
     <g id="line2d_31">
      <g>
       <use xlink:href="#mc6139bb9b5" x="187.773725" y="548.12" style="stroke: #000000; stroke-width: 0.8"/>
      </g>
     </g>
     <g id="text_31">
      <!-- 100 -->
      <g transform="translate(178.229975 562.718438) scale(0.1 -0.1)">
       <use xlink:href="#DejaVuSans-31"/>
       <use xlink:href="#DejaVuSans-30" transform="translate(63.623047 0)"/>
       <use xlink:href="#DejaVuSans-30" transform="translate(127.246094 0)"/>
      </g>
     </g>
    </g>
    <g id="xtick_20">
     <g id="line2d_32">
      <g>
       <use xlink:href="#mc6139bb9b5" x="259.980588" y="548.12" style="stroke: #000000; stroke-width: 0.8"/>
      </g>
     </g>
     <g id="text_32">
      <!-- 150 -->
      <g transform="translate(250.436838 562.718438) scale(0.1 -0.1)">
       <use xlink:href="#DejaVuSans-31"/>
       <use xlink:href="#DejaVuSans-35" transform="translate(63.623047 0)"/>
       <use xlink:href="#DejaVuSans-30" transform="translate(127.246094 0)"/>
      </g>
     </g>
    </g>
    <g id="xtick_21">
     <g id="line2d_33">
      <g>
       <use xlink:href="#mc6139bb9b5" x="332.187451" y="548.12" style="stroke: #000000; stroke-width: 0.8"/>
      </g>
     </g>
     <g id="text_33">
      <!-- 200 -->
      <g transform="translate(322.643701 562.718438) scale(0.1 -0.1)">
       <use xlink:href="#DejaVuSans-32"/>
       <use xlink:href="#DejaVuSans-30" transform="translate(63.623047 0)"/>
       <use xlink:href="#DejaVuSans-30" transform="translate(127.246094 0)"/>
      </g>
     </g>
    </g>
    <g id="xtick_22">
     <g id="line2d_34">
      <g>
       <use xlink:href="#mc6139bb9b5" x="404.394314" y="548.12" style="stroke: #000000; stroke-width: 0.8"/>
      </g>
     </g>
     <g id="text_34">
      <!-- 250 -->
      <g transform="translate(394.850564 562.718438) scale(0.1 -0.1)">
       <use xlink:href="#DejaVuSans-32"/>
       <use xlink:href="#DejaVuSans-35" transform="translate(63.623047 0)"/>
       <use xlink:href="#DejaVuSans-30" transform="translate(127.246094 0)"/>
      </g>
     </g>
    </g>
   </g>
   <g id="matplotlib.axis_6">
    <g id="ytick_11">
     <g id="line2d_35">
      <g>
       <use xlink:href="#m7c797deed9" x="43.36" y="547.420895" style="stroke: #000000; stroke-width: 0.8"/>
      </g>
     </g>
     <g id="text_35">
      <!-- 0 -->
      <g transform="translate(29.9975 551.220113) scale(0.1 -0.1)">
       <use xlink:href="#DejaVuSans-30"/>
      </g>
     </g>
    </g>
    <g id="ytick_12">
     <g id="line2d_36">
      <g>
       <use xlink:href="#m7c797deed9" x="43.36" y="519.17421" style="stroke: #000000; stroke-width: 0.8"/>
      </g>
     </g>
     <g id="text_36">
      <!-- 200 -->
      <g transform="translate(17.2725 522.973429) scale(0.1 -0.1)">
       <use xlink:href="#DejaVuSans-32"/>
       <use xlink:href="#DejaVuSans-30" transform="translate(63.623047 0)"/>
       <use xlink:href="#DejaVuSans-30" transform="translate(127.246094 0)"/>
      </g>
     </g>
    </g>
    <g id="ytick_13">
     <g id="line2d_37">
      <g>
       <use xlink:href="#m7c797deed9" x="43.36" y="490.927526" style="stroke: #000000; stroke-width: 0.8"/>
      </g>
     </g>
     <g id="text_37">
      <!-- 400 -->
      <g transform="translate(17.2725 494.726745) scale(0.1 -0.1)">
       <use xlink:href="#DejaVuSans-34"/>
       <use xlink:href="#DejaVuSans-30" transform="translate(63.623047 0)"/>
       <use xlink:href="#DejaVuSans-30" transform="translate(127.246094 0)"/>
      </g>
     </g>
    </g>
    <g id="ytick_14">
     <g id="line2d_38">
      <g>
       <use xlink:href="#m7c797deed9" x="43.36" y="462.680842" style="stroke: #000000; stroke-width: 0.8"/>
      </g>
     </g>
     <g id="text_38">
      <!-- 600 -->
      <g transform="translate(17.2725 466.480061) scale(0.1 -0.1)">
       <use xlink:href="#DejaVuSans-36"/>
       <use xlink:href="#DejaVuSans-30" transform="translate(63.623047 0)"/>
       <use xlink:href="#DejaVuSans-30" transform="translate(127.246094 0)"/>
      </g>
     </g>
    </g>
    <g id="ytick_15">
     <g id="line2d_39">
      <g>
       <use xlink:href="#m7c797deed9" x="43.36" y="434.434158" style="stroke: #000000; stroke-width: 0.8"/>
      </g>
     </g>
     <g id="text_39">
      <!-- 800 -->
      <g transform="translate(17.2725 438.233377) scale(0.1 -0.1)">
       <use xlink:href="#DejaVuSans-38"/>
       <use xlink:href="#DejaVuSans-30" transform="translate(63.623047 0)"/>
       <use xlink:href="#DejaVuSans-30" transform="translate(127.246094 0)"/>
      </g>
     </g>
    </g>
    <g id="ytick_16">
     <g id="line2d_40">
      <g>
       <use xlink:href="#m7c797deed9" x="43.36" y="406.187474" style="stroke: #000000; stroke-width: 0.8"/>
      </g>
     </g>
     <g id="text_40">
      <!-- 1000 -->
      <g transform="translate(10.91 409.986693) scale(0.1 -0.1)">
       <use xlink:href="#DejaVuSans-31"/>
       <use xlink:href="#DejaVuSans-30" transform="translate(63.623047 0)"/>
       <use xlink:href="#DejaVuSans-30" transform="translate(127.246094 0)"/>
       <use xlink:href="#DejaVuSans-30" transform="translate(190.869141 0)"/>
      </g>
     </g>
    </g>
   </g>
   <g id="line2d_41">
    <path d="M 43.36 541.489091 
L 44.804137 526.235881 
L 46.248275 527.083282 
L 47.692412 516.773242 
L 49.136549 509.429104 
L 50.580686 514.513508 
L 52.024824 516.632009 
L 53.468961 517.338176 
L 54.913098 515.078441 
L 56.357235 519.315444 
L 57.801373 518.185577 
L 59.24551 514.795974 
L 60.689647 517.338176 
L 62.133784 514.231041 
L 63.577922 511.971306 
L 65.022059 516.349542 
L 66.466196 515.925842 
L 67.910333 516.490775 
L 69.354471 518.75051 
L 70.798608 518.75051 
L 72.242745 519.032977 
L 73.686882 516.349542 
L 75.13102 516.632009 
L 76.575157 517.196943 
L 78.019294 518.468043 
L 79.463431 518.468043 
L 80.907569 518.185577 
L 82.351706 516.067075 
L 83.795843 518.609277 
L 85.23998 517.196943 
L 86.684118 516.208309 
L 88.128255 518.044343 
L 89.572392 517.90311 
L 91.016529 515.360908 
L 92.460667 514.937208 
L 93.904804 516.632009 
L 95.348941 520.162844 
L 96.793078 517.055709 
L 98.237216 513.524874 
L 99.681353 516.067075 
L 101.12549 514.795974 
L 102.569627 516.632009 
L 104.013765 513.948574 
L 105.457902 515.360908 
L 106.902039 518.044343 
L 108.346176 514.372274 
L 109.790314 515.360908 
L 111.234451 511.547606 
L 112.678588 521.151478 
L 114.122725 517.620643 
L 115.566863 511.688839 
L 117.011 517.620643 
L 118.455137 515.502142 
L 119.899275 515.502142 
L 121.343412 515.078441 
L 122.787549 515.925842 
L 124.231686 517.055709 
L 125.675824 516.208309 
L 127.119961 517.620643 
L 128.564098 521.433945 
L 130.008235 518.75051 
L 131.452373 517.196943 
L 132.89651 513.101173 
L 134.340647 511.688839 
L 135.784784 516.914476 
L 137.228922 511.971306 
L 138.673059 512.95994 
L 140.117196 512.818707 
L 141.561333 519.032977 
L 143.005471 512.53624 
L 144.449608 513.80734 
L 145.893745 513.948574 
L 147.337882 516.067075 
L 148.78202 512.677473 
L 150.226157 513.101173 
L 151.670294 513.80734 
L 153.114431 511.123906 
L 154.558569 512.677473 
L 156.002706 511.688839 
L 157.446843 514.654741 
L 158.89098 514.513508 
L 160.335118 512.395006 
L 161.779255 510.558972 
L 163.223392 511.688839 
L 164.667529 511.830073 
L 166.111667 512.53624 
L 167.555804 506.886903 
L 168.999941 511.265139 
L 170.444078 508.01677 
L 171.888216 508.864171 
L 173.332353 508.864171 
L 174.77649 507.028136 
L 176.220627 510.841439 
L 177.664765 505.050868 
L 179.108902 502.508667 
L 180.553039 506.321969 
L 181.997176 499.542765 
L 183.441314 500.107699 
L 184.885451 498.412898 
L 186.329588 507.310603 
L 187.773725 496.43563 
L 189.217863 502.508667 
L 190.662 500.955099 
L 192.106137 502.932367 
L 193.550275 503.638534 
L 194.994412 502.2262 
L 196.438549 506.604436 
L 197.882686 502.2262 
L 199.326824 505.474569 
L 200.770961 508.01677 
L 202.215098 509.287871 
L 203.659235 508.864171 
L 205.103373 517.196943 
L 206.54751 510.135272 
L 207.991647 515.360908 
L 209.435784 513.524874 
L 210.879922 515.925842 
L 212.324059 517.338176 
L 213.768196 516.773242 
L 215.212333 512.53624 
L 216.656471 515.925842 
L 218.100608 516.632009 
L 219.544745 516.490775 
L 220.988882 518.468043 
L 223.877157 515.502142 
L 225.321294 518.891744 
L 226.765431 514.937208 
L 228.209569 515.643375 
L 229.653706 515.643375 
L 231.097843 520.162844 
L 232.54198 520.445311 
L 233.986118 519.739144 
L 235.430255 521.575179 
L 236.874392 516.490775 
L 238.318529 517.90311 
L 239.762667 517.338176 
L 241.206804 518.891744 
L 242.650941 521.575179 
L 244.095078 513.524874 
L 245.539216 516.490775 
L 246.983353 512.395006 
L 248.42749 514.231041 
L 249.871627 514.372274 
L 251.315765 515.219675 
L 252.759902 519.456677 
L 255.648176 510.841439 
L 257.092314 510.982672 
L 258.536451 517.196943 
L 259.980588 516.490775 
L 262.868863 511.265139 
L 264.313 511.688839 
L 265.757137 513.948574 
L 267.201275 511.265139 
L 270.089549 510.982672 
L 271.533686 510.558972 
L 272.977824 514.089807 
L 274.421961 516.349542 
L 275.866098 514.937208 
L 277.310235 517.055709 
L 278.754373 506.180736 
L 280.19851 511.830073 
L 281.642647 513.38364 
L 283.086784 508.581704 
L 284.530922 510.841439 
L 285.975059 507.310603 
L 287.419196 507.028136 
L 288.863333 504.909635 
L 290.307471 509.994038 
L 291.751608 509.570338 
L 293.195745 504.062234 
L 294.639882 504.203468 
L 296.08402 510.700205 
L 297.528157 506.745669 
L 298.972294 507.734303 
L 300.416431 505.757036 
L 301.860569 511.123906 
L 303.304706 509.711571 
L 304.748843 505.333335 
L 307.637118 511.971306 
L 309.081255 511.406372 
L 310.525392 512.395006 
L 311.969529 511.406372 
L 313.413667 509.852805 
L 314.857804 509.146638 
L 316.301941 511.688839 
L 317.746078 512.395006 
L 319.190216 510.417738 
L 320.634353 512.53624 
L 322.07849 513.524874 
L 323.522627 512.395006 
L 324.966765 514.089807 
L 326.410902 511.406372 
L 327.855039 510.558972 
L 329.299176 516.773242 
L 330.743314 508.158004 
L 332.187451 512.677473 
L 333.631588 512.95994 
L 335.075725 513.524874 
L 336.519863 511.971306 
L 337.964 508.581704 
L 339.408137 512.395006 
L 340.852275 510.417738 
L 342.296412 509.287871 
L 343.740549 504.344701 
L 345.184686 505.615802 
L 346.628824 506.039502 
L 348.072961 508.158004 
L 349.517098 511.265139 
L 350.961235 508.158004 
L 352.405373 508.722937 
L 353.84951 507.028136 
L 355.293647 510.558972 
L 356.737784 509.570338 
L 358.181922 508.440471 
L 359.626059 512.53624 
L 361.070196 506.039502 
L 362.514333 507.875537 
L 363.958471 506.745669 
L 365.402608 507.310603 
L 366.846745 507.451837 
L 368.290882 509.711571 
L 369.73502 512.395006 
L 371.179157 506.604436 
L 372.623294 509.429104 
L 374.067431 508.299237 
L 375.511569 512.253773 
L 376.955706 514.513508 
L 378.399843 514.089807 
L 379.84398 517.055709 
L 381.288118 519.17421 
L 382.732255 519.597911 
L 384.176392 521.433945 
L 385.620529 519.17421 
L 387.064667 523.128746 
L 388.508804 517.90311 
L 389.952941 523.69368 
L 391.397078 522.987513 
L 392.841216 520.586545 
L 394.285353 520.021611 
L 395.72949 519.597911 
L 397.173627 519.456677 
L 398.617765 516.208309 
L 400.061902 513.948574 
L 401.506039 513.666107 
L 402.950176 521.292712 
L 405.838451 500.390166 
L 407.282588 520.021611 
L 408.726725 490.786293 
L 410.170863 480.052553 
L 411.615 408.870909 
L 411.615 408.870909 
" clip-path="url(#pa82cb009bf)" style="fill: none; stroke: #0000ff; stroke-width: 1.5; stroke-linecap: square"/>
   </g>
   <g id="patch_13">
    <path d="M 43.36 548.12 
L 43.36 402.24 
" style="fill: none; stroke: #000000; stroke-width: 0.8; stroke-linejoin: miter; stroke-linecap: square"/>
   </g>
   <g id="patch_14">
    <path d="M 411.615 548.12 
L 411.615 402.24 
" style="fill: none; stroke: #000000; stroke-width: 0.8; stroke-linejoin: miter; stroke-linecap: square"/>
   </g>
   <g id="patch_15">
    <path d="M 43.36 548.12 
L 411.615 548.12 
" style="fill: none; stroke: #000000; stroke-width: 0.8; stroke-linejoin: miter; stroke-linecap: square"/>
   </g>
   <g id="patch_16">
    <path d="M 43.36 402.24 
L 411.615 402.24 
" style="fill: none; stroke: #000000; stroke-width: 0.8; stroke-linejoin: miter; stroke-linecap: square"/>
   </g>
   <g id="text_41">
    <!-- V histogram (bbox) -->
    <g transform="translate(169.819063 396.24) scale(0.12 -0.12)">
     <defs>
      <path id="DejaVuSans-56" d="M 1831 0 
L 50 4666 
L 709 4666 
L 2188 738 
L 3669 4666 
L 4325 4666 
L 2547 0 
L 1831 0 
z
" transform="scale(0.015625)"/>
     </defs>
     <use xlink:href="#DejaVuSans-56"/>
     <use xlink:href="#DejaVuSans-20" transform="translate(68.408203 0)"/>
     <use xlink:href="#DejaVuSans-68" transform="translate(100.195312 0)"/>
     <use xlink:href="#DejaVuSans-69" transform="translate(163.574219 0)"/>
     <use xlink:href="#DejaVuSans-73" transform="translate(191.357422 0)"/>
     <use xlink:href="#DejaVuSans-74" transform="translate(243.457031 0)"/>
     <use xlink:href="#DejaVuSans-6f" transform="translate(282.666016 0)"/>
     <use xlink:href="#DejaVuSans-67" transform="translate(343.847656 0)"/>
     <use xlink:href="#DejaVuSans-72" transform="translate(407.324219 0)"/>
     <use xlink:href="#DejaVuSans-61" transform="translate(448.4375 0)"/>
     <use xlink:href="#DejaVuSans-6d" transform="translate(509.716797 0)"/>
     <use xlink:href="#DejaVuSans-20" transform="translate(607.128906 0)"/>
     <use xlink:href="#DejaVuSans-28" transform="translate(638.916016 0)"/>
     <use xlink:href="#DejaVuSans-62" transform="translate(677.929688 0)"/>
     <use xlink:href="#DejaVuSans-62" transform="translate(741.40625 0)"/>
     <use xlink:href="#DejaVuSans-6f" transform="translate(804.882812 0)"/>
     <use xlink:href="#DejaVuSans-78" transform="translate(862.939453 0)"/>
     <use xlink:href="#DejaVuSans-29" transform="translate(922.119141 0)"/>
    </g>
   </g>
  </g>
 </g>
 <defs>
  <clipPath id="p922194b9af">
   <rect x="43.36" y="25.44" width="368.255" height="145.88"/>
  </clipPath>
  <clipPath id="p62cd8daf6c">
   <rect x="43.36" y="213.84" width="368.255" height="145.88"/>
  </clipPath>
  <clipPath id="pa82cb009bf">
   <rect x="43.36" y="402.24" width="368.255" height="145.88"/>
  </clipPath>
 </defs>
</svg>
